<svg xmlns="http://www.w3.org/2000/svg" width="95.2" height="47.9" viewBox="0 0 95.2 47.9">
  <defs>
    <style>
      .cls-1 {
        fill: #fff;
        opacity: 0.25;
      }

      .cls-2 {
        fill: #f0eded;
      }
    </style>
  </defs>
  <title>1002</title>
  <g id="Layer_2" data-name="Layer 2">
    <g id="Layer_1-2" data-name="Layer 1">
      <g>
        <polyline class="cls-1" points="0 47.9 0 0 95.2 0 95.2 47.9"/>
        <g>
          <path class="cls-2" d="M73,28.8h-.8c-.1.1-.1.3-.2.5s-.1.5-.1.9a3.1,3.1,0,0,0,.1,1,4.3,4.3,0,0,0,.1.5h.8a.8.8,0,0,0,.2-.5,2.2,2.2,0,0,0,.1-.9v-1C73.1,29.1,73.1,28.9,73,28.8Z"/>
          <path class="cls-2" d="M77.8,31.5c0,.2.1.3.1.5h.4a.5.5,0,0,0,.4-.5c0-.4-.1-.6-.4-.6S77.8,31.1,77.8,31.5Z"/>
          <path class="cls-2" d="M69.5,28.7h-.8c-.1.1-.1.3-.2.5s-.1.5-.1.9a3.1,3.1,0,0,0,.1,1,.8.8,0,0,0,.2.5h.7a.8.8,0,0,0,.2-.5,2.2,2.2,0,0,0,.1-.9v-1C69.6,29,69.6,28.8,69.5,28.7Z"/>
          <path class="cls-2" d="M82.6,41.6h-.1c-.2,0-.4-.2-.5-.5a.5.5,0,0,1,.5-.5H83v1c1.4-5,2.4-16,2.3-25.3-6.8.1-25.8-.4-25.8-.4S58.4,39.6,55.9,46c0,0,14.3.5,26.2-.1l1-4.4Zm-24.2.1h-.5a.6.6,0,0,1-.5-.6c.1-.3.3-.5.6-.4h.5c.2,0,.4.3.4.6A.5.5,0,0,1,58.4,41.7Zm3.2.2H60.5a.6.6,0,0,1-.5-.6c0-.2.3-.4.5-.4h1.1a.4.4,0,0,1,.4.6A.4.4,0,0,1,61.6,41.9Zm3.1.2H63.6a.4.4,0,0,1-.4-.5.5.5,0,0,1,.5-.5h1a.5.5,0,0,1,0,1Zm3.2,0H66.8a.5.5,0,0,1-.5-.5.5.5,0,0,1,.5-.5h1.1c.2,0,.4.3.4.5A.5.5,0,0,1,67.9,42.1Zm3.1,0H69.9c-.2.1-.4-.2-.4-.4s.2-.6.4-.6H71a.5.5,0,0,1,.5.5A.5.5,0,0,1,71,42.1Zm3.2,0H73.1a.5.5,0,0,1,0-1h1c.3-.1.5.2.5.5S74.4,42.1,74.2,42.1Zm3.1-.1h-1a.5.5,0,0,1-.5-.5c-.1-.2.2-.5.4-.5h1.1c.2-.1.5.2.5.4A.6.6,0,0,1,77.3,42Zm3.2-.2H79.4a.5.5,0,0,1-.5-.4.6.6,0,0,1,.5-.6h1c.3-.1.5.1.5.4A.7.7,0,0,1,80.5,41.8Zm-8.4-2.1a10,10,0,0,1-.3-20,10,10,0,0,1,.3,20Z"/>
          <path class="cls-2" d="M76,29.2c0-.4-.1-.5-.4-.6s-.5.2-.5.6,0,.3.1.4l.3.2C75.8,29.8,76,29.6,76,29.2Z"/>
          <path class="cls-2" d="M71.8,20.7a9,9,0,0,0,.3,18,9,9,0,0,0-.3-18Zm-5,11.6h-.9V28.8l-1,.6-.3-.7,1.4-.8h.8Zm3.4-.4a1.3,1.3,0,0,1-1.2.5,1.4,1.4,0,0,1-1.2-.6,4,4,0,0,1-.3-1.7,3.9,3.9,0,0,1,.4-1.7,1.7,1.7,0,0,1,1.2-.5,1.4,1.4,0,0,1,1.2.6,2.9,2.9,0,0,1,.3,1.7A2.9,2.9,0,0,1,70.2,31.9Zm3.5.1a1.3,1.3,0,0,1-1.2.5,1.4,1.4,0,0,1-1.2-.6,4,4,0,0,1-.3-1.7,3.9,3.9,0,0,1,.4-1.7,1.7,1.7,0,0,1,1.2-.5,1.4,1.4,0,0,1,1.2.6,2.9,2.9,0,0,1,.3,1.7A2.9,2.9,0,0,1,73.7,32Zm.9-2.2a1.4,1.4,0,0,1-.2-.6c.1-.2.1-.4.2-.6l.4-.4h1.2l.3.4a1.4,1.4,0,0,1,.2.7,1.4,1.4,0,0,1-.2.6c-.1.1-.2.3-.4.3l-.6.2-.5-.2A.8.8,0,0,1,74.6,29.8ZM79.3,31c0,.1.1.4.1.6a1.4,1.4,0,0,1-.2.6l-.4.4h-.6l-.5-.2a.8.8,0,0,1-.4-.4,1.8,1.8,0,0,1,0-1.2l.4-.4h.6l.6.2C79,30.7,79.2,30.8,79.3,31Zm-3.6,1.8-.6-.4L78.2,28l.5.3Z"/>
        </g>
        <rect class="cls-2" y="45" width="95.2" height="2.83"/>
      </g>
    </g>
  </g>
</svg>
