<svg xmlns="http://www.w3.org/2000/svg" width="95.2" height="31.6" viewBox="0 0 95.2 31.6">
  <defs>
    <style>
      .cls-1, .cls-2 {
        fill: #fff;
      }

      .cls-2, .cls-3, .cls-4 {
        stroke: #c1574c;
        stroke-miterlimit: 10;
      }

      .cls-3, .cls-4 {
        fill: none;
        stroke-linecap: round;
      }

      .cls-4 {
        stroke-dasharray: 1.06 2.12;
      }

      .cls-5 {
        fill: #c1574c;
      }
    </style>
  </defs>
  <title>100</title>
  <g id="Layer_2" data-name="Layer 2">
    <g id="Layer_1-2" data-name="Layer 1">
      <g>
        <g>
          <path class="cls-1" d="M20.4,29.4c.1-.1.1-.3.2-.4v-.2c.1-.2.1-.5.2-.7a2.9,2.9,0,0,0,.2-.9.4.4,0,0,0,.1-.3l.3-.5H19.8l-.2.5a.4.4,0,0,0-.1.3,1.4,1.4,0,0,0-.2.6l-.2.5v.3c-.1.3-.1.6-.2.9a6.4,6.4,0,0,0-.2.7h1.5v-.2C20.3,29.9,20.3,29.7,20.4,29.4Z"/>
          <path class="cls-1" d="M49.3,29.5a.1.1,0,0,0-.1-.1l-.2-.3-.2-.3-.4-.5a.2.2,0,0,1-.2-.2l-.3-.2-.2-.3-.3-.2-.5-.5-.4-.2-.4-.3H44.5l.7.5.8.6h.2c.2.2.4.3.5.5l.6.6.8.7.6.7h.1c0,.1.1.1.1.2h1a2.1,2.1,0,0,0-.4-.6Z"/>
          <path class="cls-1" d="M46.2,29.6h0l-.3-.3-.4-.3c-.1,0-.1-.1-.2-.2l-.2-.2-.8-.4-.6-.3-.6-.3a.1.1,0,0,1-.1-.1l-1.2-.2H38.3l-.9.2-.8.2-.8.2-.4.2a1.3,1.3,0,0,0-.8.3.1.1,0,0,0-.1.1l-.8.4h-.1c0,.1,0,.1-.1.2h-.2l-.4.4-.3.4h-.1l-.2.3h1.2l.3-.3a1.8,1.8,0,0,1,.7-.5l.5-.3.6-.3h.3l.7-.3h.7l.6-.2h.8c.2-.1.4,0,.6,0H41c.1,0,.2-.1.3,0h.5l1.1.3h.2a.5.5,0,0,0,.4.2l.6.5.5.3.5.4h.2l.2.3h1.4l-.2-.2Z"/>
          <path class="cls-1" d="M42.7,29.9l-.4-.2h-.5l-.9-.2H39l-.7.2h-1l-.7.3a1.5,1.5,0,0,0-.7.3h1.8l.6-.2h.2L39,30h1.2c.1-.1.3,0,.4,0h.9l.5.2h1.5l-.3-.2Z"/>
          <path class="cls-1" d="M31.3,29.4a2.3,2.3,0,0,1,.7-.7h.1l.3-.4.4-.2h0l.4-.3.6-.4.7-.3.8-.4H33.4l-.8.5-.4.3-.4.2a.8.8,0,0,1-.4.4h-.1l-.2.3-.4.5a1.5,1.5,0,0,0-.5.6l-.4.5-.3.6h1.2c0-.1.1-.1.1-.2A2.2,2.2,0,0,0,31.3,29.4Z"/>
          <path class="cls-1" d="M54.3,29.6a.3.3,0,0,1-.1-.2,2.5,2.5,0,0,1-.4-.7l-.3-.4h-.1l-.3-.6-.4-.6-.3-.4c0-.1,0-.1-.1-.1H51l.3.3.2.3c.1.2.1.3.2.4l.3.4.4.6.4.5.3.6.3.5v.2h1.3l-.2-.3C54.5,29.9,54.4,29.8,54.3,29.6Z"/>
          <path class="cls-1" d="M52,29.8a4.3,4.3,0,0,0-.4-.7l-.3-.4a.4.4,0,0,1-.1-.3l-.4-.6c-.1-.1-.3-.2-.4-.4l-.3-.4-.3-.5a.1.1,0,0,1-.1-.1H48.1l.3.4h.2l.5.5.2.3a1.2,1.2,0,0,1,.5.5l.4.5.5.7a.5.5,0,0,1,.2.4l.2.2a.5.5,0,0,1,.2.4h1c0-.2-.1-.3-.2-.5Z"/>
          <path class="cls-1" d="M28.3,29.8l.4-.6.3-.5a1.8,1.8,0,0,0,.5-.7l.3-.3.3-.3.3-.3.3-.4c.1,0,.1-.1.2-.2H29.6a.1.1,0,0,1-.1.1l-.4.3-.4.5c-.1.1-.2.1-.2.2l-.5.6-.2.3c-.1.1-.1.2-.2.4s-.1.2-.1.3l-.3.6c0,.2-.1.5-.1.7H28v-.2C28.2,30.1,28.2,29.9,28.3,29.8Z"/>
          <path class="cls-1" d="M23.4,28.9l.2-.3.3-.7c0-.2.1-.3.2-.5s.1-.4.2-.6.1-.3.2-.4H23.2a.8.8,0,0,0-.2.4c-.2.2-.2.5-.3.7a.7.7,0,0,0-.1.5,1.4,1.4,0,0,0-.2.6,6.9,6.9,0,0,0-.4,1,.4.4,0,0,1-.1.3c0,.1-.1.2-.1.4h1.3c.1-.4.1-.8.2-1.2A.4.4,0,0,0,23.4,28.9Z"/>
          <path class="cls-1" d="M26.2,29a.4.4,0,0,0,.1-.3c.1-.1.1-.3.2-.4l.3-.8.4-.6.3-.4H26.2l-.4.7a.8.8,0,0,0-.2.5.8.8,0,0,0-.2.5l-.2.4a1.4,1.4,0,0,1-.2.6.8.8,0,0,1-.1.4,4.3,4.3,0,0,0-.1.5.4.4,0,0,0-.1.3h1.1a3.6,3.6,0,0,0,.2-1Z"/>
          <path class="cls-1" d="M17.4,28.6c.1-.4.1-.7.2-1.1h0a1.4,1.4,0,0,0,.2-.6c.1-.2.2-.3.2-.5H16.5c0,.1-.1.2-.1.3l-.3,1V28c-.1,0-.1.1-.1.2a2.9,2.9,0,0,0-.2.9h0v.4a2.8,2.8,0,0,0-.1.9H17a7.5,7.5,0,0,1,.4-1.6Z"/>
          <path class="cls-1" d="M52,29.8a4.3,4.3,0,0,0-.4-.7l-.3-.4a.4.4,0,0,1-.1-.3l-.4-.6c-.1-.1-.3-.2-.4-.4l-.3-.4-.3-.5H48.1l.3.4h.2l.5.5.2.3a1.2,1.2,0,0,1,.5.5l.4.5.5.7a.5.5,0,0,1,.2.4l.2.2a.5.5,0,0,1,.2.4h1l-.2-.5Z"/>
          <path class="cls-1" d="M28.3,29.8l.4-.6.3-.5a1.8,1.8,0,0,0,.5-.7l.3-.3.3-.3.3-.3.3-.4c.1,0,.1-.1.2-.2H29.6a.1.1,0,0,1-.1.1l-.4.3-.4.5c-.1.1-.2.1-.2.2l-.5.6-.2.3c-.1.1-.1.2-.2.4s-.1.2-.1.3l-.3.6c0,.2-.1.5-.1.7H28c0-.1,0-.2.1-.2S28.2,29.9,28.3,29.8Z"/>
          <path class="cls-1" d="M13.8,26.4H0v4H13.4c0-.2.1-.4.1-.6v-.6a.7.7,0,0,1,.2-.6v-.2a.6.6,0,0,0,.1-.4c.1-.3.1-.6.2-.8s.1-.5.1-.8Z"/>
          <path class="cls-1" d="M49.3,29.5a.1.1,0,0,0-.1-.1l-.2-.3-.2-.3-.4-.5a.2.2,0,0,1-.2-.2l-.3-.2-.2-.3-.3-.2-.5-.5-.4-.2-.4-.3H44.5l.7.5.8.6h.2c.2.2.4.3.5.5l.6.6.8.7.6.7h.1c0,.1.1.1.1.2h1a2.1,2.1,0,0,0-.4-.6Z"/>
          <path class="cls-1" d="M31.3,29.4a2.3,2.3,0,0,1,.7-.7h.1l.3-.4.4-.2h0l.4-.3.6-.4.7-.3.8-.4H33.4l-.8.5-.4.3-.4.2a.8.8,0,0,1-.4.4h-.1l-.2.3-.4.5a1.5,1.5,0,0,0-.5.6l-.4.5-.3.6h1.2c0-.1.1-.1.1-.2A2.2,2.2,0,0,0,31.3,29.4Z"/>
          <path class="cls-1" d="M46.2,29.6h0l-.3-.3-.4-.3c-.1,0-.1-.1-.2-.2l-.2-.2-.8-.4-.6-.3-.6-.3a.1.1,0,0,1-.1-.1l-1.2-.2H38.3l-.9.2-.8.2-.8.2-.4.2a1.3,1.3,0,0,0-.8.3.1.1,0,0,0-.1.1l-.8.4h-.1c0,.1,0,.1-.1.2h-.2l-.4.4-.3.4h-.1l-.2.3h1.2l.3-.3a1.8,1.8,0,0,1,.7-.5l.5-.3.6-.3h.3l.7-.3h.7l.6-.2h.8c.2-.1.4,0,.6,0H41c.1,0,.2-.1.3,0h.5l1.1.3h.2a.5.5,0,0,0,.4.2l.6.5.5.3.5.4h.2l.2.3h1.4l-.2-.2Z"/>
          <path class="cls-1" d="M17.4,28.6c.1-.4.1-.7.2-1.1h0a1.4,1.4,0,0,0,.2-.6c.1-.2.2-.3.2-.5H16.5c0,.1-.1.2-.1.3l-.3,1V28c-.1,0-.1.1-.1.2a2.9,2.9,0,0,0-.2.9h0v.4a2.8,2.8,0,0,0-.1.9H17a7.5,7.5,0,0,1,.4-1.6Z"/>
          <path class="cls-1" d="M20.4,29.4c.1-.1.1-.3.2-.4v-.2c.1-.2.1-.5.2-.7a2.9,2.9,0,0,0,.2-.9.4.4,0,0,0,.1-.3l.3-.5H19.8l-.2.5a.4.4,0,0,0-.1.3,1.4,1.4,0,0,0-.2.6l-.2.5v.3c-.1.3-.1.6-.2.9a6.4,6.4,0,0,0-.2.7h1.5v-.2C20.3,29.9,20.3,29.7,20.4,29.4Z"/>
          <path class="cls-1" d="M54.3,29.6a.3.3,0,0,1-.1-.2,2.5,2.5,0,0,1-.4-.7l-.3-.4h-.1l-.3-.6-.4-.6-.3-.4c0-.1,0-.1-.1-.1H51l.3.3.2.3c.1.2.1.3.2.4l.3.4.4.6.4.5.3.6.3.5v.2h1.2a.4.4,0,0,0-.1-.3C54.5,29.9,54.4,29.8,54.3,29.6Z"/>
          <path class="cls-1" d="M23.4,28.9l.2-.3.3-.7c0-.2.1-.3.2-.5s.1-.4.2-.6.1-.3.2-.4H23.1c0,.1-.1.3-.1.4s-.2.5-.3.7a.7.7,0,0,0-.1.5,1.4,1.4,0,0,0-.2.6,6.9,6.9,0,0,0-.4,1,.4.4,0,0,1-.1.3c0,.1-.1.2-.1.4h1.3c.1-.4.1-.8.2-1.2A.4.4,0,0,0,23.4,28.9Z"/>
          <path class="cls-1" d="M26.2,29a.4.4,0,0,0,.1-.3c.1-.1.1-.3.2-.4l.3-.8.4-.6.3-.4H26.2l-.4.7a.8.8,0,0,0-.2.5.8.8,0,0,0-.2.5l-.2.4a1.4,1.4,0,0,1-.2.6.8.8,0,0,1-.1.4,4.3,4.3,0,0,0-.1.5.4.4,0,0,0-.1.3h1.1a4.4,4.4,0,0,0,.2-1Z"/>
          <path class="cls-1" d="M42.7,29.9l-.4-.2h-.5l-.9-.2H39l-.7.2h-1l-.7.3a1.5,1.5,0,0,0-.7.3h1.8l.6-.2h.2L39,30h1.2c.1-.1.3,0,.4,0h.9l.5.2h1.4l-.2-.2Z"/>
          <path class="cls-1" d="M95.2,26.4H53.9c.1.1.1.2.2.2l.4.6a4.1,4.1,0,0,1,.5.9l.3.5.3.8c.1,0,.1.1.1.2l.2.2a.4.4,0,0,0,.1.3v.2H95.2Z"/>
        </g>
        <path class="cls-2" d="M68.5,31S73,13.9,72.2,1.4c-6.8,0-26-.9-26-.9S44.6,24.3,42,30.7C42,30.7,56.5,31.5,68.5,31Z"/>
        <g>
          <path class="cls-3" d="M44.1,25.9h.5"/>
          <path class="cls-4" d="M46.7,26.1a152,152,0,0,0,21.2.2"/>
          <path class="cls-3" d="M69,26.2h.5"/>
        </g>
        <g>
          <path class="cls-5" d="M53.4,12.8l-.2,4.3h-.9l.2-3.5-1,.6-.4-.6,1.5-.8Z"/>
          <path class="cls-5" d="M56.8,13.4a2.3,2.3,0,0,1,.3,1.7,3.5,3.5,0,0,1-.4,1.7,1.4,1.4,0,0,1-1.3.5,1.1,1.1,0,0,1-1.1-.6A2.3,2.3,0,0,1,54,15a2.9,2.9,0,0,1,.4-1.7,1.7,1.7,0,0,1,1.2-.5A1.2,1.2,0,0,1,56.8,13.4Zm-1.6.2c-.1.1-.1.3-.2.5a2.2,2.2,0,0,0-.1.9v1c.1.2.1.4.2.5h.8c.1-.1.1-.3.2-.5s.1-.5.1-.9v-1c-.1-.2-.1-.4-.2-.5h-.8Z"/>
          <path class="cls-5" d="M60.3,13.6a2.7,2.7,0,0,1,.4,1.7,3,3,0,0,1-.5,1.6,1.4,1.4,0,0,1-1.2.6,1.9,1.9,0,0,1-1.2-.7,3.7,3.7,0,0,1-.3-1.7,2.5,2.5,0,0,1,.5-1.6,1.3,1.3,0,0,1,1.2-.6A1.4,1.4,0,0,1,60.3,13.6Zm-1.5.2a1.1,1.1,0,0,0-.3.5c0,.2-.1.5-.1.9a2.2,2.2,0,0,0,.1.9,4.3,4.3,0,0,0,.1.5l.4.2a.5.5,0,0,0,.4-.2c.1,0,.2-.2.2-.4a3.1,3.1,0,0,0,.1-1v-.9a.8.8,0,0,0-.2-.5l-.4-.2Z"/>
          <path class="cls-5" d="M62.7,13.2a1,1,0,0,1,.4.5.6.6,0,0,1,.1.6,1.3,1.3,0,0,1-.1.6l-.4.3-.6.2-.6-.2a.8.8,0,0,1-.4-.4,1.3,1.3,0,0,1-.1-.6.8.8,0,0,1,.2-.6.8.8,0,0,1,.4-.4h1.1Zm2.1-.2.6.4-3.2,4.3-.6-.3Zm-3.1,1.2c0,.2,0,.3.1.4s.1.2.3.2.4-.2.5-.6-.2-.6-.5-.6S61.7,13.8,61.7,14.2Zm3.8,1.4.3.4a1.4,1.4,0,0,1,.2.6c-.1.3-.1.5-.2.6s-.3.3-.4.4H64.2l-.4-.5c-.1-.1-.1-.3-.1-.6a1.4,1.4,0,0,1,.2-.6c.1-.1.2-.3.4-.3l.6-.2Zm-1.1,1a.6.6,0,0,0,.1.4c0,.1.1.2.3.2s.5-.2.5-.6-.1-.6-.4-.6S64.4,16.2,64.4,16.6Z"/>
        </g>
        <circle class="cls-3" cx="58.5" cy="14.6" r="9.5"/>
      </g>
    </g>
  </g>
</svg>
