<svg xmlns="http://www.w3.org/2000/svg" width="95.2" height="47.9" viewBox="0 0 95.2 47.9">
  <defs>
    <style>
      .cls-1 {
        fill: #fff;
        opacity: 0.25;
      }

      .cls-2 {
        fill: #f0eded;
      }
    </style>
  </defs>
  <title>biodiverse2</title>
  <g id="Layer_2" data-name="Layer 2">
    <g id="Layer_1-2" data-name="Layer 1">
      <g>
        <polyline class="cls-1" points="0 47.9 0 0 95.2 0 95.2 47.9"/>
        <path class="cls-2" d="M70.1,38.9S65,32.1,75.5,26.7c4.9-2.5,7.8-3.6,11.3-5.8a37.8,37.8,0,0,1,4-2.2S88.3,23.7,70.1,38.9Z"/>
        <path class="cls-2" d="M90.9,18.8c.4,3.1,1.3,28.8-20.2,20.9C70.7,39.7,87.3,26.6,90.9,18.8Z"/>
        <path class="cls-2" d="M70.1,38.9a30.8,30.8,0,0,1-9.5,4.9,14.7,14.7,0,0,0,.9-6.8c15.3-6.3.2-22,.4-19.6s-.7,3.3-3.9,11.1,1.2,8.2,2.5,8.6a13,13,0,0,1-1.2,7,32.2,32.2,0,0,1-4.5.9v1a32,32,0,0,0,15.8-6.3Z"/>
        <rect class="cls-2" y="45" width="95.2" height="2.83"/>
      </g>
    </g>
  </g>
</svg>
