<svg xmlns="http://www.w3.org/2000/svg" width="91.7" height="31.9" viewBox="0 0 91.7 31.9">
  <defs>
    <style>
      .cls-1 {
        fill: #fff;
      }

      .cls-2 {
        fill: none;
        stroke: #fff;
        stroke-miterlimit: 10;
      }
    </style>
  </defs>
  <title>biodiverse</title>
  <g id="Layer_2" data-name="Layer 2">
    <g id="Layer_1-2" data-name="Layer 1">
      <g>
        <g>
          <path class="cls-1" d="M20.4,30.9l.2-.5v-.2c.1-.2.1-.4.2-.6a2.9,2.9,0,0,0,.2-.9.4.4,0,0,0,.1-.3l.3-.5H19.8c-.1.1-.1.3-.2.4a.6.6,0,0,0-.1.4c-.1.2-.2.3-.2.5s-.1.4-.2.6v.3c-.1.3-.1.6-.2.9s-.1.4-.2.6v.2h1.5v-.2C20.3,31.4,20.3,31.1,20.4,30.9Z"/>
          <path class="cls-1" d="M49.3,30.9h-.1c-.1-.1-.1-.2-.2-.2l-.2-.3-.4-.5-.2-.2-.3-.3a.2.2,0,0,1-.2-.2l-.3-.2c-.2-.2-.3-.4-.5-.5l-.4-.2-.4-.3H44.5l.7.4.8.7h.2l.5.4a3.4,3.4,0,0,1,.6.6l.8.8.6.6c0,.1.1.1.1.2v.2h1c-.1-.2-.2-.5-.4-.6Z"/>
          <path class="cls-1" d="M46.2,31.1h0l-.3-.3-.4-.2-.2-.2-.2-.2-.8-.5-.6-.3-.6-.3H43l-1.2-.3H38.3l-.9.2-.8.2-.8.3h-.4l-.8.3h-.1l-.8.4h-.1a.1.1,0,0,1-.1.1l-.2.2c-.1.1-.3.2-.4.4l-.3.3c0,.1-.1.1-.1.2l-.2.3h1.2l.3-.3.7-.5.5-.2.6-.3.3-.2.7-.3h.7l.6-.2h3.9l1.1.3h.2l.4.3.6.4.5.4.5.3c0,.1.1.1.2.2l.2.3h1.4l-.2-.3C46.6,31.4,46.3,31.3,46.2,31.1Z"/>
          <path class="cls-1" d="M42.7,31.4l-.4-.2-.5-.2h-4l-.5.2-.7.2-.7.3h4.2s.1.1.1,0h.4l.9.2.5.2h1.5l-.3-.2C43,31.6,42.9,31.4,42.7,31.4Z"/>
          <path class="cls-1" d="M31.3,30.9l.7-.8h.1l.3-.3.4-.3h0l.4-.3a.9.9,0,0,1,.6-.4l.7-.4.8-.3H33.4l-.8.5-.4.3-.4.2-.4.4h-.1l-.2.4c-.2.1-.3.3-.4.4a1.8,1.8,0,0,0-.5.7,1,1,0,0,0-.4.5l-.3.6h1.2c0-.1.1-.1.1-.2Z"/>
          <path class="cls-1" d="M54.3,31.1c0-.1-.1-.1-.1-.2a3,3,0,0,1-.4-.8l-.3-.4h-.1l-.3-.6-.4-.6-.3-.4c0-.1,0-.1-.1-.2H51l.3.3.2.3c.1.1.1.3.2.4l.3.4.4.6.4.4.3.7.3.4v.3h1.3c-.1-.1-.1-.3-.2-.4A.8.8,0,0,0,54.3,31.1Z"/>
          <path class="cls-1" d="M52,31.2a4.3,4.3,0,0,1-.4-.7l-.3-.4c-.1,0-.1-.1-.1-.2l-.4-.6c-.1-.2-.3-.3-.4-.4l-.3-.5-.3-.4a.1.1,0,0,1-.1-.1H48.1l.3.3.2.2.5.4.2.3.5.6.4.5.5.7.2.3c.1.1.1.2.2.2s.2.3.2.4h1a.8.8,0,0,0-.2-.5C52,31.3,52,31.3,52,31.2Z"/>
          <path class="cls-1" d="M28.3,31.2l.4-.6.3-.4.5-.7.3-.3.3-.4.3-.2.3-.4.2-.2H29.5l-.4.3-.4.5h-.2c-.2.3-.4.4-.5.7l-.2.3-.2.3c0,.2-.1.3-.1.4l-.3.6c0,.2-.1.4-.1.7H28c0-.1,0-.2.1-.2Z"/>
          <path class="cls-1" d="M23.4,30.4l.2-.3.3-.7a.8.8,0,0,1,.2-.5c.1-.2.1-.4.2-.6s.1-.3.2-.4H23.2a.5.5,0,0,0-.2.4c-.2.2-.2.4-.3.7a.6.6,0,0,0-.1.4,2.5,2.5,0,0,0-.2.7,3.6,3.6,0,0,0-.4.9.6.6,0,0,1-.1.4c0,.1-.1.2-.1.3v.2h1.3c.1-.4.1-.8.2-1.2A.4.4,0,0,0,23.4,30.4Z"/>
          <path class="cls-1" d="M26.2,30.4a.4.4,0,0,0,.1-.3l.2-.3.3-.8.4-.6.3-.4a.1.1,0,0,1,.1-.1H26.2c-.1.3-.3.5-.4.8a.8.8,0,0,0-.2.4,1.7,1.7,0,0,0-.2.5c-.1.2-.1.3-.2.4a1.4,1.4,0,0,1-.2.6c0,.2,0,.3-.1.4s-.1.3-.1.5-.1.2-.1.4h1.1a4.3,4.3,0,0,0,.2-1.1C26.1,30.7,26.1,30.6,26.2,30.4Z"/>
          <path class="cls-1" d="M17.4,30c.1-.3.1-.7.2-1h0a1.4,1.4,0,0,0,.2-.7.8.8,0,0,0,.2-.4H16.5c0,.1-.1.2-.1.3l-.3.9v.3a.3.3,0,0,0-.1.2,2.9,2.9,0,0,0-.2.9h0V31a2.8,2.8,0,0,0-.1.9H17a10.5,10.5,0,0,1,.4-1.7Z"/>
          <path class="cls-1" d="M52,31.2a4.3,4.3,0,0,1-.4-.7l-.3-.4c-.1,0-.1-.1-.1-.2l-.4-.6c-.1-.2-.3-.3-.4-.4l-.3-.5-.3-.4H48.1l.3.3.2.2.5.4.2.3.5.6.4.5.5.7.2.3c.1.1.1.2.2.2s.2.3.2.4h1c-.1-.1-.1-.3-.2-.4S52,31.3,52,31.2Z"/>
          <path class="cls-1" d="M28.3,31.2l.4-.6.3-.4.5-.7.3-.3.3-.4.3-.2.3-.4.2-.2H29.5l-.4.3-.4.5h-.2c-.2.3-.4.4-.5.7l-.2.3-.2.3c0,.2-.1.3-.1.4l-.3.6c0,.2-.1.4-.1.6H28a.1.1,0,0,1,.1-.1Z"/>
          <path class="cls-1" d="M13.8,27.9H0v3.9H13.4a4.3,4.3,0,0,1,.1-.5v-.6a.7.7,0,0,1,.2-.6v-.3a.4.4,0,0,0,.1-.3c.1-.3.1-.6.2-.9s.1-.5.1-.7Z"/>
          <path class="cls-1" d="M49.3,30.9h-.1c-.1-.1-.1-.2-.2-.2l-.2-.3-.4-.5-.2-.2-.3-.3a.2.2,0,0,1-.2-.2l-.3-.2c-.2-.2-.3-.4-.5-.5l-.4-.2-.4-.3H44.5l.7.4.8.7h.2l.5.4a3.4,3.4,0,0,1,.6.6l.8.8.6.6c0,.1.1.1.1.2h1.1a1,1,0,0,0-.4-.5Z"/>
          <path class="cls-1" d="M31.3,30.9l.7-.8h.1l.3-.3.4-.3h0l.4-.3a.9.9,0,0,1,.6-.4l.7-.4.8-.3H33.4l-.8.5-.4.3-.4.2-.4.4h-.1l-.2.4c-.2.1-.3.3-.4.4a1.8,1.8,0,0,0-.5.7,1,1,0,0,0-.4.5l-.3.5h1.3Z"/>
          <path class="cls-1" d="M46.2,31.1h0l-.3-.3-.4-.2-.2-.2-.2-.2-.8-.5-.6-.3-.6-.3H43l-1.2-.3H38.3l-.9.2-.8.2-.8.3h-.4l-.8.3h-.1l-.8.4h-.1a.1.1,0,0,1-.1.1l-.2.2c-.1.1-.3.2-.4.4l-.3.3c0,.1-.1.1-.1.2l-.2.2h1.2l.3-.3.7-.5.5-.2.6-.3.3-.2.7-.3h.7l.6-.2h3.9l1.1.3h.2l.4.3.6.4.5.4.5.3c0,.1.1.1.2.2l.2.2h1.4l-.2-.2C46.6,31.4,46.3,31.3,46.2,31.1Z"/>
          <path class="cls-1" d="M17.4,30c.1-.3.1-.7.2-1h0a1.4,1.4,0,0,0,.2-.7.8.8,0,0,0,.2-.4H16.5c0,.1-.1.2-.1.3l-.3.9v.3a.3.3,0,0,0-.1.2,2.9,2.9,0,0,0-.2.9h0V31a2.5,2.5,0,0,0-.1.8H17a12.4,12.4,0,0,1,.4-1.6Z"/>
          <path class="cls-1" d="M20.4,30.9l.2-.5v-.2c.1-.2.1-.4.2-.6a2.9,2.9,0,0,0,.2-.9.4.4,0,0,0,.1-.3l.3-.5H19.8c-.1.1-.1.3-.2.4a.6.6,0,0,0-.1.4c-.1.2-.2.3-.2.5s-.1.4-.2.6v.3c-.1.3-.1.6-.2.9s-.1.4-.2.6v.2h1.5C20.3,31.4,20.3,31.1,20.4,30.9Z"/>
          <path class="cls-1" d="M54.3,31.1c0-.1-.1-.1-.1-.2a3,3,0,0,1-.4-.8l-.3-.4h-.1l-.3-.6-.4-.6-.3-.4c0-.1,0-.1-.1-.2H51l.3.3.2.3c.1.1.1.3.2.4l.3.4.4.6.4.4.3.7.3.4v.2h1.2a.4.4,0,0,0-.1-.3A.8.8,0,0,0,54.3,31.1Z"/>
          <path class="cls-1" d="M23.4,30.4l.2-.3.3-.7a.8.8,0,0,1,.2-.5c.1-.2.1-.4.2-.6s.1-.3.2-.4H23.1c0,.1-.1.2-.1.4s-.2.4-.3.7a.6.6,0,0,0-.1.4,2.5,2.5,0,0,0-.2.7,3.6,3.6,0,0,0-.4.9.6.6,0,0,1-.1.4c0,.1-.1.2-.1.3h1.3c.1-.3.1-.7.2-1.1A.4.4,0,0,0,23.4,30.4Z"/>
          <path class="cls-1" d="M26.2,30.4a.4.4,0,0,0,.1-.3l.2-.3.3-.8.4-.6.3-.4a.1.1,0,0,1,.1-.1H26.2c-.1.3-.3.5-.4.8a.8.8,0,0,0-.2.4,1.7,1.7,0,0,0-.2.5c-.1.2-.1.3-.2.4a1.4,1.4,0,0,1-.2.6c0,.2,0,.3-.1.4s-.1.3-.1.5a.4.4,0,0,0-.1.3h1.1a3,3,0,0,0,.2-1C26.1,30.7,26.1,30.6,26.2,30.4Z"/>
          <path class="cls-1" d="M42.7,31.4l-.4-.2-.5-.2h-4l-.5.2-.7.2-.7.3h4.2s.1.1.1,0h.4l.9.2.5.2h1.2C43,31.6,42.9,31.4,42.7,31.4Z"/>
          <path class="cls-1" d="M91.2,27.9H53.9c.1,0,.1.1.2.2l.4.6a3.5,3.5,0,0,1,.5.8l.3.6.3.8a.1.1,0,0,1,.1.1l.2.3a.4.4,0,0,0,.1.3v.2H91.2Z"/>
        </g>
        <path class="cls-2" d="M55.5,28.4a32.6,32.6,0,0,0,15.6-6.3"/>
        <path class="cls-1" d="M70.8,21.7s-5.1-6.8,5.4-12.1C81.1,7.1,83.9,6,87.5,3.8c.2-.1,3.6-2.3,4-2.2S89,6.6,70.8,21.7Z"/>
        <path class="cls-1" d="M91.5,1.7c.5,3.1,1.4,28.8-20.1,20.9C71.4,22.6,87.9,9.4,91.5,1.7Z"/>
        <path class="cls-2" d="M60.3,27.4s2-3,1.3-8.3"/>
        <path class="cls-1" d="M61.6,20.1s-6.1-1-2.9-8.8S62.8,2.6,62.6.2,77.9,13.9,61.6,20.1Z"/>
      </g>
    </g>
  </g>
</svg>
