<svg xmlns="http://www.w3.org/2000/svg" width="95.2" height="46.8" viewBox="0 0 95.2 46.8">
  <defs>
    <style>
      .cls-1 {
        fill: #fff;
      }
    </style>
  </defs>
  <title>biodiverse</title>
  <g id="Layer_2" data-name="Layer 2">
    <g id="Layer_1-2" data-name="Layer 1">
      <g>
        <polygon class="cls-1" points="95.2 46.7 94.7 46.7 94.7 0.5 0.5 0.5 0.5 46.7 0 46.7 0 0 95.2 0 95.2 46.7"/>
        <g>
          <path class="cls-1" d="M14.4,45.8l.2-.5h0a6.4,6.4,0,0,1,.2-.7,2.9,2.9,0,0,0,.2-.9.4.4,0,0,0,.1-.3l.3-.5H13.8c-.1.1-.1.3-.2.4a.8.8,0,0,0-.1.4,1.7,1.7,0,0,0-.2.5c-.1.2-.1.4-.2.6V45c-.1.3-.1.6-.2.9s-.1.4-.2.6v.2h1.5v-.2C14.3,46.3,14.3,46.1,14.4,45.8Z"/>
          <path class="cls-1" d="M43.3,45.9c0-.1-.1-.1-.1-.2l-.2-.2-.2-.3-.4-.5c-.1-.1-.2-.1-.2-.2l-.3-.3a.2.2,0,0,1-.2-.2l-.3-.2c-.2-.2-.3-.4-.5-.5l-.4-.2-.4-.3H38.5l.7.4.8.7h.2a1.2,1.2,0,0,1,.5.5c.3.1.4.4.6.6l.8.7.6.6c0,.1.1.1.1.2v.2h1c-.1-.2-.2-.5-.4-.6Z"/>
          <path class="cls-1" d="M40.2,46h0l-.3-.3-.4-.2-.2-.2-.2-.2-.8-.5-.6-.3-.6-.2H37l-1.2-.2-1-.2H32.3l-.9.2-.8.3-.8.2h-.4l-.8.3h-.1l-.8.4h-.1a.1.1,0,0,1-.1.1c-.1.1-.2.1-.2.2s-.3.2-.4.4l-.3.3a.3.3,0,0,1-.1.2l-.2.3h1.2l.3-.3.7-.4.5-.3.6-.3.3-.2.7-.3h.7l.6-.2h3.9l1.1.4h.2l.4.2.6.4.5.4.5.3c0,.1.1.1.2.2s.1.2.2.3h1.4l-.2-.3C40.6,46.3,40.3,46.2,40.2,46Z"/>
          <path class="cls-1" d="M36.7,46.3l-.4-.2-.5-.2H32.3l-.5.2h-.5l-.7.2-.7.3h4.2s.1.1.1,0h.4l.9.2.5.2h1.5l-.3-.2Z"/>
          <path class="cls-1" d="M25.3,45.8,26,45h.1l.3-.3.4-.3h0l.4-.3.6-.4.7-.4.8-.3H27.4l-.8.5-.4.3-.4.2c-.1.1-.2.3-.4.4h-.1l-.2.3c-.2.1-.3.3-.4.4a1.8,1.8,0,0,0-.5.7,1,1,0,0,0-.4.5l-.3.6h1.2c0-.1.1-.1.1-.2A3.5,3.5,0,0,0,25.3,45.8Z"/>
          <path class="cls-1" d="M48.3,46c0-.1-.1-.1-.1-.2a2,2,0,0,1-.4-.8l-.3-.3a.1.1,0,0,0-.1-.1l-.3-.6-.4-.6-.3-.4c0-.1,0-.1-.1-.2H45l.3.3.2.3c.1.1.1.3.2.4l.3.4.4.6.4.5.3.6.3.5v.2h1.3l-.2-.3A.8.8,0,0,0,48.3,46Z"/>
          <path class="cls-1" d="M46,46.2c-.1-.3-.3-.5-.4-.8l-.3-.3a.4.4,0,0,1-.1-.3l-.4-.6c-.1-.2-.3-.3-.4-.4l-.3-.4-.3-.5a.1.1,0,0,1-.1-.1H42.1l.3.3.2.2.5.4.2.3.5.6.4.5.5.7c.1.1.2.2.2.3l.2.2c.1.2.2.3.2.4h1a.8.8,0,0,0-.2-.5Z"/>
          <path class="cls-1" d="M22.3,46.1l.4-.6.3-.4.5-.7.3-.3.3-.4.3-.2.3-.4c.1,0,.1-.1.2-.2H23.5l-.4.3-.4.5h-.2c-.2.3-.4.4-.5.7l-.2.3-.2.3c0,.2-.1.3-.1.4l-.3.6c0,.2-.1.4-.1.7H22c0-.1,0-.2.1-.2Z"/>
          <path class="cls-1" d="M17.4,45.3l.2-.3.3-.7a.8.8,0,0,1,.2-.5c.1-.2.1-.4.2-.6s.1-.3.2-.4H17.2a.5.5,0,0,0-.2.4c-.2.2-.2.4-.3.7a.6.6,0,0,0-.1.4,2.5,2.5,0,0,0-.2.7,3.6,3.6,0,0,0-.4.9c0,.2,0,.3-.1.4s-.1.2-.1.3v.2h1.3c.1-.4.1-.8.2-1.2A.4.4,0,0,0,17.4,45.3Z"/>
          <path class="cls-1" d="M20.2,45.3a.4.4,0,0,0,.1-.3l.2-.3.3-.8.4-.6.3-.4a.1.1,0,0,1,.1-.1H20.2c-.1.3-.3.5-.4.8a.8.8,0,0,0-.2.4,1.7,1.7,0,0,0-.2.5l-.2.5a1.7,1.7,0,0,1-.2.5c0,.2,0,.3-.1.4a4.3,4.3,0,0,1-.1.5.6.6,0,0,0-.1.4h1.1a4.3,4.3,0,0,0,.2-1.1C20.1,45.6,20.1,45.5,20.2,45.3Z"/>
          <path class="cls-1" d="M11.4,45c.1-.4.1-.7.2-1.1h0a1.4,1.4,0,0,0,.2-.7.8.8,0,0,0,.2-.4H10.5c0,.1-.1.2-.1.3l-.3.9v.3a.4.4,0,0,0-.1.3,1.9,1.9,0,0,0-.2.8h0v.4a2.8,2.8,0,0,0-.1.9H11a10.5,10.5,0,0,1,.4-1.7Z"/>
          <path class="cls-1" d="M46,46.2c-.1-.3-.3-.5-.4-.8l-.3-.3a.4.4,0,0,1-.1-.3l-.4-.6c-.1-.2-.3-.3-.4-.4l-.3-.4-.3-.5H42.1l.3.3.2.2.5.4.2.3.5.6.4.5.5.7c.1.1.2.2.2.3l.2.2c.1.2.2.3.2.4h1c-.1-.1-.1-.3-.2-.4Z"/>
          <path class="cls-1" d="M22.3,46.1l.4-.6.3-.4.5-.7.3-.3.3-.4.3-.2.3-.4c.1,0,.1-.1.2-.2H23.5l-.4.3-.4.5h-.2c-.2.3-.4.4-.5.7l-.2.3-.2.3c0,.2-.1.3-.1.4l-.3.6c0,.2-.1.4-.1.6H22a.1.1,0,0,1,.1-.1Z"/>
          <path class="cls-1" d="M7.8,42.8H0v3.9H7.4a4.3,4.3,0,0,0,.1-.5v-.6a.7.7,0,0,1,.2-.6v-.3a.4.4,0,0,0,.1-.3c.1-.3.1-.6.2-.9s.1-.5.1-.7Z"/>
          <path class="cls-1" d="M43.3,45.9c0-.1-.1-.1-.1-.2l-.2-.2-.2-.3-.4-.5c-.1-.1-.2-.1-.2-.2l-.3-.3a.2.2,0,0,1-.2-.2l-.3-.2c-.2-.2-.3-.4-.5-.5l-.4-.2-.4-.3H38.5l.7.4.8.7h.2a1.2,1.2,0,0,1,.5.5c.3.1.4.4.6.6l.8.7.6.6c0,.1.1.1.1.2h1.1c-.1-.1-.2-.4-.4-.5Z"/>
          <path class="cls-1" d="M25.3,45.8,26,45h.1l.3-.3.4-.3h0l.4-.3.6-.4.7-.4.8-.3H27.4l-.8.5-.4.3-.4.2c-.1.1-.2.3-.4.4h-.1l-.2.3c-.2.1-.3.3-.4.4a1.8,1.8,0,0,0-.5.7,1,1,0,0,0-.4.5l-.3.5h1.2a.1.1,0,0,0,.1-.1A3.5,3.5,0,0,0,25.3,45.8Z"/>
          <path class="cls-1" d="M40.2,46h0l-.3-.3-.4-.2-.2-.2-.2-.2-.8-.5-.6-.3-.6-.2H37l-1.2-.2-1-.2H32.3l-.9.2-.8.3-.8.2h-.4l-.8.3h-.1l-.8.4h-.1a.1.1,0,0,1-.1.1c-.1.1-.2.1-.2.2s-.3.2-.4.4l-.3.3a.3.3,0,0,1-.1.2l-.2.2h1.2l.3-.3.7-.4.5-.3.6-.3.3-.2.7-.3h.7l.6-.2h3.9l1.1.4h.2l.4.2.6.4.5.4.5.3c0,.1.1.1.2.2a.2.2,0,0,0,.2.2h1.4l-.2-.2C40.6,46.3,40.3,46.2,40.2,46Z"/>
          <path class="cls-1" d="M11.4,45c.1-.4.1-.7.2-1.1h0a1.4,1.4,0,0,0,.2-.7.8.8,0,0,0,.2-.4H10.5c0,.1-.1.2-.1.3l-.3.9v.3a.4.4,0,0,0-.1.3,1.9,1.9,0,0,0-.2.8h0v.4a2.5,2.5,0,0,0-.1.8H11a12.4,12.4,0,0,1,.4-1.6Z"/>
          <path class="cls-1" d="M14.4,45.8l.2-.5h0a6.4,6.4,0,0,1,.2-.7,2.9,2.9,0,0,0,.2-.9.4.4,0,0,0,.1-.3l.3-.5H13.8c-.1.1-.1.3-.2.4a.8.8,0,0,0-.1.4,1.7,1.7,0,0,0-.2.5c-.1.2-.1.4-.2.6V45c-.1.3-.1.6-.2.9s-.1.4-.2.6v.2h1.5C14.3,46.3,14.3,46.1,14.4,45.8Z"/>
          <path class="cls-1" d="M48.3,46c0-.1-.1-.1-.1-.2a2,2,0,0,1-.4-.8l-.3-.3a.1.1,0,0,0-.1-.1l-.3-.6-.4-.6-.3-.4c0-.1,0-.1-.1-.2H45l.3.3.2.3c.1.1.1.3.2.4l.3.4.4.6.4.5.3.6.3.5h1.2a.3.3,0,0,0-.1-.2A.8.8,0,0,0,48.3,46Z"/>
          <path class="cls-1" d="M17.4,45.3l.2-.3.3-.7a.8.8,0,0,1,.2-.5c.1-.2.1-.4.2-.6s.1-.3.2-.4H17.1c0,.1-.1.2-.1.4s-.2.4-.3.7a.6.6,0,0,0-.1.4,2.5,2.5,0,0,0-.2.7,3.6,3.6,0,0,0-.4.9c0,.2,0,.3-.1.4s-.1.2-.1.3h1.3c.1-.3.1-.7.2-1.1A.4.4,0,0,0,17.4,45.3Z"/>
          <path class="cls-1" d="M20.2,45.3a.4.4,0,0,0,.1-.3l.2-.3.3-.8.4-.6.3-.4a.1.1,0,0,1,.1-.1H20.2c-.1.3-.3.5-.4.8a.8.8,0,0,0-.2.4,1.7,1.7,0,0,0-.2.5l-.2.5a1.7,1.7,0,0,1-.2.5c0,.2,0,.3-.1.4a4.3,4.3,0,0,1-.1.5.4.4,0,0,0-.1.3h1.1a3,3,0,0,0,.2-1C20.1,45.6,20.1,45.5,20.2,45.3Z"/>
          <path class="cls-1" d="M36.7,46.3l-.4-.2-.5-.2H32.3l-.5.2h-.5l-.7.2-.7.3h4.2s.1.1.1,0h.4l.9.2.5.2h1.2Z"/>
          <path class="cls-1" d="M95.2,42.8H47.9c.1,0,.1.1.2.2l.4.6a3.5,3.5,0,0,1,.5.8l.3.6.3.8a.1.1,0,0,1,.1.1l.2.3a.4.4,0,0,0,.1.3v.2H95.2Z"/>
        </g>
        <path class="cls-1" d="M70.1,36.6S65,29.8,75.5,24.5c4.9-2.5,7.8-3.6,11.3-5.8.2-.1,3.6-2.3,4-2.2S88.3,21.5,70.1,36.6Z"/>
        <path class="cls-1" d="M90.9,16.6c.4,3.1,1.3,28.8-20.2,20.9C70.7,37.5,87.3,24.4,90.9,16.6Z"/>
        <path class="cls-1" d="M70.1,36.7a28.3,28.3,0,0,1-9.5,4.8,14,14,0,0,0,.9-6.7c15.3-6.3.2-22,.4-19.6s-.7,3.3-3.9,11.1,1.2,8.2,2.5,8.6a13.3,13.3,0,0,1-1.2,7,32.2,32.2,0,0,1-4.5.9v1a32,32,0,0,0,15.8-6.3Z"/>
      </g>
    </g>
  </g>
</svg>
