<svg xmlns="http://www.w3.org/2000/svg" width="95.2" height="47.9" viewBox="0 0 95.2 47.9">
  <defs>
    <style>
      .cls-1 {
        fill: #fff;
        opacity: 0.3;
      }

      .cls-2 {
        opacity: 0.5;
      }

      .cls-3 {
        fill: #41393d;
      }

      .cls-4 {
        opacity: 0.8;
      }
    </style>
  </defs>
  <title>customizableb</title>
  <g id="Layer_2" data-name="Layer 2">
    <g id="Layer_1-2" data-name="Layer 1">
      <g>
        <polyline class="cls-1" points="0 47.9 0 0 95.2 0 95.2 47.9"/>
        <g class="cls-2">
          <path class="cls-3" d="M52.9,30.1h-.8l-.3.3a.1.1,0,0,1-.1.1l-.3.3a.3.3,0,0,0-.1.2l-.3.3-.2.3-.3.4c0,.1-.1.2-.1.3s-.1.3-.2.4-.1.3-.2.4a.9.9,0,0,1-.1.5,1.3,1.3,0,0,1-.1.6h0a.6.6,0,0,0,.1.4v.3a.6.6,0,0,0,.1.4v.2a.1.1,0,0,0,.1.1v.2c0,.1.1.1.1.2h0c.1.1.1.3.2.4h0l.3-.6h-.1a.4.4,0,0,1-.1-.3.4.4,0,0,0-.1-.3.8.8,0,0,0-.1-.4v-.2h0V34c0-.1.1-.1.1-.2h0a.4.4,0,0,0,.1-.3v-.2a.4.4,0,0,0,.1-.3l.2-.3h0l.2-.3.2-.2h.1l.3-.2v-.2l.3-.2.2-.2.3-.2h.3l.2-.6h-.2Z"/>
          <path class="cls-3" d="M49.5,38.6a.1.1,0,0,1-.1-.1h-.1c-.1-.2-.1-.3-.2-.4l-.2-.3c0-.1-.1-.2-.1-.3a.1.1,0,0,1-.1-.1c-.1-.1-.1-.3-.2-.4h0c0-.1-.1-.2-.1-.3h0l-.3.8h.1a.3.3,0,0,0,.1.2c0,.1.1.2.1.3s.1.1.2.2.1.2.2.3a.1.1,0,0,0,.1.1c0,.1,0,.1.1.2l.3.3h0l.2.2v-.5h0A.3.3,0,0,1,49.5,38.6Z"/>
          <path class="cls-3" d="M54,27.7H51.7l-.3.7h0c.1,0,.1,0,.1-.1h1l.4-.2h.9l.2-.4Z"/>
          <path class="cls-3" d="M57,14.5l-2.5,6.3h0V21h2l2.4-6.2Z"/>
          <path class="cls-3" d="M50.1,37.7a.1.1,0,0,1-.1-.1h0l-.2-.3c-.1-.2-.1-.4-.2-.5s-.1-.3-.2-.4-.1-.2-.1-.3h0c-.1-.2-.1-.4-.2-.5V35h0l-.3.8h0V36a.3.3,0,0,0,.1.2.4.4,0,0,0,.1.3h0v.2c0,.1,0,.1.1.2h0l.2.3a.1.1,0,0,0,.1.1c0,.1,0,.1.1.2h0c0,.1.1.1.1.2s.1.1.1.2.1,0,.1.1l.2-.5Z"/>
          <path class="cls-3" d="M53.6,28.8h-2c0,.1-.1.1-.2.2l-.4.3h0l-.4.9h.1l.3-.3.3-.3.3-.2h.3l.2-.2h.2l.5-.2h.6l.2-.5Z"/>
          <path class="cls-3" d="M56,22.4h-.4a.1.1,0,0,1-.1-.1H54.1l-.3.7h2l.2-.6Z"/>
          <path class="cls-3" d="M55.4,23.8H53.5l-.3.7h2l.3-.7h-.1Z"/>
          <path class="cls-3" d="M54.9,25.2h-2l-.3.7h2.1l.3-.6Z"/>
          <path class="cls-3" d="M54,26.5H52.3l-.2.6h2.1l.2-.5H54Z"/>
          <path class="cls-3" d="M52.4,31.7h0c-.1.1-.2.2-.2.3l-.3.3c-.1,0-.1.1-.1.2l-.2.2-.2.3a.1.1,0,0,1-.1.1.4.4,0,0,1-.1.3c0,.1-.1.2-.1.3v.2c-.1.1-.1.2-.1.4v.8a.1.1,0,0,0,.1.1h0l.2-.6h0v-.2a.9.9,0,0,1,.1-.5v-.2h0v-.2a.1.1,0,0,1,.1-.1v-.2l.2-.2h0l.2-.3h0l.3-.8Z"/>
          <path class="cls-3" d="M46.2,39.2h0c.1-.1.2-.1.2-.2a.1.1,0,0,1,.1-.1l.2-.3c.1-.1.1-.1.1-.2a.1.1,0,0,0,.1-.1l.3-.3a.3.3,0,0,1,.1-.2v-.2c.1-.1.1-.2.2-.2h0l-.3-.8a.4.4,0,0,1-.1.3h0c0,.1-.1.2-.1.3H47l-.2.3c0,.1-.1.2-.2.3a.8.8,0,0,1-.2.4h-.1a.1.1,0,0,1-.1.1.3.3,0,0,1-.1.2h0v.5Z"/>
          <path class="cls-3" d="M42.7,28.1h.2l.4.2h.6c.1,0,.2,0,.2.1h.3l-.3-.7H44c0-.1-.1-.1-.2-.1l-.3-.2H43c0-.1-.1-.1-.2-.1h-1l.2.5h.7Z"/>
          <path class="cls-3" d="M40.3,21h1l-2.4-6.4-1.8.7,2.3,6.2h.9Z"/>
          <path class="cls-3" d="M46.1,37.6h.1c0-.1,0-.1.1-.2h.1c0-.1.1-.2.1-.3a.1.1,0,0,1,.1-.1v-.2h.1c0-.1,0-.2.1-.2s.1-.2.1-.3v-.2c0-.1.1-.2.1-.3h0l-.3-.8h0c0,.1-.1.2-.1.4a1.7,1.7,0,0,1-.2.5h0a.4.4,0,0,1-.1.3.8.8,0,0,1-.2.4c0,.2-.1.3-.2.5s-.1.2-.2.4h0c0,.1,0,.1-.1.1h0l.2.5h.1c0-.1.1-.1.1-.2S46.1,37.7,46.1,37.6Z"/>
          <path class="cls-3" d="M43.5,29.5h.6c.2,0,.3.1.3.2l.3.3.3.3h.1l-.3-.9h0l-.4-.3-.2-.2h-2l.2.5H43Z"/>
          <path class="cls-3" d="M45.7,35.7c0-.1.1-.1.1-.2a.6.6,0,0,1,.1-.4v-.7h0a1.3,1.3,0,0,0-.1-.6.9.9,0,0,0-.1-.5c0-.1-.1-.3-.1-.4a.5.5,0,0,1-.2-.4l-.2-.3a.5.5,0,0,0-.2-.4l-.3-.3-.2-.4h-.2c0-.1-.1-.2-.2-.3H44l-.3-.3h-1l.2.6h0c.1,0,.2,0,.2.1l.4.2.2.2.2.2.2.2.2.2h.2c.1.1.1.2.2.2s.1.2.1.3h.1a49450112819357.5,49450112819357.5,0,0,1,.2.6c.1,0,.1.1.1.2a.4.4,0,0,1,.1.3.1.1,0,0,1,.1.1v.2c0,.2.1.4.1.6h0v.2c0,.2-.1.3-.1.4a.4.4,0,0,1-.1.3v.3h-.1a.1.1,0,0,1-.1.1h0l.3.6a.1.1,0,0,1,.1-.1.6.6,0,0,1,.1-.4h0c.1-.1.1-.1.1-.2a.3.3,0,0,0,.1-.2Z"/>
          <path class="cls-3" d="M40.9,22.7h1.2l-.3-.8h-2l.2.6h.9Z"/>
          <path class="cls-3" d="M41.3,24.3h1.4l-.3-.7H40.3l.3.7h.7Z"/>
          <path class="cls-3" d="M41.8,25.6h1.4L43,25H40.9l.2.6h.7Z"/>
          <path class="cls-3" d="M42.3,26.9h1.4l-.2-.6H41.4l.2.6h.7Z"/>
          <path class="cls-3" d="M44.8,34.2a.8.8,0,0,1-.1-.4v-.2a49450112819356.9,49450112819356.9,0,0,0-.2-.6.1.1,0,0,0-.1-.1c0-.1-.1-.2-.1-.3s-.1-.2-.2-.2a.3.3,0,0,0-.1-.2l-.3-.3-.2-.3h-.1l.4.8h0c0,.1.1.2.1.3h.1c.1,0,.1.1.2.2a.3.3,0,0,0,.1.2h0a.3.3,0,0,1,.1.2h0a.3.3,0,0,1,.1.2.9.9,0,0,0,.1.5v.2h0l.2.6h0c0-.1.1-.2.1-.3v-.5Z"/>
        </g>
        <g class="cls-4">
          <path class="cls-3" d="M45.4,38.2l-.5-.4h0v.4a.3.3,0,0,0-.1.2v.2a.6.6,0,0,1-.1.4v.3a32966741879587.8,32966741879587.8,0,0,1-.2.6h0l.4.4c.1-.1.1-.1.1-.2s.1-.1.1-.2h0c0-.2.1-.3.1-.4v-.3h0a.4.4,0,0,0,.1-.3.6.6,0,0,0,.1-.4v-.2h0Z"/>
          <path class="cls-3" d="M44.5,37.4l-.6-.6h0v.3h0a.4.4,0,0,1,.1.3c0,.1,0,.1-.1.2v1.1c-.1.1-.1.1-.1.2h0v.3h0l.3.3c0-.1.1-.2.1-.3h0c0-.2.1-.3.1-.4v-.3a.1.1,0,0,1,.1-.1V38c.1-.1,0-.2.1-.3v-.3Z"/>
          <path class="cls-3" d="M36.3,31.2h1.3s0-.1.1,0h.1l-.5-.5H35.6l-.3.2H35l.3.4h1Z"/>
          <path class="cls-3" d="M31.4,25.5l.3-.2h-.1l-5-4.7L25.3,22l4.8,4.5.2-.2.2-.2h.6Z"/>
          <path class="cls-3" d="M43.4,37.3v-.2a.3.3,0,0,1-.1-.2v-.7h0l-.6-.5h0a.6.6,0,0,1,.1.4,1.1,1.1,0,0,1,.1.5h0a.6.6,0,0,1,.1.4v1.3h0l.3.4a.1.1,0,0,1,.1-.1v-.5h0v-.7h0Z"/>
          <path class="cls-3" d="M37.4,32.2h2l-.7-.7H37.2c-.1,0-.2.1-.3,0h-1l.4.4h1.1Z"/>
          <path class="cls-3" d="M42.1,36.9v-.2h0c0-.2-.1-.3-.1-.4a.4.4,0,0,1-.1-.3l-.2-.3h0l-.3-.5-.3-.4-.4-.3-.3-.2-.3-.3-.4-.2-.3-.2-.4-.2h-.7l-.4-.2h0c-.1,0-.1.1-.1,0h-.4c-.1.1-.2,0-.2.1h-.3l.4.4h2.3l.3.2H40c.1,0,.1.1.2.2a.2.2,0,0,1,.2.2h.2l.2.2a.1.1,0,0,1,.1.1l.2.2.3.5h0v.2a.8.8,0,0,1,.1.4c0,.1.1.2.1.3v.3a.1.1,0,0,1,.1.1c0,.1-.1.1,0,.2h0l.5.5v-.2c0-.1-.1-.2,0-.4h0v-.2C42.1,37,42.1,37,42.1,36.9Z"/>
          <path class="cls-3" d="M32.1,27.2l.5-.3h0l.3-.2h.2l-.5-.5h-.2l-.4.3h-.2l-.4.2h-.2l-.3.3.5.4.7-.4Z"/>
          <path class="cls-3" d="M33.2,28.4l.3-.2.4-.2h.4l-.5-.6h-.5c0,.1-.1.1-.2.2h-.3a.1.1,0,0,1-.1.1l-.3.2-.3.2a.1.1,0,0,1-.1.1h0l.5.5h.1l.3-.3Z"/>
          <path class="cls-3" d="M34.4,29.3H35c0-.1.1-.1.2-.2h.2l-.4-.4h-.6l-.2.2h-.3l-.4.2h-.2a.1.1,0,0,1-.1.1h-.1l.5.4.5-.3a.1.1,0,0,1,.1-.1Z"/>
          <path class="cls-3" d="M35.3,30.3h.2l.4-.2h.3c.1.1.2,0,.3,0h.1l-.5-.5H36l-.4.2h-.2c-.1.1-.2.1-.2.2h-.9a.1.1,0,0,1-.1.1l.4.4.4-.3h.3Z"/>
          <path class="cls-3" d="M40.9,36.7v-.2c0-.1-.1-.1-.1-.2s0-.2-.1-.2-.1-.2-.1-.3l-.3-.3c0-.1,0-.1-.1-.1s-.1-.2-.2-.3-.2-.1-.2-.2h-.2l-.3-.2h-.4l-.4-.2h-.3l.6.6h0l.3.2h.3l.2.2h.1c0,.1.1.1.1.2h.1c.1.1.1.1.1.2l.3.3a.4.4,0,0,1,.1.3h.1l.4.4Z"/>
          <path class="cls-3" d="M52.2,36.1h0a.4.4,0,0,0-.1.3v1.1h0v.5a.1.1,0,0,1,.1.1h0v.2a.4.4,0,0,0,.1.3h0l.3-.4h0v-1c0-.1-.1-.2-.1-.4a.4.4,0,0,1,.1-.3h0v-.6c.1-.1.1-.2.1-.4h0l-.5.6Z"/>
          <path class="cls-3" d="M58.1,32.5H58a.1.1,0,0,0-.2,0H56.2l-.4.2-.3.3a.5.5,0,0,0-.4.2l-.3.3-.3.2-.3.4-.3.4-.3.5h0c0,.1-.1.3-.1.4s-.1.2-.1.3-.1.3-.1.4v.2h0v.4h0v.6l.5-.5h0v-.2h0v-.3c0-.1.1-.2.1-.3V36c0-.1,0-.1.1-.2h0l.3-.5a.4.4,0,0,1,.1-.3h.3a.2.2,0,0,1,.2-.2.3.3,0,0,1,.1-.2l.3-.3a.1.1,0,0,0,.1-.1h.2l.3-.2h.2l.4-.2h1.4l.4-.4h-.2Z"/>
          <path class="cls-3" d="M51.8,39.1a.1.1,0,0,1-.1-.1v-.2c0-.1-.1-.3-.1-.4a.4.4,0,0,0-.1-.3v-.9h0v-.3l-.6.6H51v.3a.3.3,0,0,0,.1.2v.3a.4.4,0,0,0,.1.3v.2a.3.3,0,0,0,.1.2.6.6,0,0,0,.1.4h0a.3.3,0,0,1,.1.2l.3-.3h0Z"/>
          <path class="cls-3" d="M60,30.6h-.3l-.2-.2H57.7l-.5.5h2.4c.1,0,.1,0,.1.1l.3-.4Z"/>
          <path class="cls-3" d="M67.8,19.5l-4.7,5H63l.3.2a.5.5,0,0,0,.4.2.1.1,0,0,0,.1.1h.4c.1.1.1.2.2.2l.3.2,4.5-4.8Z"/>
          <path class="cls-3" d="M59.2,31.5H56.9l-.5.2h0l-.7.7h.2l.3-.2h2.6l.4-.4Z"/>
          <path class="cls-3" d="M63.4,26.1h0l-.4-.2h-.2l-.5-.3h-.1l-.5.5h.5l.5.3h0l.7.4.5-.5-.3-.2Z"/>
          <path class="cls-3" d="M62.9,27.6h-.4l-.4-.3H62l-.3-.2h-.6l-.6.5h.4l.4.2.3.2h.3l.4.2h.1l.5-.6Z"/>
          <path class="cls-3" d="M51,39.8a.6.6,0,0,1-.1-.4.4.4,0,0,1-.1-.3.4.4,0,0,0-.1-.3v-.2a.4.4,0,0,0-.1-.3h0V38a.1.1,0,0,1-.1-.1h0l-.4.5h0v.2c0,.1.1.3.1.4s.1.2.1.3h0a.3.3,0,0,1,.1.2c0,.2.1.3.1.5h0c.1,0,.1.1.1.2s.1.1.1.2l.4-.5h0C51,39.9,51,39.9,51,39.8Z"/>
          <path class="cls-3" d="M61.6,28.6h-.2l-.4-.2h-.5c-.2,0-.2-.1-.4-.2h-.2l-.4.4h.7l.4.2h.3l.5.3.4-.5h-.2Z"/>
          <path class="cls-3" d="M60.5,29.6H58.9l-.5.5H60l.5.3.3-.4a.1.1,0,0,0-.1-.1Z"/>
          <path class="cls-3" d="M57,33.8h-.3l-.3.2h-.2l-.3.2c-.1,0-.1.1-.2.2h-.2l-.2.2-.2.3H55c-.1.1-.2.2-.2.3l-.2.3v.2a.4.4,0,0,0-.1.3h0l.4-.4h0c0-.1,0-.1.1-.1v-.3l.3-.3a.3.3,0,0,1,.1-.2h.1c0-.1.1-.1.1-.2a.1.1,0,0,0,.1-.1h.4a.1.1,0,0,1,.1-.1.2.2,0,0,0,.2-.2h.1l.6-.6Z"/>
          <path class="cls-3" d="M50.1,40.9H50c-.1-.2-.1-.3-.2-.4a.4.4,0,0,0-.1-.3c0-.2-.1-.3-.1-.5a.4.4,0,0,0-.1-.3v-.2h0l-1.6,2L46,38.8h0v.4a.7.7,0,0,0-.1.5.3.3,0,0,0-.1.2l-.2.5h0v.2h-.1l2,2.3.3-.3.5.6,1.9-2.5h-.1Z"/>
        </g>
        <g>
          <path class="cls-3" d="M28.3,35.4l.2-.2h0c.1-.1.2-.2.2-.3l.3-.4h.1l.2-.2-.7-.3h0l-.2.2a.1.1,0,0,0-.1.1l-.2.2-.2.3h-.1a.8.8,0,0,1-.2.4l-.2.3h-.1l.7.3h.1Z"/>
          <path class="cls-3" d="M41.6,40.6h0c0-.1,0-.2-.1-.2v-.2c0-.1-.1-.2-.1-.3a.1.1,0,0,0-.1-.1v-.2h0c0-.1-.1-.1-.1-.2l-.2-.3a.1.1,0,0,0-.1-.1.3.3,0,0,0-.1-.2h0l-.8-.3h0l.3.3c.1.1.1.3.2.4h.1l.2.3c0,.2.1.3.1.4s.2.3.2.5a.5.5,0,0,1,.2.4h0c.1,0,.1,0,.1.1l.4.2c0-.2,0-.3-.1-.4Z"/>
          <path class="cls-3" d="M40.2,40.1h-.1v-.2c-.1,0-.1-.1-.2-.2h0a.1.1,0,0,1-.1-.1l-.3-.4c0-.1-.1-.1-.2-.2l-.2-.3H39l-.5-.3-.4-.3h-.4l-.4-.2H34l-.2.2h-.2l.5.2h3.7c.1,0,.2,0,.2.1h.2c0,.1.1.1.2.2l.4.3a.1.1,0,0,1,.1.1v.2c.1.1.2.2.2.3s.1.2.2.2l.2.3h0a.3.3,0,0,1,.1.2l.7.2a.1.1,0,0,1-.1-.1C40.3,40.4,40.2,40.3,40.2,40.1Z"/>
          <path class="cls-3" d="M38.5,39.6h-.2c0-.1-.1-.1-.2-.2l-.3-.2H36.5c-.1,0-.2,0-.2-.1h-1l.8.4h1.4l.4.2.2.2h.1l.6.2a.1.1,0,0,1-.1-.1Z"/>
          <path class="cls-3" d="M33.3,37.4l.5-.3h2l-.9-.3H33.7a.1.1,0,0,1-.1.1h-.4l-.4.2-.2.2-.3.2.6.2h0Z"/>
          <path class="cls-3" d="M43.9,41.6h0a.9.9,0,0,1-.1-.5.3.3,0,0,0-.1-.2h0v-.3c0-.2,0-.3-.1-.4v-.2c0-.1,0-.1-.1-.1h0l-.6-.2h0c0,.1.1.1.1.2V40c0,.1,0,.1.1.2v.2c0,.1.1.3.1.4s.1.2.1.3v.6h0l.6.2v-.4Z"/>
          <path class="cls-3" d="M42.8,41.2c0-.1-.1-.2-.1-.4v-.2a.1.1,0,0,1-.1-.1c.1-.2,0-.3,0-.4s-.1-.1-.1-.2-.1-.2-.1-.3v-.2h-.1l-.7-.3c0,.1.1.1.1.2h0l.2.3v.2l.2.3v.3l.2.4v.4c.1,0,.1.1.1.2h0l.4.2v-.3Z"/>
          <path class="cls-3" d="M31.9,37l.3-.2.2-.2.4-.2h.3c.1,0,.2,0,.2-.1s.2,0,.2-.1h.2a.1.1,0,0,1,.1-.1l-.7-.2h-.6a.1.1,0,0,0-.1.1l-.4.2h-.1a.1.1,0,0,0-.1.1l-.2.2c-.1,0-.1.1-.2.2l-.2.3h.4c.1,0,.1,0,.1-.1Z"/>
          <path class="cls-3" d="M29.8,35.7a.1.1,0,0,0,.1-.1l.3-.3.2-.2.2-.2h.1l-.6-.3c0,.1-.1.1-.1.2l-.3.2a.3.3,0,0,1-.1.2l-.3.3-.3.4a7961314590657.4,7961314590657.4,0,0,0-.2.2h0l.6.2.3-.4C29.7,35.8,29.8,35.8,29.8,35.7Z"/>
          <path class="cls-3" d="M31.1,36.2h.2l.3-.3.3-.2c.1,0,.1-.1.2-.2h.1l-.7-.2h0l-.3.3H31c-.1.1-.1.2-.2.2s-.1.1-.1.2-.1.2-.2.2-.1.1-.1.2l-.2.2h-.1l.5.2.3-.4C30.9,36.3,31,36.3,31.1,36.2Z"/>
          <path class="cls-3" d="M27.1,34.5l.3-.5h0l.2-.2.2-.2-.7-.3H27l-.3.4c-.1.1-.1.1-.1.2h-.1l-.3.4h0c-.1.2-.2.3-.2.4l.6.3a4.3,4.3,0,0,1,.4-.7A.1.1,0,0,1,27.1,34.5Z"/>
          <path class="cls-3" d="M42.8,41.2c0-.1-.1-.2-.1-.4v-.2a.1.1,0,0,1-.1-.1c.1-.2,0-.3,0-.4s-.1-.1-.1-.2-.1-.2-.1-.3v-.2h-.1l-.7-.3c0,.1.1.1.1.2h0l.2.3v.2l.2.3v.3l.2.4v.4c.1,0,.1.1.1.2l.4.2v-.3Z"/>
          <path class="cls-3" d="M31.9,37l.3-.2.2-.2.4-.2h.3c.1,0,.2,0,.2-.1s.2,0,.2-.1h.3l-.7-.2h-.6a.1.1,0,0,0-.1.1l-.4.2h-.1a.1.1,0,0,0-.1.1l-.2.2c-.1,0-.1.1-.2.2s-.1.2-.2.2l.4.2c.1,0,.1,0,.1-.1Z"/>
          <path class="cls-3" d="M25.8,32.8h0l-5.2-1.9-.7,1.8,5,1.9.2-.3v-.2a.4.4,0,0,1,.1-.3h.1a.1.1,0,0,0,.1-.1l.3-.4c0-.1.1-.2.2-.3Z"/>
          <path class="cls-3" d="M41.6,40.6h0c0-.1,0-.2-.1-.2v-.2c0-.1-.1-.2-.1-.3a.1.1,0,0,0-.1-.1v-.2h0c0-.1-.1-.1-.1-.2l-.2-.3a.1.1,0,0,0-.1-.1.3.3,0,0,0-.1-.2h0l-.8-.3h0l.3.3c.1.1.1.3.2.4h.1l.2.3c0,.2.1.3.1.4s.2.3.2.5a.5.5,0,0,1,.2.4h0c.1,0,.1,0,.1.1h.4a.4.4,0,0,0-.1-.3Z"/>
          <path class="cls-3" d="M33.3,37.4l.5-.3h2l-.9-.3H33.7a.1.1,0,0,1-.1.1h-.4l-.4.2-.2.2-.3.2.6.2h0Z"/>
          <path class="cls-3" d="M40.2,40.1h-.1v-.2c-.1,0-.1-.1-.2-.2h0a.1.1,0,0,1-.1-.1l-.3-.4c0-.1-.1-.1-.2-.2l-.2-.3H39l-.5-.3-.4-.3h-.4l-.4-.2H34l-.2.2h-.2l.5.2h3.7c.1,0,.2,0,.2.1h.2c0,.1.1.1.2.2l.4.3a.1.1,0,0,1,.1.1v.2c.1.1.2.2.2.3s.1.2.2.2l.2.3h0a.3.3,0,0,1,.1.2l.7.2a.1.1,0,0,1-.1-.1C40.3,40.4,40.2,40.3,40.2,40.1Z"/>
          <path class="cls-3" d="M27.1,34.5l.3-.5h0l.2-.2.2-.2-.7-.3H27l-.3.4c-.1.1-.1.1-.1.2h-.1l-.3.4h0c-.1.2-.2.3-.2.4l.6.3a4.3,4.3,0,0,1,.4-.7A.1.1,0,0,1,27.1,34.5Z"/>
          <path class="cls-3" d="M28.3,35.4l.2-.2h0c.1-.1.2-.2.2-.3l.3-.4h.1l.2-.2-.7-.3h0l-.2.2a.1.1,0,0,0-.1.1l-.2.2-.2.3h-.1a.8.8,0,0,1-.2.4l-.2.3h-.1l.7.3h.1Z"/>
          <path class="cls-3" d="M43.9,41.6h0a.9.9,0,0,1-.1-.5.3.3,0,0,0-.1-.2h0v-.3c0-.2,0-.3-.1-.4v-.2c0-.1,0-.1-.1-.1h0l-.6-.2h0c0,.1.1.1.1.2V40c0,.1,0,.1.1.2v.2c0,.1.1.3.1.4s.1.2.1.3v.6h0l.6.2v-.4Z"/>
          <path class="cls-3" d="M29.8,35.7a.1.1,0,0,0,.1-.1l.3-.3.2-.2.2-.2h.1l-.6-.3c0,.1-.1.1-.1.2l-.3.2a.3.3,0,0,1-.1.2l-.3.3-.3.4a7961314590657.4,7961314590657.4,0,0,0-.2.2h0l.6.2.3-.4C29.7,35.8,29.8,35.8,29.8,35.7Z"/>
          <path class="cls-3" d="M31.1,36.2h.2l.3-.3.3-.2c.1,0,.1-.1.2-.2h.1l-.7-.2h0l-.3.3H31c-.1.1-.1.2-.2.2s-.1.1-.1.2-.1.2-.2.2-.1.1-.1.2l-.2.2h-.1l.5.2.3-.4C30.9,36.3,31,36.3,31.1,36.2Z"/>
          <path class="cls-3" d="M38.5,39.6h-.2c0-.1-.1-.1-.2-.2l-.3-.2H36.5c-.1,0-.2,0-.2-.1h-1l.8.3h1.4l.4.2.2.2h.1l.5.2h0Z"/>
        </g>
        <g>
          <path class="cls-3" d="M44.3,40h0v.2a.4.4,0,0,1,.1.3c0,.2.1.3.1.5v.7h.1V42h0s-.1.1,0,.1h0L48,43.9l2.9-1.3h0c0-.1-.1-.1-.1-.2h.1v-.7a1.1,1.1,0,0,0,.1-.5c.1-.1.1-.2.1-.4a.1.1,0,0,1,.1-.1h0l-3.3,1.4Z"/>
          <path class="cls-3" d="M61.7,38.4a.1.1,0,0,0-.1-.1H57.8l-.5.2-.4.2-.5.3h0l-.3.3-.2.2-.3.4h-.1a.3.3,0,0,1-.1.2c-.1.1-.1.1-.1.2h0a.5.5,0,0,1-.2.4h0l.6-.2h0a.3.3,0,0,0,.1-.2.1.1,0,0,1,.1-.1c0-.1.1-.2.1-.3s.1-.1.2-.2l.2-.3c0-.1.1-.1.1-.2s.1,0,.1-.1l.5-.3c0-.1.1-.1.2-.2h4l.6-.2h-.2Z"/>
          <path class="cls-3" d="M52.6,39.9l-.7.2h0a14128603662672.2,14128603662672.2,0,0,0-.2.6v.3h0c0,.1-.1.1-.1.2v.5a.1.1,0,0,0-.1.1v.4l.6-.2h0v-.3a.8.8,0,0,1,.1-.4v-.2a.8.8,0,0,0,.1-.4c.1-.1.1-.1.1-.2v-.2c0-.1,0-.2.1-.2V40h.1Z"/>
          <path class="cls-3" d="M53.7,39.6l.2-.2h0l-.8.3h0a.4.4,0,0,1-.1.3c0,.1,0,.2-.1.2v.3a.4.4,0,0,0-.1.3V41c0,.1-.1.1-.1.2a.6.6,0,0,1-.1.4h0V42l.4-.2h0a.4.4,0,0,0,.1-.3h0v-.2a.8.8,0,0,1,.1-.4.4.4,0,0,1,.1-.3c0-.1.1-.2.1-.3s0-.1.1-.2.1-.2.1-.3Z"/>
          <path class="cls-3" d="M64.3,37.5l-.2-.3a.2.2,0,0,1-.2-.2h-.2c0-.1-.1-.1-.1-.2h-.2l-.3-.2h-.7l-.7.3h.1a.1.1,0,0,1,.1.1h.3a.1.1,0,0,1,.1.1h.4l.4.2h.2l.3.3h.2l.5-.2Z"/>
          <path class="cls-3" d="M74.9,30.9l-5.2,2.5h-.2c.1.1.2.2.2.3l.3.4a.3.3,0,0,0,.1.2h0a.2.2,0,0,1,.2.2c0,.1.1.2.1.3s.1.1.2.2l5-2.3Z"/>
          <path class="cls-3" d="M55.5,38.8h.1l-.8.3h0l-.2.3h-.1l-.2.3v.2a.1.1,0,0,0-.1.1c0,.1-.1.1-.1.2h0l-.2.3v.2h-.1v.2a.3.3,0,0,0-.1.2h.5c.1-.2.1-.3.2-.4l.2-.5c.1-.1.1-.3.2-.4s.1-.2.2-.3h0l.3-.4Z"/>
          <path class="cls-3" d="M63.1,38a.2.2,0,0,0-.2-.2l-.3-.2-.3-.2-.3-.2H60.6l-1,.4h1.6c.1,0,.2,0,.2.1s.2,0,.2.1h.1l.4.2.4.3h.1l.5-.2Z"/>
          <path class="cls-3" d="M69.5,35.5c0-.1-.1-.2-.2-.4h-.1c0-.1-.1-.2-.2-.3a.1.1,0,0,0-.1-.1c0-.1-.1-.1-.1-.2l-.3-.4h-.1l-.7.3.2.2.2.2h0l.3.5h.1l.4.7h0l.6-.3Z"/>
          <path class="cls-3" d="M68.1,36l-.2-.3-.3-.4h0c-.1-.1-.2-.2-.2-.3s-.1-.1-.2-.2h-.1l-.2-.2h0l-.7.3h0l.2.2h.1a.8.8,0,0,1,.2.4c.1.1.2.2.2.3H67c.1.1.1.2.2.2s.1.2.2.3h0l.7-.2Z"/>
          <path class="cls-3" d="M66.7,36.6h-.2a.1.1,0,0,0-.1-.1l-.3-.4c0-.1-.1-.2-.2-.3a.3.3,0,0,1-.1-.2l-.3-.3h-.1l-.6.2c0,.1.1.1.1.2l.2.2.2.2.3.3a.1.1,0,0,0,.1.1h.1l.3.5.6-.2Z"/>
          <path class="cls-3" d="M65.1,36.8c0-.1-.1-.1-.1-.2s-.2-.1-.2-.2l-.2-.2c0-.1-.1-.1-.1-.2l-.2-.2-.3-.2h-.1l-.6.3h.1c0,.1.1.1.2.2l.3.2.3.3h.2l.2.2c.1.1.1.3.2.4l.6-.2a.1.1,0,0,1-.1-.1C65.2,36.9,65.2,36.8,65.1,36.8Z"/>
          <path class="cls-3" d="M59.8,39.1H58.2a.5.5,0,0,0-.4.2h-.1l-.4.2-.2.2h-.2c0,.1-.1.2-.1.3a.1.1,0,0,0-.1.1l.6-.2h0a.1.1,0,0,1,.1-.1c0-.1.1-.1.1-.2a.5.5,0,0,0,.4-.2h1.5l.8-.3h0C60,39.1,59.9,39,59.8,39.1Z"/>
        </g>
        <g>
          <path class="cls-3" d="M14.4,46.9c.1-.1.1-.3.2-.5h0a6.4,6.4,0,0,1,.2-.7,2.9,2.9,0,0,0,.2-.9.4.4,0,0,0,.1-.3l.3-.5H13.8c-.1.1-.1.3-.2.4a.8.8,0,0,0-.1.4,1.7,1.7,0,0,0-.2.5c-.1.2-.1.4-.2.6v.3c-.1.3-.1.6-.2.9s-.1.4-.2.6v.2h1.5v-.2C14.3,47.4,14.3,47.2,14.4,46.9Z"/>
          <path class="cls-3" d="M43.3,47c0-.1-.1-.1-.1-.2l-.2-.2-.2-.3-.4-.5c-.1-.1-.2-.1-.2-.2l-.3-.2c-.1-.1-.2-.2-.2-.3l-.3-.2c-.2-.2-.3-.4-.5-.5l-.4-.2-.4-.3H38.5l.7.5.8.6h.2a1.2,1.2,0,0,1,.5.5,3.4,3.4,0,0,1,.6.6l.8.7.6.6c0,.1.1.1.1.2a.3.3,0,0,1,.1.2h1a2.1,2.1,0,0,0-.4-.6Z"/>
          <path class="cls-3" d="M40.2,47.1h0l-.3-.2-.4-.3-.2-.2-.2-.2-.8-.5-.6-.2-.6-.3H37l-1.2-.2-1-.2H31.4l-.8.3-.8.2h-.4l-.8.4a.1.1,0,0,0-.1.1l-.8.3c0,.1,0,.1-.1.1s0,.1-.1.1-.2.1-.2.2l-.4.4-.3.4h-.1c-.1.1-.2.2-.2.3h1.2l.3-.4.7-.4.5-.3.6-.3.3-.2.7-.2h.3a.1.1,0,0,0,.1-.1h.3l.6-.2h3.9l1.1.4h.2l.4.2.6.4a1,1,0,0,0,.5.4l.5.3c0,.1.1.1.2.2s.1.2.2.3h1.4a.2.2,0,0,0-.2-.2Z"/>
          <path class="cls-3" d="M36.7,47.4l-.4-.2h-.5l-.9-.2H32.3l-.5.2h-.5l-.7.3-.7.2h1.8l.6-.2h.2l.5-.2h.5c0-.1.1-.1.2-.1h.5a.3.3,0,0,1,.4,0h.9l.5.2h1.5l-.3-.2Z"/>
          <path class="cls-3" d="M25.3,46.9l.7-.8h.1l.3-.3a.5.5,0,0,1,.4-.2h0l.4-.3a1.5,1.5,0,0,1,.6-.4l.7-.4.8-.3H27.4l-.8.5-.4.3-.4.2a.8.8,0,0,1-.4.4h-.1l-.2.3-.4.4-.5.7-.4.5-.3.6h1.2c0-.1.1-.1.1-.2A3.5,3.5,0,0,0,25.3,46.9Z"/>
          <path class="cls-3" d="M48.3,47.1c0-.1-.1-.1-.1-.2a2,2,0,0,1-.4-.8l-.3-.3h-.1l-.3-.6-.4-.6-.3-.4c0-.1,0-.1-.1-.2H45l.3.3.2.3c.1.1.1.3.2.4l.3.4.4.6.4.5.3.6.3.5v.2h1.3l-.2-.3A.8.8,0,0,0,48.3,47.1Z"/>
          <path class="cls-3" d="M46,47.3l-.4-.8-.3-.3a.4.4,0,0,1-.1-.3l-.4-.6c-.1-.2-.3-.3-.4-.4l-.3-.4-.3-.5a.1.1,0,0,1-.1-.1H42.1l.3.4h.2l.5.4c.1.1.1.3.2.3l.5.6.4.5.5.7c.1.1.2.2.2.3s.1.2.2.2.2.3.2.5h1c0-.2-.1-.3-.2-.5A.1.1,0,0,1,46,47.3Z"/>
          <path class="cls-3" d="M22.3,47.2l.4-.6.3-.4.5-.7.3-.3.3-.4.3-.2.3-.4c.1,0,.1-.1.2-.2H23.5l-.4.3-.4.5c-.1.1-.2.1-.2.2s-.4.3-.5.6-.2.2-.2.3l-.2.3c0,.2-.1.3-.1.4l-.3.6c0,.2-.1.4-.1.7H22c0-.1,0-.2.1-.2Z"/>
          <path class="cls-3" d="M17.4,46.4l.2-.3.3-.7c0-.2.1-.3.2-.5s.1-.4.2-.6.1-.3.2-.4H17.2l-.2.4c-.2.2-.2.5-.3.7a.7.7,0,0,0-.1.5,1.4,1.4,0,0,0-.2.6,3,3,0,0,0-.4,1,.4.4,0,0,1-.1.3c0,.1-.1.2-.1.3v.2h1.3c.1-.4.1-.8.2-1.2A.4.4,0,0,0,17.4,46.4Z"/>
          <path class="cls-3" d="M20.2,46.4c.1,0,.1-.1.1-.2s.1-.3.2-.4l.3-.8a2.1,2.1,0,0,1,.4-.6l.3-.4H20.2c-.1.3-.3.5-.4.8a.8.8,0,0,0-.2.4,1.4,1.4,0,0,0-.2.6c-.1.1-.1.2-.2.4a1.4,1.4,0,0,1-.2.6.4.4,0,0,1-.1.3,4.3,4.3,0,0,1-.1.5.6.6,0,0,0-.1.4h1.1a4.4,4.4,0,0,0,.2-1Z"/>
          <path class="cls-3" d="M11.4,46.1c.1-.4.1-.7.2-1.1h0a1.4,1.4,0,0,0,.2-.7.8.8,0,0,0,.2-.4H10.5c0,.1-.1.2-.1.3l-.3.9v.3a.4.4,0,0,0-.1.3,2.9,2.9,0,0,0-.2.9h0V47a2.8,2.8,0,0,0-.1.9H11a10.5,10.5,0,0,1,.4-1.7Z"/>
          <path class="cls-3" d="M46,47.3l-.4-.8-.3-.3a.4.4,0,0,1-.1-.3l-.4-.6c-.1-.2-.3-.3-.4-.4l-.3-.4-.3-.5H42.1l.3.4h.2l.5.4c.1.1.1.3.2.3l.5.6.4.5.5.7c.1.1.2.2.2.3s.1.2.2.2.2.3.2.5h1l-.2-.5A.1.1,0,0,1,46,47.3Z"/>
          <path class="cls-3" d="M22.3,47.2l.4-.6.3-.4.5-.7.3-.3.3-.4.3-.2.3-.4c.1,0,.1-.1.2-.2H23.5l-.4.3-.4.5c-.1.1-.2.1-.2.2s-.4.3-.5.6-.2.2-.2.3l-.2.3c0,.2-.1.3-.1.4l-.3.6c0,.2-.1.4-.1.7H22c0-.1,0-.2.1-.2Z"/>
          <path class="cls-3" d="M7.8,43.9H0v4H7.4c0-.2.1-.4.1-.6v-.6a.7.7,0,0,1,.2-.6v-.2a.8.8,0,0,0,.1-.4c.1-.3.1-.6.2-.9s.1-.5.1-.7Z"/>
          <path class="cls-3" d="M43.3,47c0-.1-.1-.1-.1-.2l-.2-.2-.2-.3-.4-.5c-.1-.1-.2-.1-.2-.2l-.3-.2c-.1-.1-.2-.2-.2-.3l-.3-.2c-.2-.2-.3-.4-.5-.5l-.4-.2-.4-.3H38.5l.7.5.8.6h.2a1.2,1.2,0,0,1,.5.5,3.4,3.4,0,0,1,.6.6l.8.7.6.6c0,.1.1.1.1.2a.3.3,0,0,1,.1.2h1a2.1,2.1,0,0,0-.4-.6Z"/>
          <path class="cls-3" d="M25.3,46.9l.7-.8h.1l.3-.3a.5.5,0,0,1,.4-.2h0l.4-.3a1.5,1.5,0,0,1,.6-.4l.7-.4.8-.3H27.4l-.8.5-.4.3-.4.2a.8.8,0,0,1-.4.4h-.1l-.2.3-.4.4-.5.7-.4.5-.3.6h1.2c0-.1.1-.1.1-.2A3.5,3.5,0,0,0,25.3,46.9Z"/>
          <path class="cls-3" d="M40.2,47.1h0l-.3-.2-.4-.3-.2-.2-.2-.2-.8-.5-.6-.2-.6-.3H37l-1.2-.2-1-.2H31.4l-.8.3-.8.2h-.4l-.8.4a.1.1,0,0,0-.1.1l-.8.3c0,.1,0,.1-.1.1s0,.1-.1.1-.2.1-.2.2l-.4.4-.3.4h-.1c-.1.1-.2.2-.2.3h1.2l.3-.4.7-.4.5-.3.6-.3.3-.2.7-.2h.3a.1.1,0,0,0,.1-.1h.3l.6-.2h3.9l1.1.4h.2l.4.2.6.4a1,1,0,0,0,.5.4l.5.3c0,.1.1.1.2.2s.1.2.2.3h1.4a.2.2,0,0,0-.2-.2Z"/>
          <path class="cls-3" d="M11.4,46.1c.1-.4.1-.7.2-1.1h0a1.4,1.4,0,0,0,.2-.7.8.8,0,0,0,.2-.4H10.5c0,.1-.1.2-.1.3l-.3.9v.3a.4.4,0,0,0-.1.3,2.9,2.9,0,0,0-.2.9h0V47a2.8,2.8,0,0,0-.1.9H11a10.5,10.5,0,0,1,.4-1.7Z"/>
          <path class="cls-3" d="M14.4,46.9c.1-.1.1-.3.2-.5h0a6.4,6.4,0,0,1,.2-.7,2.9,2.9,0,0,0,.2-.9.4.4,0,0,0,.1-.3l.3-.5H13.8c-.1.1-.1.3-.2.4a.8.8,0,0,0-.1.4,1.7,1.7,0,0,0-.2.5c-.1.2-.1.4-.2.6v.3c-.1.3-.1.6-.2.9s-.1.4-.2.6v.2h1.5v-.2C14.3,47.4,14.3,47.2,14.4,46.9Z"/>
          <path class="cls-3" d="M48.3,47.1c0-.1-.1-.1-.1-.2a2,2,0,0,1-.4-.8l-.3-.3h-.1l-.3-.6-.4-.6-.3-.4c0-.1,0-.1-.1-.2H45l.3.3.2.3c.1.1.1.3.2.4l.3.4.4.6.4.5.3.6.3.5v.2h1.2a.4.4,0,0,0-.1-.3A.8.8,0,0,0,48.3,47.1Z"/>
          <path class="cls-3" d="M17.4,46.4l.2-.3.3-.7c0-.2.1-.3.2-.5s.1-.4.2-.6.1-.3.2-.4H17.1c0,.1-.1.3-.1.4s-.2.5-.3.7a.7.7,0,0,0-.1.5,1.4,1.4,0,0,0-.2.6,3,3,0,0,0-.4,1,.4.4,0,0,1-.1.3c0,.1-.1.2-.1.3v.2h1.3c.1-.4.1-.8.2-1.2A.4.4,0,0,0,17.4,46.4Z"/>
          <path class="cls-3" d="M20.2,46.4c.1,0,.1-.1.1-.2s.1-.3.2-.4l.3-.8a2.1,2.1,0,0,1,.4-.6l.3-.4H20.2c-.1.3-.3.5-.4.8a.8.8,0,0,0-.2.4,1.4,1.4,0,0,0-.2.6c-.1.1-.1.2-.2.4a1.4,1.4,0,0,1-.2.6.4.4,0,0,1-.1.3,4.3,4.3,0,0,1-.1.5c-.1.1-.1.2-.1.4h1.1a4.4,4.4,0,0,0,.2-1Z"/>
          <path class="cls-3" d="M36.7,47.4l-.4-.2h-.5l-.9-.2H32.3l-.5.2h-.5l-.7.3-.7.2h1.8l.6-.2h.2l.5-.2h.5c0-.1.1-.1.2-.1h.5a.3.3,0,0,1,.4,0h.9l.5.2h1.4a.2.2,0,0,0-.2-.2Z"/>
          <path class="cls-3" d="M95.2,43.9H47.9l.2.2.4.6a3.5,3.5,0,0,1,.5.8l.3.6.3.8a.1.1,0,0,1,.1.1l.2.3a.4.4,0,0,0,.1.3v.2c.1,0,.1,0,.1.1H95.2Z"/>
        </g>
      </g>
    </g>
  </g>
</svg>
