<svg xmlns="http://www.w3.org/2000/svg" width="95.2" height="47.9" viewBox="0 0 95.2 47.9">
  <defs>
    <style>
      .cls-1 {
        fill: #fff;
        opacity: 0.6;
      }

      .cls-2 {
        opacity: 0.25;
      }

      .cls-3 {
        fill: #c1574c;
      }

      .cls-4 {
        opacity: 0.4;
      }

      .cls-5 {
        opacity: 0.65;
      }
    </style>
  </defs>
  <title>customizable</title>
  <g id="Layer_2" data-name="Layer 2">
    <g id="Layer_1-2" data-name="Layer 1">
      <g>
        <polyline class="cls-1" points="0 47.9 0 0 95.2 0 95.2 47.9"/>
        <g class="cls-2">
          <path class="cls-3" d="M54.5,25.8h-1c-.2.1-.3.3-.4.4H53c-.2.1-.3.3-.4.4l-.2.3-.3.4-.3.4-.4.5c0,.2-.1.3-.2.5a.8.8,0,0,0-.2.4,1.4,1.4,0,0,0-.2.6c-.1.2-.1.4-.2.6s-.1.5-.1.8h0V32c0,.2,0,.3.1.4a1.3,1.3,0,0,0,.1.6v.2c.1.1.1.1.1.2a.4.4,0,0,0,.1.3v.2h0l.2.5a.3.3,0,0,1,.1.2l.3-.9h0c0-.1-.1-.1-.1-.2v-.2c-.1-.1-.1-.2-.1-.4a.4.4,0,0,1-.1-.3.9.9,0,0,1-.1-.5.4.4,0,0,1-.1-.3h0v-.8a.4.4,0,0,0,.1-.3c0-.1.1-.1.1-.2v-.3a.4.4,0,0,0,.1-.3c.1-.2.1-.3.2-.4a.8.8,0,0,1,.2-.4h0l.2-.3.3-.4h.1a.1.1,0,0,0,.1-.1l.4-.3a.3.3,0,0,1,.1-.2l.3-.3.3-.3.5-.3h.3l.3-.7h-.3Z"/>
          <path class="cls-3" d="M50,37v-.2a.2.2,0,0,1-.2-.2l-.3-.5c-.1-.1-.2-.2-.2-.3a.8.8,0,0,1-.2-.4l-.2-.2c0-.2-.1-.3-.1-.4v-.2c0-.1-.1-.2-.1-.3h0l-.4,1h.1c0,.1.1.2.2.3s.1.2.1.3l.2.3.3.4h.1l.2.3.3.4c.1,0,.1,0,.1.1l.2.3.2-.7h0Z"/>
          <path class="cls-3" d="M56,22.5H54.4l-.5.2h-.2l-.4.2H53l-.4.9h0a.1.1,0,0,0,.1-.1h.2l.3-.2H54l.5-.2h1.3l.2-.6Z"/>
          <path class="cls-3" d="M60,5.2l-3.3,8.4h1.8l.3.2h.4l3.2-8.1Z"/>
          <path class="cls-3" d="M50.8,35.8h-.1v-.2l-.3-.5c-.1-.2-.1-.4-.2-.6l-.3-.5c0-.1-.1-.3-.1-.4v-.2a1.4,1.4,0,0,1-.2-.6,1.3,1.3,0,0,1-.1-.6h0l-.4,1h0a.4.4,0,0,0,.1.3v.3a.5.5,0,0,0,.2.4v.3c.1,0,.1.1.1.2s.1.1.1.2h.1c.1.2.1.3.2.4a.3.3,0,0,0,.1.2c0,.1.1.1.1.2h.1a.3.3,0,0,1,.1.2l.2.3a.1.1,0,0,1,.1.1l.2-.6Z"/>
          <path class="cls-3" d="M55.4,24H53.1l-.2.2h-.3l-.5.4H52l-.4,1.2h.1l.4-.4.4-.4.4-.2.2-.2h.1l.2-.2h.4l.6-.2h.7l.3-.7Z"/>
          <path class="cls-3" d="M58.7,15.6H56.1l-.4.9h1.5c0,.1,0,.1.1.1l1,.2.4-.9Z"/>
          <path class="cls-3" d="M57.8,17.4H55.3l-.4,1h2.7l.4-1h-.2Z"/>
          <path class="cls-3" d="M57.2,19.3H54.5l-.3.8h2.7l.3-.8Z"/>
          <path class="cls-3" d="M56,21H53.7l-.3.8h2.9l.2-.7H56Z"/>
          <path class="cls-3" d="M53.9,27.9h0l-.4.3-.3.4-.2.3-.2.2c-.1.2-.1.3-.2.4v.2l-.2.4c0,.1-.1.3-.1.4v.2c0,.2-.1.4-.1.6v.6a.8.8,0,0,0,.1.4v.2h0l.3-.8h0v-.5c0-.2.1-.4.1-.6a.3.3,0,0,0,.1-.2h.1v-.2c0-.1.1-.1.1-.2l.2-.2c0-.1.1-.2.1-.3h.1l.3-.4h0l.4-1Z"/>
          <path class="cls-3" d="M45.8,37.7h0c0-.1.1-.2.2-.3h.1l.3-.5c.1,0,.1-.1.2-.2s0-.1.1-.2l.3-.3c0-.1.1-.2.1-.3s.2-.2.2-.3l.2-.3h.1l-.4-1c0,.1-.1.2-.1.3H47c0,.2-.1.3-.1.4l-.2.3c0,.1-.1.2-.2.4l-.2.3-.3.5-.2.2v.2l-.2.2h0l.3.6Z"/>
          <path class="cls-3" d="M41,23.1h.4l.5.2H43a.1.1,0,0,0,.1.1h.2l-.4-.9h0l-.3-.2a.5.5,0,0,1-.4-.2H42l-.5-.2H39.9l.2.5H41Z"/>
          <path class="cls-3" d="M37.9,13.8h1.5v-.2h0L36.1,5l-2.4.9L36.8,14h1.1Z"/>
          <path class="cls-3" d="M45.6,35.7c0-.1,0-.1.1-.1s0-.1.1-.2.1-.1.1-.2.1-.2.2-.4h.1a.4.4,0,0,1,.1-.3.3.3,0,0,1,.1-.2V34a.5.5,0,0,0,.2-.4v-.3a.4.4,0,0,0,.1-.3h0l-.4-1.1h0a.7.7,0,0,1-.1.5,1.4,1.4,0,0,1-.2.7h0a4.3,4.3,0,0,1-.1.5l-.3.5c-.1.2-.1.4-.2.6l-.3.5H45l.2.6h.1l.2-.3A.3.3,0,0,1,45.6,35.7Z"/>
          <path class="cls-3" d="M42.1,24.9h.4l.2.2H43l.4.3.4.4.4.4a.1.1,0,0,1,.1.1h0l-.5-1.3h0l-.5-.4-.3-.2h-.2l-.3-.2h-.7l-.5-.2h-.8l.3.7h.7Z"/>
          <path class="cls-3" d="M45.1,33.1c0-.1,0-.1.1-.2a1.3,1.3,0,0,1,.1-.6v-.9h0a1.9,1.9,0,0,0-.1-.8c0-.2-.1-.4-.1-.6a1.4,1.4,0,0,1-.2-.6l-.3-.4a.8.8,0,0,0-.2-.5l-.3-.5-.3-.5-.4-.4a.3.3,0,0,1-.1-.2l-.4-.4a.1.1,0,0,1-.1-.1l-.4-.3c0-.1,0-.1-.1-.1h-.5l-.3-.2h-.4l.3.7h0l.3.2.4.3.3.2.3.3.2.2.3.4h.1a.1.1,0,0,1,.1.1h.1l.2.3.2.3c0,.1,0,.2.1.2s.1.3.2.4.1.2.1.3.1.3.1.4l.2.3v.2a.4.4,0,0,1,.1.3V32c-.1.1-.1.3-.2.5a.4.4,0,0,1-.1.3v.4c-.1.1-.1.1-.1.2a.3.3,0,0,0-.1.2h0l.3.8h.1c.1-.2.1-.4.2-.5h0a.4.4,0,0,0,.1-.3c.1-.1.1-.1.1-.2Z"/>
          <path class="cls-3" d="M38.8,16.1l.7-.2h.8l-.4-.9H37.3l.3.9,1.1-.2Z"/>
          <path class="cls-3" d="M39.3,18.1H41l-.3-1H38.1a.1.1,0,0,1-.1.1h0l.3.9h1Z"/>
          <path class="cls-3" d="M40,19.8h1.8l-.4-.8h-.7c-.1-.1-.2,0-.3,0H38.7l.3.7h1Z"/>
          <path class="cls-3" d="M40.6,21.5h1.8a.1.1,0,0,0,.1.1h0l-.3-.9H39.4l.2.7h1Z"/>
          <path class="cls-3" d="M43.8,31.1a.7.7,0,0,0-.1-.5v-.2l-.2-.5v-.3c-.1-.1-.1-.1-.1-.2L43,29c0-.1-.1-.2-.2-.3a.2.2,0,0,0-.2-.2l-.3-.4c-.1-.2-.2-.2-.3-.3h0l.4,1.1h0c.1.1.1.2.2.4a.1.1,0,0,1,.1.1l.2.2c0,.1.1.2.1.3h.1c0,.1.1.2.1.3h0c.1,0,.1.1.1.2a1.3,1.3,0,0,1,.1.6v.3h0l.3.7v-.5c.1-.1,0-.2,0-.3Z"/>
        </g>
        <g class="cls-4">
          <path class="cls-3" d="M44.7,36.4l-.7-.6h0v.5a.4.4,0,0,0-.1.3.4.4,0,0,1-.1.3v.5a.4.4,0,0,1-.1.3.7.7,0,0,1-.1.5.4.4,0,0,1-.1.3v.2l.6.5v-.2a.4.4,0,0,0,.1-.3c.1-.1,0-.1.1-.2a4.3,4.3,0,0,0,.1-.5v-.3h0c.1-.1.1-.2.2-.4V37c0-.2.1-.3.1-.4h0Z"/>
          <path class="cls-3" d="M43.5,35.3l-.8-.7h0v.5c.1.1.1.2.1.4a.3.3,0,0,1-.1.2v.9c0,.2-.1.4-.1.6v.4a.4.4,0,0,0-.1.3h0l.5.5V38h.1a1.1,1.1,0,0,1,.1-.5v-.3c0-.1.1-.1.1-.2a1.1,1.1,0,0,1,.1-.5v-.6c0-.2,0-.3.1-.4Z"/>
          <path class="cls-3" d="M32.6,27.2h2.1l-.7-.6H32.4c0,.1-.1.1-.2.1h-.5l-.3.2a.5.5,0,0,0-.4.2h0l.4.4h1.2Z"/>
          <path class="cls-3" d="M26.2,19.7l.4-.3h-.1l-6.6-6.1L18.2,15l6.3,6,.3-.2.3-.3.3-.2h.4C25.9,20,26.1,19.9,26.2,19.7Z"/>
          <path class="cls-3" d="M42,35.2V35a.3.3,0,0,0-.1-.2c.1-.2,0-.4,0-.5a.4.4,0,0,0-.1-.3v-.3h0l-.8-.8h0c0,.2.1.3.1.5a1.7,1.7,0,0,1,.1.7h.1v.5c.1.2,0,.4,0,.5a2,2,0,0,1,.1.7v.6h-.1l.5.4h0c.1-.1.1-.2.1-.4v-.2h0a.3.3,0,0,1,.1-.2V35.2Z"/>
          <path class="cls-3" d="M34.1,28.5h1.5l.5.2h.7l-1-.9h0l-.7-.2H32.2l.5.5h.1l.7-.2Z"/>
          <path class="cls-3" d="M40.3,34.7v-.4a1.4,1.4,0,0,0-.2-.6.8.8,0,0,0-.1-.4c-.1-.1-.1-.2-.2-.4h0l-.5-.6-.3-.5-.5-.4-.4-.3-.4-.3a1,1,0,0,0-.5-.4l-.5-.2-.5-.2-.2-.2-.5-.2h-.1l-.6-.2H33.4l.6.6h1.9l.4.2h.4l.4.2.3.2h.1l.3.3.3.2.3.3.2.2h.2c0,.1.1.2.2.3l.3.7a.1.1,0,0,1,.1.1.4.4,0,0,0,.1.3,1.1,1.1,0,0,0,.1.5v.3a.8.8,0,0,1,.1.4v.4h0l.7.7v-.7h0V35A.4.4,0,0,0,40.3,34.7Z"/>
          <path class="cls-3" d="M27.2,21.9l.6-.4h0l.4-.2h.3l-.7-.7h-.2L27,21a.1.1,0,0,0-.1.1h-.2l-.5.4h0l-.2.2-.4.3.6.6.9-.6C27.2,22,27.2,22,27.2,21.9Z"/>
          <path class="cls-3" d="M28.7,23.5l.3-.3.5-.3h.6l-.8-.7h-.5l-.3.2-.4.2H28l-.5.3-.4.3H27l.7.7h.2l.4-.3.3-.2Z"/>
          <path class="cls-3" d="M30.1,24.7l.5-.2h.3l.4-.2h.2l-.6-.6h-.3l-.4.2-.3.2-.4.2-.5.3h-.4c-.1,0-.1,0-.1.1h0l.6.5.6-.4h.2C30,24.8,30.1,24.8,30.1,24.7Z"/>
          <path class="cls-3" d="M31.4,26h.2l.6-.2a.5.5,0,0,1,.4-.2H33l-.6-.6h-.9l-.3.2h-.3l-.3.2-.3.2h-.2c-.1.1-.2.1-.2.2l.5.5.6-.4.2-.2Z"/>
          <path class="cls-3" d="M38.8,34.4v-.2a.4.4,0,0,0-.1-.3c0-.1-.1-.2-.1-.3l-.2-.3-.3-.5h-.1l-.4-.4-.3-.2h-.1l-.4-.3-.3-.2h-.3l-.5-.2-.4-.2h0l.8.8h0l.4.3h.1l.3.2h.4c0,.1.1.1.1.2h.1c.1,0,.1.1.2.2s.2.3.4.4a.4.4,0,0,0,.1.3h.1l.6.5Z"/>
          <path class="cls-3" d="M53.6,33.7h0a.4.4,0,0,0-.1.3v.3a.6.6,0,0,0-.1.4c.1.1,0,.2,0,.3a.3.3,0,0,0,.1.2c0,.1-.1.1-.1.2s0,.1.1.2v.6c0,.1.1.2.1.3h0v.2c0,.1.1.2.1.3v.2l.5-.5h0c0-.1-.1-.1-.1-.2h0V34.1c0-.2.1-.4.1-.7a4.3,4.3,0,0,0,.1-.5h0l-.7.8Z"/>
          <path class="cls-3" d="M61.4,28.9H60.2l-.5.2h-.1l-.5.3h-.3l-.4.3-.5.2-.5.4-.4.3-.3.4-.5.4-.3.5-.4.7h0a.8.8,0,0,0-.2.4c0,.1-.1.3-.1.4a1.3,1.3,0,0,0-.1.6c-.1,0,0,.1,0,.2a.3.3,0,0,1-.1.2v.5h0c.1.2,0,.4.1.5v.3l.6-.7h0v-.3h0v-.4a.8.8,0,0,0,.1-.4.9.9,0,0,1,.1-.5v-.3a.1.1,0,0,1,.1-.1l.3-.7.2-.3h.1c.1-.1.2-.2.2-.3l.3-.2c.1-.1.2-.2.2-.3l.4-.3h.1l.3-.2.3-.2h.4l.4-.2.3-.2h1.6l.5-.6h-.2Z"/>
          <path class="cls-3" d="M53,37.6h0c0-.1-.1-.2-.1-.3a1.3,1.3,0,0,0-.1-.6.8.8,0,0,0-.1-.4V35.1h0v-.4l-.7.8h0v.3a.6.6,0,0,1,.1.4v.3l.2.5h0a.4.4,0,0,0,.1.3c0,.2.1.4.1.6h.1a.4.4,0,0,0,.1.3l.4-.5h0C53.1,37.8,53,37.7,53,37.6Z"/>
          <path class="cls-3" d="M63.9,26.4l-.4-.2H60.9l-.7.7h3.3l.4-.5Z"/>
          <path class="cls-3" d="M74.1,11.8l-6.2,6.6h-.1l.4.3.5.3h.4l.3.2.3.2.3.3,6-6.4Z"/>
          <path class="cls-3" d="M62.8,27.6h-3l-.6.2h0l-.9,1h.1l.5-.2.5-.2h2.9l.5-.6Z"/>
          <path class="cls-3" d="M68.4,20.5h-.1l-.5-.3h-.1c-.1,0-.2,0-.2-.1l-.6-.3h-.2l-.6.8h.3l.4.2h0l.6.4h.1l.9.6L69,21l-.5-.3A.3.3,0,0,1,68.4,20.5Z"/>
          <path class="cls-3" d="M67.7,22.5h-.2l-.3-.3c-.2,0-.4-.2-.6-.3h-.1a.5.5,0,0,0-.4-.2l-.3-.2h-.5l-.8.8h.6l.5.3a.5.5,0,0,1,.4.2h.1l.3.2.5.2H67l.7-.7Z"/>
          <path class="cls-3" d="M52,38.5l-.2-.5v-.4a.6.6,0,0,1-.1-.4c0-.1-.1-.2-.1-.3a.4.4,0,0,0-.1-.3v-.5h0l-.6.7h0c0,.1.1.2.1.3s.1.3.1.4.1.3.1.4a.1.1,0,0,0,.1.1v.3c.1.2.1.4.2.6h0c0,.1.1.2.1.3s.1.1.1.2l.6-.6a.1.1,0,0,1-.1-.1C52.1,38.7,52,38.6,52,38.5Z"/>
          <path class="cls-3" d="M66,23.8h-.2l-.6-.3-.4-.2h-.3c-.2,0-.3-.2-.4-.2h-.3l-.6.6h.3l.3.2h.4l.4.2c.1,0,.2,0,.2.1H65l.7.4.6-.7H66Z"/>
          <path class="cls-3" d="M64.5,25.1l-.3-.2h-.6l-.3-.2h-.9l-.6.6h.4c.2-.1.3,0,.5.1h1.2l.6.4.5-.6h-.5Z"/>
          <path class="cls-3" d="M60,30.6h-.1l-.4.2-.4.2-.3.2-.3.2-.3.3c-.1,0-.2,0-.2.1l-.3.2-.3.4c0,.1-.1.1-.1.2L57,33c-.1.1-.1.3-.2.4a.3.3,0,0,0-.1.2.6.6,0,0,1-.1.4v.2l.6-.6h0v-.2c.1,0,.1-.1.1-.2l.4-.5a.2.2,0,0,1,.2-.2h0l.2-.2h.1l.3-.2h.3l.4-.3h0l.8-.8Z"/>
          <path class="cls-3" d="M50.9,40c0-.1-.1-.1-.1-.2v-.2h0l-.2-.5a.6.6,0,0,1-.1-.4,1.4,1.4,0,0,1-.2-.6c0-.1-.1-.3-.1-.4v-.2h0L48,40l-2.5-2.8h0v.2a.6.6,0,0,0-.1.4c0,.2-.1.5-.1.7a.4.4,0,0,0-.1.3,1.4,1.4,0,0,0-.2.6.1.1,0,0,1-.1.1v.2a.3.3,0,0,0-.1.2h-.1l2.7,3.2.4-.4.7.7L51,40.2h-.1Z"/>
        </g>
        <g class="cls-5">
          <path class="cls-3" d="M22.2,32.7l.2-.2a.1.1,0,0,1,.1-.1c.1-.1.1-.2.2-.4l.4-.4c0-.1.1-.1.1-.2l.3-.3-1-.3h0c-.1,0-.1.1-.2.2s-.1.1-.2.2l-.2.3-.3.3h-.1l-.3.5c-.1.1-.1.3-.2.4h-.1l.9.4h.1Z"/>
          <path class="cls-3" d="M39.6,39.6h0v-.2c0-.1,0-.2-.1-.2s-.1-.3-.1-.4-.1-.1-.1-.2-.1-.1-.1-.2v-.2c0-.1-.1-.1-.1-.2s-.1-.3-.2-.4-.1-.2-.2-.2-.1-.2-.1-.3h-.1l-1-.4h0c.2.1.3.3.4.4l.3.6h.1c.1.2.2.3.2.4l.3.5a1.4,1.4,0,0,0,.2.7.8.8,0,0,1,.2.5.1.1,0,0,1,.1.1v.2l.6.2a.9.9,0,0,0-.1-.5Z"/>
          <path class="cls-3" d="M37.8,38.9h-.1c0-.1,0-.2-.1-.2s-.1-.2-.1-.3-.1-.1-.1-.2h-.1l-.4-.5-.2-.3-.4-.3h0l-.7-.4-.5-.3-.6-.2-.5-.2H31.6a.6.6,0,0,0-.6,0h-.6a.1.1,0,0,0-.1.1h-.9c0,.1,0,.1-.1.1s-.1.1-.2.1h0l.7.3h4.5l.3.2h.5l.3.2.6.5c.1,0,.1,0,.1.1l.2.2.3.4.2.3a.5.5,0,0,0,.2.4h.1a.4.4,0,0,0,.1.3l.8.3c0-.1,0-.1-.1-.2S37.8,39.1,37.8,38.9Z"/>
          <path class="cls-3" d="M35.6,38.3c-.1-.1-.2-.1-.2-.2l-.3-.2-.5-.3h-.2l-.4-.2H31.8c-.1-.1-.3,0-.4,0h-.1l1.1.4h1.9l.5.3c.1.1.2.2.2.3h.2l.7.3c0-.1-.1-.1-.1-.2Z"/>
          <path class="cls-3" d="M28.8,35.3l.5-.3h.1l.3-.2h2.4L30.8,34H29.6l-.4.2h-.3l-.3.2-.5.3-.3.2-.3.3.7.3h.1Z"/>
          <path class="cls-3" d="M42.7,40.9c0-.1-.1-.1-.1-.2v-.6c-.1,0-.1-.1-.1-.2h0c-.1-.2,0-.3-.1-.4a.9.9,0,0,0-.1-.5.4.4,0,0,0-.1-.3h0l-.9-.3h.1a.3.3,0,0,0,.1.2v.2c0,.1.1.2.1.3v.3l.2.5a.8.8,0,0,0,.1.4v.4c0,.2.1.3.1.4h0l.7.3v-.5Z"/>
          <path class="cls-3" d="M41.2,40.4a.7.7,0,0,0-.1-.5.4.4,0,0,0-.1-.3v-.2a.9.9,0,0,0-.1-.5,9890022563867.5,9890022563867.5,0,0,1-.2-.6v-.4c-.1,0-.1,0-.1-.1l-1-.4c.1.1.1.2.2.4h0a.5.5,0,0,1,.2.4c.1,0,.1.1.1.2s.1.3.2.4,0,.3.1.4.1.4.1.6a.3.3,0,0,0,.1.2v.2c0,.1.1.2.1.3h0l.6.3c0-.2,0-.3-.1-.4Z"/>
          <path class="cls-3" d="M26.9,34.8l.4-.3c.1,0,.1-.1.2-.2L28,34h.8c0-.1.1-.1.2-.2h.4l-.9-.3h-.4l-.4.2h-.2l-.4.2c-.1.1-.2.1-.2.2h-.2a.2.2,0,0,1-.2.2l-.3.3c-.1.1-.1.3-.2.4l.5.2a.1.1,0,0,0,.1-.1Z"/>
          <path class="cls-3" d="M24.1,33.2l.2-.2.3-.4.3-.2.2-.3.3-.2-.8-.3-.3.2c-.1,0-.1.2-.3.3l-.2.3-.3.3a1,1,0,0,1-.4.5c0,.1-.1.1-.1.2s-.1.1-.2.2h0l.8.3a1.6,1.6,0,0,1,.4-.7Z"/>
          <path class="cls-3" d="M25.8,33.8h.1l.2-.2.4-.4.4-.3h.3l-.8-.3h0c-.2.1-.3.3-.4.4l-.3.2-.2.3c-.1,0-.1.1-.2.2l-.3.3c0,.1-.1.1-.1.2l-.2.2c-.1.1-.1.2-.2.2l.7.3.4-.6Z"/>
          <path class="cls-3" d="M20.5,31.5a2.1,2.1,0,0,0,.4-.6h0l.3-.3.2-.3-.9-.3h-.1l-.4.6h-.2l-.3.5a.1.1,0,0,0-.1.1.3.3,0,0,1-.1.2c0,.2-.1.3-.2.5l.8.3.6-.9Z"/>
          <path class="cls-3" d="M41.2,40.4a.7.7,0,0,0-.1-.5.4.4,0,0,0-.1-.3v-.2a.9.9,0,0,0-.1-.5,9890022563867.5,9890022563867.5,0,0,1-.2-.6v-.4c-.1,0-.1,0-.1-.1l-1-.4c.1.1.1.2.2.4h0a.5.5,0,0,1,.2.4c.1,0,.1.1.1.2s.1.3.2.4,0,.3.1.4.1.4.1.6a.3.3,0,0,0,.1.2v.2c0,.1.1.2.1.3l.6.3c0-.2,0-.3-.1-.4Z"/>
          <path class="cls-3" d="M26.9,34.8l.4-.3c.1,0,.1-.1.2-.2L28,34h.8c0-.1.1-.1.2-.2h.4l-.9-.3h-.4l-.4.2h-.2l-.4.2c-.1.1-.2.1-.2.2h-.2a.2.2,0,0,1-.2.2l-.3.3c-.1.1-.1.3-.2.4l.5.2a.1.1,0,0,0,.1-.1Z"/>
          <path class="cls-3" d="M18.9,29.3h0L12,26.8l-.9,2.4,6.6,2.5.2-.4A.4.4,0,0,0,18,31c.1-.1.1-.3.3-.3v-.4l.3-.4.3-.5Z"/>
          <path class="cls-3" d="M39.6,39.6h0v-.2c0-.1,0-.2-.1-.2s-.1-.3-.1-.4-.1-.1-.1-.2-.1-.1-.1-.2v-.2c0-.1-.1-.1-.1-.2s-.1-.3-.2-.4-.1-.2-.2-.2-.1-.2-.1-.3h-.1l-1-.4h0c.2.1.3.3.4.4l.3.6h.1c.1.2.2.3.2.4l.3.5a1.4,1.4,0,0,0,.2.7.8.8,0,0,1,.2.5.1.1,0,0,1,.1.1h0l.6.3a.9.9,0,0,0-.1-.5Z"/>
          <path class="cls-3" d="M28.8,35.3l.5-.3h.1l.3-.2H32L30.8,34H29.6l-.4.2h-.3l-.3.2-.5.3-.3.2-.3.3.7.2h.1Z"/>
          <path class="cls-3" d="M37.8,38.9h-.1c0-.1,0-.2-.1-.2s-.1-.2-.1-.3-.1-.1-.1-.2h-.1l-.4-.5-.2-.3-.4-.3h0l-.7-.4-.5-.3-.6-.2-.5-.2H31.6a.6.6,0,0,0-.6,0h-.6a.1.1,0,0,0-.1.1h-.9c0,.1,0,.1-.1.1s-.1.1-.2.1l.8.3h4.4l.3.2h.5l.3.2.6.5c.1,0,.1,0,.1.1l.2.2.3.4.2.3a.5.5,0,0,0,.2.4h.1c0,.1,0,.2.1.2l.8.4c0-.1,0-.1-.1-.2S37.8,39.1,37.8,38.9Z"/>
          <path class="cls-3" d="M20.5,31.5a2.1,2.1,0,0,0,.4-.6h0l.3-.3.2-.3-.9-.3h-.1l-.4.6h-.2l-.3.5a.1.1,0,0,0-.1.1.3.3,0,0,1-.1.2c0,.2-.1.3-.2.5l.8.3.6-.9Z"/>
          <path class="cls-3" d="M22.2,32.7l.2-.2a.1.1,0,0,1,.1-.1c.1-.1.1-.2.2-.4l.4-.4c0-.1.1-.1.1-.2l.3-.3-1-.3h0c-.1,0-.1.1-.2.2s-.1.1-.2.2l-.2.3-.3.3h-.1l-.3.5c-.1.1-.1.3-.2.4h-.1l.9.4h.1Z"/>
          <path class="cls-3" d="M42.7,40.9c0-.1-.1-.1-.1-.2v-.6c-.1,0-.1-.1-.1-.2h0c-.1-.2,0-.3-.1-.4a.9.9,0,0,0-.1-.5.4.4,0,0,0-.1-.3h0l-.9-.3h.1a.3.3,0,0,0,.1.2v.2c0,.1.1.2.1.3v.3l.2.5a.8.8,0,0,0,.1.4v.4c0,.2.1.3.1.4h0l.7.3v-.5Z"/>
          <path class="cls-3" d="M24.1,33.2l.2-.2.3-.4.3-.2.2-.3.3-.2-.9-.3-.2.2c-.1,0-.1.2-.3.3l-.2.3-.3.3a1,1,0,0,1-.4.5c0,.1-.1.1-.1.2s-.1.1-.2.2h0l.8.3.4-.6Z"/>
          <path class="cls-3" d="M25.8,33.8h.1l.2-.2.4-.4.4-.3h.3l-.8-.3h0c-.2.1-.3.3-.4.4l-.3.2-.2.3c-.1,0-.1.1-.2.2l-.3.3c0,.1-.1.1-.1.2l-.2.2c-.1.1-.1.2-.2.2l.7.3.4-.6Z"/>
          <path class="cls-3" d="M35.6,38.3c-.1-.1-.2-.1-.2-.2l-.3-.2-.5-.3h-.2l-.4-.2H31.8c-.1-.1-.3,0-.4,0h-.1l1.1.4h1.9l.5.3c.1.1.2.2.2.3s.1,0,.1.1l.8.3v-.2Z"/>
        </g>
        <g class="cls-5">
          <path class="cls-3" d="M43.2,38.8h0V39a.8.8,0,0,1,.1.4,6.4,6.4,0,0,0,.2.7v1.1c.1,0,.1.1.1.2h0c0,.1-.1.1,0,.2h0l4.5,2.1,3.7-1.7h0c.1-.1,0-.1,0-.2v-.4h0v-.6a.4.4,0,0,1,.1-.3,1.5,1.5,0,0,1,.1-.7.6.6,0,0,1,.1-.4v-.2h0l-4.3,1.9Z"/>
          <path class="cls-3" d="M66.1,36.6a.1.1,0,0,1-.1-.1h-.3l-.3-.2H61.9l-.5.2h-.5l-.5.2-.6.3-.6.4h-.1l-.3.3-.3.3-.4.5a15734929547254.5,15734929547254.5,0,0,0-.2.4.3.3,0,0,0-.1.2c-.1.1-.1.1-.1.2h0a.8.8,0,0,0-.2.4.3.3,0,0,1-.1.2l.9-.3h0a.4.4,0,0,1,.1-.3h0l.3-.3c0-.1.1-.2.2-.3l.2-.4.2-.3h.1l.6-.4.3-.2h.8l.4-.2h3.3l.5.2h.3l.7-.3h-.2Z"/>
          <path class="cls-3" d="M54.1,38.6l-.9.3h0a.4.4,0,0,0-.1.3.9.9,0,0,0-.1.5.8.8,0,0,1-.1.4h0v.3a1.3,1.3,0,0,0-.1.6h-.1v.6l.7-.3h0c0-.1.1-.3.1-.4a.6.6,0,0,1,.1-.4v-.4l.2-.5v-.3a.4.4,0,0,0,.1-.3A.3.3,0,0,1,54,39v-.2h.1Z"/>
          <path class="cls-3" d="M55.6,38.3c.1-.1.1-.2.2-.4h0l-1,.4h0a.6.6,0,0,0-.1.4c0,.1-.1.2-.1.3s-.1.2-.1.3a.9.9,0,0,0-.1.5v.2a.4.4,0,0,0-.1.3.7.7,0,0,0-.1.5h0c-.1.1-.1.2-.1.4l.6-.3h0c0-.1.1-.2.1-.3v-.2a.3.3,0,0,0,.1-.2c0-.2.1-.4.1-.6s.1-.2.1-.4a.5.5,0,0,0,.2-.4.3.3,0,0,1,.1-.2.5.5,0,0,1,.2-.4Z"/>
          <path class="cls-3" d="M69.5,35.5l-.3-.4-.3-.2a.2.2,0,0,0-.2-.2.3.3,0,0,0-.1-.2c-.1-.1-.2-.1-.2-.2l-.5-.2a.1.1,0,0,0-.1-.1.5.5,0,0,1-.4-.2H67l-.9.3h.3l.3.2c.1,0,.2,0,.2.1h.5l.5.3.3.2.4.3a.2.2,0,0,0,.2.2.1.1,0,0,0,.1.1l.6-.2Z"/>
          <path class="cls-3" d="M83.5,26.9,76.6,30h-.2l.3.4.3.5c0,.1.1.1.1.2s.1.1.1.2.2.1.2.3l.2.3c0,.1.1.2.2.3l6.6-3Z"/>
          <path class="cls-3" d="M58,37.1h0l-1,.4h0l-.2.3c0,.1-.1.1-.2.2s-.1.3-.2.4-.1.1-.1.2,0,.1-.1.2,0,.1-.1.2v.2a.5.5,0,0,0-.2.4c0,.1-.1.1-.1.2V40h0v.2a.8.8,0,0,0-.1.4h0l.6-.2h0v-.2a.1.1,0,0,1,.1-.1c0-.2.1-.3.2-.5l.3-.6a.8.8,0,0,1,.2-.5.5.5,0,0,1,.2-.4h.1a2.1,2.1,0,0,1,.4-.6Z"/>
          <path class="cls-3" d="M68,36.1l-.3-.3-.4-.2-.4-.3-.4-.2h-.3l-.3-.2H64.7l-1.3.4h1.7l.3.2h.3l.3.2h.1l.5.3.6.4h.1l.7-.3Z"/>
          <path class="cls-3" d="M76.4,32.9l-.3-.5a.4.4,0,0,0-.1-.3h0l-.3-.5h-.1c0-.1-.1-.1-.1-.2a1,1,0,0,1-.4-.5c0-.1-.1-.1-.1-.2h0L74,31l.3.2.3.4h0l.3.6H75l.6.9h0l.8-.3Z"/>
          <path class="cls-3" d="M74.5,33.5c-.1-.2-.2-.3-.2-.4l-.4-.5c0-.1,0-.1-.1-.2s-.1-.2-.2-.3l-.2-.3c-.1,0-.1-.1-.2-.2a.2.2,0,0,1-.2-.2h-.1l-.9.4h0l.3.3h.1l.3.5.3.4a.1.1,0,0,1,.1.1c.1,0,.1.1.2.2l.3.4h0l1-.3Z"/>
          <path class="cls-3" d="M72.7,34.3h-.1a.3.3,0,0,1-.1-.2h-.2a1,1,0,0,0-.4-.5l-.3-.4a.2.2,0,0,0-.2-.2c-.1-.1-.1-.3-.3-.4s-.1-.1-.2-.2l-.8.3c.1.1.2.1.2.2l.3.3.2.3.4.3c0,.1.1.1.1.2s.1.1.2.2l.4.6.8-.3Z"/>
          <path class="cls-3" d="M70.6,34.5c-.1,0-.1-.1-.2-.2s-.2-.2-.2-.3-.2-.1-.2-.2-.2-.2-.2-.3l-.3-.2-.4-.4H69l-.8.3h.1l.3.2c.2,0,.2.1.3.2l.5.4c0,.1.1.1.1.2l.2.2.2.2.3.5.7-.2a.3.3,0,0,0-.1-.2C70.7,34.7,70.6,34.6,70.6,34.5Z"/>
          <path class="cls-3" d="M63.6,37.5H61.4l-.4.3h-.2l-.5.3-.2.2-.3.2c0,.1-.1.2-.2.3a.3.3,0,0,1-.1.2l.8-.3h.1l.2-.2.5-.3h.6a.1.1,0,0,1,.1-.1h1.3l1-.4h-.5Z"/>
        </g>
        <g>
          <path class="cls-3" d="M14.4,46.9c.1-.1.1-.3.2-.5h0a6.4,6.4,0,0,1,.2-.7,2.9,2.9,0,0,0,.2-.9.4.4,0,0,0,.1-.3l.3-.5H13.8c-.1.1-.1.3-.2.4a.8.8,0,0,0-.1.4,1.7,1.7,0,0,0-.2.5c-.1.2-.1.4-.2.6v.3c-.1.3-.1.6-.2.9s-.1.4-.2.6v.2h1.5v-.2C14.3,47.4,14.3,47.2,14.4,46.9Z"/>
          <path class="cls-3" d="M43.3,47c0-.1-.1-.1-.1-.2l-.2-.2-.2-.3-.4-.5c-.1-.1-.2-.1-.2-.2l-.3-.2c-.1-.1-.2-.2-.2-.3l-.3-.2c-.2-.2-.3-.4-.5-.5l-.4-.2-.4-.3H38.5l.7.5.8.6h.2a1.2,1.2,0,0,1,.5.5,3.4,3.4,0,0,1,.6.6l.8.7.6.6c0,.1.1.1.1.2a.3.3,0,0,1,.1.2h1a2.1,2.1,0,0,0-.4-.6Z"/>
          <path class="cls-3" d="M40.2,47.1h0l-.3-.2-.4-.3-.2-.2-.2-.2-.8-.5-.6-.2-.6-.3H37l-1.2-.2-1-.2H31.4l-.8.3-.8.2h-.4l-.8.4a.1.1,0,0,0-.1.1l-.8.3c0,.1,0,.1-.1.1s0,.1-.1.1-.2.1-.2.2l-.4.4-.3.4h-.1c-.1.1-.2.2-.2.3h1.2l.3-.4.7-.4.5-.3.6-.3.3-.2.7-.2h.3a.1.1,0,0,0,.1-.1h.3l.6-.2h3.9l1.1.4h.2l.4.2.6.4a1,1,0,0,0,.5.4l.5.3c0,.1.1.1.2.2s.1.2.2.3h1.4a.2.2,0,0,0-.2-.2Z"/>
          <path class="cls-3" d="M36.7,47.4l-.4-.2h-.5l-.9-.2H32.3l-.5.2h-.5l-.7.3-.7.2h1.8l.6-.2h.2l.5-.2h.5c0-.1.1-.1.2-.1h.5a.3.3,0,0,1,.4,0h.9l.5.2h1.5l-.3-.2Z"/>
          <path class="cls-3" d="M25.3,46.9l.7-.8h.1l.3-.3a.5.5,0,0,1,.4-.2h0l.4-.3a1.5,1.5,0,0,1,.6-.4l.7-.4.8-.3H27.4l-.8.5-.4.3-.4.2a.8.8,0,0,1-.4.4h-.1l-.2.3-.4.4-.5.7-.4.5-.3.6h1.2c0-.1.1-.1.1-.2A3.5,3.5,0,0,0,25.3,46.9Z"/>
          <path class="cls-3" d="M48.3,47.1c0-.1-.1-.1-.1-.2a2,2,0,0,1-.4-.8l-.3-.3h-.1l-.3-.6-.4-.6-.3-.4c0-.1,0-.1-.1-.2H45l.3.3.2.3c.1.1.1.3.2.4l.3.4.4.6.4.5.3.6.3.5v.2h1.3l-.2-.3A.8.8,0,0,0,48.3,47.1Z"/>
          <path class="cls-3" d="M46,47.3l-.4-.8-.3-.3a.4.4,0,0,1-.1-.3l-.4-.6c-.1-.2-.3-.3-.4-.4l-.3-.4-.3-.5a.1.1,0,0,1-.1-.1H42.1l.3.4h.2l.5.4c.1.1.1.3.2.3l.5.6.4.5.5.7c.1.1.2.2.2.3s.1.2.2.2.2.3.2.5h1c0-.2-.1-.3-.2-.5A.1.1,0,0,1,46,47.3Z"/>
          <path class="cls-3" d="M22.3,47.2l.4-.6.3-.4.5-.7.3-.3.3-.4.3-.2.3-.4c.1,0,.1-.1.2-.2H23.5l-.4.3-.4.5c-.1.1-.2.1-.2.2s-.4.3-.5.6-.2.2-.2.3l-.2.3c0,.2-.1.3-.1.4l-.3.6c0,.2-.1.4-.1.7H22c0-.1,0-.2.1-.2Z"/>
          <path class="cls-3" d="M17.4,46.4l.2-.3.3-.7c0-.2.1-.3.2-.5s.1-.4.2-.6.1-.3.2-.4H17.2l-.2.4c-.2.2-.2.5-.3.7a.7.7,0,0,0-.1.5,1.4,1.4,0,0,0-.2.6,3,3,0,0,0-.4,1,.4.4,0,0,1-.1.3c0,.1-.1.2-.1.3v.2h1.3c.1-.4.1-.8.2-1.2A.4.4,0,0,0,17.4,46.4Z"/>
          <path class="cls-3" d="M20.2,46.4c.1,0,.1-.1.1-.2s.1-.3.2-.4l.3-.8a2.1,2.1,0,0,1,.4-.6l.3-.4H20.2c-.1.3-.3.5-.4.8a.8.8,0,0,0-.2.4,1.4,1.4,0,0,0-.2.6c-.1.1-.1.2-.2.4a1.4,1.4,0,0,1-.2.6.4.4,0,0,1-.1.3,4.3,4.3,0,0,1-.1.5.6.6,0,0,0-.1.4h1.1a4.4,4.4,0,0,0,.2-1Z"/>
          <path class="cls-3" d="M11.4,46.1c.1-.4.1-.7.2-1.1h0a1.4,1.4,0,0,0,.2-.7.8.8,0,0,0,.2-.4H10.5c0,.1-.1.2-.1.3l-.3.9v.3a.4.4,0,0,0-.1.3,2.9,2.9,0,0,0-.2.9h0V47a2.8,2.8,0,0,0-.1.9H11a10.5,10.5,0,0,1,.4-1.7Z"/>
          <path class="cls-3" d="M46,47.3l-.4-.8-.3-.3a.4.4,0,0,1-.1-.3l-.4-.6c-.1-.2-.3-.3-.4-.4l-.3-.4-.3-.5H42.1l.3.4h.2l.5.4c.1.1.1.3.2.3l.5.6.4.5.5.7c.1.1.2.2.2.3s.1.2.2.2.2.3.2.5h1l-.2-.5A.1.1,0,0,1,46,47.3Z"/>
          <path class="cls-3" d="M22.3,47.2l.4-.6.3-.4.5-.7.3-.3.3-.4.3-.2.3-.4c.1,0,.1-.1.2-.2H23.5l-.4.3-.4.5c-.1.1-.2.1-.2.2s-.4.3-.5.6-.2.2-.2.3l-.2.3c0,.2-.1.3-.1.4l-.3.6c0,.2-.1.4-.1.7H22c0-.1,0-.2.1-.2Z"/>
          <path class="cls-3" d="M7.8,43.9H0v4H7.4c0-.2.1-.4.1-.6v-.6a.7.7,0,0,1,.2-.6v-.2a.8.8,0,0,0,.1-.4c.1-.3.1-.6.2-.9s.1-.5.1-.7Z"/>
          <path class="cls-3" d="M43.3,47c0-.1-.1-.1-.1-.2l-.2-.2-.2-.3-.4-.5c-.1-.1-.2-.1-.2-.2l-.3-.2c-.1-.1-.2-.2-.2-.3l-.3-.2c-.2-.2-.3-.4-.5-.5l-.4-.2-.4-.3H38.5l.7.5.8.6h.2a1.2,1.2,0,0,1,.5.5,3.4,3.4,0,0,1,.6.6l.8.7.6.6c0,.1.1.1.1.2a.3.3,0,0,1,.1.2h1a2.1,2.1,0,0,0-.4-.6Z"/>
          <path class="cls-3" d="M25.3,46.9l.7-.8h.1l.3-.3a.5.5,0,0,1,.4-.2h0l.4-.3a1.5,1.5,0,0,1,.6-.4l.7-.4.8-.3H27.4l-.8.5-.4.3-.4.2a.8.8,0,0,1-.4.4h-.1l-.2.3-.4.4-.5.7-.4.5-.3.6h1.2c0-.1.1-.1.1-.2A3.5,3.5,0,0,0,25.3,46.9Z"/>
          <path class="cls-3" d="M40.2,47.1h0l-.3-.2-.4-.3-.2-.2-.2-.2-.8-.5-.6-.2-.6-.3H37l-1.2-.2-1-.2H31.4l-.8.3-.8.2h-.4l-.8.4a.1.1,0,0,0-.1.1l-.8.3c0,.1,0,.1-.1.1s0,.1-.1.1-.2.1-.2.2l-.4.4-.3.4h-.1c-.1.1-.2.2-.2.3h1.2l.3-.4.7-.4.5-.3.6-.3.3-.2.7-.2h.3a.1.1,0,0,0,.1-.1h.3l.6-.2h3.9l1.1.4h.2l.4.2.6.4a1,1,0,0,0,.5.4l.5.3c0,.1.1.1.2.2s.1.2.2.3h1.4a.2.2,0,0,0-.2-.2Z"/>
          <path class="cls-3" d="M11.4,46.1c.1-.4.1-.7.2-1.1h0a1.4,1.4,0,0,0,.2-.7.8.8,0,0,0,.2-.4H10.5c0,.1-.1.2-.1.3l-.3.9v.3a.4.4,0,0,0-.1.3,2.9,2.9,0,0,0-.2.9h0V47a2.8,2.8,0,0,0-.1.9H11a10.5,10.5,0,0,1,.4-1.7Z"/>
          <path class="cls-3" d="M14.4,46.9c.1-.1.1-.3.2-.5h0a6.4,6.4,0,0,1,.2-.7,2.9,2.9,0,0,0,.2-.9.4.4,0,0,0,.1-.3l.3-.5H13.8c-.1.1-.1.3-.2.4a.8.8,0,0,0-.1.4,1.7,1.7,0,0,0-.2.5c-.1.2-.1.4-.2.6v.3c-.1.3-.1.6-.2.9s-.1.4-.2.6v.2h1.5v-.2C14.3,47.4,14.3,47.2,14.4,46.9Z"/>
          <path class="cls-3" d="M48.3,47.1c0-.1-.1-.1-.1-.2a2,2,0,0,1-.4-.8l-.3-.3h-.1l-.3-.6-.4-.6-.3-.4c0-.1,0-.1-.1-.2H45l.3.3.2.3c.1.1.1.3.2.4l.3.4.4.6.4.5.3.6.3.5v.2h1.2a.4.4,0,0,0-.1-.3A.8.8,0,0,0,48.3,47.1Z"/>
          <path class="cls-3" d="M17.4,46.4l.2-.3.3-.7c0-.2.1-.3.2-.5s.1-.4.2-.6.1-.3.2-.4H17.1c0,.1-.1.3-.1.4s-.2.5-.3.7a.7.7,0,0,0-.1.5,1.4,1.4,0,0,0-.2.6,3,3,0,0,0-.4,1,.4.4,0,0,1-.1.3c0,.1-.1.2-.1.3v.2h1.3c.1-.4.1-.8.2-1.2A.4.4,0,0,0,17.4,46.4Z"/>
          <path class="cls-3" d="M20.2,46.4c.1,0,.1-.1.1-.2s.1-.3.2-.4l.3-.8a2.1,2.1,0,0,1,.4-.6l.3-.4H20.2c-.1.3-.3.5-.4.8a.8.8,0,0,0-.2.4,1.4,1.4,0,0,0-.2.6c-.1.1-.1.2-.2.4a1.4,1.4,0,0,1-.2.6.4.4,0,0,1-.1.3,4.3,4.3,0,0,1-.1.5c-.1.1-.1.2-.1.4h1.1a4.4,4.4,0,0,0,.2-1Z"/>
          <path class="cls-3" d="M36.7,47.4l-.4-.2h-.5l-.9-.2H32.3l-.5.2h-.5l-.7.3-.7.2h1.8l.6-.2h.2l.5-.2h.5c0-.1.1-.1.2-.1h.5a.3.3,0,0,1,.4,0h.9l.5.2h1.4a.2.2,0,0,0-.2-.2Z"/>
          <path class="cls-3" d="M95.2,43.9H47.9l.2.2.4.6a3.5,3.5,0,0,1,.5.8l.3.6.3.8a.1.1,0,0,1,.1.1l.2.3a.4.4,0,0,0,.1.3v.2c.1,0,.1,0,.1.1H95.2Z"/>
        </g>
      </g>
    </g>
  </g>
</svg>
