<svg xmlns="http://www.w3.org/2000/svg" width="56.7" height="56.7" viewBox="0 0 56.7 56.7">
  <defs>
    <style>
      .cls-1 {
        fill: #fff;
      }
    </style>
  </defs>
  <title>icon-insta</title>
  <g id="Layer_2" data-name="Layer 2">
    <g id="Layer_1-2" data-name="Layer 1">
      <g>
        <path class="cls-1" d="M37,18a1.8,1.8,0,1,0,0,3.6A1.8,1.8,0,0,0,37,18Z"/>
        <path class="cls-1" d="M28.3,20A8.3,8.3,0,0,0,20,28.3a8.4,8.4,0,0,0,8.3,8.4,8.5,8.5,0,0,0,8.4-8.4A8.4,8.4,0,0,0,28.3,20Zm0,14.7a6.4,6.4,0,1,1,6.4-6.4A6.4,6.4,0,0,1,28.3,34.7Z"/>
        <path class="cls-1" d="M28.3,0A28.4,28.4,0,1,0,56.7,28.3,28.3,28.3,0,0,0,28.3,0ZM42.4,33.4a8.5,8.5,0,0,1-8.5,8.5H22.8a8.5,8.5,0,0,1-8.5-8.5V23.3a8.5,8.5,0,0,1,8.5-8.5H33.9a8.5,8.5,0,0,1,8.5,8.5Z"/>
      </g>
    </g>
  </g>
</svg>
