<svg xmlns="http://www.w3.org/2000/svg" width="56.7" height="56.7" viewBox="0 0 56.7 56.7">
  <defs>
    <style>
      .cls-1 {
        fill: #fff;
      }
    </style>
  </defs>
  <title>icon-linkedin</title>
  <g id="Layer_2" data-name="Layer 2">
    <g id="Layer_1-2" data-name="Layer 1">
      <path class="cls-1" d="M28.3,0A28.4,28.4,0,1,0,56.7,28.3,28.3,28.3,0,0,0,28.3,0ZM18.6,14.2a2.7,2.7,0,1,1-2.7,2.6A2.7,2.7,0,0,1,18.6,14.2Zm2.7,24.7H16V21.3h5.3Zm21.2,0H37.2V29.3c0-2-.5-4-2.9-4a4.3,4.3,0,0,0-4.2,4v9.6H24.8V21.2h5.3v2.5a8.2,8.2,0,0,1,6.6-3.1c2.5,0,5.8,1.3,5.8,8.3Z"/>
    </g>
  </g>
</svg>
