<svg xmlns="http://www.w3.org/2000/svg" width="95.2" height="47.9" viewBox="0 0 95.2 47.9">
  <defs>
    <style>
      .cls-1 {
        fill: #fff;
        opacity: 0.25;
      }

      .cls-2 {
        fill: #f0eded;
      }
    </style>
  </defs>
  <title>legal2</title>
  <g id="Layer_2" data-name="Layer 2">
    <g id="Layer_1-2" data-name="Layer 1">
      <g>
        <polyline class="cls-1" points="0 47.9 0 0 95.2 0 95.2 47.9"/>
        <path class="cls-2" d="M82.8,35c2.2,2,.3,5.9-2.6,5.3h-.4a175.1,175.1,0,0,1-20.7-9.4c-.3-.2-.9-.3-.6-1.1s-2.2-1.5-2.2-1.5l-2,4.6L40.5,26.9l4.8-11.3,13.8,5.8-1.9,4.7s2.4,1.1,2.7.3.5-.3.9-.2a178.7,178.7,0,0,1,21.4,8.3Z"/>
        <rect class="cls-2" x="44.1" y="13" width="18.8" height="4.58" rx="1.1" transform="translate(10 -19.4) rotate(22.7)"/>
        <rect class="cls-2" x="36.6" y="30.8" width="18.8" height="4.58" rx="1.1" transform="translate(16.3 -15.2) rotate(22.7)"/>
        <rect class="cls-2" y="45" width="95.2" height="2.83"/>
      </g>
    </g>
  </g>
</svg>
