<svg xmlns="http://www.w3.org/2000/svg" width="90.2" height="37.7" viewBox="0 0 90.2 37.7">
  <defs>
    <style>
      .cls-1 {
        fill: #fff;
      }
    </style>
  </defs>
  <title>legal</title>
  <g id="Layer_2" data-name="Layer 2">
    <g id="Layer_1-2" data-name="Layer 1">
      <g>
        <g>
          <path class="cls-1" d="M20.4,36.8l.2-.5v-.2c.1-.2.1-.4.2-.6a2.9,2.9,0,0,0,.2-.9.4.4,0,0,0,.1-.3l.3-.6H19.8c-.1.1-.1.3-.2.4a.6.6,0,0,0-.1.4c-.1.2-.2.3-.2.5s-.1.4-.2.6V36c-.1.3-.1.6-.2.9s-.1.4-.2.6h1.5v-.2C20.3,37.3,20.3,37,20.4,36.8Z"/>
          <path class="cls-1" d="M49.3,36.8h-.1l-.2-.3c-.1,0-.1-.2-.2-.2l-.4-.5-.2-.2-.3-.3a.2.2,0,0,1-.2-.2l-.3-.2c-.2-.2-.3-.4-.5-.5l-.4-.2-.4-.3H44.5l.7.4.8.7h.2l.5.4a3.4,3.4,0,0,1,.6.6l.8.8.6.6a.1.1,0,0,0,.1.1.3.3,0,0,0,.1.2h1c-.1-.1-.2-.4-.4-.5S49.4,36.9,49.3,36.8Z"/>
          <path class="cls-1" d="M46.2,37h0l-.3-.3-.4-.2-.2-.2-.2-.2-.8-.5-.6-.3-.6-.3H43l-1.2-.3H38.3l-.9.2-.8.2-.8.3h-.4l-.8.3h-.1l-.8.4h-.1a.1.1,0,0,1-.1.1c-.1.1-.2.1-.2.2s-.3.2-.4.4l-.3.3c0,.1-.1.1-.1.2l-.2.2h1.2l.3-.3.7-.5.5-.2.6-.3.3-.2.7-.3h.7l.6-.2h3.9l1.1.3h.2l.4.3.6.4.5.4.5.3c0,.1.1.1.2.2a.2.2,0,0,0,.2.2h1.4l-.2-.2C46.6,37.3,46.3,37.2,46.2,37Z"/>
          <path class="cls-1" d="M42.7,37.2h-.4l-.5-.2h-4l-.5.2-.7.2-.7.3h4.7l.9.2h1.7Z"/>
          <path class="cls-1" d="M31.3,36.8A2.7,2.7,0,0,1,32,36a.1.1,0,0,1,.1-.1l.3-.3.4-.3h0l.4-.3a.9.9,0,0,1,.6-.4l.7-.4.8-.3.2-.2H33.4l-.8.6-.4.3-.4.2-.4.4h-.1c-.1.1-.1.3-.2.4s-.3.3-.4.4l-.5.6a2.1,2.1,0,0,0-.4.6l-.3.5h1.3Z"/>
          <path class="cls-1" d="M54.3,37c0-.1-.1-.1-.1-.2a3,3,0,0,1-.4-.8l-.3-.4h-.1l-.3-.6-.4-.6-.3-.5H50.9v.2h0l.3.3.2.3.2.4.3.4.4.6.4.4.3.7.3.4v.2h1.3l-.2-.3A.8.8,0,0,0,54.3,37Z"/>
          <path class="cls-1" d="M52,37.1a4.3,4.3,0,0,1-.4-.7l-.3-.4c-.1,0-.1-.1-.1-.2s-.3-.4-.4-.6-.3-.3-.4-.4l-.3-.5-.3-.4v-.2H48.1l.3.4.2.2.5.4.2.3.5.5.4.6.5.7c.1.1.2.2.2.3l.2.2c.1.2.2.3.2.4h1a.8.8,0,0,0-.2-.4C52,37.2,52,37.2,52,37.1Z"/>
          <path class="cls-1" d="M28.3,37.1l.4-.6.3-.4.5-.7.3-.3.3-.4.3-.3.3-.3.2-.2.2-.2H29.6v.2l-.4.3-.4.5h-.2c-.2.3-.4.4-.5.7l-.2.3-.2.3c0,.2-.1.3-.1.4l-.3.6c0,.2-.1.4-.1.6H28a.3.3,0,0,1,.1-.2C28.2,37.4,28.2,37.2,28.3,37.1Z"/>
          <path class="cls-1" d="M23.4,36.3l.2-.3.3-.7a.8.8,0,0,1,.2-.5c.1-.2.1-.4.2-.6l.2-.5H23.2c-.1.2-.2.3-.2.5s-.2.4-.3.7a.6.6,0,0,0-.1.4,2.5,2.5,0,0,0-.2.7,3.6,3.6,0,0,0-.4.9.8.8,0,0,1-.1.4c0,.1-.1.2-.1.3h1.3c.1-.3.1-.7.2-1.1A.4.4,0,0,0,23.4,36.3Z"/>
          <path class="cls-1" d="M26.2,36.3a.4.4,0,0,0,.1-.3l.2-.3.3-.8.4-.6.3-.4c0-.1.1-.1.1-.2H26.2c-.1.3-.3.5-.4.8a.5.5,0,0,0-.2.4,1.7,1.7,0,0,0-.2.5c-.1.2-.1.3-.2.4a1.4,1.4,0,0,1-.2.6c0,.2,0,.3-.1.4s-.1.3-.1.5a.4.4,0,0,0-.1.3h1.1a3,3,0,0,0,.2-1C26.1,36.6,26.1,36.4,26.2,36.3Z"/>
          <path class="cls-1" d="M17.4,35.9c.1-.3.1-.7.2-1h0a1.9,1.9,0,0,0,.2-.7.8.8,0,0,0,.2-.5H16.5c0,.1-.1.2-.1.3l-.3,1v.3a.3.3,0,0,0-.1.2,2.9,2.9,0,0,0-.2.9h0v.4a2.5,2.5,0,0,0-.1.8H17a12.4,12.4,0,0,1,.4-1.6Z"/>
          <path class="cls-1" d="M52,37.1a4.3,4.3,0,0,1-.4-.7l-.3-.4c-.1,0-.1-.1-.1-.2s-.3-.4-.4-.6-.3-.3-.4-.4l-.3-.5-.3-.4H48.1l.3.3.2.2.5.4.2.3.5.5.4.6.5.7c.1.1.2.2.2.3l.2.2c.1.2.2.3.2.4h1c-.1-.1-.1-.3-.2-.4S52,37.2,52,37.1Z"/>
          <path class="cls-1" d="M28.3,37.1l.4-.6.3-.4.5-.7.3-.3.3-.4.3-.3.3-.3.2-.2H29.5l-.4.3-.4.5h-.2c-.2.3-.4.4-.5.7l-.2.3-.2.3c0,.2-.1.3-.1.4l-.3.6c0,.2-.1.4-.1.6H28a.3.3,0,0,1,.1-.2C28.2,37.4,28.2,37.2,28.3,37.1Z"/>
          <path class="cls-1" d="M13.8,33.8H0v3.9H13.4c0-.2.1-.4.1-.6v-.5a.7.7,0,0,1,.2-.6v-.3c.1-.1.1-.2.1-.4s.1-.5.2-.8.1-.5.1-.7Z"/>
          <path class="cls-1" d="M49.3,36.8h-.1l-.2-.3c-.1,0-.1-.2-.2-.2l-.4-.5-.2-.2-.3-.3a.2.2,0,0,1-.2-.2l-.3-.2c-.2-.2-.3-.4-.5-.5l-.4-.2-.4-.3H44.5l.7.4.8.7h.2l.5.4a3.4,3.4,0,0,1,.6.6l.8.8.6.6a.1.1,0,0,0,.1.1.3.3,0,0,0,.1.2h1a1,1,0,0,0-.4-.5C49.4,37.1,49.4,36.9,49.3,36.8Z"/>
          <path class="cls-1" d="M31.3,36.8A2.7,2.7,0,0,1,32,36a.1.1,0,0,1,.1-.1l.3-.3.4-.3h0l.4-.3a.9.9,0,0,1,.6-.4l.7-.4.8-.3H33.4l-.8.5-.4.3-.4.2-.4.4h-.1c-.1.1-.1.3-.2.4s-.3.3-.4.4l-.5.6a2.1,2.1,0,0,0-.4.6l-.3.5h1.3Z"/>
          <path class="cls-1" d="M46.2,37h0l-.3-.3-.4-.2-.2-.2-.2-.2-.8-.5-.6-.3-.6-.3H43l-1.2-.3H38.3l-.9.2-.8.2-.8.3h-.4l-.8.3h-.1l-.8.4h-.1a.1.1,0,0,1-.1.1c-.1.1-.2.1-.2.2s-.3.2-.4.4l-.3.3c0,.1-.1.1-.1.2l-.2.2h1.2l.3-.3.7-.5.5-.2.6-.3.3-.2.7-.3h.7l.6-.2h3.9l1.1.3h.2l.4.3.6.4.5.4.5.3c0,.1.1.1.2.2s.1.1.2.2h1.4l-.2-.2C46.6,37.3,46.3,37.2,46.2,37Z"/>
          <path class="cls-1" d="M17.4,35.9c.1-.3.1-.7.2-1h0a1.9,1.9,0,0,0,.2-.7.8.8,0,0,0,.2-.4H16.5c0,.1-.1.1-.1.2l-.3,1v.3a.3.3,0,0,0-.1.2,2.9,2.9,0,0,0-.2.9h0v.4a2.2,2.2,0,0,0-.1.8H17a12.4,12.4,0,0,1,.4-1.6Z"/>
          <path class="cls-1" d="M20.4,36.8l.2-.5v-.2c.1-.2.1-.4.2-.6a2.9,2.9,0,0,0,.2-.9.4.4,0,0,0,.1-.3l.3-.5H19.8c-.1.1-.1.3-.2.4a.6.6,0,0,0-.1.4c-.1.2-.2.3-.2.5s-.1.4-.2.6V36c-.1.3-.1.6-.2.9s-.1.4-.2.6h1.5v-.2C20.3,37.3,20.3,37,20.4,36.8Z"/>
          <path class="cls-1" d="M54.3,37c0-.1-.1-.1-.1-.2a3,3,0,0,1-.4-.8l-.3-.4h-.1l-.3-.6-.4-.6-.3-.5H51l.3.3.2.3.2.4.3.4.4.6.4.4.3.7.3.4v.2h1.2a.4.4,0,0,0-.1-.3A.8.8,0,0,0,54.3,37Z"/>
          <path class="cls-1" d="M23.4,36.3l.2-.3.3-.7a.8.8,0,0,1,.2-.5c.1-.2.1-.4.2-.6s.1-.3.2-.4H23.1c0,.1-.1.2-.1.4s-.2.4-.3.7a.6.6,0,0,0-.1.4,2.5,2.5,0,0,0-.2.7,3.6,3.6,0,0,0-.4.9.8.8,0,0,1-.1.4c0,.1-.1.2-.1.3h1.3c.1-.3.1-.7.2-1.1A.4.4,0,0,0,23.4,36.3Z"/>
          <path class="cls-1" d="M26.2,36.3a.4.4,0,0,0,.1-.3l.2-.3.3-.8.4-.6.3-.4a.1.1,0,0,1,.1-.1H26.2c-.1.3-.3.5-.4.8a.5.5,0,0,0-.2.4,1.7,1.7,0,0,0-.2.5c-.1.2-.1.3-.2.4a1.4,1.4,0,0,1-.2.6c0,.2,0,.3-.1.4s-.1.3-.1.5a.4.4,0,0,0-.1.3h1.1a3,3,0,0,0,.2-1C26.1,36.6,26.1,36.4,26.2,36.3Z"/>
          <path class="cls-1" d="M42.7,37.2h-.4l-.5-.2h-4l-.5.2-.7.2-.7.3h4.7l.9.2H42c0,.1.1.1.2.1h1Z"/>
          <path class="cls-1" d="M90.2,33.8H53.9c.1,0,.1.1.2.2l.4.6a2.2,2.2,0,0,1,.5.8l.3.5.3.8a.3.3,0,0,1,.1.2l.2.3a.4.4,0,0,0,.1.3v.2H90.2Z"/>
        </g>
        <g>
          <path class="cls-1" d="M82.8,24.8c2.2,2.1.3,5.9-2.6,5.3h-.4a175.1,175.1,0,0,1-20.7-9.4c-.3-.2-.9-.2-.6-1S56.3,18,56.3,18l-2,4.6L40.5,16.8,45.3,5.4l13.8,5.9L57.2,16s2.3,1.4,3,0,.4,0,.6.1a178.7,178.7,0,0,1,21.4,8.3Z"/>
          <rect class="cls-1" x="44.3" y="2.9" width="18.8" height="4.58" rx="1.6" ry="1.6" transform="translate(6.2 -20.3) rotate(22.7)"/>
          <rect class="cls-1" x="36.4" y="20.5" width="18.8" height="4.58" rx="1.6" ry="1.6" transform="translate(12.4 -15.9) rotate(22.7)"/>
        </g>
      </g>
    </g>
  </g>
</svg>
