<svg xmlns="http://www.w3.org/2000/svg" width="103.2" height="29" viewBox="0 0 103.2 29">
  <defs>
    <style>
      .cls-1, .cls-3, .cls-4 {
        fill: none;
        stroke-miterlimit: 10;
      }

      .cls-1 {
        stroke: #cb7566;
      }

      .cls-2 {
        fill: #fff;
      }

      .cls-3 {
        stroke: #e8c4b9;
      }

      .cls-4 {
        stroke: #d69382;
      }
    </style>
  </defs>
  <title>sound</title>
  <g id="Layer_2" data-name="Layer 2">
    <g id="Layer_1-2" data-name="Layer 1">
      <g>
        <path class="cls-1" d="M34.6,19.3a18.6,18.6,0,1,1,37.1-.4"/>
        <g>
          <path class="cls-2" d="M20.4,28c.1-.1.1-.3.2-.4v-.2a6.4,6.4,0,0,1,.2-.7,2.9,2.9,0,0,0,.2-.9.4.4,0,0,0,.1-.3l.3-.5H19.8c-.1.1-.1.3-.2.5a.4.4,0,0,0-.1.3,1.7,1.7,0,0,0-.2.5c-.1.2-.1.4-.2.6v.3c-.1.3-.1.6-.2.9a6.4,6.4,0,0,0-.2.7h1.5v-.2C20.3,28.5,20.3,28.3,20.4,28Z"/>
          <path class="cls-2" d="M49.3,28.1a.1.1,0,0,0-.1-.1l-.2-.3-.2-.3-.4-.5c-.1-.1-.2-.1-.2-.2l-.3-.2c-.1-.1-.2-.2-.2-.3l-.3-.2-.5-.5-.4-.2-.4-.3H44.5l.7.5.8.6h.2l.5.5a3.4,3.4,0,0,1,.6.6l.8.7.6.7a.1.1,0,0,1,.1.1.3.3,0,0,1,.1.2h1a2.1,2.1,0,0,0-.4-.6Z"/>
          <path class="cls-2" d="M46.2,28.2h0l-.3-.3-.4-.3c-.1,0-.1-.1-.2-.2s-.2-.1-.2-.2l-.8-.4-.6-.3-.6-.3H43l-1.2-.2-1-.2H37.4l-.8.3-.8.2-.4.2a1.3,1.3,0,0,0-.8.3.1.1,0,0,0-.1.1l-.8.3c0,.1,0,.1-.1.1s0,.1-.1.1-.2.1-.2.2l-.4.4-.3.4h-.1c-.1.1-.2.2-.2.3h1.2l.3-.3a1.8,1.8,0,0,1,.7-.5l.5-.3.6-.3h.3l.7-.3h.7l.6-.2h.5c.1,0,.2.1.3,0h3.1l1.1.4h.2l.4.2.6.5.5.3.5.3c0,.1.1.1.2.2s.1.2.2.3h1.4a.2.2,0,0,0-.2-.2Z"/>
          <path class="cls-2" d="M42.7,28.5l-.4-.2h-.5l-.9-.2H38.3l-.5.2h-.5l-.7.3-.7.2h1.8l.6-.2h.2l.5-.2h.5c0-.1.1-.1.2-.1h.5a.3.3,0,0,1,.4,0h.9l.5.2h1.5l-.3-.2Z"/>
          <path class="cls-2" d="M31.3,28l.7-.8h.1l.3-.3.4-.2h0l.4-.3a1.5,1.5,0,0,1,.6-.4l.7-.3.8-.4H33.4l-.8.5-.4.3-.4.2a.8.8,0,0,1-.4.4h-.1l-.2.3-.4.5a1.5,1.5,0,0,0-.5.6l-.4.5-.3.6h1.2c0-.1.1-.1.1-.2A3.5,3.5,0,0,0,31.3,28Z"/>
          <path class="cls-2" d="M54.3,28.2c0-.1-.1-.1-.1-.2a2,2,0,0,1-.4-.8l-.3-.3h-.1l-.3-.6-.4-.6-.3-.4H51l.3.3.2.3c.1.2.1.3.2.4l.3.4.4.6.4.5.3.6.3.5V29h1.3l-.2-.3C54.5,28.5,54.4,28.4,54.3,28.2Z"/>
          <path class="cls-2" d="M52,28.4l-.4-.8-.3-.3a.4.4,0,0,1-.1-.3l-.4-.6-.4-.4-.3-.4-.3-.5a.1.1,0,0,1-.1-.1H48.1l.3.4h.2l.5.5c.1,0,.1.2.2.3a1.2,1.2,0,0,1,.5.5l.4.5.5.7c.1.1.2.2.2.3s.1.2.2.2.2.3.2.5h1c0-.2-.1-.3-.2-.5A.1.1,0,0,1,52,28.4Z"/>
          <path class="cls-2" d="M28.3,28.3l.4-.6.3-.4.5-.7.3-.3.3-.4.3-.2.3-.4c.1,0,.1-.1.2-.2H29.5l-.4.3-.4.5c-.1.1-.2.1-.2.2l-.5.6c-.1.1-.2.2-.2.3s-.1.2-.2.4-.1.2-.1.3l-.3.6c0,.2-.1.5-.1.7H28c0-.1,0-.2.1-.2Z"/>
          <path class="cls-2" d="M23.4,27.5l.2-.3.3-.7c0-.2.1-.3.2-.5s.1-.4.2-.6.1-.3.2-.4H23.2l-.2.4c-.2.2-.2.5-.3.7a.7.7,0,0,0-.1.5,1.4,1.4,0,0,0-.2.6,4.2,4.2,0,0,0-.4,1,.4.4,0,0,1-.1.3c0,.1-.1.2-.1.3V29h1.3c.1-.4.1-.8.2-1.2A.4.4,0,0,0,23.4,27.5Z"/>
          <path class="cls-2" d="M26.2,27.6a.4.4,0,0,0,.1-.3c.1-.2.1-.3.2-.4l.3-.8a2.1,2.1,0,0,1,.4-.6l.3-.4H26.2a4.3,4.3,0,0,0-.4.7.8.8,0,0,0-.2.5.8.8,0,0,0-.2.5l-.2.4a1.4,1.4,0,0,1-.2.6.8.8,0,0,1-.1.4c0,.1-.1.3-.1.4a.8.8,0,0,0-.1.4h1.1a4.4,4.4,0,0,0,.2-1Z"/>
          <path class="cls-2" d="M17.4,27.2c.1-.4.1-.7.2-1.1h0a1.4,1.4,0,0,0,.2-.6A1.7,1.7,0,0,0,18,25H16.5c0,.1-.1.2-.1.3l-.3.9v.3a.4.4,0,0,0-.1.3,2.9,2.9,0,0,0-.2.9h0v.4a2.8,2.8,0,0,0-.1.9H17a10.5,10.5,0,0,1,.4-1.7Z"/>
          <path class="cls-2" d="M52,28.4l-.4-.8-.3-.3a.4.4,0,0,1-.1-.3l-.4-.6-.4-.4-.3-.4-.3-.5H48.1l.3.4h.2l.5.5c.1,0,.1.2.2.3a1.2,1.2,0,0,1,.5.5l.4.5.5.7c.1.1.2.2.2.3s.1.2.2.2.2.3.2.5h1l-.2-.5A.1.1,0,0,1,52,28.4Z"/>
          <path class="cls-2" d="M28.3,28.3l.4-.6.3-.4.5-.7.3-.3.3-.4.3-.2.3-.4c.1,0,.1-.1.2-.2H29.6a.1.1,0,0,1-.1.1l-.4.3-.4.5c-.1.1-.2.1-.2.2l-.5.6c-.1.1-.2.2-.2.3s-.1.2-.2.4-.1.2-.1.3l-.3.6c0,.2-.1.4-.1.7H28c0-.1,0-.2.1-.2Z"/>
          <path class="cls-2" d="M13.8,25H0v4H13.4c0-.2.1-.4.1-.6v-.6a.7.7,0,0,1,.2-.6V27a.8.8,0,0,0,.1-.4c.1-.3.1-.6.2-.8s.1-.6.1-.8Z"/>
          <path class="cls-2" d="M49.3,28.1a.1.1,0,0,0-.1-.1l-.2-.3-.2-.3-.4-.5c-.1-.1-.2-.1-.2-.2l-.3-.2c-.1-.1-.2-.2-.2-.3l-.3-.2-.5-.5-.4-.2-.4-.3H44.5l.7.5.8.6h.2l.5.5a3.4,3.4,0,0,1,.6.6l.8.7.6.7a.1.1,0,0,1,.1.1.3.3,0,0,1,.1.2h1a2.1,2.1,0,0,0-.4-.6Z"/>
          <path class="cls-2" d="M31.3,28l.7-.8h.1l.3-.3.4-.2h0l.4-.3a1.5,1.5,0,0,1,.6-.4l.7-.3.8-.4H33.4l-.8.5-.4.3-.4.2a.8.8,0,0,1-.4.4h-.1l-.2.3-.4.5a1.5,1.5,0,0,0-.5.6l-.4.5-.3.6h1.2c0-.1.1-.1.1-.2A3.5,3.5,0,0,0,31.3,28Z"/>
          <path class="cls-2" d="M46.2,28.2h0l-.3-.3-.4-.3c-.1,0-.1-.1-.2-.2s-.2-.1-.2-.2l-.8-.4-.6-.3-.6-.3H43l-1.2-.2-1-.2H37.4l-.8.3-.8.2-.4.2a1.3,1.3,0,0,0-.8.3.1.1,0,0,0-.1.1l-.8.3c0,.1,0,.1-.1.1s0,.1-.1.1-.2.1-.2.2l-.4.4-.3.4h-.1c-.1.1-.2.2-.2.3h1.2l.3-.3a1.8,1.8,0,0,1,.7-.5l.5-.3.6-.3h.3l.7-.3h.7l.6-.2h.5c.1,0,.2.1.3,0h3.1l1.1.4h.2l.4.2.6.5.5.3.5.3c0,.1.1.1.2.2s.1.2.2.3h1.4a.2.2,0,0,0-.2-.2Z"/>
          <path class="cls-2" d="M17.4,27.2c.1-.4.1-.7.2-1.1h0a1.4,1.4,0,0,0,.2-.6A1.7,1.7,0,0,0,18,25H16.5c0,.1-.1.2-.1.3l-.3.9v.3a.4.4,0,0,0-.1.3,2.9,2.9,0,0,0-.2.9h0v.4a2.8,2.8,0,0,0-.1.9H17a10.5,10.5,0,0,1,.4-1.7Z"/>
          <path class="cls-2" d="M20.4,28c.1-.1.1-.3.2-.4v-.2a6.4,6.4,0,0,1,.2-.7,2.9,2.9,0,0,0,.2-.9.4.4,0,0,0,.1-.3l.3-.5H19.8c-.1.1-.1.3-.2.5a.4.4,0,0,0-.1.3,1.7,1.7,0,0,0-.2.5c-.1.2-.1.4-.2.6v.3c-.1.3-.1.6-.2.9a6.4,6.4,0,0,0-.2.7h1.5v-.2C20.3,28.5,20.3,28.3,20.4,28Z"/>
          <path class="cls-2" d="M54.3,28.2c0-.1-.1-.1-.1-.2a2,2,0,0,1-.4-.8l-.3-.3h-.1l-.3-.6-.4-.6-.3-.4H51l.3.3.2.3c.1.2.1.3.2.4l.3.4.4.6.4.5.3.6.3.5V29h1.2a.4.4,0,0,0-.1-.3C54.5,28.5,54.4,28.4,54.3,28.2Z"/>
          <path class="cls-2" d="M23.4,27.5l.2-.3.3-.7c0-.2.1-.3.2-.5s.1-.4.2-.6.1-.3.2-.4H23.1c0,.1-.1.3-.1.4s-.2.5-.3.7a.7.7,0,0,0-.1.5,1.4,1.4,0,0,0-.2.6,4.2,4.2,0,0,0-.4,1,.4.4,0,0,1-.1.3c0,.1-.1.2-.1.3V29h1.3c.1-.4.1-.8.2-1.2A.4.4,0,0,0,23.4,27.5Z"/>
          <path class="cls-2" d="M26.2,27.6a.4.4,0,0,0,.1-.3c.1-.2.1-.3.2-.4l.3-.8a2.1,2.1,0,0,1,.4-.6l.3-.4H26.2a4.3,4.3,0,0,0-.4.7.8.8,0,0,0-.2.5.8.8,0,0,0-.2.5l-.2.4a1.4,1.4,0,0,1-.2.6.8.8,0,0,1-.1.4c0,.1-.1.3-.1.4a.6.6,0,0,0-.1.4h1.1a4.4,4.4,0,0,0,.2-1Z"/>
          <path class="cls-2" d="M42.7,28.5l-.4-.2h-.5l-.9-.2H38.3l-.5.2h-.5l-.7.3-.7.2h1.8l.6-.2h.2l.5-.2h.5c0-.1.1-.1.2-.1h.5a.3.3,0,0,1,.4,0h.9l.5.2h1.4c0-.1-.1-.1-.2-.2Z"/>
          <path class="cls-2" d="M103.2,25H53.9l.2.2.4.6a4.1,4.1,0,0,1,.5.9l.3.5.3.8a.1.1,0,0,1,.1.1l.2.3a.4.4,0,0,0,.1.3v.2c.1,0,.1,0,.1.1h47.1Z"/>
        </g>
        <circle class="cls-2" cx="53.2" cy="19" r="3" transform="translate(-0.2 0.6) rotate(-0.7)"/>
        <path class="cls-3" d="M45.8,19.2a7.3,7.3,0,0,1,7.3-7.4A7.2,7.2,0,0,1,60.5,19"/>
        <path class="cls-4" d="M40.3,19.2A12.9,12.9,0,0,1,66,18.9"/>
      </g>
    </g>
  </g>
</svg>
