<svg xmlns="http://www.w3.org/2000/svg" width="95.2" height="46.7" viewBox="0 0 95.2 46.7">
  <defs>
    <style>
      .cls-1 {
        fill: #fff;
      }

      .cls-2, .cls-3, .cls-4 {
        fill: none;
        stroke-miterlimit: 10;
      }

      .cls-2 {
        stroke: #d69382;
        stroke-width: 0.5px;
      }

      .cls-3 {
        stroke: #fff;
        stroke-width: 1.5px;
      }

      .cls-4 {
        stroke: #e8c4b9;
      }
    </style>
  </defs>
  <title>sound</title>
  <g id="Layer_2" data-name="Layer 2">
    <g id="Layer_1-2" data-name="Layer 1">
      <g>
        <polygon class="cls-1" points="95.2 46.7 94.7 46.7 94.7 0.5 0.5 0.5 0.5 46.7 0 46.7 0 0 95.2 0 95.2 46.7"/>
        <g>
          <path class="cls-1" d="M14.4,45.8l.2-.5v-.2c.1-.2.1-.4.2-.6a2.9,2.9,0,0,0,.2-.9.4.4,0,0,0,.1-.3l.3-.6H13.8c-.1.1-.1.3-.2.4a.6.6,0,0,0-.1.4c-.1.2-.2.3-.2.5s-.1.4-.2.6V45c-.1.3-.1.6-.2.9s-.1.4-.2.6h1.5v-.2C14.3,46.3,14.3,46,14.4,45.8Z"/>
          <path class="cls-1" d="M43.3,45.8h-.1l-.2-.3-.2-.2-.4-.5-.2-.2-.3-.3a.2.2,0,0,1-.2-.2l-.3-.2c-.2-.2-.3-.4-.5-.5l-.4-.2-.4-.3H38.5l.7.4.8.7h.2l.5.4a3.4,3.4,0,0,1,.6.6l.8.8.6.6a.1.1,0,0,0,.1.1.3.3,0,0,0,.1.2h1c-.1-.1-.2-.4-.4-.5S43.4,45.9,43.3,45.8Z"/>
          <path class="cls-1" d="M40.2,46h0l-.3-.3-.4-.2-.2-.2-.2-.2-.8-.5-.6-.3-.6-.3H37l-1.2-.3H32.3l-.9.2-.8.2-.8.3h-.4l-.8.3h-.1l-.8.4h-.1a.1.1,0,0,1-.1.1c-.1.1-.2.1-.2.2s-.3.2-.4.4l-.3.3c0,.1-.1.1-.1.2l-.2.2h1.2l.3-.3.7-.5.5-.2.6-.3.3-.2.7-.3h.7l.6-.2h3.9l1.1.3h.2l.4.3.6.4.5.4.5.3h.2c0,.2.1.3.2.3h1.4l-.2-.2C40.6,46.3,40.3,46.2,40.2,46Z"/>
          <path class="cls-1" d="M36.7,46.2h-.4l-.5-.2h-4l-.5.2-.7.2-.7.3h4.7l.9.2h1.7Z"/>
          <path class="cls-1" d="M25.3,45.7A4.6,4.6,0,0,1,26,45a.1.1,0,0,1,.1-.1l.3-.3.4-.3h0l.4-.3a.9.9,0,0,1,.6-.4l.7-.4.8-.3.2-.2H27.4l-.8.6-.4.3a.5.5,0,0,0-.4.2l-.4.4h-.1c-.1.1-.1.3-.2.4s-.3.3-.4.4l-.5.6a2.1,2.1,0,0,0-.4.6l-.3.5h1.3A4.1,4.1,0,0,0,25.3,45.7Z"/>
          <path class="cls-1" d="M48.3,46c0-.1-.1-.1-.1-.2a3,3,0,0,1-.4-.8l-.3-.4h-.1l-.3-.6-.4-.6-.3-.5a.1.1,0,0,0-.1-.1H44.9v.2h0l.3.3.2.3.2.4.3.4.4.6.4.4.3.7.3.4v.2h1.3l-.2-.3A.8.8,0,0,0,48.3,46Z"/>
          <path class="cls-1" d="M46,46.1l-.4-.7-.3-.4c-.1,0-.1-.1-.1-.2s-.3-.4-.4-.6-.3-.3-.4-.4l-.3-.5-.3-.4v-.2H42.1l.3.4.2.2.5.4.2.3.5.5.4.6.5.6c.1.2.2.3.2.4l.2.2c.1.2.2.3.2.4h1a.8.8,0,0,0-.2-.4C46,46.2,46,46.2,46,46.1Z"/>
          <path class="cls-1" d="M22.3,46.1l.4-.6.3-.4.5-.7.3-.3.3-.4.3-.3.3-.3.2-.2.2-.2H23.5a.8.8,0,0,1-.4.4l-.4.5h-.2c-.2.3-.4.4-.5.7l-.2.3-.2.3c0,.2-.1.3-.1.4l-.3.6c0,.2-.1.4-.1.6H22a.3.3,0,0,1,.1-.2C22.2,46.4,22.2,46.2,22.3,46.1Z"/>
          <path class="cls-1" d="M17.4,45.3l.2-.3.3-.7a.8.8,0,0,1,.2-.5c.1-.2.1-.4.2-.6l.2-.5H17.2c-.1.2-.2.3-.2.5s-.2.4-.3.7a.6.6,0,0,0-.1.4,2.5,2.5,0,0,0-.2.7,3.6,3.6,0,0,0-.4.9.8.8,0,0,1-.1.4c0,.1-.1.2-.1.3h1.3c.1-.3.1-.7.2-1.1A.4.4,0,0,0,17.4,45.3Z"/>
          <path class="cls-1" d="M20.2,45.3a.4.4,0,0,0,.1-.3l.2-.3.3-.8.4-.6.3-.4c0-.1.1-.1.1-.2H20.2a4.3,4.3,0,0,1-.4.7c-.1.2-.2.3-.2.5a1.7,1.7,0,0,0-.2.5c-.1.2-.1.3-.2.4a1.4,1.4,0,0,1-.2.6c0,.2,0,.3-.1.4s-.1.3-.1.5a.4.4,0,0,0-.1.3h1.1a3,3,0,0,0,.2-1C20.1,45.6,20.1,45.4,20.2,45.3Z"/>
          <path class="cls-1" d="M11.4,44.9c.1-.3.1-.7.2-1h0a1.9,1.9,0,0,0,.2-.7.8.8,0,0,0,.2-.5H10.5c0,.1-.1.2-.1.3l-.3,1v.3a.3.3,0,0,0-.1.2,2.9,2.9,0,0,0-.2.9h0v.4a2.5,2.5,0,0,0-.1.8H11a12.4,12.4,0,0,1,.4-1.6Z"/>
          <path class="cls-1" d="M46,46.1l-.4-.7-.3-.4c-.1,0-.1-.1-.1-.2s-.3-.4-.4-.6-.3-.3-.4-.4l-.3-.5-.3-.4a.1.1,0,0,0-.1-.1H42.1l.3.3.2.2.5.4.2.3.5.5.4.6.5.6c.1.2.2.3.2.4l.2.2c.1.2.2.3.2.4h1c-.1-.1-.1-.3-.2-.4S46,46.2,46,46.1Z"/>
          <path class="cls-1" d="M22.3,46.1l.4-.6.3-.4.5-.7.3-.3.3-.4.3-.3.3-.3.2-.2H23.5a.8.8,0,0,1-.4.4l-.4.5h-.2c-.2.3-.4.4-.5.7l-.2.3-.2.3c0,.2-.1.3-.1.4l-.3.6c0,.2-.1.4-.1.6H22a.3.3,0,0,1,.1-.2C22.2,46.4,22.2,46.2,22.3,46.1Z"/>
          <path class="cls-1" d="M7.8,42.8H0v3.9H7.4c0-.2.1-.4.1-.6v-.5a.7.7,0,0,1,.2-.6v-.3c.1-.1.1-.2.1-.4s.1-.5.2-.8.1-.5.1-.7Z"/>
          <path class="cls-1" d="M43.3,45.8h-.1l-.2-.3-.2-.2-.4-.5-.2-.2-.3-.3a.2.2,0,0,1-.2-.2l-.3-.2c-.2-.2-.3-.4-.5-.5l-.4-.2-.4-.3H38.5l.7.4.8.7h.2l.5.4a3.4,3.4,0,0,1,.6.6l.8.8.6.6a.1.1,0,0,0,.1.1.3.3,0,0,0,.1.2h1a1,1,0,0,0-.4-.5C43.4,46.1,43.4,45.9,43.3,45.8Z"/>
          <path class="cls-1" d="M25.3,45.7A4.6,4.6,0,0,1,26,45a.1.1,0,0,1,.1-.1l.3-.3.4-.3h0l.4-.3a.9.9,0,0,1,.6-.4l.7-.4.8-.3H27.4l-.8.5-.4.3a.5.5,0,0,0-.4.2l-.4.4h-.1c-.1.1-.1.3-.2.4s-.3.3-.4.4l-.5.6a2.1,2.1,0,0,0-.4.6l-.3.5h1.3A4.1,4.1,0,0,0,25.3,45.7Z"/>
          <path class="cls-1" d="M40.2,46h0l-.3-.3-.4-.2-.2-.2-.2-.2-.8-.5-.6-.3-.6-.3H37l-1.2-.3H32.3l-.9.2-.8.2-.8.3h-.4l-.8.3h-.1l-.8.4h-.1a.1.1,0,0,1-.1.1c-.1.1-.2.1-.2.2s-.3.2-.4.4l-.3.3c0,.1-.1.1-.1.2s-.2.1-.2.2h1.2l.3-.3.7-.5.5-.2.6-.3.3-.2.7-.3h.7l.6-.2h3.9l1.1.3h.2l.4.3.6.4.5.4.5.3h.2c0,.1.1.2.2.3h1.4l-.2-.2C40.6,46.3,40.3,46.2,40.2,46Z"/>
          <path class="cls-1" d="M11.4,44.9c.1-.3.1-.7.2-1h0a1.9,1.9,0,0,0,.2-.7.8.8,0,0,0,.2-.4H10.5a.3.3,0,0,0-.1.2l-.3,1v.3a.3.3,0,0,0-.1.2,2.9,2.9,0,0,0-.2.9h0v.4a2.2,2.2,0,0,0-.1.8H11a9.4,9.4,0,0,1,.4-1.6Z"/>
          <path class="cls-1" d="M14.4,45.8l.2-.5v-.2c.1-.2.1-.4.2-.6a2.9,2.9,0,0,0,.2-.9.4.4,0,0,0,.1-.3l.3-.5H13.8c-.1.1-.1.3-.2.4a.6.6,0,0,0-.1.4c-.1.2-.2.3-.2.5s-.1.4-.2.6V45c-.1.3-.1.6-.2.9s-.1.4-.2.6h1.5v-.2C14.3,46.3,14.3,46,14.4,45.8Z"/>
          <path class="cls-1" d="M48.3,46c0-.1-.1-.1-.1-.2a3,3,0,0,1-.4-.8l-.3-.4h-.1l-.3-.6-.4-.6-.3-.5a.1.1,0,0,0-.1-.1H45l.3.3.2.3.2.4.3.4.4.6.4.4.3.7.3.4v.2h1.2a.4.4,0,0,0-.1-.3A.8.8,0,0,0,48.3,46Z"/>
          <path class="cls-1" d="M17.4,45.3l.2-.3.3-.7a.8.8,0,0,1,.2-.5c.1-.2.1-.4.2-.6s.1-.3.2-.4H17.1c0,.1-.1.2-.1.4s-.2.4-.3.7a.6.6,0,0,0-.1.4,2.5,2.5,0,0,0-.2.7,3.6,3.6,0,0,0-.4.9.8.8,0,0,1-.1.4c0,.1-.1.2-.1.3h1.3c.1-.4.1-.7.2-1.1A.4.4,0,0,0,17.4,45.3Z"/>
          <path class="cls-1" d="M20.2,45.3a.4.4,0,0,0,.1-.3l.2-.3.3-.8.4-.6.3-.4a.1.1,0,0,1,.1-.1H20.2a4.3,4.3,0,0,1-.4.7c-.1.2-.2.3-.2.5a1.7,1.7,0,0,0-.2.5c-.1.2-.1.3-.2.4a1.4,1.4,0,0,1-.2.6c0,.2,0,.3-.1.4s-.1.3-.1.5a.4.4,0,0,0-.1.3h1.1a3,3,0,0,0,.2-1C20.1,45.6,20.1,45.4,20.2,45.3Z"/>
          <path class="cls-1" d="M36.7,46.2h-.4l-.5-.2h-4l-.5.2-.7.2-.7.3h4.7l.9.2H36c0,.1.1.1.2.1h1Z"/>
          <path class="cls-1" d="M95.2,42.8H47.9c.1,0,.1.1.2.2l.4.6a2.2,2.2,0,0,1,.5.8l.3.5.3.8c.1.1.1.1.1.2l.2.3a.4.4,0,0,0,.1.3v.2H95.2Z"/>
        </g>
        <path class="cls-2" d="M29.2,36.2a18.6,18.6,0,0,1,37.2-.4"/>
        <circle class="cls-1" cx="47.9" cy="35.9" r="3" transform="translate(-0.4 0.6) rotate(-0.7)"/>
        <path class="cls-3" d="M40.5,36.1a7.3,7.3,0,0,1,14.6-.2"/>
        <path class="cls-4" d="M35,36.2a12.8,12.8,0,1,1,25.6-.3"/>
      </g>
    </g>
  </g>
</svg>
