<svg xmlns="http://www.w3.org/2000/svg" width="210.1" height="27.8" viewBox="0 0 210.1 27.8">
  <defs>
    <style>
      .cls-1, .cls-2 {
        fill: #c1574c;
      }

      .cls-2 {
        font-size: 20px;
        font-family: FiraSans-Light, Fira Sans;
        letter-spacing: -0.01em;
      }

      .cls-3 {
        letter-spacing: -0.01em;
      }

      .cls-4 {
        letter-spacing: -0.02em;
      }

      .cls-5 {
        letter-spacing: 0em;
      }

      .cls-6 {
        letter-spacing: -0.08em;
      }

      .cls-7 {
        letter-spacing: -0.23em;
      }

      .cls-8 {
        font-family: FiraSans-Medium, Fira Sans;
        letter-spacing: 0.02em;
      }
    </style>
  </defs>
  <title>SWS_red</title>
  <g id="Layer_2" data-name="Layer 2">
    <g id="wood">
      <g>
        <g>
          <path class="cls-1" d="M59.9,26.8c.1-.1.1-.3.2-.5a.1.1,0,0,1,.1-.1c0-.3.1-.5.1-.7l.3-.9a.4.4,0,0,1,.1-.3l.2-.5H59.3a.8.8,0,0,1-.2.4.8.8,0,0,0-.1.4c-.1.2-.1.4-.2.5a1.4,1.4,0,0,1-.2.6V26c-.1.3-.1.6-.2.9s-.1.4-.2.6v.2h1.5a.3.3,0,0,1,.1-.2C59.8,27.3,59.9,27.1,59.9,26.8Z"/>
          <path class="cls-1" d="M88.8,26.9c0-.1-.1-.1-.1-.2l-.2-.2c0-.1-.1-.2-.2-.3l-.4-.5-.2-.2-.3-.2-.2-.3-.3-.2-.5-.5-.4-.2-.4-.3H84l.7.5.8.6h.2l.6.5.6.6a4.6,4.6,0,0,0,.7.7l.6.6c0,.1.1.1.1.2s.1.1.2.2h.9a2.1,2.1,0,0,0-.4-.6Z"/>
          <path class="cls-1" d="M85.7,27h0l-.3-.2-.3-.3-.3-.2c-.1-.1-.1-.2-.2-.2l-.8-.5-.5-.2-.7-.3a.1.1,0,0,0-.1-.1l-1.2-.2-.9-.2H76.9l-.8.3-.7.2h-.5l-.8.4H74l-.8.3h-.1l-.3.2-.3.4-.4.4H72c-.1.1-.2.2-.2.3H73l.3-.4L74,27l.5-.3.6-.3.4-.2.7-.2c0-.1.1-.1.2-.1h.4l.6-.2h3.9l1.1.4c.1,0,.2,0,.2.1a.5.5,0,0,1,.4.2l.6.4.5.4.5.3.2.2.2.3h1.5l-.3-.2Z"/>
          <path class="cls-1" d="M82.2,27.3l-.4-.2h-.5l-.9-.2H77.8l-.5.2h-.5l-.7.3-.6.2a.1.1,0,0,0-.1.1h1.8l.6-.2H78l.5-.2h2.6l.4.2H83l-.3-.2Z"/>
          <path class="cls-1" d="M70.9,26.8a2.1,2.1,0,0,1,.6-.8h.1l.3-.3a.5.5,0,0,1,.4-.2h0l.4-.3.6-.4.8-.4.7-.3H73a1.9,1.9,0,0,0-.9.5l-.4.3c-.1.1-.3.1-.3.2l-.4.4c-.1,0-.1,0-.1.1l-.3.3a.8.8,0,0,1-.4.4l-.5.7-.4.5-.3.6h1.2c0-.1.1-.1.1-.2Z"/>
          <path class="cls-1" d="M93.8,27c0-.1-.1-.1-.1-.2l-.4-.8-.3-.3h-.1c-.1-.2-.1-.4-.3-.6l-.3-.6c-.2-.1-.2-.3-.3-.4v-.2H90.5a.1.1,0,0,0,.1.1c0,.1.1.2.2.3l.2.3.3.4a.8.8,0,0,0,.2.4l.4.6a1,1,0,0,1,.4.5l.4.6.2.5v.2h1.2a.4.4,0,0,1-.1-.3Z"/>
          <path class="cls-1" d="M91.5,27.2c-.1-.3-.3-.5-.4-.8l-.3-.3a.4.4,0,0,1-.1-.3l-.4-.6c-.1-.2-.3-.3-.4-.4s-.2-.3-.3-.4l-.3-.5H87.6l.4.4a.1.1,0,0,1,.1.1l.5.4c.1.1.2.3.3.3l.4.6a1,1,0,0,1,.4.5l.5.7.3.3v.2l.3.5h1l-.3-.5Z"/>
          <path class="cls-1" d="M67.8,27.1l.4-.6.3-.4.6-.7.2-.3.3-.4.3-.2.3-.4.2-.2H69l-.3.3-.5.5c0,.1-.1.1-.2.2s-.4.3-.5.6l-.2.3a.4.4,0,0,0-.1.3l-.2.4a1.4,1.4,0,0,0-.2.6,1.4,1.4,0,0,0-.2.7h.9a.3.3,0,0,1,.1-.2C67.7,27.4,67.8,27.3,67.8,27.1Z"/>
          <path class="cls-1" d="M63,26.3c0-.1.1-.2.1-.3l.3-.7c0-.2.1-.3.2-.5s.1-.4.2-.6.1-.3.2-.4H62.7c-.1.1-.1.3-.2.4s-.1.5-.3.7a1.1,1.1,0,0,1-.1.5c-.1.2-.1.4-.2.6l-.3,1a.4.4,0,0,0-.1.3l-.2.3v.2h1.3l.3-1.2A.4.4,0,0,1,63,26.3Z"/>
          <path class="cls-1" d="M65.7,26.3c.1,0,.1-.1.1-.2l.2-.4a3,3,0,0,1,.4-.8c.1-.2.1-.4.3-.6s.2-.3.3-.4H65.7l-.4.8a.8.8,0,0,0-.2.4c-.1.2-.1.4-.2.6s-.1.2-.1.4a1.4,1.4,0,0,0-.2.6.4.4,0,0,0-.1.3l-.2.5c0,.1-.1.3-.1.4h1.2a3,3,0,0,1,.2-1A.9.9,0,0,1,65.7,26.3Z"/>
          <path class="cls-1" d="M56.9,26c.1-.4.1-.7.2-1.1h0l.3-.7v-.4H56c0,.1-.1.2-.1.3s-.1.6-.2.9a.4.4,0,0,0-.1.3.4.4,0,0,0-.1.3c-.1.3-.1.6-.2.9h0v.4c0,.3-.1.6-.1.9h1.4l.3-1.7Z"/>
          <path class="cls-1" d="M91.5,27.2c-.1-.3-.3-.5-.4-.8l-.3-.3a.4.4,0,0,1-.1-.3l-.4-.6c-.1-.2-.3-.3-.4-.4s-.2-.3-.3-.4l-.3-.5H87.6l.4.4a.1.1,0,0,1,.1.1l.5.4c.1.1.2.3.3.3l.4.6a1,1,0,0,1,.4.5l.5.7.3.3v.2l.3.5h1l-.3-.5Z"/>
          <path class="cls-1" d="M67.8,27.1l.4-.6.3-.4.6-.7.2-.3.3-.4.3-.2.3-.4.2-.2H69l-.3.3-.5.5c0,.1-.1.1-.2.2s-.4.3-.5.6l-.2.3a.4.4,0,0,0-.1.3l-.2.4a1.4,1.4,0,0,0-.2.6,1.4,1.4,0,0,0-.2.7h.9a.3.3,0,0,1,.1-.2C67.7,27.4,67.8,27.3,67.8,27.1Z"/>
          <path class="cls-1" d="M53.3,23.8H1.5v4H52.9c0-.2.1-.4.1-.6s0-.4,0-.6a.7.7,0,0,1,.2-.6v-.2a.8.8,0,0,0,.1-.4c.1-.3.1-.6.2-.8s.1-.6.1-.8Z"/>
          <path class="cls-1" d="M88.8,26.9c0-.1-.1-.1-.1-.2l-.2-.2c0-.1-.1-.2-.2-.3l-.4-.5-.2-.2-.3-.2-.2-.3-.3-.2-.5-.5-.4-.2-.4-.3H84l.7.5.8.6h.2l.6.5.6.6a4.6,4.6,0,0,0,.7.7l.6.6c0,.1.1.1.1.2s.1.1.1.2h1a2.1,2.1,0,0,0-.4-.6Z"/>
          <path class="cls-1" d="M70.9,26.8a2.1,2.1,0,0,1,.6-.8h.1l.3-.3a.5.5,0,0,1,.4-.2h0l.4-.3.6-.4.8-.4.7-.3H73a1.9,1.9,0,0,0-.9.5l-.4.3c-.1.1-.3.1-.3.2l-.4.4c-.1,0-.1,0-.1.1l-.3.3a.8.8,0,0,1-.4.4l-.5.7-.4.5a1.4,1.4,0,0,0-.2.6h1.1v-.2Z"/>
          <path class="cls-1" d="M85.7,27h0l-.3-.2-.3-.3-.3-.2c-.1-.1-.1-.2-.2-.2l-.8-.5-.5-.2-.7-.3a.1.1,0,0,0-.1-.1l-1.2-.2-.9-.2H76.9l-.8.3-.7.2h-.5l-.8.4H74l-.8.3h-.1l-.3.2-.3.4-.4.4H72l-.2.3H73l.3-.4L74,27l.5-.3.6-.3.4-.2.7-.2c0-.1.1-.1.2-.1h.4l.6-.2h3.9l1.1.4c.1,0,.2,0,.2.1a.5.5,0,0,1,.4.2l.6.4.5.4.5.3.2.2.2.3h1.4a.2.2,0,0,0-.2-.2Z"/>
          <path class="cls-1" d="M56.9,26c.1-.4.1-.7.2-1.1h0l.3-.7v-.4H56c0,.1-.1.2-.1.3s-.1.6-.2.9a.4.4,0,0,0-.1.3.4.4,0,0,0-.1.3c-.1.3-.1.6-.2.9h0v.4c0,.3-.1.6-.1.9h1.4l.3-1.7Z"/>
          <path class="cls-1" d="M59.9,26.8c.1-.1.1-.3.2-.5a.1.1,0,0,1,.1-.1c0-.3.1-.5.1-.7l.3-.9a.4.4,0,0,1,.1-.3l.2-.5H59.3a.8.8,0,0,1-.2.4.8.8,0,0,0-.1.4c-.1.2-.1.4-.2.5a1.4,1.4,0,0,1-.2.6V26c-.1.3-.1.6-.2.9s-.1.4-.2.6v.2h1.5a.3.3,0,0,1,.1-.2C59.8,27.3,59.9,27.1,59.9,26.8Z"/>
          <path class="cls-1" d="M93.8,27c0-.1-.1-.1-.1-.2l-.4-.8-.3-.3h-.1c-.1-.2-.1-.4-.3-.6l-.3-.6c-.2-.1-.2-.3-.3-.4v-.2H90.5a.1.1,0,0,0,.1.1c0,.1.1.2.2.3l.2.3.3.4a.8.8,0,0,0,.2.4l.4.6a1,1,0,0,1,.4.5l.4.6.2.5v.2h1.2a.4.4,0,0,1-.1-.3Z"/>
          <path class="cls-1" d="M63,26.3c0-.1.1-.2.1-.3l.3-.7c0-.2.1-.3.2-.5s.1-.4.2-.6.1-.3.2-.4H62.7c-.1.1-.1.3-.2.4s-.1.5-.3.7a1.1,1.1,0,0,1-.1.5c-.1.2-.1.4-.2.6l-.3,1a.4.4,0,0,0-.1.3l-.2.3v.2h1.3l.3-1.2A.4.4,0,0,1,63,26.3Z"/>
          <path class="cls-1" d="M65.7,26.3c.1,0,.1-.1.1-.2l.2-.4a3,3,0,0,1,.4-.8c.1-.2.1-.4.3-.6s.2-.3.3-.4H65.7l-.4.8a.8.8,0,0,0-.2.4c-.1.2-.1.4-.2.6s-.1.2-.1.4a1.4,1.4,0,0,0-.2.6.4.4,0,0,0-.1.3l-.2.5c0,.1-.1.2-.1.4h1.2a3,3,0,0,1,.2-1A.9.9,0,0,1,65.7,26.3Z"/>
          <path class="cls-1" d="M82.2,27.3l-.4-.2h-.5l-.9-.2H77.8l-.5.2h-.5l-.7.3-.6.2a.1.1,0,0,0-.1.1h1.8l.6-.2H78l.5-.2h2.6l.4.2H83l-.3-.2Z"/>
          <path class="cls-1" d="M188,23.8H93.4c.1.1.2.1.2.2a2.1,2.1,0,0,1,.4.6,3.5,3.5,0,0,1,.5.8l.3.6a5.9,5.9,0,0,0,.4.8h.1c0,.1.1.2.1.3s.1.2.1.3,0,.1.1.2H188Z"/>
        </g>
        <text class="cls-2" transform="translate(0 16.9)">s<tspan class="cls-3" x="9.1" y="0">wi</tspan><tspan class="cls-4" x="28.2" y="0">s</tspan><tspan class="cls-5" x="37.1" y="0">s</tspan><tspan class="cls-6" x="46.3" y="0"> </tspan><tspan class="cls-7" x="50.3" y="0"> </tspan><tspan class="cls-8" x="51.3" y="0">wood</tspan><tspan class="cls-6" x="102.9" y="0"> </tspan><tspan class="cls-5" x="106.9" y="0">solutions</tspan></text>
      </g>
    </g>
  </g>
</svg>
