<?xml version="1.0" encoding="utf-8"?>
<!-- Generator: Adobe Illustrator 22.1.0, SVG Export Plug-In . SVG Version: 6.00 Build 0)  -->
<svg version="1.1" id="Layer_1" xmlns="http://www.w3.org/2000/svg" xmlns:xlink="http://www.w3.org/1999/xlink" x="0px" y="0px"
	 viewBox="0 0 186.2 26" style="enable-background:new 0 0 186.2 26;" xml:space="preserve">
<style type="text/css">
	.st0{fill:#C1574C;}
</style>
<title>SWS_Vektor_C</title>
<path class="st0" d="M59.2,25c0-0.2,0.1-0.3,0.1-0.5h0.1c0-0.3,0.1-0.5,0.1-0.7l0.3-0.9c0-0.1,0-0.2,0.1-0.3l0.3-0.5h-1.6l-0.3,0.4
	c0,0.2-0.1,0.3-0.1,0.4c0,0.2-0.1,0.4-0.2,0.5c0,0.2-0.1,0.4-0.2,0.6v0.3c-0.1,0.3-0.1,0.6-0.2,0.9c-0.1,0.2-0.1,0.4-0.1,0.6
	c0,0.1,0,0.1-0.1,0.2h1.5v-0.2C59,25.5,59.1,25.2,59.2,25z"/>
<path class="st0" d="M88,25.1c0-0.1,0-0.1-0.1-0.2s-0.1-0.1-0.1-0.2s-0.2-0.2-0.2-0.3l-0.5-0.5l-0.2-0.2l-0.3-0.3
	c-0.1,0-0.1-0.1-0.2-0.2L86.1,23c-0.1-0.2-0.3-0.4-0.5-0.5l-0.3-0.2L84.9,22h-1.7l0.7,0.4l0.9,0.7h0.1l0.6,0.5
	c0.2,0.1,0.4,0.4,0.6,0.6l0.7,0.7l0.6,0.6c0.1,0.1,0.1,0.1,0.1,0.2l0.2,0.2h1c-0.1-0.2-0.3-0.4-0.4-0.6L88,25.1z"/>
<path class="st0" d="M81.5,25.5l-0.4-0.2l-0.6-0.2H77l-0.5,0.2h-0.4l-0.8,0.2l-0.6,0.3h2.6l0.4-0.2h1.1c0.1,0,0.6,0,0.6,0l0.9,0.2
	l0.4,0.2h1.5l-0.3-0.2L81.5,25.5z"/>
<path class="st0" d="M70.1,25c0.1-0.3,0.4-0.5,0.6-0.8h0.1l0.3-0.3l0.4-0.3h0.1l0.3-0.3l0.6-0.4l0.8-0.4l0.7-0.3h-1.8l-0.9,0.5
	L70.9,23l-0.3,0.2l-0.4,0.4c-0.1,0-0.1,0-0.1,0.1L69.8,24l-0.4,0.4l-0.5,0.7l-0.4,0.5c-0.1,0.2-0.2,0.4-0.2,0.6h1.1V26L70.1,25z"/>
<path class="st0" d="M93.1,25.2L92.9,25c-0.1-0.3-0.2-0.5-0.4-0.8l-0.3-0.3l0,0l-0.3-0.6c-0.2-0.2-0.2-0.4-0.4-0.6s-0.2-0.3-0.3-0.4
	s-0.1-0.1-0.1-0.2h-1.3c0,0.1,0.1,0.2,0.2,0.3l0.2,0.3l0.3,0.4c0.1,0.1,0.1,0.3,0.2,0.4l0.5,0.6l0.3,0.5l0.4,0.6
	c0.1,0.1,0.1,0.3,0.2,0.5c0.1,0.1,0.1,0.1,0.1,0.2h1.2c0-0.1-0.1-0.2-0.1-0.3C93.2,25.5,93.1,25.3,93.1,25.2z"/>
<path class="st0" d="M90.7,25.4l-0.4-0.8L90,24.3c0-0.1-0.1-0.2-0.1-0.3l-0.4-0.6L89.2,23l-0.4-0.4l-0.3-0.5c0-0.1,0-0.1-0.1-0.1
	h-1.6l0.4,0.3c0,0.1,0.1,0.1,0.1,0.2l0.5,0.4l0.3,0.3l0.4,0.6c0.2,0.1,0.3,0.3,0.4,0.5c0.2,0.2,0.4,0.4,0.5,0.7l0.3,0.3v0.2l0.3,0.4
	h1L90.7,25.4C90.7,25.4,90.7,25.4,90.7,25.4z"/>
<path class="st0" d="M67.1,25.3l0.3-0.6l0.3-0.4l0.6-0.7l0.2-0.3l0.3-0.4l0.3-0.2l0.3-0.4l0.2-0.2h-1.2c-0.1,0-0.1,0-0.1,0.1
	l-0.4,0.3L67.4,23h-0.2c-0.1,0.3-0.4,0.4-0.5,0.7s-0.1,0.2-0.2,0.3s-0.1,0.2-0.1,0.3l-0.2,0.4c-0.1,0.2-0.2,0.4-0.2,0.6
	c-0.1,0.2-0.1,0.5-0.2,0.7h0.9v-0.2L67.1,25.3z"/>
<path class="st0" d="M62.2,24.5c0-0.1,0.1-0.2,0.1-0.3l0.3-0.7c0.1-0.2,0.1-0.4,0.2-0.5c0.1-0.2,0.2-0.4,0.2-0.6
	c0.1-0.1,0.2-0.3,0.2-0.4h-1.3c-0.1,0.1-0.1,0.2-0.2,0.4c-0.1,0.2-0.1,0.5-0.2,0.7c-0.1,0.1-0.1,0.3-0.2,0.4c0,0.2-0.1,0.5-0.2,0.7
	l-0.3,0.9c-0.1,0.1-0.1,0.3-0.1,0.4c-0.1,0.1-0.1,0.2-0.1,0.3c-0.1,0.1-0.1,0.1-0.1,0.2h1.3l0.3-1.2C62.1,24.7,62.1,24.6,62.2,24.5z
	"/>
<path class="st0" d="M64.9,24.5l0.2-0.3c0-0.1,0.1-0.2,0.1-0.3s0.3-0.5,0.4-0.8s0.1-0.4,0.3-0.6l0.4-0.4h-1.4
	c-0.1,0.3-0.2,0.6-0.4,0.8l-0.2,0.4c-0.1,0.2-0.1,0.4-0.2,0.5S64,24.1,64,24.3s-0.1,0.3-0.2,0.5s-0.1,0.3-0.1,0.4
	c-0.1,0.2-0.2,0.3-0.2,0.5c0,0.1,0,0.3-0.1,0.4h1.2c0-0.4,0.1-0.7,0.2-1.1C64.8,24.8,64.9,24.7,64.9,24.5z"/>
<path class="st0" d="M56.1,24.2c0.1-0.4,0.2-0.7,0.2-1.1l0,0l0.3-0.7l0.2-0.4h-1.6c0,0.1,0,0.2-0.1,0.3c-0.1,0.3-0.1,0.6-0.2,0.9
	s-0.1,0.2-0.1,0.3s-0.1,0.2-0.1,0.3s-0.1,0.5-0.2,0.8l0,0V25c0,0.3,0,0.6-0.1,0.9h1.4C55.8,25.9,56.1,24.2,56.1,24.2z"/>
<path class="st0" d="M67.1,25.3l0.3-0.6l0.3-0.4l0.6-0.7l0.2-0.3l0.3-0.4l0.3-0.2l0.3-0.4l0.2-0.2h-1.2c-0.1,0-0.1,0-0.1,0.1
	l-0.4,0.3L67.4,23h-0.2c-0.1,0.3-0.4,0.4-0.5,0.7s-0.1,0.2-0.2,0.3s-0.1,0.2-0.1,0.3l-0.2,0.4c-0.1,0.2-0.2,0.4-0.2,0.6
	c-0.1,0.2-0.1,0.4-0.2,0.6h1L67.1,25.3z"/>
<path class="st0" d="M52.6,22H0.7v3.9h51.4c0.1-0.1,0.1-0.3,0.1-0.5c0.1-0.2,0.1-0.4,0.1-0.6c0-0.2-0.1-0.4,0.1-0.6s0-0.2,0.1-0.3
	c0-0.1,0-0.2,0.1-0.3c0-0.3,0.1-0.6,0.1-0.9c0.1-0.2,0.1-0.5,0.1-0.7H52.6z"/>
<path class="st0" d="M70.1,25c0.1-0.3,0.4-0.5,0.6-0.8h0.1l0.3-0.3l0.4-0.3h0.1l0.3-0.3l0.6-0.4l0.8-0.4l0.7-0.3h-1.8l-0.9,0.5
	L70.9,23l-0.3,0.2l-0.4,0.4c-0.1,0-0.1,0-0.1,0.1L69.8,24l-0.4,0.4l-0.5,0.7l-0.4,0.5l-0.2,0.5h1.2L70.1,25z"/>
<path class="st0" d="M72.3,24.5L72,24.7l-0.3,0.4c-0.1,0.1-0.3,0.2-0.3,0.3l-0.2,0.2L71,25.8h1.2l0.3-0.3l0.7-0.4l0.5-0.3l0.6-0.3
	l0.4-0.2l0.7-0.3h0.2c0.1,0,0.1,0,0.1-0.1H76l0.6-0.2h3.9l1.1,0.4h0.2l0.4,0.2l0.6,0.4l0.5,0.4l0.5,0.3l0.2,0.2l0.2,0.2h1.5
	c-0.1,0-0.2-0.1-0.2-0.2l-0.6-0.4l0,0L84.6,25l-0.3-0.3L84,24.5c-0.1-0.1-0.1-0.2-0.2-0.2L83,23.8l-0.5-0.3l-0.7-0.2h-0.1l-1.2-0.2
	l-0.9-0.2h-2.5l-0.9,0.2l-0.8,0.3l-0.8,0.2h-0.4l-0.8,0.3h-0.2l-0.7,0.4"/>
<path class="st0" d="M64.9,24.5l0.2-0.3c0-0.1,0.1-0.2,0.1-0.3s0.3-0.5,0.4-0.8s0.1-0.4,0.3-0.6l0.4-0.4h-1.4
	c-0.1,0.3-0.2,0.6-0.4,0.8l-0.2,0.4c-0.1,0.2-0.1,0.4-0.2,0.5S64,24.1,64,24.3s-0.1,0.3-0.2,0.5s-0.1,0.3-0.1,0.4
	c-0.1,0.2-0.2,0.3-0.2,0.5c0,0.1,0,0.2-0.1,0.3h1.2c0-0.3,0.1-0.7,0.2-1C64.8,24.8,64.9,24.7,64.9,24.5z"/>
<path class="st0" d="M186.2,22H92.7v0.2c0.2,0.2,0.3,0.4,0.4,0.6c0.2,0.2,0.4,0.5,0.5,0.8l0.3,0.6c0.2,0.2,0.3,0.5,0.4,0.8
	c0,0.1,0,0.1,0.1,0.1v0.3c0.1,0.1,0.1,0.2,0.1,0.3c0,0.1,0,0.1,0.1,0.2H186L186.2,22z"/>
<g>
	<path class="st0" d="M5.7,4.7l1.5,0.9L6.7,6.3L5.3,5.6L3.9,5.4C3.3,5.3,2.7,5.5,2.3,5.9C1.9,6.1,1.6,6.6,1.6,7.1
		c0,0.5,0.2,0.9,0.6,1.2c0.6,0.4,1.3,0.7,2,0.8C5.1,9.3,6,9.7,6.7,10.3c0.6,0.5,0.9,1.2,0.8,2c0.1,0.9-0.4,1.7-1.1,2.2
		c-0.8,0.5-1.7,0.8-2.7,0.8c-0.7,0-1.4-0.1-2.1-0.3L0,14l0.6-0.8c0.5,0.4,1,0.7,1.5,0.9c0.5,0.2,1.1,0.2,1.6,0.2
		c0.7,0.1,1.3-0.1,1.9-0.5c0.5-0.3,0.8-0.9,0.7-1.5c0-0.3-0.1-0.7-0.2-1c-0.2-0.3-0.5-0.5-0.9-0.7L3.5,10C2.6,9.9,1.8,9.5,1.2,8.9
		c-0.5-0.4-0.8-1-0.8-1.7c0-0.5,0.2-1,0.5-1.4c0.3-0.5,0.7-0.8,1.2-1c0.6-0.3,1.2-0.4,1.8-0.4C4.5,4.4,5.1,4.5,5.7,4.7z"/>
	<path class="st0" d="M21.7,4.6l-2.5,10.5h-1.6l-2.3-9.4l-2.4,9.4h-1.5L8.8,4.6H10l2.2,9.6l2.5-9.6H16l2.4,9.6l2.2-9.6L21.7,4.6z"/>
	<path class="st0" d="M25.5,0.3c0.1,0.2,0.2,0.4,0.2,0.6c0,0.2-0.1,0.4-0.2,0.6l-0.7,0.2l-0.6-0.2C24,1.3,24,1.1,24,0.9
		c0-0.3,0-0.5,0.2-0.6C24.4,0.1,24.6,0,24.8,0C25.1,0,25.3,0.1,25.5,0.3z M25.4,4.6v10.5h-1.1V4.6L25.4,4.6z"/>
	<path class="st0" d="M33.9,4.7c0.6,0.2,1.1,0.5,1.6,0.9l-0.6,0.7l-1.3-0.7l-1.4-0.2c-0.6-0.1-1.2,0.1-1.7,0.5
		c-0.4,0.3-0.7,0.7-0.7,1.2c0,0.5,0.2,0.9,0.6,1.2c0.6,0.4,1.3,0.7,2,0.8c0.9,0.2,1.8,0.6,2.5,1.2c0.6,0.5,0.9,1.2,0.8,2
		c0,0.9-0.3,1.7-1,2.2C33.9,15,33,15.3,32,15.3c-0.7,0-1.4-0.1-2.1-0.3c-0.6-0.3-1.2-0.6-1.7-1l0.7-0.8c0.4,0.4,0.9,0.7,1.4,0.9
		c0.5,0.2,1.1,0.2,1.6,0.2c0.7,0.1,1.3-0.1,1.9-0.5c0.5-0.3,0.8-0.9,0.7-1.5c0-0.3-0.1-0.7-0.2-1c-0.2-0.3-0.5-0.5-0.8-0.7L31.8,10
		c-0.9-0.2-1.7-0.5-2.4-1.1c-0.5-0.4-0.8-1-0.8-1.7c0-0.5,0.2-1,0.5-1.4c0.3-0.5,0.8-0.8,1.3-1c0.5-0.3,1.1-0.4,1.7-0.4
		C32.7,4.4,33.3,4.5,33.9,4.7z"/>
	<path class="st0" d="M42.8,4.7c0.6,0.2,1.1,0.5,1.6,0.9l-0.6,0.7l-1.3-0.7l-1.4-0.2c-0.6-0.1-1.2,0.1-1.7,0.5
		c-0.4,0.3-0.6,0.7-0.6,1.2c-0.1,0.5,0.1,0.9,0.5,1.2c0.6,0.4,1.3,0.7,2,0.8c0.9,0.2,1.8,0.6,2.6,1.2c0.6,0.5,0.8,1.2,0.8,2
		c0,0.9-0.4,1.7-1.1,2.2c-0.8,0.5-1.7,0.8-2.7,0.8c-0.7,0-1.4-0.1-2.1-0.3c-0.6-0.3-1.2-0.6-1.7-1l0.7-0.8c0.4,0.4,0.9,0.7,1.4,0.9
		c0.5,0.2,1.1,0.2,1.7,0.2c0.6,0.1,1.3-0.1,1.8-0.5c0.5-0.3,0.8-0.9,0.7-1.5c0-0.3,0-0.7-0.2-1c-0.2-0.3-0.5-0.5-0.8-0.7L40.7,10
		c-0.9-0.2-1.7-0.5-2.4-1.1c-0.5-0.4-0.7-1.1-0.7-1.7c0-0.5,0.1-1,0.4-1.4c0.3-0.5,0.8-0.8,1.3-1c0.5-0.3,1.1-0.4,1.7-0.4
		C41.6,4.4,42.2,4.5,42.8,4.7z"/>
	<path class="st0" d="M64,4.5l-2.3,10.6h-3.2l-1.6-8.3l-1.6,8.3h-3.2L49.8,4.5h2.5l1.5,8.7l1.9-8.7h2.6l1.7,8.7l1.5-8.7H64z"/>
	<path class="st0" d="M74.1,5.7c0.9,1.2,1.4,2.6,1.3,4.1c0,1-0.2,2-0.6,2.9c-0.3,0.8-0.9,1.5-1.7,2c-0.8,0.5-1.7,0.7-2.6,0.7
		c-1.4,0.1-2.8-0.5-3.7-1.5c-0.9-1.2-1.4-2.6-1.3-4.1c0-1,0.2-2,0.6-2.9c0.4-0.8,1-1.5,1.7-2c0.8-0.4,1.8-0.7,2.7-0.7
		C71.9,4.1,73.2,4.7,74.1,5.7z M68.2,9.8c0,1,0.1,1.9,0.5,2.8c0.4,0.6,1.1,0.9,1.8,0.9c0.7,0,1.3-0.3,1.7-0.9
		c0.4-0.9,0.5-1.8,0.5-2.8c0-1-0.1-1.9-0.5-2.8c-0.4-0.5-1-0.8-1.7-0.8C68.9,6.2,68.2,7.4,68.2,9.8z"/>
	<path class="st0" d="M86.2,5.7c0.9,1.2,1.4,2.6,1.3,4.1c0,1-0.2,2-0.6,2.9c-0.4,0.8-1,1.5-1.7,2c-0.8,0.5-1.7,0.8-2.7,0.7
		c-1.4,0.1-2.7-0.5-3.6-1.5c-0.9-1.2-1.4-2.6-1.3-4.1c0-1,0.2-2,0.6-2.9c0.3-0.8,0.9-1.5,1.7-2c0.8-0.5,1.8-0.7,2.7-0.7
		C84,4.1,85.3,4.7,86.2,5.7z M80.3,9.8c-0.1,1,0.1,1.9,0.5,2.8c0.4,0.6,1,0.9,1.7,0.9c0.7,0.1,1.4-0.3,1.7-0.9
		c0.5-0.9,0.7-1.8,0.6-2.8c0.1-1-0.1-1.9-0.6-2.8c-0.4-0.5-1-0.8-1.6-0.8C81,6.2,80.3,7.4,80.3,9.8z"/>
	<path class="st0" d="M99.2,0.3v14.8H97l-0.2-1.3c-0.4,0.5-0.8,0.9-1.3,1.2c-0.5,0.3-1.1,0.4-1.7,0.4c-1.2,0.1-2.3-0.5-3-1.5
		c-0.8-1.2-1.2-2.7-1.1-4.1c0-1,0.2-2,0.6-2.9c0.3-0.8,0.8-1.5,1.4-2c0.7-0.4,1.5-0.7,2.3-0.7c1,0,2,0.4,2.7,1.2V0L99.2,0.3z
		 M95.7,13.1c0.4-0.3,0.7-0.6,1-1V7.3c-0.3-0.4-0.6-0.7-1-0.9c-0.3-0.2-0.7-0.3-1.1-0.3c-0.7,0-1.3,0.3-1.6,0.9
		c-0.4,0.9-0.7,1.8-0.6,2.8c-0.1,1,0.1,1.9,0.6,2.8c0.3,0.6,0.9,0.9,1.5,0.9C94.9,13.5,95.4,13.4,95.7,13.1z"/>
	<path class="st0" d="M111.6,4.7c0.6,0.2,1.1,0.5,1.6,0.9l-0.6,0.7l-1.3-0.7l-1.4-0.2c-0.6-0.1-1.2,0.1-1.7,0.5
		c-0.4,0.3-0.6,0.7-0.6,1.2c-0.1,0.5,0.1,0.9,0.5,1.2c0.6,0.4,1.3,0.7,2,0.8c0.9,0.2,1.8,0.6,2.6,1.2c0.6,0.5,0.8,1.2,0.8,2
		c0,0.9-0.4,1.7-1.1,2.2c-0.8,0.5-1.7,0.8-2.7,0.8c-0.7,0-1.4-0.1-2.1-0.3c-0.6-0.3-1.2-0.6-1.7-1l0.7-0.8c0.4,0.4,0.9,0.7,1.4,0.9
		c0.5,0.2,1.1,0.2,1.7,0.2c0.6,0.1,1.3-0.1,1.8-0.5c0.5-0.3,0.8-0.9,0.7-1.5c0-0.3,0-0.7-0.2-1c-0.2-0.3-0.5-0.5-0.8-0.7l-1.7-0.6
		c-0.9-0.2-1.7-0.5-2.4-1.1c-0.5-0.4-0.7-1.1-0.7-1.7c0-0.5,0.1-1,0.4-1.4c0.3-0.5,0.8-0.8,1.3-1c0.5-0.3,1.1-0.4,1.7-0.4
		C110.4,4.4,111,4.5,111.6,4.7z"/>
	<path class="st0" d="M123.3,5.8c0.9,1.2,1.3,2.6,1.2,4c0.1,1.5-0.3,2.9-1.2,4.1c-0.8,0.9-2,1.4-3.3,1.4c-1.2,0-2.4-0.5-3.2-1.4
		c-0.9-1.2-1.3-2.6-1.2-4c0-1,0.2-2,0.6-2.9c0.3-0.8,0.8-1.5,1.5-1.9c0.7-0.5,1.5-0.7,2.4-0.7C121.3,4.4,122.5,4.9,123.3,5.8z
		 M117.7,6.5c-0.6,1-0.9,2.2-0.8,3.4c-0.1,1.2,0.2,2.3,0.8,3.3c0.5,0.8,1.4,1.2,2.3,1.1c0.9,0.1,1.8-0.4,2.4-1.1
		c0.7-1,1-2.2,0.9-3.4c0.1-1.2-0.3-2.3-0.9-3.3c-0.5-0.7-1.4-1.1-2.3-1.1C119.2,5.4,118.3,5.8,117.7,6.5z"/>
	<path class="st0" d="M128.2,14.8c-0.4-0.4-0.6-0.9-0.5-1.5V0.4l1.1-0.2v13.1c0,0.7,0.3,1,0.9,1h0.7l0.3,0.8
		c-0.4,0.2-0.8,0.3-1.2,0.3C129,15.5,128.5,15.2,128.2,14.8z"/>
	<path class="st0" d="M140.7,15.1h-1v-1.9c-0.6,1.3-2,2.1-3.4,2.1c-0.8,0-1.6-0.3-2.2-0.8c-0.5-0.7-0.8-1.5-0.7-2.4V4.6h1.1V12
		c0,0.6,0.1,1.3,0.5,1.8c0.4,0.4,1,0.6,1.6,0.6c1.2,0,2.2-0.8,3-2.2V4.6h1.2L140.7,15.1z"/>
	<path class="st0" d="M149.6,14.7c-0.7,0.4-1.4,0.6-2.2,0.6c-0.7,0-1.4-0.2-1.9-0.7c-0.5-0.6-0.7-1.3-0.7-2v-7h-1.7v-1h1.7V2.1h1.2
		v2.5h2.7v1H146v6.9c0,0.5,0.1,1,0.4,1.4c0.3,0.3,0.7,0.5,1.1,0.4c0.6,0,1.1-0.1,1.6-0.4L149.6,14.7z"/>
	<path class="st0" d="M152.8,0.3c0.1,0.2,0.2,0.4,0.2,0.6c0,0.2-0.1,0.4-0.2,0.6l-0.7,0.2l-0.6-0.2c-0.2-0.2-0.2-0.4-0.2-0.6
		c0-0.3,0-0.5,0.2-0.6c0.2-0.2,0.4-0.3,0.6-0.3C152.4,0,152.6,0.1,152.8,0.3z M152.7,4.6v10.5h-1.1V4.6L152.7,4.6z"/>
	<path class="st0" d="M163.7,5.8c0.9,1.2,1.3,2.6,1.2,4c0.1,1.5-0.3,2.9-1.2,4.1c-0.8,0.9-2,1.4-3.3,1.4c-1.2,0-2.4-0.5-3.2-1.4
		c-0.9-1.2-1.3-2.6-1.2-4c0-1,0.2-2,0.6-2.9c0.3-0.8,0.8-1.5,1.5-1.9c0.7-0.5,1.5-0.7,2.4-0.7C161.7,4.4,162.9,4.9,163.7,5.8z
		 M158.1,6.5c-0.6,1-0.9,2.2-0.8,3.4c-0.1,1.2,0.2,2.3,0.8,3.3c0.5,0.8,1.4,1.2,2.3,1.1c0.9,0.1,1.8-0.4,2.4-1.1
		c0.7-1,1-2.2,0.9-3.4c0.1-1.2-0.3-2.3-0.9-3.3c-0.5-0.7-1.4-1.1-2.3-1.1C159.6,5.4,158.7,5.8,158.1,6.5L158.1,6.5z"/>
	<path class="st0" d="M175,5.3c0.5,0.6,0.8,1.5,0.7,2.3v7.5h-1.1V7.8c0-0.7-0.1-1.3-0.5-1.9c-0.4-0.3-1-0.5-1.5-0.5
		c-0.6-0.1-1.3,0.1-1.8,0.5c-0.6,0.5-1.1,1-1.5,1.6v7.6h-1.1V4.6h1v1.8c0.4-0.6,0.9-1.1,1.5-1.5c0.6-0.3,1.3-0.5,2-0.5
		C173.6,4.3,174.4,4.7,175,5.3z"/>
	<path class="st0" d="M184.1,4.7l1.6,0.9l-0.6,0.7l-1.3-0.7l-1.4-0.2c-0.6-0.1-1.2,0.1-1.7,0.5c-0.4,0.2-0.7,0.7-0.7,1.2
		c0,0.5,0.2,0.9,0.6,1.2c0.6,0.4,1.3,0.7,2,0.8c0.9,0.2,1.8,0.6,2.5,1.2c0.6,0.5,0.9,1.2,0.8,2c0,0.9-0.3,1.7-1,2.2
		c-0.8,0.5-1.7,0.8-2.7,0.8c-0.7,0-1.4-0.1-2.1-0.3c-0.6-0.3-1.2-0.6-1.7-1l0.7-0.8c0.4,0.4,0.9,0.7,1.4,0.9
		c0.5,0.2,1.1,0.2,1.6,0.2c0.7,0.1,1.3-0.1,1.9-0.5c0.5-0.3,0.8-0.9,0.7-1.5c0-0.3-0.1-0.7-0.2-1c-0.2-0.3-0.5-0.5-0.8-0.7L182,10
		c-0.9-0.1-1.7-0.5-2.4-1.1c-0.5-0.4-0.8-1-0.8-1.7c0-0.5,0.2-1,0.5-1.4c0.3-0.5,0.7-0.8,1.2-1c0.6-0.3,1.2-0.4,1.8-0.4
		C182.9,4.4,183.5,4.5,184.1,4.7z"/>
</g>
</svg>
