<svg xmlns="http://www.w3.org/2000/svg" width="186.2" height="26" viewBox="0 0 186.2 26">
  <defs>
    <style>
      .cls-1 {
        fill: #42393d;
      }
    </style>
  </defs>
  <title>SWS_Logo_dgrey</title>
  <g id="Layer_2" data-name="Layer 2">
    <g id="Layer_1-2" data-name="Layer 1">
      <g>
        <path class="cls-1" d="M59.2,25c0-.2.1-.3.1-.5h.1c0-.3.1-.5.1-.7l.3-.9a.4.4,0,0,1,.1-.3l.3-.5H58.6l-.3.4c0,.2-.1.3-.1.4a.8.8,0,0,1-.2.5,1.4,1.4,0,0,1-.2.6v.3c-.1.3-.1.6-.2.9a1.3,1.3,0,0,0-.1.6c0,.1,0,.1-.1.2h1.5v-.2A2.4,2.4,0,0,1,59.2,25Z"/>
        <path class="cls-1" d="M88,25.1c0-.1,0-.1-.1-.2s-.1-.1-.1-.2-.2-.2-.2-.3l-.5-.5-.2-.2-.3-.3c-.1,0-.1-.1-.2-.2l-.3-.2a1.2,1.2,0,0,0-.5-.5l-.3-.2-.4-.3H83.2l.7.4.9.7h.1l.6.5c.2.1.4.4.6.6l.7.7.6.6c.1.1.1.1.1.2l.2.2h1a6.1,6.1,0,0,1-.4-.6Z"/>
        <path class="cls-1" d="M84.9,25.2h0l-.3-.2-.3-.3-.3-.2c-.1-.1-.1-.2-.2-.2l-.8-.5-.5-.3-.7-.2h-.1l-1.2-.2-.9-.2H77.1l-.9.2-.8.3-.8.2h-.4l-.8.3h-.2l-.7.4a1990328647664.3,1990328647664.3,0,0,1-.2.2l-.3.2-.3.4c-.1.1-.3.2-.3.3l-.2.2L71,26h1.2l.3-.3.7-.4.5-.3.6-.3.4-.2.7-.3h.2a.1.1,0,0,0,.1-.1H76l.6-.2h3.9l1.1.4h.2l.4.2.6.4.5.4.5.3.2.2.3.3h1.4c-.1-.1-.2-.2-.2-.3Z"/>
        <path class="cls-1" d="M81.5,25.5l-.4-.2-.6-.2H77l-.5.2h-.4l-.8.2-.6.3h2.6l.4-.2h1.1c.1,0,.1.1.1,0h.5l.9.2.4.2h1.5l-.3-.2Z"/>
        <path class="cls-1" d="M70.1,25c.1-.3.4-.5.6-.8h.1l.3-.3.4-.3h.1l.3-.3.6-.4.8-.4.7-.3H72.2l-.9.5-.4.3-.3.2-.4.4c-.1,0-.1,0-.1.1l-.3.3-.4.4-.5.7-.4.5a1.4,1.4,0,0,0-.2.6h1.1v-.2Z"/>
        <path class="cls-1" d="M93.1,25.2l-.2-.2a5.9,5.9,0,0,0-.4-.8l-.3-.3h0l-.3-.6c-.2-.2-.2-.4-.4-.6s-.2-.3-.3-.4-.1-.1-.1-.2H89.8c0,.1.1.2.2.3l.2.3.3.4c.1.1.1.3.2.4l.5.6.3.5.4.6c.1.1.1.3.2.5a.3.3,0,0,1,.1.2h1.2c0-.1-.1-.2-.1-.3A1.7,1.7,0,0,1,93.1,25.2Z"/>
        <path class="cls-1" d="M90.7,25.4l-.4-.8-.3-.3c0-.1-.1-.2-.1-.3l-.4-.6-.3-.4-.4-.4-.3-.5a.1.1,0,0,0-.1-.1H86.8l.4.3c0,.1.1.1.1.2l.5.4.3.3.4.6a1,1,0,0,1,.4.5,1.8,1.8,0,0,1,.5.7l.3.3v.2l.3.4h1l-.3-.5A.1.1,0,0,0,90.7,25.4Z"/>
        <path class="cls-1" d="M67.1,25.3l.3-.6.3-.4.6-.7.2-.3.3-.4.3-.2.3-.4.2-.2H68.4c-.1,0-.1,0-.1.1l-.4.3-.5.5h-.2c-.1.3-.4.4-.5.7s-.1.2-.2.3-.1.2-.1.3l-.2.4a1.4,1.4,0,0,0-.2.6,6.4,6.4,0,0,0-.2.7h.9v-.2Z"/>
        <path class="cls-1" d="M62.2,24.5c0-.1.1-.2.1-.3l.3-.7c.1-.2.1-.4.2-.5a1.4,1.4,0,0,0,.2-.6.8.8,0,0,0,.2-.4H61.9c-.1.1-.1.2-.2.4a6.4,6.4,0,0,0-.2.7c-.1.1-.1.3-.2.4a1.4,1.4,0,0,1-.2.7l-.3.9a.8.8,0,0,0-.1.4.4.4,0,0,0-.1.3c-.1.1-.1.1-.1.2h1.3l.3-1.2A.4.4,0,0,1,62.2,24.5Z"/>
        <path class="cls-1" d="M64.9,24.5l.2-.3c0-.1.1-.2.1-.3s.3-.5.4-.8.1-.4.3-.6l.4-.4H64.9a3,3,0,0,1-.4.8l-.2.4c-.1.2-.1.4-.2.5s-.1.3-.1.5-.1.3-.2.5-.1.3-.1.4a1.7,1.7,0,0,0-.2.5.6.6,0,0,1-.1.4h1.2a4.3,4.3,0,0,1,.2-1.1C64.8,24.8,64.9,24.7,64.9,24.5Z"/>
        <path class="cls-1" d="M56.1,24.2a4.3,4.3,0,0,0,.2-1.1h0l.3-.7.2-.4H55.2a.4.4,0,0,1-.1.3c-.1.3-.1.6-.2.9s-.1.2-.1.3-.1.2-.1.3-.1.5-.2.8h0v.4a2.8,2.8,0,0,1-.1.9h1.4l.3-1.7Z"/>
        <path class="cls-1" d="M52.6,22H.7v3.9H52.1a3.6,3.6,0,0,0,.2-1.1c0-.2-.1-.4.1-.6s0-.2.1-.3.3-1.7.3-1.9Z"/>
        <path class="cls-1" d="M186.2,22H92.7v.2a2.1,2.1,0,0,1,.4.6,3.5,3.5,0,0,1,.5.8l.3.6a2,2,0,0,1,.4.8.1.1,0,0,0,.1.1v.3a.4.4,0,0,1,.1.3.3.3,0,0,0,.1.2h91.4Z"/>
        <path class="cls-1" d="M5.7,4.7l1.5.9-.5.7L5.3,5.6,3.9,5.4a2.1,2.1,0,0,0-1.6.5,1.3,1.3,0,0,0-.7,1.2,1.4,1.4,0,0,0,.6,1.2,4.3,4.3,0,0,0,2,.8,5.8,5.8,0,0,1,2.5,1.2,2.2,2.2,0,0,1,.8,2,2.4,2.4,0,0,1-1.1,2.2,4.6,4.6,0,0,1-2.7.8A6.6,6.6,0,0,1,1.6,15L0,14l.6-.8a6,6,0,0,0,1.5.9,4.1,4.1,0,0,0,1.6.2,2.9,2.9,0,0,0,1.9-.5,1.6,1.6,0,0,0,.7-1.5,3,3,0,0,0-.2-1,2.2,2.2,0,0,0-.9-.7L3.5,10A4.5,4.5,0,0,1,1.2,8.9,2.1,2.1,0,0,1,.4,7.2,2.2,2.2,0,0,1,.9,5.8a2.3,2.3,0,0,1,1.2-1,3.7,3.7,0,0,1,1.8-.4A5.2,5.2,0,0,1,5.7,4.7Z"/>
        <path class="cls-1" d="M21.7,4.6,19.2,15.1H17.6L15.3,5.7l-2.4,9.4H11.4L8.8,4.6H10l2.2,9.6,2.5-9.6H16l2.4,9.6,2.2-9.6Z"/>
        <path class="cls-1" d="M25.5.3a.8.8,0,0,1,.2.6,1.4,1.4,0,0,1-.2.6l-.7.2-.6-.2A.7.7,0,0,1,24,.9c0-.3,0-.5.2-.6a.9.9,0,0,1,.6-.3A.9.9,0,0,1,25.5.3Zm-.1,4.3V15.1H24.3V4.6Z"/>
        <path class="cls-1" d="M33.9,4.7a6.5,6.5,0,0,1,1.6.9l-.6.7-1.3-.7-1.4-.2a2.3,2.3,0,0,0-1.7.5,1.5,1.5,0,0,0-.7,1.2,1.4,1.4,0,0,0,.6,1.2,4.8,4.8,0,0,0,2,.8,5.3,5.3,0,0,1,2.5,1.2,2.2,2.2,0,0,1,.8,2,2.6,2.6,0,0,1-1,2.2,5,5,0,0,1-2.7.8,6.6,6.6,0,0,1-2.1-.3,9.5,9.5,0,0,1-1.7-1l.7-.8a4.2,4.2,0,0,0,1.4.9,4.1,4.1,0,0,0,1.6.2,2.9,2.9,0,0,0,1.9-.5,1.6,1.6,0,0,0,.7-1.5,3,3,0,0,0-.2-1,2.7,2.7,0,0,0-.8-.7L31.8,10a5.4,5.4,0,0,1-2.4-1.1,2.1,2.1,0,0,1-.8-1.7,2.2,2.2,0,0,1,.5-1.4,2.2,2.2,0,0,1,1.3-1,3.3,3.3,0,0,1,1.7-.4A4.8,4.8,0,0,1,33.9,4.7Z"/>
        <path class="cls-1" d="M42.8,4.7a5.1,5.1,0,0,1,1.6.9l-.6.7-1.3-.7-1.4-.2a2.3,2.3,0,0,0-1.7.5,1.4,1.4,0,0,0-.6,1.2,1.3,1.3,0,0,0,.5,1.2,4.8,4.8,0,0,0,2,.8,6.3,6.3,0,0,1,2.6,1.2,2.5,2.5,0,0,1,.8,2,2.7,2.7,0,0,1-1.1,2.2,4.6,4.6,0,0,1-2.7.8,6.6,6.6,0,0,1-2.1-.3,9.5,9.5,0,0,1-1.7-1l.7-.8a4.2,4.2,0,0,0,1.4.9,4.4,4.4,0,0,0,1.7.2,2.6,2.6,0,0,0,1.8-.5,1.6,1.6,0,0,0,.7-1.5,1.6,1.6,0,0,0-.2-1,1.9,1.9,0,0,0-.8-.7L40.7,10a5.4,5.4,0,0,1-2.4-1.1,2.1,2.1,0,0,1-.7-1.7A2.1,2.1,0,0,1,38,5.8a2.2,2.2,0,0,1,1.3-1A3.3,3.3,0,0,1,41,4.4,4.8,4.8,0,0,1,42.8,4.7Z"/>
        <path class="cls-1" d="M64.7,4.5,62.4,15.1H59.2L57.6,6.8l-1.7,8.3H52.8L50.4,4.5H53l1.5,8.7,1.8-8.7h2.6l1.7,8.7,1.6-8.7Z"/>
        <path class="cls-1" d="M74.8,5.7a5.9,5.9,0,0,1,1.3,4.1,6.5,6.5,0,0,1-.6,2.9,4.8,4.8,0,0,1-1.7,2,4.7,4.7,0,0,1-2.7.7,4.5,4.5,0,0,1-3.6-1.5,6,6,0,0,1-1.4-4.1,6.5,6.5,0,0,1,.6-2.9,4.4,4.4,0,0,1,1.8-2,5.3,5.3,0,0,1,2.6-.7A4.7,4.7,0,0,1,74.8,5.7Zm-6,4.1a5.1,5.1,0,0,0,.6,2.8,2,2,0,0,0,1.7.9,1.8,1.8,0,0,0,1.7-.9,5.3,5.3,0,0,0,.6-2.8A5.3,5.3,0,0,0,72.8,7a1.9,1.9,0,0,0-1.7-.8C69.6,6.2,68.8,7.4,68.8,9.8Z"/>
        <path class="cls-1" d="M86.9,5.7a6.5,6.5,0,0,1,1.3,4.1,6.5,6.5,0,0,1-.6,2.9,4.8,4.8,0,0,1-1.7,2,5,5,0,0,1-2.7.7,4.7,4.7,0,0,1-3.7-1.5,6.5,6.5,0,0,1-1.3-4.1,6.5,6.5,0,0,1,.6-2.9,4.4,4.4,0,0,1,1.8-2,5.3,5.3,0,0,1,2.6-.7A4.7,4.7,0,0,1,86.9,5.7Zm-6,4.1a5.1,5.1,0,0,0,.6,2.8,2.1,2.1,0,0,0,3.4,0,5.3,5.3,0,0,0,.6-2.8A5.3,5.3,0,0,0,84.9,7a2,2,0,0,0-1.7-.8C81.7,6.2,80.9,7.4,80.9,9.8Z"/>
        <path class="cls-1" d="M99.9.3V15.1H97.6l-.2-1.3a3.7,3.7,0,0,1-6,.1,8,8,0,0,1-1-4.1,8.8,8.8,0,0,1,.5-2.9,6.2,6.2,0,0,1,1.5-2,4.5,4.5,0,0,1,2.3-.7,3.4,3.4,0,0,1,2.6,1.2V0ZM96.3,13.1a2.4,2.4,0,0,0,1-1V7.3a3.8,3.8,0,0,0-.9-.9,2,2,0,0,0-1.1-.3,1.8,1.8,0,0,0-1.6.9,5.5,5.5,0,0,0-.6,2.8,6.3,6.3,0,0,0,.5,2.8,1.8,1.8,0,0,0,1.5.9A1.6,1.6,0,0,0,96.3,13.1Z"/>
        <path class="cls-1" d="M111.6,4.7a5.1,5.1,0,0,1,1.6.9l-.6.7-1.3-.7-1.4-.2a2.3,2.3,0,0,0-1.7.5,1.4,1.4,0,0,0-.6,1.2,1.3,1.3,0,0,0,.5,1.2,4.8,4.8,0,0,0,2,.8,6.3,6.3,0,0,1,2.6,1.2,2.5,2.5,0,0,1,.8,2,2.7,2.7,0,0,1-1.1,2.2,4.6,4.6,0,0,1-2.7.8,6.6,6.6,0,0,1-2.1-.3,9.5,9.5,0,0,1-1.7-1l.7-.8a4.2,4.2,0,0,0,1.4.9,4.4,4.4,0,0,0,1.7.2,2.6,2.6,0,0,0,1.8-.5,1.6,1.6,0,0,0,.7-1.5,1.6,1.6,0,0,0-.2-1,1.9,1.9,0,0,0-.8-.7l-1.7-.6a5.4,5.4,0,0,1-2.4-1.1,2.1,2.1,0,0,1-.7-1.7,2.1,2.1,0,0,1,.4-1.4,2.2,2.2,0,0,1,1.3-1,3.3,3.3,0,0,1,1.7-.4A4.8,4.8,0,0,1,111.6,4.7Z"/>
        <path class="cls-1" d="M123.3,5.8a6.2,6.2,0,0,1,1.2,4,6.5,6.5,0,0,1-1.2,4.1,4.2,4.2,0,0,1-3.3,1.4,4.2,4.2,0,0,1-3.2-1.4,6.2,6.2,0,0,1-1.2-4,6.5,6.5,0,0,1,.6-2.9,3.6,3.6,0,0,1,1.5-1.9,4,4,0,0,1,2.4-.7A4.2,4.2,0,0,1,123.3,5.8Zm-5.6.7a5.5,5.5,0,0,0-.8,3.4,5.4,5.4,0,0,0,.8,3.3,2.5,2.5,0,0,0,2.3,1.1,2.8,2.8,0,0,0,2.4-1.1,5.5,5.5,0,0,0,.9-3.4,5.4,5.4,0,0,0-.9-3.3,2.7,2.7,0,0,0-2.3-1.1A2.9,2.9,0,0,0,117.7,6.5Z"/>
        <path class="cls-1" d="M128.2,14.8a1.7,1.7,0,0,1-.5-1.5V.4l1.1-.2V13.3c0,.7.3,1,.9,1h.7l.3.8a2.7,2.7,0,0,1-1.2.3A1.4,1.4,0,0,1,128.2,14.8Z"/>
        <path class="cls-1" d="M140.7,15.1h-1V13.2a3.7,3.7,0,0,1-3.4,2.1,3.1,3.1,0,0,1-2.2-.8,3.6,3.6,0,0,1-.7-2.4V4.6h1.1V12a3,3,0,0,0,.5,1.8,2.1,2.1,0,0,0,1.6.6c1.2,0,2.2-.8,3-2.2V4.6h1.2Z"/>
        <path class="cls-1" d="M149.6,14.7a4.3,4.3,0,0,1-2.2.6,2.5,2.5,0,0,1-1.9-.7,3,3,0,0,1-.7-2v-7h-1.7v-1h1.7V2.1H146V4.6h2.7v1H146v6.9a2,2,0,0,0,.4,1.4,1.2,1.2,0,0,0,1.1.4,2.9,2.9,0,0,0,1.6-.4Z"/>
        <path class="cls-1" d="M152.8.3a.8.8,0,0,1,.2.6,1.4,1.4,0,0,1-.2.6l-.7.2-.6-.2a.7.7,0,0,1-.2-.6c0-.3,0-.5.2-.6a.9.9,0,0,1,.6-.3A.9.9,0,0,1,152.8.3Zm-.1,4.3V15.1h-1.1V4.6Z"/>
        <path class="cls-1" d="M163.7,5.8a6.2,6.2,0,0,1,1.2,4,6.5,6.5,0,0,1-1.2,4.1,4.2,4.2,0,0,1-3.3,1.4,4,4,0,0,1-3.2-1.4,6.2,6.2,0,0,1-1.2-4,6.5,6.5,0,0,1,.6-2.9,3.6,3.6,0,0,1,1.5-1.9,3.8,3.8,0,0,1,2.4-.7A4.2,4.2,0,0,1,163.7,5.8Zm-5.6.7a5.5,5.5,0,0,0-.8,3.4,5.4,5.4,0,0,0,.8,3.3,2.5,2.5,0,0,0,2.3,1.1,2.8,2.8,0,0,0,2.4-1.1,5.5,5.5,0,0,0,.9-3.4,5.4,5.4,0,0,0-.9-3.3,2.7,2.7,0,0,0-2.3-1.1A2.9,2.9,0,0,0,158.1,6.5Z"/>
        <path class="cls-1" d="M175,5.3a3.2,3.2,0,0,1,.7,2.3v7.5h-1.1V7.8a3.1,3.1,0,0,0-.5-1.9,2.5,2.5,0,0,0-1.5-.5,2.7,2.7,0,0,0-1.8.5,7.8,7.8,0,0,0-1.5,1.6v7.6h-1.1V4.6h1V6.4a5.4,5.4,0,0,1,1.5-1.5,4.6,4.6,0,0,1,2-.5A2.8,2.8,0,0,1,175,5.3Z"/>
        <path class="cls-1" d="M184.1,4.7l1.6.9-.6.7-1.3-.7-1.4-.2a2.3,2.3,0,0,0-1.7.5,1.3,1.3,0,0,0-.7,1.2,1.4,1.4,0,0,0,.6,1.2,4.8,4.8,0,0,0,2,.8,5.3,5.3,0,0,1,2.5,1.2,2.2,2.2,0,0,1,.8,2,2.6,2.6,0,0,1-1,2.2,5,5,0,0,1-2.7.8,6.6,6.6,0,0,1-2.1-.3,9.5,9.5,0,0,1-1.7-1l.7-.8a4.2,4.2,0,0,0,1.4.9,4.1,4.1,0,0,0,1.6.2,2.9,2.9,0,0,0,1.9-.5,1.6,1.6,0,0,0,.7-1.5,3,3,0,0,0-.2-1,2.7,2.7,0,0,0-.8-.7L182,10a4.9,4.9,0,0,1-2.4-1.1,2.1,2.1,0,0,1-.8-1.7,2.2,2.2,0,0,1,.5-1.4,2.3,2.3,0,0,1,1.2-1,3.9,3.9,0,0,1,1.8-.4A4.8,4.8,0,0,1,184.1,4.7Z"/>
      </g>
    </g>
  </g>
</svg>
