<svg xmlns="http://www.w3.org/2000/svg" width="95.2" height="47.9" viewBox="0 0 95.2 47.9">
  <defs>
    <style>
      .cls-1 {
        fill: #fff;
        opacity: 0.3;
      }

      .cls-2, .cls-3 {
        fill: #c1574c;
      }

      .cls-2 {
        opacity: 0.65;
      }
    </style>
  </defs>
  <title>biodiverse</title>
  <g id="Layer_2" data-name="Layer 2">
    <g id="Layer_1-2" data-name="Layer 1">
      <g>
        <polyline class="cls-1" points="0 47.9 0 0 95.2 0 95.2 47.9"/>
        <path class="cls-2" d="M70.1,37.8S65,31,75.5,25.6c4.9-2.5,7.8-3.6,11.3-5.7.2-.2,3.6-2.3,4-2.2S88.3,22.7,70.1,37.8Z"/>
        <path class="cls-2" d="M90.9,17.7c.4,3.1,1.3,28.8-20.2,21C70.7,38.7,87.3,25.5,90.9,17.7Z"/>
        <path class="cls-2" d="M70.1,37.8a30.8,30.8,0,0,1-9.5,4.9,14.7,14.7,0,0,0,.9-6.8c15.3-6.3.2-22,.4-19.6s-.7,3.3-3.9,11.1,1.2,8.2,2.5,8.6a13,13,0,0,1-1.2,7,20.6,20.6,0,0,1-4.5.9v1a32,32,0,0,0,15.8-6.3Z"/>
        <g>
          <path class="cls-3" d="M14.4,46.9c.1-.1.1-.3.2-.4v-.2c.1-.2.1-.5.2-.7a2.9,2.9,0,0,0,.2-.9.4.4,0,0,0,.1-.3l.3-.5H13.8l-.2.5a.4.4,0,0,0-.1.3,1.4,1.4,0,0,0-.2.6c-.1.1-.1.3-.2.5v.3c-.1.3-.1.6-.2.9a6.4,6.4,0,0,0-.2.7h1.5v-.2C14.3,47.4,14.3,47.2,14.4,46.9Z"/>
          <path class="cls-3" d="M43.3,47a.1.1,0,0,0-.1-.1l-.2-.3-.2-.3-.4-.5a.2.2,0,0,1-.2-.2l-.3-.2c-.1-.1-.2-.2-.2-.3l-.3-.2-.5-.5-.4-.2-.4-.3H38.5l.7.5.8.6h.2a1.2,1.2,0,0,1,.5.5,3.4,3.4,0,0,1,.6.6l.8.7.6.7a.1.1,0,0,1,.1.1c0,.1.1.1.1.2h1a2.1,2.1,0,0,0-.4-.6Z"/>
          <path class="cls-3" d="M40.2,47.1h0l-.3-.3-.4-.3c-.1,0-.1-.1-.2-.2a.2.2,0,0,1-.2-.2l-.8-.4-.6-.3-.6-.3A.1.1,0,0,1,37,45l-1.2-.2-1-.2H32.3l-.9.2-.8.2-.8.2-.4.2a1.3,1.3,0,0,0-.8.3.1.1,0,0,0-.1.1l-.8.4h-.1c0,.1,0,.1-.1.1l-.2.2-.4.4-.3.4h-.1c-.1.1-.2.2-.2.3h1.2l.3-.3a1.8,1.8,0,0,1,.7-.5l.5-.3.6-.3h.3l.7-.3h.7l.6-.2h.5c.1,0,.2.1.3,0s.4,0,.6,0,.4,0,.6,0H35c.1,0,.2-.1.3,0h.5l1.1.4h.2l.4.2.6.5.5.3.5.3c0,.1.1.1.2.2s.1.2.2.3h1.4a.2.2,0,0,0-.2-.2Z"/>
          <path class="cls-3" d="M36.7,47.4l-.4-.2h-.5l-.9-.2H33l-.7.2h-1l-.7.3a1.5,1.5,0,0,0-.7.3h1.8l.6-.2h.2l.5-.2h1.2c.1-.1.3,0,.4,0h.9l.5.2h1.5l-.3-.2Z"/>
          <path class="cls-3" d="M25.3,46.9a2.3,2.3,0,0,1,.7-.7c0-.1,0-.1.1-.1l.3-.4a.5.5,0,0,1,.4-.2h0l.4-.3a1.5,1.5,0,0,1,.6-.4l.7-.3.8-.4H27.4l-.8.5-.4.3-.4.2a.8.8,0,0,1-.4.4h-.1l-.2.3-.4.5a1.5,1.5,0,0,0-.5.6l-.4.5-.3.6h1.2c0-.1.1-.1.1-.2A2.2,2.2,0,0,0,25.3,46.9Z"/>
          <path class="cls-3" d="M48.3,47.1a.3.3,0,0,1-.1-.2,2.5,2.5,0,0,1-.4-.7l-.3-.4h-.1l-.3-.6-.4-.6-.3-.4c0-.1,0-.1-.1-.1H45l.3.3.2.3.2.4.3.4.4.6.4.5.3.6.3.5v.2h1.3l-.2-.3C48.5,47.4,48.4,47.3,48.3,47.1Z"/>
          <path class="cls-3" d="M46,47.3a4.3,4.3,0,0,0-.4-.7l-.3-.4a.4.4,0,0,1-.1-.3l-.4-.6c-.1-.1-.3-.2-.4-.4l-.3-.4-.3-.5a.1.1,0,0,1-.1-.1H42.1l.3.4h.2l.5.5.2.3a1.2,1.2,0,0,1,.5.5l.4.5.5.7a.5.5,0,0,1,.2.4c.1,0,.1.1.2.2a.5.5,0,0,1,.2.4h1c0-.2-.1-.3-.2-.5A.1.1,0,0,1,46,47.3Z"/>
          <path class="cls-3" d="M22.3,47.3c.1-.3.3-.4.4-.6l.3-.5a1.8,1.8,0,0,0,.5-.7l.3-.3.3-.3.3-.3.3-.4c.1,0,.1-.1.2-.2H23.6a.1.1,0,0,1-.1.1l-.4.3-.4.5c-.1.1-.2.1-.2.2l-.5.6c-.1.1-.2.2-.2.3s-.1.2-.2.4-.1.2-.1.3l-.3.6c0,.2-.1.5-.1.7H22c0-.1,0-.1.1-.2S22.2,47.4,22.3,47.3Z"/>
          <path class="cls-3" d="M17.4,46.4l.2-.3.3-.7c0-.2.1-.3.2-.5s.1-.4.2-.6.1-.3.2-.4H17.2l-.2.4c-.2.2-.2.5-.3.7a.7.7,0,0,0-.1.5,1.4,1.4,0,0,0-.2.6,6.9,6.9,0,0,0-.4,1,.4.4,0,0,1-.1.3c0,.1-.1.2-.1.4h1.3c.1-.4.1-.8.2-1.2A.4.4,0,0,0,17.4,46.4Z"/>
          <path class="cls-3" d="M20.2,46.5a.4.4,0,0,0,.1-.3c.1-.2.1-.3.2-.4l.3-.8a2.1,2.1,0,0,1,.4-.6l.3-.4H20.2l-.4.7a.8.8,0,0,0-.2.5.8.8,0,0,0-.2.5c-.1.1-.1.2-.2.4a1.4,1.4,0,0,1-.2.6.8.8,0,0,1-.1.4c0,.1-.1.3-.1.4a.8.8,0,0,0-.1.4h1.1a3.6,3.6,0,0,0,.2-1Z"/>
          <path class="cls-3" d="M11.4,46.1c.1-.4.1-.7.2-1.1h0a1.4,1.4,0,0,0,.2-.6,1.7,1.7,0,0,0,.2-.5H10.5c0,.1-.1.2-.1.3l-.3,1v.3c-.1,0-.1.1-.1.2a2.9,2.9,0,0,0-.2.9h0V47a2.8,2.8,0,0,0-.1.9H11a7.5,7.5,0,0,1,.4-1.6Z"/>
          <path class="cls-3" d="M46,47.3a4.3,4.3,0,0,0-.4-.7l-.3-.4a.4.4,0,0,1-.1-.3l-.4-.6c-.1-.1-.3-.2-.4-.4l-.3-.4-.3-.5H42.1l.3.4h.2l.5.5.2.3a1.2,1.2,0,0,1,.5.5l.4.5.5.7a.5.5,0,0,1,.2.4c.1,0,.1.1.2.2a.5.5,0,0,1,.2.4h1l-.2-.5A.1.1,0,0,1,46,47.3Z"/>
          <path class="cls-3" d="M22.3,47.3c.1-.3.3-.4.4-.6l.3-.5a1.8,1.8,0,0,0,.5-.7l.3-.3.3-.3.3-.3.3-.4c.1,0,.1-.1.2-.2H23.6a.1.1,0,0,1-.1.1l-.4.3-.4.5c-.1.1-.2.1-.2.2l-.5.6c-.1.1-.2.2-.2.3s-.1.2-.2.4-.1.2-.1.3l-.3.6c0,.2-.1.5-.1.7H22c0-.1,0-.2.1-.2S22.2,47.4,22.3,47.3Z"/>
          <path class="cls-3" d="M7.8,43.9H0v4H7.4c0-.2.1-.4.1-.6v-.6a.7.7,0,0,1,.2-.6v-.2a.8.8,0,0,0,.1-.4c.1-.3.1-.6.2-.8s.1-.5.1-.8Z"/>
          <path class="cls-3" d="M43.3,47a.1.1,0,0,0-.1-.1l-.2-.3-.2-.3-.4-.5a.2.2,0,0,1-.2-.2l-.3-.2c-.1-.1-.2-.2-.2-.3l-.3-.2-.5-.5-.4-.2-.4-.3H38.5l.7.5.8.6h.2a1.2,1.2,0,0,1,.5.5,3.4,3.4,0,0,1,.6.6l.8.7.6.7a.1.1,0,0,1,.1.1c0,.1.1.1.1.2h1a2.1,2.1,0,0,0-.4-.6Z"/>
          <path class="cls-3" d="M25.3,46.9a2.3,2.3,0,0,1,.7-.7c0-.1,0-.1.1-.1l.3-.4a.5.5,0,0,1,.4-.2h0l.4-.3a1.5,1.5,0,0,1,.6-.4l.7-.3.8-.4H27.4l-.8.5-.4.3-.4.2a.8.8,0,0,1-.4.4h-.1l-.2.3-.4.5a1.5,1.5,0,0,0-.5.6l-.4.5-.3.6h1.2c0-.1.1-.1.1-.2A2.2,2.2,0,0,0,25.3,46.9Z"/>
          <path class="cls-3" d="M40.2,47.1h0l-.3-.3-.4-.3c-.1,0-.1-.1-.2-.2a.2.2,0,0,1-.2-.2l-.8-.4-.6-.3-.6-.3A.1.1,0,0,1,37,45l-1.2-.2-1-.2H32.3l-.9.2-.8.2-.8.2-.4.2a1.3,1.3,0,0,0-.8.3.1.1,0,0,0-.1.1l-.8.4h-.1c0,.1,0,.1-.1.1l-.2.2-.4.4-.3.4h-.1c-.1.1-.2.2-.2.3h1.2l.3-.3a1.8,1.8,0,0,1,.7-.5l.5-.3.6-.3h.3l.7-.3h.7l.6-.2h.5c.1,0,.2.1.3,0s.4,0,.6,0,.4,0,.6,0H35c.1,0,.2-.1.3,0h.5l1.1.4h.2l.4.2.6.5.5.3.5.3c0,.1.1.1.2.2s.1.2.2.3h1.4a.2.2,0,0,0-.2-.2Z"/>
          <path class="cls-3" d="M11.4,46.1c.1-.4.1-.7.2-1.1h0a1.4,1.4,0,0,0,.2-.6c.1-.2.2-.3.2-.5H10.5c0,.1-.1.2-.1.3l-.3,1v.3c-.1,0-.1.1-.1.2a2.9,2.9,0,0,0-.2.9h0V47a2.8,2.8,0,0,0-.1.9H11a7.5,7.5,0,0,1,.4-1.6Z"/>
          <path class="cls-3" d="M14.4,46.9c.1-.1.1-.3.2-.4v-.2c.1-.2.1-.5.2-.7a2.9,2.9,0,0,0,.2-.9.4.4,0,0,0,.1-.3l.3-.5H13.8l-.2.5a.4.4,0,0,0-.1.3,1.4,1.4,0,0,0-.2.6c-.1.1-.1.3-.2.5v.3c-.1.3-.1.6-.2.9a6.4,6.4,0,0,0-.2.7h1.5v-.2C14.3,47.4,14.3,47.2,14.4,46.9Z"/>
          <path class="cls-3" d="M48.3,47.1a.3.3,0,0,1-.1-.2,2.5,2.5,0,0,1-.4-.7l-.3-.4h-.1l-.3-.6-.4-.6-.3-.4c0-.1,0-.1-.1-.1H45l.3.3.2.3.2.4.3.4.4.6.4.5.3.6.3.5v.2h1.2a.4.4,0,0,0-.1-.3C48.5,47.4,48.4,47.3,48.3,47.1Z"/>
          <path class="cls-3" d="M17.4,46.4l.2-.3.3-.7c0-.2.1-.3.2-.5s.1-.4.2-.6.1-.3.2-.4H17.1c0,.1-.1.3-.1.4s-.2.5-.3.7a.7.7,0,0,0-.1.5,1.4,1.4,0,0,0-.2.6,6.9,6.9,0,0,0-.4,1,.4.4,0,0,1-.1.3c0,.1-.1.2-.1.4h1.3c.1-.4.1-.8.2-1.2A.4.4,0,0,0,17.4,46.4Z"/>
          <path class="cls-3" d="M20.2,46.5a.4.4,0,0,0,.1-.3c.1-.2.1-.3.2-.4l.3-.8a2.1,2.1,0,0,1,.4-.6l.3-.4H20.2l-.4.7a.8.8,0,0,0-.2.5.8.8,0,0,0-.2.5c-.1.1-.1.2-.2.4a1.4,1.4,0,0,1-.2.6.8.8,0,0,1-.1.4c0,.1-.1.3-.1.4a.8.8,0,0,0-.1.4h1.1a4.4,4.4,0,0,0,.2-1Z"/>
          <path class="cls-3" d="M36.7,47.4l-.4-.2h-.5l-.9-.2H33l-.7.2h-1l-.7.3a1.5,1.5,0,0,0-.7.3h1.8l.6-.2h.2l.5-.2h1.2c.1-.1.3,0,.4,0h.9l.5.2h1.4c0-.1-.1-.1-.2-.2Z"/>
          <path class="cls-3" d="M95.2,43.9H47.9c.1.1.1.2.2.2l.4.6a4.1,4.1,0,0,1,.5.9l.3.5.3.8a.1.1,0,0,1,.1.1l.2.3a.4.4,0,0,0,.1.3v.2a.1.1,0,0,1,.1.1H95.2Z"/>
        </g>
      </g>
    </g>
  </g>
</svg>
