<svg xmlns="http://www.w3.org/2000/svg" width="95.2" height="46.7" viewBox="0 0 95.2 46.7">
  <defs>
    <style>
      .cls-1 {
        fill: #fff;
      }

      .cls-2 {
        fill: #cb7566;
      }

      .cls-3 {
        fill: #d69382;
      }

      .cls-4 {
        fill: #e8c4b9;
      }
    </style>
  </defs>
  <title>customizable</title>
  <g id="Layer_2" data-name="Layer 2">
    <g id="Layer_1-2" data-name="Layer 1">
      <g>
        <polygon class="cls-1" points="95.2 46.7 94.7 46.7 94.7 0.5 0.5 0.5 0.5 46.7 0 46.7 0 0 95.2 0 95.2 46.7"/>
        <g>
          <path class="cls-2" d="M54.5,24.6h-1l-.4.3H53c-.2.1-.3.3-.4.4s-.1.2-.2.2l-.3.5-.3.4a1,1,0,0,0-.4.5,1.7,1.7,0,0,1-.2.5l-.2.4a1.4,1.4,0,0,0-.2.6c-.1.2-.1.4-.2.6s-.1.5-.1.8h0v.5a.6.6,0,0,0,.1.4,1.3,1.3,0,0,0,.1.6v.2c.1,0,.1.1.1.2s0,.1.1.2a.4.4,0,0,0,.1.3h0c.1.1.1.3.2.5h.1l.3-.8h0a.3.3,0,0,0-.1-.2v-.2a.6.6,0,0,1-.1-.4.4.4,0,0,1-.1-.3,1.1,1.1,0,0,1-.1-.5.4.4,0,0,1-.1-.3v-.9a.4.4,0,0,0,.1-.3.3.3,0,0,1,.1-.2c0-.1.1-.2.1-.3a.6.6,0,0,0,.1-.4l.2-.3a.8.8,0,0,1,.2-.4v-.2c.1-.1.2-.2.2-.3l.3-.3a.1.1,0,0,1,.1-.1h.1c.1-.1.2-.3.4-.4a.3.3,0,0,0,.1-.2l.3-.2.3-.3.5-.3h.3l.3-.8h-.3Z"/>
          <path class="cls-2" d="M50,35.9v-.2c-.1-.1-.2-.1-.2-.2l-.3-.5-.2-.3c-.1-.2-.2-.3-.2-.5s-.1-.1-.2-.2-.1-.2-.1-.4a.1.1,0,0,0-.1-.1c0-.1-.1-.2-.1-.3h0l-.4,1h.1c0,.1.1.1.2.2a1,1,0,0,0,.1.3.8.8,0,0,1,.2.4l.3.3c0,.1.1.1.1.2l.2.2.3.5h.1l.2.3.2-.6h0A.2.2,0,0,0,50,35.9Z"/>
          <path class="cls-2" d="M56,21.4H54.4l-.5.2h-.6L53,22h0l-.4.9h.1c.1,0,.2,0,.2-.1h2.9l.2-.6Z"/>
          <path class="cls-2" d="M60,4.1l-3.3,8.3h0v.2h2.6L62.4,5Z"/>
          <path class="cls-2" d="M50.8,34.6h-.1l-.3-.5c-.1-.2-.1-.4-.2-.6l-.3-.5c0-.2-.1-.3-.1-.5h0a1.4,1.4,0,0,1-.2-.7.7.7,0,0,1-.1-.5h0L49.1,32h0a.4.4,0,0,0,.1.3v.3a.8.8,0,0,0,.2.4v.2a.3.3,0,0,1,.1.2.4.4,0,0,1,.1.3h.1c.1.2.1.3.2.4s.1.1.1.2.1.1.1.2h.1c0,.1.1.2.1.3l.2.2a.1.1,0,0,0,.1.1l.2-.5Z"/>
          <path class="cls-2" d="M55.4,22.9h-.8l-.5.2h-.7l-.3.2h-.2l-.3.2-.5.4H52l-.4,1.3a.1.1,0,0,1,.1-.1c.1-.1.2-.3.4-.4l.4-.4.4-.3h.3c0-.1.1-.1.2-.2h.4l.6-.2.6-.2h.1l.3-.7Z"/>
          <path class="cls-2" d="M58.7,14.5H56.1l-.4.9h1.6l1,.2.4-.8Z"/>
          <path class="cls-2" d="M57.8,16.3H55.3l-.4.9h2.7l.4-.9h-.2Z"/>
          <path class="cls-2" d="M57.2,18.2H55.3c-.2,0-.4-.1-.5,0h-.3l-.3.8h2.7l.3-.8Z"/>
          <path class="cls-2" d="M56,19.9H53.7l-.3.8h1.5c0-.1.1-.1.2,0h.5l.7.2.2-.7H56Z"/>
          <path class="cls-2" d="M53.9,26.8h0l-.4.3-.3.4-.2.2c0,.1-.1.2-.2.3s-.1.3-.2.4-.1.1-.1.2l-.2.3c0,.2-.1.3-.1.5s-.1.1-.1.2-.1.3-.1.5v.7a.4.4,0,0,0,.1.3v.2h0l.3-.7h0v-.5c0-.2.1-.4.1-.6a.3.3,0,0,1,.1-.2c0-.1,0-.1.1-.1v-.3h.1l.2-.3c0-.1.1-.1.1-.2a.1.1,0,0,0,.1-.1l.3-.4h0l.4-1.1Z"/>
          <path class="cls-2" d="M45.8,36.6h0c0-.1.1-.2.2-.3h.1l.3-.4c.1-.1.1-.2.2-.2s0-.1.1-.2L47,35c0-.1.1-.2.1-.3s.2-.2.2-.3l.2-.2a.1.1,0,0,1,.1-.1l-.4-1c0,.1-.1.2-.1.3a.1.1,0,0,0-.1.1c0,.2-.1.3-.1.4s-.1.2-.2.2a.5.5,0,0,1-.2.4l-.2.4-.3.5c-.1,0-.1.1-.2.2a.1.1,0,0,1-.1.1l-.2.3h0l.3.6Z"/>
          <path class="cls-2" d="M41,21.9h.4l.5.2h1.4l-.4-.9h-.3l-.4-.2H39.9l.2.6H41Z"/>
          <path class="cls-2" d="M37.9,12.7h1.4L36.1,3.9l-2.4.9,3.1,8.1h.4l.3-.2Z"/>
          <path class="cls-2" d="M45.6,34.5h.1c0-.1,0-.2.1-.2s.1-.1.1-.2.1-.3.2-.4a.3.3,0,0,0,.1-.2.3.3,0,0,1,.1-.2v-.4a.8.8,0,0,0,.2-.4v-.3a.4.4,0,0,0,.1-.3h0l-.4-1.1h0a.9.9,0,0,1-.1.5,1.9,1.9,0,0,1-.2.7h0c0,.2-.1.3-.1.5l-.3.5c-.1.2-.1.4-.2.6l-.3.5h0a.1.1,0,0,0-.1.1h0l.2.6a.1.1,0,0,0,.1-.1l.2-.3A.3.3,0,0,0,45.6,34.5Z"/>
          <path class="cls-2" d="M42.1,23.8h.1l.3.2.2.2H43l.4.3c.1.1.3.2.4.4l.4.3c0,.1.1.1.1.2h0l-.5-1.3h0a1,1,0,0,0-.5-.4l-.3-.2c0-.1-.1-.1-.2-.1l-.3-.2h-.3l-.4-.2H40.5l.3.7c0,.1,0,.1.1.1h.6Z"/>
          <path class="cls-2" d="M45.1,31.9h.1a1.3,1.3,0,0,1,.1-.6v-.9h0a1.7,1.7,0,0,0-.1-.7c0-.2-.1-.4-.1-.6a1.4,1.4,0,0,1-.2-.6l-.3-.5a.8.8,0,0,0-.2-.4l-.3-.5-.3-.5c-.1-.1-.2-.3-.4-.4s-.1-.1-.1-.2-.3-.3-.4-.4h-.1c-.1-.1-.3-.2-.4-.4h-.2c0-.1-.1-.1-.1-.2h-.8c0-.1-.1-.1-.2-.1h0l.3.7h.3c.1.1.3.2.4.4l.3.2.3.3.2.2.3.3c.1.1.1.1.1.2h.1c0,.1.1.1.1.2l.2.3.2.3v.2c.1.1.1.2.2.4s.1.2.1.3.1.2.1.3.1.3.2.4h0a.6.6,0,0,1,.1.4v1.1c-.1.2-.1.4-.2.5a.6.6,0,0,1-.1.4v.4a.1.1,0,0,0-.1.1v.2h0l.3.8a.3.3,0,0,0,.1-.2c.1-.1.1-.3.2-.4h0a32966741879563,32966741879563,0,0,1,.2-.6A.3.3,0,0,0,45.1,31.9Z"/>
          <path class="cls-2" d="M38.8,14.9h1.5l-.4-.9H37.3l.3.9,1.1-.2Z"/>
          <path class="cls-2" d="M39.3,17H41l-.3-1H38l.3,1h1Z"/>
          <path class="cls-2" d="M40,18.7h1.8l-.4-.8h-.2c-.2,0-.4.1-.5,0h-2l.3.8h1Z"/>
          <path class="cls-2" d="M40.6,20.4h1.5c0,.1.2.1.3.1h.1l-.3-.8H39.9c-.1,0-.2-.1-.3,0h-.2l.2.7h1Z"/>
          <path class="cls-2" d="M43.8,30a1.3,1.3,0,0,0-.1-.6h0c-.1-.2-.1-.4-.2-.5s-.1-.2-.1-.3v-.2l-.3-.4-.2-.3c0-.1-.1-.2-.2-.3l-.3-.4-.3-.3h0l.4,1.1h0l.2.3a.1.1,0,0,0,.1.1l.2.3c0,.1.1.2.1.3a.1.1,0,0,1,.1.1V29h0a.4.4,0,0,1,.1.3,1.3,1.3,0,0,1,.1.6v.3h0l.3.7v-.6a.1.1,0,0,0,0-.2Z"/>
        </g>
        <g>
          <path class="cls-3" d="M44.7,35.3l-.7-.6h0v.5a.4.4,0,0,0-.1.3.4.4,0,0,1-.1.3v.4c0,.2,0,.3-.1.4a.9.9,0,0,1-.1.5.4.4,0,0,1-.1.3h0l.6.6v-.2a.4.4,0,0,0,.1-.3c.1-.1,0-.1.1-.2a4.3,4.3,0,0,1,.1-.5v-.3h0c.1-.1.1-.3.2-.4v-.5c0-.1.1-.2.1-.3h0Z"/>
          <path class="cls-3" d="M43.5,34.2l-.8-.8h0v.3h0a.9.9,0,0,1,.1.5.3.3,0,0,0-.1.2v.9a4.3,4.3,0,0,1-.1.5v.5a.4.4,0,0,0-.1.3h0l.5.5v-.4a.1.1,0,0,1,.1-.1.7.7,0,0,1,.1-.5V36a.3.3,0,0,1,.1-.2.9.9,0,0,1,.1-.5v-.7a.4.4,0,0,1,.1-.3Z"/>
          <path class="cls-3" d="M32.6,26.1h2.1l-.7-.7H31.4L31,26h0l.4.4h1.2Z"/>
          <path class="cls-3" d="M26.2,18.6l.4-.3h-.1L19.9,12l-1.7,1.9,6.3,6,.3-.2.3-.3.3-.2h.2c0-.1.1-.1.2-.2Z"/>
          <path class="cls-3" d="M42,34.1v-.2c0-.1-.1-.2-.1-.3s0-.3,0-.4a.4.4,0,0,0-.1-.3v-.3h0l-.8-.8h0a4.3,4.3,0,0,1,.1.5,1.5,1.5,0,0,1,.1.7.1.1,0,0,0,.1.1v.5c.1.1,0,.3,0,.5a1.7,1.7,0,0,1,.1.7v.6h0a.1.1,0,0,1-.1.1h0l.5.5V36a.4.4,0,0,0,.1-.3v-.2h0c0-.1.1-.2.1-.3v-1Z"/>
          <path class="cls-3" d="M34.1,27.3h2l.5.2h.2l-1-1H32.5l-.3.2h0l.5.5h.1l.7-.2Z"/>
          <path class="cls-3" d="M40.3,33.6v-.4a1.4,1.4,0,0,0-.2-.6.6.6,0,0,0-.1-.4c-.1-.1-.1-.3-.2-.4h0l-.5-.6-.3-.5-.5-.4-.4-.4-.4-.3-.5-.3-.5-.2-.5-.3H36l-.5-.2h-.1l-.6-.2H33.4l.6.5h1.9l.4.2h.4l.4.2.3.2a.1.1,0,0,0,.1.1l.3.2.3.3.3.3c.1,0,.1.1.2.2h.2c0,.1.1.2.2.3l.3.6v.2a.4.4,0,0,0,.1.3.6.6,0,0,0,.1.4v.4a.6.6,0,0,1,.1.4h0v.3h0l.7.6v-.7h0v-.5Z"/>
          <path class="cls-3" d="M27.2,20.8l.6-.4h0l.4-.2h.3l-.7-.7h0c-.1,0-.2,0-.2.1l-.6.3h-.3l-.5.3H26l-.4.4.6.6.9-.6Z"/>
          <path class="cls-3" d="M28.7,22.4l.3-.3.5-.3h.6l-.8-.7h-.5l-.3.2-.4.2a.1.1,0,0,0-.1.1l-.5.3-.4.3H27l.7.7h.2l.4-.3.3-.2Z"/>
          <path class="cls-3" d="M30.1,23.6l.5-.2.3-.2h.4c.1-.1.2-.1.2-.2h0l-.6-.6-.3.2-.4.2h-.3l-.4.3-.5.3c-.1,0-.2,0-.2.1s-.2,0-.2.1h-.1l.6.6.6-.4h.4Z"/>
          <path class="cls-3" d="M31.4,24.8c.1,0,.2,0,.2-.1l.6-.2H33l-.6-.6h-.1l-.5.2h-.3l-.3.2h-.3l-.3.2h-.3c0,.1-.2.1-.2.2h-.2l.5.5L31,25h.4Z"/>
          <path class="cls-3" d="M38.8,33.3c-.1-.1-.1-.1-.1-.2a.6.6,0,0,0-.1-.4c0-.1-.1-.1-.1-.2l-.2-.3-.3-.5h-.1c-.1-.2-.3-.3-.4-.4l-.3-.2c0-.1-.1-.1-.1-.2a.5.5,0,0,1-.4-.2l-.3-.2h-.3l-.5-.2-.4-.2h0l.8.8h0l.4.2a.1.1,0,0,0,.1.1h.3c.1.1.2.1.2.2h.2a.3.3,0,0,1,.1.2h.1l.2.2.4.5a.4.4,0,0,0,.1.3.1.1,0,0,0,.1.1h0l.6.6Z"/>
          <path class="cls-3" d="M53.6,32.5h0a.4.4,0,0,0-.1.3v.2a.9.9,0,0,0-.1.5.1.1,0,0,1,0,.2c0,.1,0,.2.1.2s-.1.2-.1.3,0,.1.1.2v.6a.3.3,0,0,0,.1.2h0v.3c0,.1.1.2.1.3h0l.5-.4h0a.1.1,0,0,1-.1-.1h0V33.1h0c0-.2.1-.5.1-.7s.1-.3.1-.5h0l-.7.8Z"/>
          <path class="cls-3" d="M61.4,27.8H60.2l-.5.2h-.1l-.5.2-.3.2-.4.2-.5.3-.5.3a.8.8,0,0,1-.4.4l-.3.3-.5.5-.3.5a4.3,4.3,0,0,0-.4.7h0c-.1.2-.2.3-.2.5s-.1.2-.1.4a.9.9,0,0,0-.1.5.1.1,0,0,0,0,.2c0,.1,0,.2-.1.2V34h0c.1.2,0,.4.1.5v.2l.6-.7h0v-.8a.4.4,0,0,0,.1-.3.7.7,0,0,1,.1-.5v-.3c0-.1,0-.1.1-.1l.3-.7.2-.3a.1.1,0,0,1,.1-.1l.2-.3.3-.2.2-.3c.2-.1.2-.3.4-.3h.1l.3-.2.3-.2h.4l.4-.2h1l.6-.2h.3l.5-.5h-.2Z"/>
          <path class="cls-3" d="M53,36.5v-.2c0-.1-.1-.2-.1-.3a1.1,1.1,0,0,0-.1-.5.6.6,0,0,0-.1-.4V33.9h0v-.3l-.7.7h0v.5a.4.4,0,0,1,.1.3v.4c.1.1.1.3.2.4V36a.4.4,0,0,0,.1.3,4.3,4.3,0,0,0,.1.5c0,.1,0,.1.1.1a.6.6,0,0,0,.1.4l.4-.5h0C53.1,36.7,53,36.6,53,36.5Z"/>
          <path class="cls-3" d="M63.9,25.3l-.4-.2-.4-.2H60.9l-.7.7h3.3l.4-.4Z"/>
          <path class="cls-3" d="M74.1,10.7l-6.2,6.6h-.1l.4.3.5.3h.4l.3.2.3.2.3.2,6-6.3Z"/>
          <path class="cls-3" d="M62.8,26.5H62c-.2,0-.3-.1-.5,0H59.2l-.9,1h.1l.5-.2.5-.2h2.9l.5-.5Z"/>
          <path class="cls-3" d="M68.4,19.4h-.1l-.5-.3a.1.1,0,0,0-.1-.1c-.1,0-.2,0-.2-.1l-.6-.3h-.2l-.6.7.3.2h.4l.6.4a.1.1,0,0,0,.1.1l.9.6.6-.7-.5-.3C68.5,19.5,68.4,19.5,68.4,19.4Z"/>
          <path class="cls-3" d="M67.7,21.3h-.2l-.3-.3-.6-.3h-.5l-.3-.2h-.5l-.8.8h.6l.5.2.4.2h.4l.5.3H67l.7-.8Z"/>
          <path class="cls-3" d="M52,37.3c-.1-.1-.1-.3-.2-.4v-.4a.7.7,0,0,1-.1-.5c0-.1-.1-.1-.1-.2a.4.4,0,0,0-.1-.3v-.3c0-.1,0-.2-.1-.2h0l-.6.7h0c0,.1.1.2.1.4s.1.3.1.4.1.3.1.4h.1v.3l.2.5v.2c0,.1.1.2.1.3s.1.1.1.2l.6-.6h-.1C52.1,37.6,52,37.5,52,37.3Z"/>
          <path class="cls-3" d="M66,22.7h-.2l-.6-.3-.4-.2h-.3l-.4-.2h-.3l-.6.6h.3l.3.2h.4l.4.2H65l.7.4.6-.6H66Z"/>
          <path class="cls-3" d="M64.5,23.9h-.3l-.3-.2H63l-.6-.2h0l-.6.7h.9l.5.2h.2c.1,0,.2,0,.2.1h.3l.6.3.5-.5h-.2Z"/>
          <path class="cls-3" d="M60,29.5h-.1l-.4.2-.4.2-.3.2h-.3l-.3.3-.2.2-.3.2-.3.4h-.1l-.3.5-.2.3c0,.1-.1.2-.1.3a.8.8,0,0,1-.1.4v.2l.6-.6h0v-.2a.4.4,0,0,0,.1-.3l.4-.5.2-.2h0c.1-.1.1-.2.2-.2a.1.1,0,0,1,.1-.1l.3-.2c0-.1.1-.1.2-.2h.1l.4-.3h0l.8-.8Z"/>
          <path class="cls-3" d="M50.9,38.9c0-.1-.1-.1-.1-.2s0-.1-.1-.2h0c-.1-.2-.1-.4-.2-.5a.6.6,0,0,1-.1-.4,1.4,1.4,0,0,1-.2-.6c0-.2-.1-.3-.1-.5v-.2h0L48,38.9l-2.5-2.8h0v.2a.6.6,0,0,0-.1.4c0,.2-.1.4-.1.6a.8.8,0,0,0-.1.4,1.7,1.7,0,0,0-.2.5v.4h-.1a.1.1,0,0,1-.1.1L47.4,42l.4-.4.7.7L51,39.1h0A.1.1,0,0,0,50.9,38.9Z"/>
        </g>
        <g>
          <path class="cls-4" d="M22.2,31.6c0-.1.1-.1.2-.2h.1c.1-.1.1-.3.2-.4l.4-.5h.1l.3-.3-1-.4h0l-.2.3c-.1,0-.1.1-.2.2l-.2.2-.3.3v.2l-.3.5-.2.4h-.1l.9.3a.1.1,0,0,0,.1-.1Z"/>
          <path class="cls-4" d="M39.6,38.5h0v-.2a.4.4,0,0,0-.1-.3c0-.1-.1-.2-.1-.4a.1.1,0,0,1-.1-.1,19668661934057.1,19668661934057.1,0,0,0-.2-.4.3.3,0,0,0-.1-.2l-.2-.5-.2-.2a.3.3,0,0,1-.1-.2.1.1,0,0,1-.1-.1l-1-.4h0c.2.1.3.3.4.4l.3.6a.1.1,0,0,1,.1.1.8.8,0,0,1,.2.4l.3.5a1.4,1.4,0,0,0,.2.6,1.4,1.4,0,0,1,.2.6h.1l.6.3a.9.9,0,0,0-.1-.5C39.7,38.6,39.7,38.5,39.6,38.5Z"/>
          <path class="cls-4" d="M37.8,37.8h-.1a.4.4,0,0,0-.1-.3.3.3,0,0,1-.1-.2c-.1-.1-.1-.1-.1-.2a.3.3,0,0,1-.1-.2c-.1-.1-.2-.3-.4-.4l-.2-.3c-.1-.1-.3-.2-.4-.4h0l-.7-.4c-.2-.1-.3-.3-.5-.3l-.6-.3H34l-.5-.2H31a.1.1,0,0,1-.1.1h-.6a.1.1,0,0,1-.1.1H30l-.3.2h-.3c0,.1,0,.1-.1.1h-.2l.7.3h.3l.6-.2h1.7c0,.1,0,0,.1,0a.1.1,0,0,0,.1.1h.9l.5.2h1a.1.1,0,0,0,.1.1l.3.2.6.5c.1,0,.1,0,.1.1s.1.1.2.2l.3.4c0,.1.1.2.2.3s.1.2.2.4a.1.1,0,0,1,.1.1c0,.1,0,.1.1.2l.8.4c0-.1,0-.2-.1-.2S37.8,38,37.8,37.8Z"/>
          <path class="cls-4" d="M35.6,37.2l-.2-.2-.3-.3-.5-.2h-.2l-.4-.2h-.4c0-.1-.1-.1-.2-.1H31.3l1.1.5h1.2a.1.1,0,0,0,.1.1h.6l.5.3.2.2.2.2.7.2h-.1Z"/>
          <path class="cls-4" d="M28.8,34.2l.5-.3a.1.1,0,0,0,.1-.1h.3c.1,0,.2-.1.3,0h2.1l-1.3-.4H28.9l-.3.2-.5.2-.3.3-.3.2.7.3h.1A1,1,0,0,1,28.8,34.2Z"/>
          <path class="cls-4" d="M42.7,39.7h-.1V39a.4.4,0,0,1-.1-.3h0c-.1-.2,0-.3-.1-.5a.6.6,0,0,0-.1-.4.4.4,0,0,0-.1-.3h0l-.9-.3h.1a.4.4,0,0,0,.1.3v.2c0,.1.1.2.1.3v.3l.2.5a.4.4,0,0,0,.1.3v.5c0,.1.1.2.1.4h0l.7.3v-.6Z"/>
          <path class="cls-4" d="M41.2,39.3a1.3,1.3,0,0,0-.1-.6.4.4,0,0,0-.1-.3h0a.9.9,0,0,0-.1-.5.4.4,0,0,0-.1-.3.6.6,0,0,0-.1-.4v-.3h-.1l-1-.4.2.3h0c.1.2.2.3.2.4a.4.4,0,0,1,.1.3c.1.1.1.3.2.4a.6.6,0,0,0,.1.4,4.3,4.3,0,0,0,.1.5c0,.1.1.2.1.3v.2c0,.1.1.2.1.3h0l.6.2a.4.4,0,0,0-.1-.3Z"/>
          <path class="cls-4" d="M26.9,33.7l.4-.3.2-.2.5-.3h.3l.2-.2H29c.1,0,.2,0,.2-.1h.2l-.9-.3h-.4l-.4.2h-.2l-.4.3h-.2l-.2.2a.2.2,0,0,1-.2.2l-.3.3-.2.4.5.2a.1.1,0,0,0,.1-.1Z"/>
          <path class="cls-4" d="M24.1,32h.2l.3-.4.3-.3.2-.2.3-.3-.8-.3-.3.2c-.1.1-.1.3-.3.4l-.2.2-.3.4-.4.5v.2h-.2l.8.3a2.1,2.1,0,0,1,.4-.6C24,32.1,24.1,32.1,24.1,32Z"/>
          <path class="cls-4" d="M25.8,32.7h.1c.1-.1.1-.2.2-.2l.4-.4.4-.3.3-.2h0l-.8-.3h0l-.4.3-.3.3-.2.2c-.1.1-.1.2-.2.2l-.3.4v.2a.2.2,0,0,0-.2.2l-.2.2.7.3.4-.6C25.6,32.8,25.7,32.8,25.8,32.7Z"/>
          <path class="cls-4" d="M20.5,30.4l.4-.6h0l.3-.3c.1-.1.2-.2.2-.3l-.9-.3h-.1l-.4.5c0,.1-.1.1-.1.2a.1.1,0,0,0-.1.1l-.3.5h-.1a.4.4,0,0,1-.1.3l-.2.5.8.3.6-.9Z"/>
          <path class="cls-4" d="M41.2,39.3a1.3,1.3,0,0,0-.1-.6.4.4,0,0,0-.1-.3h0a.9.9,0,0,0-.1-.5.4.4,0,0,0-.1-.3.6.6,0,0,0-.1-.4v-.3h-.1l-1-.4.2.3h0c.1.2.2.3.2.4a.4.4,0,0,1,.1.3c.1.1.1.3.2.4a.6.6,0,0,0,.1.4,4.3,4.3,0,0,0,.1.5c0,.1.1.2.1.3v.2c0,.1.1.2.1.3l.6.2a.4.4,0,0,0-.1-.3Z"/>
          <path class="cls-4" d="M26.9,33.7l.4-.3.2-.2.5-.3h.3l.2-.2H29c.1,0,.2,0,.2-.1h.2l-.9-.3h-.4l-.4.2h-.2l-.4.3h-.2l-.2.2a.2.2,0,0,1-.2.2l-.3.3-.2.4.5.2h.1Z"/>
          <path class="cls-4" d="M18.9,28.2h0L12,25.7l-.9,2.4,6.6,2.4.2-.3a.4.4,0,0,0,.1-.3c.1-.2.1-.3.3-.4a.1.1,0,0,1,.1-.1c0-.1.1-.1.1-.2l.3-.5.3-.4Z"/>
          <path class="cls-4" d="M39.6,38.5h0v-.2a.4.4,0,0,0-.1-.3c0-.1-.1-.2-.1-.4a.1.1,0,0,1-.1-.1,19668661934057.1,19668661934057.1,0,0,0-.2-.4.3.3,0,0,0-.1-.2l-.2-.5-.2-.2a.3.3,0,0,1-.1-.2.1.1,0,0,1-.1-.1l-1-.4h0c.2.1.3.3.4.4l.3.6a.1.1,0,0,1,.1.1.8.8,0,0,1,.2.4l.3.5a1.4,1.4,0,0,0,.2.6,1.4,1.4,0,0,1,.2.6h.1l.6.3a.9.9,0,0,0-.1-.5C39.7,38.6,39.7,38.5,39.6,38.5Z"/>
          <path class="cls-4" d="M28.8,34.2l.5-.3a.1.1,0,0,0,.1-.1h.3c.1,0,.2-.1.3,0h1.9a.1.1,0,0,0,.1-.1l-1.2-.4H28.9l-.3.2-.5.2-.3.3-.3.2.7.3h.1A1,1,0,0,1,28.8,34.2Z"/>
          <path class="cls-4" d="M37.8,37.8h-.1a.4.4,0,0,0-.1-.3.3.3,0,0,1-.1-.2c-.1-.1-.1-.1-.1-.2a.3.3,0,0,1-.1-.2c-.1-.1-.2-.3-.4-.4l-.2-.3c-.1-.1-.3-.2-.4-.4h0l-.7-.4c-.2-.1-.3-.3-.5-.3l-.6-.3H34l-.5-.2H31a.1.1,0,0,1-.1.1h-.6a.1.1,0,0,1-.1.1H30l-.3.2h-.3c0,.1,0,.1-.1.1h-.2l.8.3h.2l.6-.2h1.7c0,.1,0,0,.1,0a.1.1,0,0,0,.1.1h.9l.5.2h1a.1.1,0,0,0,.1.1l.3.2.6.5c.1,0,.1,0,.1.1s.1.1.2.2l.3.4c0,.1.1.2.2.3s.1.2.2.4a.1.1,0,0,1,.1.1c0,.1,0,.1.1.2l.8.3a.1.1,0,0,0-.1-.1C37.9,38.1,37.8,38,37.8,37.8Z"/>
          <path class="cls-4" d="M20.5,30.4l.4-.6h0l.3-.3c.1-.1.2-.2.2-.3l-.9-.3h-.1l-.4.5c0,.1-.1.1-.1.2a.1.1,0,0,0-.1.1l-.3.5h-.1a.4.4,0,0,1-.1.3l-.2.5.8.3.6-.9Z"/>
          <path class="cls-4" d="M22.2,31.6c0-.1.1-.1.2-.2h.1c.1-.1.1-.3.2-.4l.4-.5h.1l.3-.3-1-.4h0l-.2.3c-.1,0-.1.1-.2.2l-.2.2-.3.3v.2l-.3.5-.2.4h-.1l.9.3a.1.1,0,0,0,.1-.1Z"/>
          <path class="cls-4" d="M42.7,39.7h-.1V39a.4.4,0,0,1-.1-.3h0c-.1-.2,0-.3-.1-.5a.6.6,0,0,0-.1-.4.4.4,0,0,0-.1-.3h0l-.9-.3h.1a.4.4,0,0,0,.1.3v.2c0,.1.1.2.1.3v.3l.2.5a.4.4,0,0,0,.1.3v.5c0,.1.1.2.1.4h0l.7.3v-.6Z"/>
          <path class="cls-4" d="M24.1,32h.2l.3-.4.3-.3.2-.2.3-.3-.9-.3a.2.2,0,0,1-.2.2c-.1.1-.1.3-.3.4l-.2.2-.3.4-.4.5v.2h-.2l.8.3a2.1,2.1,0,0,1,.4-.6C24,32.1,24.1,32.1,24.1,32Z"/>
          <path class="cls-4" d="M25.8,32.7h.1c.1-.1.1-.2.2-.2l.4-.4.4-.3.3-.2h0l-.8-.3h0l-.4.3-.3.3-.2.2c-.1.1-.1.2-.2.2l-.3.4v.2a.2.2,0,0,0-.2.2l-.2.2.7.3.4-.6C25.6,32.8,25.7,32.8,25.8,32.7Z"/>
          <path class="cls-4" d="M35.6,37.2l-.2-.2-.3-.3-.5-.2h-.2l-.4-.2h-.4c0-.1-.1-.1-.2-.1H31.3l1.1.5h1.2a.1.1,0,0,0,.1.1h.6l.5.3.2.2h.1l.8.3h-.1Z"/>
        </g>
        <g>
          <path class="cls-4" d="M43.2,37.7h0v.2a.6.6,0,0,1,.1.4,6.4,6.4,0,0,1,.2.7v.9h0a.3.3,0,0,1,.1.2v.2c0,.1-.1.1,0,.2h0l4.5,2.2,3.7-1.7h0c.1,0,0-.1,0-.1v-.2c0-.1,0-.1.1-.2h0v-.6a.8.8,0,0,1,.1-.4,1.3,1.3,0,0,1,.1-.6.6.6,0,0,1,.1-.4v-.2h0L47.9,40Z"/>
          <path class="cls-4" d="M66.1,35.5h-.4l-.3-.2h-.2a.1.1,0,0,0-.1-.1H61.4l-.5.2-.5.2-.6.3-.6.4a.1.1,0,0,0-.1.1l-.3.3-.3.3-.4.5a.1.1,0,0,1-.1.1c0,.1,0,.2-.1.2s-.1.2-.1.3-.1.1-.1.2h0c-.1.2-.2.3-.2.5s-.1.1-.1.2l.9-.3h0a.3.3,0,0,1,.1-.2h0l.3-.3a.5.5,0,0,1,.2-.4l.2-.4c.1,0,.1-.1.2-.2h.1l.6-.5h.8l.3-.2h4.2l.3.2h0l.7-.3h-.2Z"/>
          <path class="cls-4" d="M54.1,37.5l-.9.3h0a.8.8,0,0,0-.1.4.6.6,0,0,0-.1.4c0,.2,0,.3-.1.4h0v.3a1.3,1.3,0,0,0-.1.6h-.1v.6l.7-.3v-.2c0-.1.1-.2.1-.3a.9.9,0,0,1,.1-.5v-.3l.2-.5v-.3a.4.4,0,0,0,.1-.3c0-.1,0-.2.1-.2v-.3h.1Z"/>
          <path class="cls-4" d="M55.6,37.1l.2-.3h0l-1,.4h0a.4.4,0,0,0-.1.3c0,.1-.1.3-.1.4s-.1.2-.1.3a.9.9,0,0,0-.1.5h0a.4.4,0,0,0-.1.3,1.3,1.3,0,0,0-.1.6h0a.4.4,0,0,0-.1.3l.6-.2h0c0-.1.1-.2.1-.3v-.2c0-.1.1-.2.1-.3a4.3,4.3,0,0,0,.1-.5.6.6,0,0,0,.1-.4.8.8,0,0,0,.2-.4c0-.1.1-.2.1-.3s.1-.2.2-.4Z"/>
          <path class="cls-4" d="M69.5,34.4l-.3-.4-.3-.3-.2-.2a.3.3,0,0,1-.1-.2h-.2l-.5-.3h-.1l-.4-.2H67l-.9.3h.2a.1.1,0,0,0,.1.1h.5l.3.2h.2l.5.3.3.2.4.3c0,.1.1.1.2.2h.1l.6-.2Z"/>
          <path class="cls-4" d="M83.5,25.7l-6.9,3.2h-.2l.3.4.3.5a.3.3,0,0,1,.1.2h.1c.1.1.2.2.2.3s.1.3.2.4.1.2.2.3l6.6-3.1Z"/>
          <path class="cls-4" d="M58,36h0l-1,.3h0l-.2.3-.2.2-.2.4a.3.3,0,0,0-.1.2.3.3,0,0,1-.1.2v.4a.5.5,0,0,0-.2.4.3.3,0,0,0-.1.2v.2h0c-.1.1-.1.1-.1.2a.4.4,0,0,0-.1.3v.2l.6-.3h.1a.8.8,0,0,1,.2-.5l.3-.7a1.7,1.7,0,0,1,.2-.5c0-.1.1-.2.2-.4s.1,0,.1-.1a2.1,2.1,0,0,1,.4-.6Z"/>
          <path class="cls-4" d="M68,35l-.3-.3-.4-.3-.4-.2-.4-.2h-.2a.1.1,0,0,0-.1-.1h-.9l-.6-.2h0l-1.3.5h2.7c.2.1.4.1.5.3l.6.4h.1L68,35Z"/>
          <path class="cls-4" d="M76.4,31.7l-.3-.4A.4.4,0,0,0,76,31h0l-.3-.5a.1.1,0,0,0-.1-.1c0-.1-.1-.1-.1-.2l-.4-.5c0-.1-.1-.1-.1-.2h0l-1,.4.3.2.3.4h0l.3.6H75l.6.9h0l.8-.3Z"/>
          <path class="cls-4" d="M74.5,32.3a.5.5,0,0,1-.2-.4,1,1,0,0,1-.4-.5h-.1c0-.1-.1-.2-.2-.3s-.2-.2-.2-.3l-.2-.2-.2-.2h-.1l-.9.4h0l.3.2c0,.1.1.1.1.2l.3.5.3.3a.1.1,0,0,0,.1.1l.2.3.3.4h0l1-.4h-.1Z"/>
          <path class="cls-4" d="M72.7,33.2a.1.1,0,0,0-.1-.1c0-.1-.1-.1-.1-.2l-.2-.2-.4-.5-.3-.3-.2-.3-.3-.3a.2.2,0,0,0-.2-.2l-.8.3a.2.2,0,0,1,.2.2l.3.3.2.2.4.4c0,.1.1.1.1.2h.2l.4.7.8-.3Z"/>
          <path class="cls-4" d="M70.6,33.4l-.2-.2c-.1-.1-.2-.2-.2-.3l-.2-.2c-.1-.1-.2-.2-.2-.3l-.3-.2c-.1-.2-.3-.3-.4-.4H69l-.8.3h.1l.3.2.3.3.5.4a.3.3,0,0,1,.1.2h.2a.2.2,0,0,0,.2.2l.3.6.7-.3h-.1C70.7,33.6,70.6,33.5,70.6,33.4Z"/>
          <path class="cls-4" d="M63.6,36.4H61.4l-.4.2h-.2l-.5.3c-.1.1-.2.1-.2.2l-.3.2-.2.3c0,.1-.1.1-.1.2l.8-.3h0a.1.1,0,0,1,.1-.1c.1-.1.1-.2.2-.2l.5-.3h2l1-.4h-.5Z"/>
        </g>
        <g>
          <path class="cls-1" d="M14.4,45.8l.2-.5v-.2c.1-.2.1-.4.2-.6a2.9,2.9,0,0,0,.2-.9.4.4,0,0,0,.1-.3l.3-.6H13.8c-.1.1-.1.3-.2.4a.6.6,0,0,0-.1.4c-.1.2-.2.3-.2.5s-.1.4-.2.6V45c-.1.3-.1.6-.2.9s-.1.4-.2.6h1.5v-.2C14.3,46.3,14.3,46,14.4,45.8Z"/>
          <path class="cls-1" d="M43.3,45.8h-.1l-.2-.3-.2-.2-.4-.5-.2-.2-.3-.3a.2.2,0,0,1-.2-.2l-.3-.2c-.2-.2-.3-.4-.5-.5l-.4-.2-.4-.3H38.5l.7.4.8.7h.2l.5.4a3.4,3.4,0,0,1,.6.6l.8.8.6.6a.1.1,0,0,0,.1.1.3.3,0,0,0,.1.2h1c-.1-.1-.2-.4-.4-.5S43.4,45.9,43.3,45.8Z"/>
          <path class="cls-1" d="M40.2,46h0l-.3-.3-.4-.2-.2-.2-.2-.2-.8-.5-.6-.3-.6-.3H37l-1.2-.3H32.3l-.9.2-.8.2-.8.3h-.4l-.8.3h-.1l-.8.4h-.1a.1.1,0,0,1-.1.1c-.1.1-.2.1-.2.2s-.3.2-.4.4l-.3.3c0,.1-.1.1-.1.2l-.2.2h1.2l.3-.3.7-.5.5-.2.6-.3.3-.2.7-.3h.7l.6-.2h3.9l1.1.3h.2l.4.3.6.4.5.4.5.3h.2c0,.2.1.3.2.3h1.4l-.2-.2C40.6,46.3,40.3,46.2,40.2,46Z"/>
          <path class="cls-1" d="M36.7,46.2h-.4l-.5-.2h-4l-.5.2-.7.2-.7.3h4.7l.9.2h1.7Z"/>
          <path class="cls-1" d="M25.3,45.7A4.6,4.6,0,0,1,26,45a.1.1,0,0,1,.1-.1l.3-.3.4-.3h0l.4-.3a.9.9,0,0,1,.6-.4l.7-.4.8-.3.2-.2H27.4l-.8.6-.4.3a.5.5,0,0,0-.4.2l-.4.4h-.1c-.1.1-.1.3-.2.4s-.3.3-.4.4l-.5.6a2.1,2.1,0,0,0-.4.6l-.3.5h1.3A4.1,4.1,0,0,0,25.3,45.7Z"/>
          <path class="cls-1" d="M48.3,46c0-.1-.1-.1-.1-.2a3,3,0,0,1-.4-.8l-.3-.4h-.1l-.3-.6-.4-.6-.3-.5a.1.1,0,0,0-.1-.1H44.9v.2h0l.3.3.2.3.2.4.3.4.4.6.4.4.3.7.3.4v.2h1.3l-.2-.3A.8.8,0,0,0,48.3,46Z"/>
          <path class="cls-1" d="M46,46.1l-.4-.7-.3-.4c-.1,0-.1-.1-.1-.2s-.3-.4-.4-.6-.3-.3-.4-.4l-.3-.5-.3-.4v-.2H42.1l.3.4.2.2.5.4.2.3.5.5.4.6.5.6c.1.2.2.3.2.4l.2.2c.1.2.2.3.2.4h1a.8.8,0,0,0-.2-.4C46,46.2,46,46.2,46,46.1Z"/>
          <path class="cls-1" d="M22.3,46.1l.4-.6.3-.4.5-.7.3-.3.3-.4.3-.3.3-.3.2-.2.2-.2H23.5a.8.8,0,0,1-.4.4l-.4.5h-.2c-.2.3-.4.4-.5.7l-.2.3-.2.3c0,.2-.1.3-.1.4l-.3.6c0,.2-.1.4-.1.6H22a.3.3,0,0,1,.1-.2C22.2,46.4,22.2,46.2,22.3,46.1Z"/>
          <path class="cls-1" d="M17.4,45.3l.2-.3.3-.7a.8.8,0,0,1,.2-.5c.1-.2.1-.4.2-.6l.2-.5H17.2c-.1.2-.2.3-.2.5s-.2.4-.3.7a.6.6,0,0,0-.1.4,2.5,2.5,0,0,0-.2.7,3.6,3.6,0,0,0-.4.9.8.8,0,0,1-.1.4c0,.1-.1.2-.1.3h1.3c.1-.3.1-.7.2-1.1A.4.4,0,0,0,17.4,45.3Z"/>
          <path class="cls-1" d="M20.2,45.3a.4.4,0,0,0,.1-.3l.2-.3.3-.8.4-.6.3-.4c0-.1.1-.1.1-.2H20.2a4.3,4.3,0,0,1-.4.7c-.1.2-.2.3-.2.5a1.7,1.7,0,0,0-.2.5c-.1.2-.1.3-.2.4a1.4,1.4,0,0,1-.2.6c0,.2,0,.3-.1.4s-.1.3-.1.5a.4.4,0,0,0-.1.3h1.1a3,3,0,0,0,.2-1C20.1,45.6,20.1,45.4,20.2,45.3Z"/>
          <path class="cls-1" d="M11.4,44.9c.1-.3.1-.7.2-1h0a1.9,1.9,0,0,0,.2-.7.8.8,0,0,0,.2-.5H10.5c0,.1-.1.2-.1.3l-.3,1v.3a.3.3,0,0,0-.1.2,2.9,2.9,0,0,0-.2.9h0v.4a2.5,2.5,0,0,0-.1.8H11a12.4,12.4,0,0,1,.4-1.6Z"/>
          <path class="cls-1" d="M46,46.1l-.4-.7-.3-.4c-.1,0-.1-.1-.1-.2s-.3-.4-.4-.6-.3-.3-.4-.4l-.3-.5-.3-.4a.1.1,0,0,0-.1-.1H42.1l.3.3.2.2.5.4.2.3.5.5.4.6.5.6c.1.2.2.3.2.4l.2.2c.1.2.2.3.2.4h1c-.1-.1-.1-.3-.2-.4S46,46.2,46,46.1Z"/>
          <path class="cls-1" d="M22.3,46.1l.4-.6.3-.4.5-.7.3-.3.3-.4.3-.3.3-.3.2-.2H23.5a.8.8,0,0,1-.4.4l-.4.5h-.2c-.2.3-.4.4-.5.7l-.2.3-.2.3c0,.2-.1.3-.1.4l-.3.6c0,.2-.1.4-.1.6H22a.3.3,0,0,1,.1-.2C22.2,46.4,22.2,46.2,22.3,46.1Z"/>
          <path class="cls-1" d="M7.8,42.8H0v3.9H7.4c0-.2.1-.4.1-.6v-.5a.7.7,0,0,1,.2-.6v-.3c.1-.1.1-.2.1-.4s.1-.5.2-.8.1-.5.1-.7Z"/>
          <path class="cls-1" d="M43.3,45.8h-.1l-.2-.3-.2-.2-.4-.5-.2-.2-.3-.3a.2.2,0,0,1-.2-.2l-.3-.2c-.2-.2-.3-.4-.5-.5l-.4-.2-.4-.3H38.5l.7.4.8.7h.2l.5.4a3.4,3.4,0,0,1,.6.6l.8.8.6.6a.1.1,0,0,0,.1.1.3.3,0,0,0,.1.2h1a1,1,0,0,0-.4-.5C43.4,46.1,43.4,45.9,43.3,45.8Z"/>
          <path class="cls-1" d="M25.3,45.7A4.6,4.6,0,0,1,26,45a.1.1,0,0,1,.1-.1l.3-.3.4-.3h0l.4-.3a.9.9,0,0,1,.6-.4l.7-.4.8-.3H27.4l-.8.5-.4.3a.5.5,0,0,0-.4.2l-.4.4h-.1c-.1.1-.1.3-.2.4s-.3.3-.4.4l-.5.6a2.1,2.1,0,0,0-.4.6l-.3.5h1.3A4.1,4.1,0,0,0,25.3,45.7Z"/>
          <path class="cls-1" d="M40.2,46h0l-.3-.3-.4-.2-.2-.2-.2-.2-.8-.5-.6-.3-.6-.3H37l-1.2-.3H32.3l-.9.2-.8.2-.8.3h-.4l-.8.3h-.1l-.8.4h-.1a.1.1,0,0,1-.1.1c-.1.1-.2.1-.2.2s-.3.2-.4.4l-.3.3c0,.1-.1.1-.1.2s-.2.1-.2.2h1.2l.3-.3.7-.5.5-.2.6-.3.3-.2.7-.3h.7l.6-.2h3.9l1.1.3h.2l.4.3.6.4.5.4.5.3h.2c0,.1.1.2.2.3h1.4l-.2-.2C40.6,46.3,40.3,46.2,40.2,46Z"/>
          <path class="cls-1" d="M11.4,44.9c.1-.3.1-.7.2-1h0a1.9,1.9,0,0,0,.2-.7.8.8,0,0,0,.2-.4H10.5a.3.3,0,0,0-.1.2l-.3,1v.3a.3.3,0,0,0-.1.2,2.9,2.9,0,0,0-.2.9h0v.4a2.2,2.2,0,0,0-.1.8H11a9.4,9.4,0,0,1,.4-1.6Z"/>
          <path class="cls-1" d="M14.4,45.8l.2-.5v-.2c.1-.2.1-.4.2-.6a2.9,2.9,0,0,0,.2-.9.4.4,0,0,0,.1-.3l.3-.5H13.8c-.1.1-.1.3-.2.4a.6.6,0,0,0-.1.4c-.1.2-.2.3-.2.5s-.1.4-.2.6V45c-.1.3-.1.6-.2.9s-.1.4-.2.6h1.5v-.2C14.3,46.3,14.3,46,14.4,45.8Z"/>
          <path class="cls-1" d="M48.3,46c0-.1-.1-.1-.1-.2a3,3,0,0,1-.4-.8l-.3-.4h-.1l-.3-.6-.4-.6-.3-.5a.1.1,0,0,0-.1-.1H45l.3.3.2.3.2.4.3.4.4.6.4.4.3.7.3.4v.2h1.2a.4.4,0,0,0-.1-.3A.8.8,0,0,0,48.3,46Z"/>
          <path class="cls-1" d="M17.4,45.3l.2-.3.3-.7a.8.8,0,0,1,.2-.5c.1-.2.1-.4.2-.6s.1-.3.2-.4H17.1c0,.1-.1.2-.1.4s-.2.4-.3.7a.6.6,0,0,0-.1.4,2.5,2.5,0,0,0-.2.7,3.6,3.6,0,0,0-.4.9.8.8,0,0,1-.1.4c0,.1-.1.2-.1.3h1.3c.1-.4.1-.7.2-1.1A.4.4,0,0,0,17.4,45.3Z"/>
          <path class="cls-1" d="M20.2,45.3a.4.4,0,0,0,.1-.3l.2-.3.3-.8.4-.6.3-.4a.1.1,0,0,1,.1-.1H20.2a4.3,4.3,0,0,1-.4.7c-.1.2-.2.3-.2.5a1.7,1.7,0,0,0-.2.5c-.1.2-.1.3-.2.4a1.4,1.4,0,0,1-.2.6c0,.2,0,.3-.1.4s-.1.3-.1.5a.4.4,0,0,0-.1.3h1.1a3,3,0,0,0,.2-1C20.1,45.6,20.1,45.4,20.2,45.3Z"/>
          <path class="cls-1" d="M36.7,46.2h-.4l-.5-.2h-4l-.5.2-.7.2-.7.3h4.7l.9.2H36c0,.1.1.1.2.1h1Z"/>
          <path class="cls-1" d="M95.2,42.8H47.9c.1,0,.1.1.2.2l.4.6a2.2,2.2,0,0,1,.5.8l.3.5.3.8c.1.1.1.1.1.2l.2.3a.4.4,0,0,0,.1.3v.2H95.2Z"/>
        </g>
      </g>
    </g>
  </g>
</svg>
