<svg xmlns="http://www.w3.org/2000/svg" width="102.3" height="54.1" viewBox="0 0 102.3 54.1">
  <defs>
    <style>
      .cls-1 {
        fill: #cb7566;
      }

      .cls-2 {
        fill: #d69382;
      }

      .cls-3 {
        fill: #e8c4b9;
      }

      .cls-4 {
        fill: #fff;
      }
    </style>
  </defs>
  <title>customizable</title>
  <g id="Layer_2" data-name="Layer 2">
    <g id="Layer_1-2" data-name="Layer 1">
      <g>
        <g>
          <path class="cls-1" d="M64,18.3H61.1l.6-1.3h3.6l-.5,1.2H64Z"/>
          <path class="cls-1" d="M54.5,41.9h-.1a.3.3,0,0,1-.1-.2l-.2-.3a.8.8,0,0,1-.2-.5c-.1-.1-.1-.1-.1-.2a.4.4,0,0,1-.1-.3l-.2-.3a.4.4,0,0,0-.1-.3c-.1-.2-.1-.4-.2-.6v-.3a.9.9,0,0,1-.1-.5H53l.6-1.4h0c0,.2.1.5.1.7l.3.9v.2a1.4,1.4,0,0,0,.2.6l.3.7.4.8.3.7v.2l.2.2-.4.8-.3-.6C54.7,42.1,54.6,42,54.5,41.9Z"/>
          <path class="cls-1" d="M55.6,39.5h0c0-.1-.1-.2-.1-.3a.6.6,0,0,1-.1-.4.4.4,0,0,1-.1-.3v-.2a2.2,2.2,0,0,1-.1-.8,4.3,4.3,0,0,0-.1-.5v-.7h0a3.6,3.6,0,0,1,.2-1,1.9,1.9,0,0,1,.2-.8l.3-.8.3-.6.3-.7.4-.6.5-.6.5-.6.2-.3.5-.5h.1l.6-.5h.1a.1.1,0,0,1,.1-.1h.3a.5.5,0,0,1,.4-.2c.1,0,.2-.2.4-.1h.4l-.3,1h-.4l-.6.5-.4.3-.5.4-.2.2-.5.5a.3.3,0,0,0-.1.2.1.1,0,0,0-.1.1.3.3,0,0,0-.1.2l-.4.4-.2.4a.3.3,0,0,1-.1.2c-.2.1-.2.4-.3.5l-.2.5c0,.2-.1.3-.2.5s-.1.2-.1.4-.1.1-.1.2a.9.9,0,0,0-.1.5,3.1,3.1,0,0,0-.1,1v.2c0,.1.1.2.1.4s.1.4.1.6l.2.5a.7.7,0,0,0,.1.5v.2a.5.5,0,0,1,.2.4L56,40.3c0-.1,0-.2-.1-.2S55.8,39.6,55.6,39.5Z"/>
          <path class="cls-1" d="M57,36.7v-.9a1.9,1.9,0,0,0,.2-.7.4.4,0,0,1,.1-.3,1.4,1.4,0,0,1,.2-.6.5.5,0,0,1,.2-.4l.2-.3.3-.6.3-.3c0-.1.1-.2.2-.3l.5-.6.4-.4h.1l-.6,1.4h0l-.4.5v.2c-.1.1-.2.2-.2.3l-.3.4a.1.1,0,0,1-.1.1.8.8,0,0,1-.1.4h0a.4.4,0,0,0-.1.3,2.4,2.4,0,0,0-.2.8v.7l-.4,1a.4.4,0,0,1-.1-.3C57.1,37,57,36.9,57,36.7Z"/>
          <path class="cls-1" d="M60.3,27.2l-.8.3h-.1l-.4.2-.3.2h-.4a1,1,0,0,0-.5.4l-.6.5-.5.5-.2.2.7-1.7a2,2,0,0,1,.7-.6l.4-.2.3-.2.4-.2h.9l.7-.3h1.1l-.3.9h-.2Z"/>
          <path class="cls-1" d="M53,46.1c-.1,0-.1-.1-.1-.2l-.5-.6c-.1-.1-.2-.2-.2-.3a.1.1,0,0,1-.1-.1l-.4-.4-.3-.5-.3-.4a.1.1,0,0,0-.1-.1h0l.5-1.2v.2h.1l.2.3c0,.1.1.2.1.3l.3.3.2.4.4.5.2.5a1,1,0,0,1,.4.5l.3.3h.2l-.4,1a.2.2,0,0,1-.2-.2Z"/>
          <path class="cls-1" d="M53.9,44.2l-.5-.5c-.1-.1-.1-.3-.2-.4l-.2-.2-.3-.5-.3-.4c-.1-.1-.1-.3-.2-.4l-.3-.4v-.2l.5-1.3c0,.2.1.3.2.5h0a1.4,1.4,0,0,1,.2.6c.1.1.2.2.2.3l.3.5.3.5.4.7c0,.1.1.2.2.3a.3.3,0,0,1,.1.2l.3.3h0l-.4.8-.2-.3Z"/>
          <path class="cls-1" d="M61.6,24.9h-1l-.8.2h-.7l-.3.2h-.7a.1.1,0,0,1-.1.1l.4-1.2h.2a.5.5,0,0,1,.4-.2l.5-.2h.2l.7-.3h1c.2-.1.4,0,.5,0h.7l-.4.7h-.6Z"/>
          <path class="cls-1" d="M62.5,20.6H60.1l.5-1.1H61c.2,0,.4.1.6,0h2.7l-.4,1.1-1.1-.2Z"/>
          <path class="cls-1" d="M61.7,22.9H59.1l.4-1.1h3.8L63,23H61.7Z"/>
          <path class="cls-1" d="M64.2,15.5h-2l.6-1.2h1.6l.8.2h.4l.7.2-.5,1.2-1.4-.3Z"/>
          <path class="cls-1" d="M53.9,44.2l-.5-.5c-.1-.1-.1-.3-.2-.4l-.2-.2-.3-.5-.3-.4c-.1-.1-.1-.3-.2-.4l-.3-.4h0l.5-1.4c0,.2.1.3.2.5h0a1.4,1.4,0,0,1,.2.6c.1.1.2.2.2.3l.3.5.3.5.4.7c0,.1.1.2.2.3a.3.3,0,0,1,.1.2l.3.3-.4.8c-.1-.1-.2-.2-.2-.3Z"/>
          <path class="cls-1" d="M61.6,24.9h-1l-.8.2h-.7l-.3.2h-.7a.1.1,0,0,1-.1.1l.4-1.2h.2a.5.5,0,0,1,.4-.2l.5-.2h.2l.7-.3h1c.2-.1.4,0,.5,0h.6l-.3.8h-.6Z"/>
          <path class="cls-1" d="M63.6,11.9h0L68.2.6l3.2,1.3L67,12.8H66a.4.4,0,0,0-.5-.1H64.2l-.7-.2Z"/>
          <path class="cls-1" d="M54.5,41.9h-.1a.3.3,0,0,1-.1-.2l-.2-.3a.8.8,0,0,1-.2-.5c-.1-.1-.1-.1-.1-.2a.4.4,0,0,1-.1-.3l-.2-.3a.4.4,0,0,0-.1-.3c-.1-.2-.1-.4-.2-.6v-.3a.9.9,0,0,1-.1-.5H53l.6-1.4h0c0,.2.1.5.1.7l.3.9v.2a1.4,1.4,0,0,0,.2.6l.3.7.4.8.3.7v.2h.2l-.4.8-.3-.5C54.7,42.1,54.6,42,54.5,41.9Z"/>
          <path class="cls-1" d="M60.3,27.2l-.8.3h-.1l-.4.2-.3.2h-.4a1,1,0,0,0-.5.4l-.6.5-.5.5-.2.2.7-1.7c.2-.3.5-.4.7-.6l.4-.2.3-.2.4-.2h.9l.7-.3h1.1l-.4.9h-.1Z"/>
          <path class="cls-1" d="M55.6,39.5h0c0-.1-.1-.2-.1-.3a.6.6,0,0,1-.1-.4.4.4,0,0,1-.1-.3v-.2a2.2,2.2,0,0,1-.1-.8,4.3,4.3,0,0,0-.1-.5v-.7h0a3.6,3.6,0,0,1,.2-1,1.9,1.9,0,0,1,.2-.8l.3-.8.3-.6.3-.7.4-.6.5-.6.5-.6.2-.3.5-.5h.1l.6-.5h.1a.1.1,0,0,1,.1-.1h.3a.5.5,0,0,1,.4-.2c.1,0,.2-.2.4-.1h.4l-.4,1h-.3l-.6.5-.4.3-.5.4-.2.2-.5.5a.3.3,0,0,0-.1.2.1.1,0,0,0-.1.1.3.3,0,0,0-.1.2l-.4.4-.2.4a.3.3,0,0,1-.1.2c-.2.1-.2.4-.3.5l-.2.5c0,.2-.1.3-.2.5s-.1.2-.1.4-.1.1-.1.2a.9.9,0,0,0-.1.5,3.1,3.1,0,0,0-.1,1v.2c0,.1.1.2.1.4s.1.4.1.6l.2.5a.7.7,0,0,0,.1.5v.2l.2.3L56,40.3c0-.1,0-.2-.1-.2S55.8,39.6,55.6,39.5Z"/>
          <path class="cls-1" d="M64.2,15.5H62.3l.5-1.2h1.6l.8.2h.4l.7.2-.5,1.1-1.4-.2Z"/>
          <path class="cls-1" d="M64,18.3H61.1l.6-1.3h3.6l-.5,1.2H64Z"/>
          <path class="cls-1" d="M53,46.1c-.1,0-.1-.1-.1-.2l-.5-.6c-.1-.1-.2-.2-.2-.3a.1.1,0,0,1-.1-.1l-.4-.4-.3-.5-.3-.4a.1.1,0,0,0-.1-.1h0l.5-1.2v.2h.1l.2.3c0,.1.1.2.1.3l.3.3.2.4.4.5.2.5a1,1,0,0,1,.4.5l.3.3h.2l-.4,1a.2.2,0,0,1-.2-.2Z"/>
          <path class="cls-1" d="M62.5,20.6H60.1l.5-1.1H61c.2,0,.4.1.6,0h2.7l-.5,1.1-1-.2Z"/>
          <path class="cls-1" d="M61.7,22.9H59.1l.5-1.1h3.7l-.4.9H61.7Z"/>
          <path class="cls-1" d="M57,36.7v-.9a1.9,1.9,0,0,0,.2-.7.4.4,0,0,1,.1-.3,1.4,1.4,0,0,1,.2-.6.5.5,0,0,1,.2-.4l.2-.3.3-.6.3-.3c0-.1.1-.2.2-.3l.5-.6.4-.4h0l-.5,1.4-.4.5v.2c-.1.1-.2.2-.2.3l-.3.4a.1.1,0,0,1-.1.1.8.8,0,0,1-.1.4h0a.4.4,0,0,0-.1.3,2.4,2.4,0,0,0-.2.8v.6l-.4,1.1a.4.4,0,0,1-.1-.3C57.1,37,57,36.9,57,36.7Z"/>
          <path class="cls-1" d="M48.3,51.9l2.2-7.2h0c0,.1.1.2.1.3l.3.5.6.7.3.4c.2.2.4.3.5.5h.1c.1.1.2.2.2.3H53l-1.5,5.4Z"/>
        </g>
        <g>
          <path class="cls-1" d="M39.5,17.8h2.9l-.5-1.3H38.2l.5,1.2h.8Z"/>
          <path class="cls-1" d="M48.3,41.7h.1c0-.1.1-.1.2-.2s.1-.2.1-.3l.3-.5c0-.1.1-.1.1-.2s.1-.2.1-.3l.2-.3a.4.4,0,0,1,.1-.3c.1-.2.1-.4.2-.6v-.3c.1-.2.1-.3.2-.4h0l-.5-1.4h0c-.1.2-.1.5-.2.7l-.3.9v.2a1.4,1.4,0,0,1-.2.6l-.3.7a2,2,0,0,0-.4.8,2.5,2.5,0,0,1-.4.7h0c-.1.1-.1.1-.1.2l.3.8.3-.5Z"/>
          <path class="cls-1" d="M47.3,39.2h0c0-.2.1-.3.1-.4a.4.4,0,0,0,.1-.3.4.4,0,0,0,.1-.3.3.3,0,0,0,.1-.2c.1-.3.1-.6.2-.8v-.6A1.3,1.3,0,0,0,48,36h0c-.1-.4-.1-.7-.2-1.1s-.1-.5-.1-.8l-.3-.8-.3-.6-.3-.6a4.3,4.3,0,0,0-.4-.7l-.5-.6-.4-.6-.2-.3-.6-.6h-.1l-.5-.6h-.2l-.3-.2-.4-.2h-.8l.3,1h0a.5.5,0,0,1,.4.2l.6.4.4.3.4.4c.1.1.2.2.2.3l.5.5a.1.1,0,0,1,.1.1h.1c0,.1.1.2.1.3l.3.4.3.4c0,.1,0,.2.1.2a1.4,1.4,0,0,1,.2.6.8.8,0,0,1,.2.4l.2.5a.8.8,0,0,0,.2.4v.3a.6.6,0,0,1,.1.4c0,.3.1.7.1,1v.2a.8.8,0,0,0-.1.4,6.4,6.4,0,0,0-.2.7c0,.1-.1.3-.1.4s-.1.4-.2.6v.2l-.2.3.4,1.2.2-.3C47.1,39.6,47.1,39.4,47.3,39.2Z"/>
          <path class="cls-1" d="M46,36.4V36a1.1,1.1,0,0,0-.1-.5,1.7,1.7,0,0,0-.1-.7.4.4,0,0,0-.1-.3c0-.2-.1-.4-.1-.6s-.2-.3-.2-.5-.1-.1-.2-.2l-.3-.6-.3-.3a.5.5,0,0,0-.2-.4l-.5-.5-.4-.5h0l.5,1.4h0l.3.5a.1.1,0,0,1,.1.1l.3.4.2.3c0,.1.1.1.1.2s.1.2.1.3v.2l.2.3c0,.3.1.5.1.8v.7l.4,1a.4.4,0,0,1,.1-.3A.9.9,0,0,1,46,36.4Z"/>
          <path class="cls-1" d="M42.9,26.8l.8.3h.1l.4.2.3.2h.1l.3.2a1,1,0,0,1,.5.4l.6.5c.2.2.3.4.5.5l.2.2L46,27.7a2,2,0,0,0-.7-.6.5.5,0,0,0-.4-.2l-.2-.2-.5-.3h-.4l-.5-.2-.7-.2-.5-.2h-.6l.4,1H42Z"/>
          <path class="cls-1" d="M49.7,45.9a.1.1,0,0,0,.1-.1l.6-.6a.8.8,0,0,1,.2-.4h0a.8.8,0,0,0,.4-.4,1,1,0,0,0,.4-.5l.3-.4h.1l-.4-1.1h-.2l-.2.3a.2.2,0,0,1-.2.2.5.5,0,0,1-.2.4c-.1.1-.2.2-.2.3L50,44l-.3.5-.4.5-.3.3h-.2l.4,1,.2-.2Z"/>
          <path class="cls-1" d="M48.9,44c.2-.1.3-.3.5-.5a.8.8,0,0,1,.2-.4l.2-.2.3-.5.3-.4c.1-.1.1-.3.2-.4l.3-.4H51l-.5-1.3c-.1.1-.1.3-.2.4v.2a1.7,1.7,0,0,1-.2.5c0,.1-.1.2-.2.3l-.3.6-.3.4a4.3,4.3,0,0,0-.4.7l-.2.3a.3.3,0,0,0-.1.2l-.3.3h0l.3.8.3-.4A.1.1,0,0,0,48.9,44Z"/>
          <path class="cls-1" d="M41.7,24.5h1l.8.2h.3l.4.2h.3l.4.2h.4l-.4-1.2h-.1l-.5-.3-.5-.2h-.2l-.7-.2H40.8l.3.8h.6Z"/>
          <path class="cls-1" d="M40.9,20.2h2.4l-.4-1H39.2l.4,1.1h1.3Z"/>
          <path class="cls-1" d="M41.7,22.5h1.4c.2,0,.4-.1.6.1h.5l-.4-1.1H40l.4,1,.9-.2Z"/>
          <path class="cls-1" d="M39.3,15.1l.9-.2h1.1l-.4-1.3H39.2l-.8.2H38l-.7.2.4,1.1,1.5-.2Z"/>
          <path class="cls-1" d="M48.9,44c.2-.1.3-.3.5-.5a.8.8,0,0,1,.2-.4l.2-.2.3-.5.3-.4c.1-.1.1-.3.2-.4l.3-.4H51l-.5-1.3c-.1.1-.1.3-.2.4v.2a1.7,1.7,0,0,1-.2.5c0,.1-.1.2-.2.3l-.3.6-.3.4a4.3,4.3,0,0,0-.4.7l-.2.3a.3.3,0,0,0-.1.2l-.3.3.3.8.3-.4A.1.1,0,0,0,48.9,44Z"/>
          <path class="cls-1" d="M41.7,24.5h1l.8.2h.3l.4.2h.3l.4.2h.4l-.4-1.2h-.1l-.5-.3-.5-.2h-.2l-.7-.2H40.8l.3.8h.6Z"/>
          <path class="cls-1" d="M40,11.4h0L35.8,0,32.5,1.2l4.1,11.1h.5l.5-.2h2.5Z"/>
          <path class="cls-1" d="M48.3,41.7h.1c0-.1.1-.1.2-.2s.1-.2.1-.3l.3-.5c0-.1.1-.1.1-.2s.1-.2.1-.3l.2-.3a.4.4,0,0,1,.1-.3c.1-.2.1-.4.2-.6v-.3c.1-.2.1-.3.2-.4h0l-.5-1.4h0c-.1.2-.1.5-.2.7l-.3.9v.2a1.4,1.4,0,0,1-.2.6l-.3.7a2,2,0,0,0-.4.8,2.5,2.5,0,0,1-.4.7h0c-.1.1-.1.1-.1.2l.3.8.3-.5Z"/>
          <path class="cls-1" d="M42.9,26.8l.8.3h.1l.4.2.3.2h.1l.3.2a1,1,0,0,1,.5.4l.6.5c.2.2.3.4.5.5l.2.2L46,27.7a2,2,0,0,0-.7-.6.5.5,0,0,0-.4-.2l-.2-.2-.5-.3h-.4l-.5-.2-.7-.2-.5-.2h-.6l.4,1H42Z"/>
          <path class="cls-1" d="M47.3,39.2h0c0-.2.1-.3.1-.4a.4.4,0,0,0,.1-.3.4.4,0,0,0,.1-.3.3.3,0,0,0,.1-.2c.1-.3.1-.6.2-.8v-.6A1.3,1.3,0,0,0,48,36h0c-.1-.4-.1-.7-.2-1.1s-.1-.5-.1-.8l-.3-.8-.3-.6-.3-.6a4.3,4.3,0,0,0-.4-.7l-.5-.6-.4-.6-.2-.3-.6-.6h-.1l-.5-.6h-.2l-.3-.2-.4-.2h-.8l.3,1a.5.5,0,0,1,.4.2l.6.4.4.3.4.4c.1.1.2.2.2.3l.5.5a.1.1,0,0,1,.1.1h.1c0,.1.1.2.1.3l.3.4.3.4c0,.1,0,.2.1.2a1.4,1.4,0,0,1,.2.6.8.8,0,0,1,.2.4l.2.5a.8.8,0,0,0,.2.4v.3a.6.6,0,0,1,.1.4c0,.3.1.7.1,1v.2a.8.8,0,0,0-.1.4,6.4,6.4,0,0,0-.2.7c0,.1-.1.3-.1.4s-.1.4-.2.6v.2l-.2.3.5,1.1a.3.3,0,0,1,.1-.2C47.1,39.6,47.1,39.4,47.3,39.2Z"/>
          <path class="cls-1" d="M39.3,15.1l.9-.2h1.1l-.4-1.3H39.2l-.8.2H38l-.7.2.4,1.1,1.5-.2Z"/>
          <path class="cls-1" d="M39.5,17.8h2.9l-.5-1.3H38.2l.5,1.2h.8Z"/>
          <path class="cls-1" d="M49.7,45.9a.1.1,0,0,0,.1-.1l.6-.6a.8.8,0,0,1,.2-.4h0a.8.8,0,0,0,.4-.4,1,1,0,0,0,.4-.5l.3-.4h.1l-.5-1.1h-.1l-.2.3a.2.2,0,0,1-.2.2.5.5,0,0,1-.2.4c-.1.1-.2.2-.2.3L50,44l-.3.5-.4.5-.3.3h-.2l.4,1,.2-.2Z"/>
          <path class="cls-1" d="M40.9,20.2h2.4l-.4-1H39.2l.4,1.1h1.3Z"/>
          <path class="cls-1" d="M41.7,22.5h1.4c.2,0,.4-.1.6.1h.5l-.4-1.1H40.1l.3,1,.9-.2Z"/>
          <path class="cls-1" d="M46,36.4V36a1.1,1.1,0,0,0-.1-.5,1.7,1.7,0,0,0-.1-.7.4.4,0,0,0-.1-.3c0-.2-.1-.4-.1-.6s-.2-.3-.2-.5-.1-.1-.2-.2l-.3-.6-.3-.3a.5.5,0,0,0-.2-.4l-.5-.5-.4-.5h0l.5,1.5.3.5a.1.1,0,0,1,.1.1l.3.4.2.3c0,.1.1.1.1.2s.1.2.1.3v.2l.2.3c0,.3.1.5.1.8v.6l.4,1.1a.4.4,0,0,1,.1-.3A.9.9,0,0,1,46,36.4Z"/>
          <path class="cls-1" d="M54.3,51.8l-2-7.2h0c-.1.1-.1.2-.2.2l-.3.5-.6.7-.3.4-.6.6h-.1c0,.1-.1.1-.2.2h-.2c0,.1-.1.1-.1.2h-.1L51,53Z"/>
        </g>
        <g>
          <path class="cls-2" d="M25.4,26.1l.4-.2H26l.5-.3.7-.4h.2l.5-.2-1-1h0l-.4.2h-.3l-.5.3-.4.2c-.1.1-.2.1-.2.2l-.7.4-.5.3a.1.1,0,0,1-.1.1h-.1l1,.9h.2Z"/>
          <path class="cls-2" d="M43.8,43.8h0v-.3a.4.4,0,0,0,.1-.3V41.6c0-.1-.1-.2-.1-.3s0-.4,0-.6-.1-.2-.1-.4a.6.6,0,0,0-.1-.4h0l-1.1-1a.1.1,0,0,0,.1.1c0,.2.1.5.1.7s.1.6.2.9v.2a1.3,1.3,0,0,1,.1.6v2.5h0v.2l.6.7a1.7,1.7,0,0,0,.1-.7C43.7,44,43.8,43.9,43.8,43.8Z"/>
          <path class="cls-2" d="M41.7,42h0v-.7a.4.4,0,0,1-.1-.3v-.3c-.1-.2-.1-.5-.2-.7s-.1-.4-.2-.5-.1-.4-.2-.6h-.1l-.6-.9-.5-.7-.6-.5c-.1-.2-.3-.3-.5-.5l-.5-.4-.7-.5-.7-.3-.6-.3-.4-.2-.7-.3H35l-.8-.2h-.9c-.1,0-.3-.1-.4,0h-.5l.7.7h1.7l.5.2h.4l.6.3h.3c0,.1.1.1.2.2l.5.2.4.3h.1l.5.4c.1.1.3.2.4.4l.3.3.4.3c0,.1.1.1.1.2l.3.3.5.9v.2c0,.2,0,.3.1.4s.1.5.1.7a4.3,4.3,0,0,1,.1.5,4.3,4.3,0,0,1,.1.5v.6l.9.8V42Z"/>
          <path class="cls-2" d="M39.4,40l-.2-.3-.3-.4a4.3,4.3,0,0,0-.4-.7h-.2l-.4-.5c-.1-.2-.3-.3-.4-.4h-.2l-.6-.4a.5.5,0,0,0-.4-.2l-.3-.2-.7-.3-.6-.2h0l1.1,1h0a.9.9,0,0,1,.5.3h.2l.4.2.3.3h.2l.2.3h.1l.3.3a4.3,4.3,0,0,1,.4.7l.2.3a.4.4,0,0,1,.1.3l.8.7v-.3A.7.7,0,0,1,39.4,40Z"/>
          <path class="cls-2" d="M32.4,32.8h2.9l.7.2.7.2h.2l-1.3-1.3-.9-.2H31.2l-.6.2.8.7h.1Z"/>
          <path class="cls-2" d="M46.9,46.9h0a3.1,3.1,0,0,0,.2-.8.6.6,0,0,0,.1-.4h0a1.4,1.4,0,0,1,.2-.6c0-.2.1-.3.1-.6v-.6h0l-.9-.8h0c0,.1,0,.1-.1.1v.4a.4.4,0,0,1-.1.3v.4a.6.6,0,0,0-.1.4c0,.2-.1.4-.1.6a1.3,1.3,0,0,1-.1.6c0,.2-.1.4-.1.6s-.1.3-.2.4v.2l.7.7c.1,0,.1-.1.1-.2Z"/>
          <path class="cls-2" d="M45.3,45.6c.1-.2.1-.5.2-.7v-.4c0-.1.1-.2.1-.3s.1-.4.1-.6,0-.3.1-.4v-.5c0-.2.1-.3.1-.5h0l-1-1v.5h0v1.6a4.3,4.3,0,0,1-.1.5c0,.3-.1.5-.1.8V45c-.1,0-.1.1-.1.2a.6.6,0,0,1-.1.4h0l.7.6a.6.6,0,0,1,.1-.4Z"/>
          <path class="cls-2" d="M30.3,31.1h3.8l-1-.9h-3l-.5.3-.5.3.6.6h.2Z"/>
          <path class="cls-2" d="M27.7,27.7l.2-.2.7-.3H29l.5-.3h.4l-.9-.8h-.3c-.3,0-.4.2-.6.3a.5.5,0,0,0-.4.2l-.6.3-.7.4h-.3l-.3.2h-.1l.8.8.9-.6Z"/>
          <path class="cls-2" d="M29.4,29.4l.3-.2H30l.7-.3c.2,0,.3-.2.6-.1h.6l-.9-.9c0,.1,0,.1-.1.1l-.7.2h-.4l-.4.3H29l-.5.3-.3.2-.4.2h-.2l.7.7.7-.5Z"/>
          <path class="cls-2" d="M24,23.7l.8-.5h0l.6-.3.4-.2-1-.9h-.2l-.8.5h-.4a1.8,1.8,0,0,0-.7.5h0l-.3.2-.6.5.9.9,1.2-.9A.1.1,0,0,0,24,23.7Z"/>
          <path class="cls-2" d="M45.3,45.6c.1-.2.1-.5.2-.7v-.4c0-.1.1-.2.1-.3s.1-.4.1-.6,0-.3.1-.4v-.5c0-.2.1-.3.1-.5h0l-1-1v.5h0v1.6a4.3,4.3,0,0,1-.1.5c0,.3-.1.5-.1.8V45c-.1,0-.1.1-.1.2a.6.6,0,0,1-.1.4l.7.6a.6.6,0,0,1,.1-.4Z"/>
          <path class="cls-2" d="M30.3,31.1h3.8l-1-.9h-3l-.5.3-.5.3.6.5h.2Z"/>
          <path class="cls-2" d="M23.1,20.2h0l-8.8-8.5-2.4,2.5,8.5,8.2.4-.3.4-.3c.1-.2.2-.3.4-.3h.2l.3-.2.6-.5.6-.4Z"/>
          <path class="cls-2" d="M43.8,43.8h0v-.3a.4.4,0,0,0,.1-.3V41.6c0-.1-.1-.2-.1-.3s0-.4,0-.6-.1-.2-.1-.4a.6.6,0,0,0-.1-.4h0l-1.1-1.1a.1.1,0,0,0,.1.1c0,.2.1.5.1.7s.1.6.2.9v.2a1.3,1.3,0,0,1,.1.6v2.5h0v.2l.6.6a1.3,1.3,0,0,0,.1-.6C43.7,44,43.8,43.9,43.8,43.8Z"/>
          <path class="cls-2" d="M32.4,32.8h2.9l.7.2.7.2h.2l-1.3-1.3-.9-.2H31.2l-.5.2.7.7h.1Z"/>
          <path class="cls-2" d="M41.7,42h0v-.7a.4.4,0,0,1-.1-.3v-.3c-.1-.2-.1-.5-.2-.7s-.1-.4-.2-.5-.1-.4-.2-.6h-.1l-.6-.9-.5-.7-.6-.5c-.1-.2-.3-.3-.5-.5l-.5-.4-.7-.5-.7-.3-.6-.3-.4-.2-.7-.3H35l-.8-.2h-.9c-.1,0-.3-.1-.4,0h-.5l.8.7h1.6l.5.2h.4l.6.3h.3c0,.1.1.1.2.2l.5.2.4.3h.1l.5.4c.1.1.3.2.4.4l.3.3.4.3c0,.1.1.1.1.2l.3.3.5.9v.2c0,.2,0,.3.1.4s.1.5.1.7a4.3,4.3,0,0,1,.1.5,4.3,4.3,0,0,1,.1.5V42l.9.9V42Z"/>
          <path class="cls-2" d="M24,23.7l.8-.5h0l.6-.3.4-.2-1-.9h-.2l-.8.5h-.4a1.8,1.8,0,0,0-.7.5h0l-.3.2-.6.5.9.9,1.2-.9A.1.1,0,0,0,24,23.7Z"/>
          <path class="cls-2" d="M25.4,26.1l.4-.2H26l.5-.3.7-.4h.2l.5-.2-1-1h0l-.4.2h-.3l-.5.3-.4.2c-.1.1-.2.1-.2.2l-.7.4-.5.3a.1.1,0,0,1-.1.1h-.1l1,.9h.2Z"/>
          <path class="cls-2" d="M46.9,46.9h0a3.1,3.1,0,0,0,.2-.8.6.6,0,0,0,.1-.4h0a1.4,1.4,0,0,1,.2-.6c0-.2.1-.3.1-.6v-.6h0l-.9-.8h0c0,.1,0,.1-.1.1v.4a.4.4,0,0,1-.1.3v.4a.6.6,0,0,0-.1.4c0,.2-.1.4-.1.6a1.3,1.3,0,0,1-.1.6c0,.2-.1.4-.1.6s-.1.3-.2.4v.2l.7.7c.1-.1.1-.1.1-.2Z"/>
          <path class="cls-2" d="M27.7,27.7l.2-.2.7-.3H29l.5-.3h.4l-.9-.8h-.3c-.3,0-.4.2-.6.3a.5.5,0,0,0-.4.2l-.6.3-.7.4h-.3l-.3.2h-.1l.9.7.8-.5Z"/>
          <path class="cls-2" d="M29.4,29.4l.3-.2H30l.7-.3c.2,0,.3-.2.6-.1h.6l-.9-.9c0,.1,0,.1-.1.1l-.7.2h-.4l-.4.3H29l-.5.3-.3.2-.4.2h-.2l.7.7a1.8,1.8,0,0,0,.7-.5Z"/>
          <path class="cls-2" d="M39.4,40l-.2-.3-.3-.4a4.3,4.3,0,0,0-.4-.7h-.2l-.4-.5c-.1-.2-.3-.3-.4-.4h-.2l-.6-.4a.5.5,0,0,0-.4-.2l-.3-.2-.7-.3-.6-.2h0l1.1,1.1a.9.9,0,0,1,.5.3h.2l.4.2.3.3h.2l.2.3h.1l.3.3a4.3,4.3,0,0,1,.4.7l.2.3a.3.3,0,0,1,.1.2l.8.8v-.3A.7.7,0,0,1,39.4,40Z"/>
          <path class="cls-2" d="M53.5,50.3l-4.9-5.7h0v.3a1.3,1.3,0,0,0-.1.6c-.1.3-.1.6-.2.9s-.1.3-.2.5a1.9,1.9,0,0,1-.2.7c0,.1,0,.1-.1.2V48l-.2.3h0l3.5,4.3Z"/>
        </g>
        <g>
          <path class="cls-2" d="M77.2,25.5l-.4-.2a.1.1,0,0,1-.1-.1l-.6-.3-.7-.3-.2-.2h-.5l.9-1h.8l.4.3.5.2h.2l.7.4.5.4h.2l-1,1a.1.1,0,0,0-.1-.1Z"/>
          <path class="cls-2" d="M59.6,43.9h0c0-.1-.1-.2-.1-.3v-.3a1.3,1.3,0,0,1-.1-.6V41.4a1.3,1.3,0,0,1,.1-.6v-.3a.9.9,0,0,0,.1-.5h0l1.1-1.1c-.1,0-.1,0-.1.1s-.1.4-.1.7a2.8,2.8,0,0,0-.1.9c0,.1,0,.1-.1.2v3.1a.1.1,0,0,0,.1.1v.2l-.6.7c0-.2-.1-.4-.1-.7S59.6,44,59.6,43.9Z"/>
          <path class="cls-2" d="M61.6,42h0V40.7a2.4,2.4,0,0,0,.2-.8l.2-.5a1.4,1.4,0,0,1,.2-.6h0l.6-.9.5-.7.6-.6c.1-.2.3-.3.5-.5l.5-.4a1.8,1.8,0,0,1,.7-.5l.6-.4.6-.3.4-.2.7-.3H68l.7-.3h1c.1,0,.3-.1.4,0h.5l-.7.8H68.7l-.5.2-.5.2h-.3l-.7.3h-.1c-.1,0-.1,0-.1.1h-.2l-.5.3-.4.3h-.2c-.2.1-.3.3-.4.4s-.3.2-.4.4l-.3.3-.3.4h-.2l-.3.4-.4.9a.3.3,0,0,0-.1.2.6.6,0,0,1-.1.4,2,2,0,0,1-.1.7V41a.7.7,0,0,0-.1.5v.6l-.9.9V42Z"/>
          <path class="cls-2" d="M63.9,40c0-.1.1-.3.1-.4l.2-.4.5-.7h.1l.5-.6.3-.3.3-.2.5-.4.4-.2.3-.2.6-.3.6-.3h.1L67.3,37h0l-.5.4h-.2l-.3.2-.4.2c0,.1-.1.1-.1.2l-.3.2h0c-.2.1-.2.2-.3.3l-.5.7c0,.1-.1.2-.1.3s-.1.2-.1.3l-.8.8a.4.4,0,0,0,.1-.3A.7.7,0,0,1,63.9,40Z"/>
          <path class="cls-2" d="M70.5,32.4H68.3l-.7.2-.7.2-.7.3H66l1.3-1.4.9-.2h.4c.1,0,.2-.1.4,0h1.4a2.2,2.2,0,0,1,.8,0h.5l.6.2-.8.7h-.1Z"/>
          <path class="cls-2" d="M56.6,47.2V47a2.4,2.4,0,0,1-.2-.8c-.1-.1-.1-.2-.1-.4h0a.8.8,0,0,1-.2-.5,1.4,1.4,0,0,1-.2-.6.9.9,0,0,0-.1-.5h0l.9-.9v.2h0c.1.1,0,.2.1.3v.3a61654275059670.7,61654275059670.7,0,0,1,.2.8,1.5,1.5,0,0,1,.1.7.7.7,0,0,1,.1.5c.1.2.1.4.2.6a.8.8,0,0,0,.2.4v.2l-.7.8c0-.1-.1-.2-.1-.3S56.7,47.3,56.6,47.2Z"/>
          <path class="cls-2" d="M58.2,45.8l-.3-.7v-.4c0-.1-.1-.2-.1-.3s-.1-.4-.2-.6v-.5c-.1-.1,0-.3-.1-.4a.9.9,0,0,0-.1-.5h0l1-1.1v1.6a1.3,1.3,0,0,0,.1.6,1.3,1.3,0,0,0,.1.6c0,.3.1.5.1.7s0,.3.1.4v.2c0,.2.1.3.1.5h0l-.6.6a4.3,4.3,0,0,1-.1-.5Z"/>
          <path class="cls-2" d="M72.6,30.7H68.7l.9-.9h2.1c.1,0,.3,0,.3.1h.7l.5.2.6.3-.6.6h-.6Z"/>
          <path class="cls-2" d="M75,27.1h-.2l-.7-.2-.4-.2-.5-.2-.4-.2.8-.8H74l.6.3.4.2.5.3.8.3.3.2H77l-.8.8-.9-.6Z"/>
          <path class="cls-2" d="M73.4,28.9h-.6l-.7-.3H70.9l.8-.8h.1l.7.2h.4l.5.2.3.2.5.2.3.2h.4l.3.2-.7.7-.8-.5Z"/>
          <path class="cls-2" d="M78.5,23.1l-.8-.6h0l-.6-.2-.4-.2,1-1,.2.2.8.4h.4l.7.4h.1l.2.2.6.5-.8.8-1.3-.8Z"/>
          <path class="cls-2" d="M58.2,45.8l-.3-.7v-.4c0-.1-.1-.2-.1-.3s-.1-.4-.2-.6v-.5c-.1-.1,0-.3-.1-.4a.9.9,0,0,0-.1-.5h0l1-1.1v1.6a1.3,1.3,0,0,0,.1.6,1.3,1.3,0,0,0,.1.6c0,.3.1.5.1.7s0,.3.1.4v.2c0,.2.1.3.1.5l-.6.6c0-.2-.1-.3-.1-.5Z"/>
          <path class="cls-2" d="M72.6,30.7H68.7l1-.9h2c.1,0,.3,0,.3.1h.7l.5.2.5.3-.5.6h-.6Z"/>
          <path class="cls-2" d="M79.3,19.4h0l8.5-8.7,2.5,2.4-8.2,8.5-.4-.3-.4-.3a.9.9,0,0,0-.5-.3h-.2l-.3-.2-.6-.4-.6-.4Z"/>
          <path class="cls-2" d="M59.6,43.9h0c0-.1-.1-.2-.1-.3v-.3a1.3,1.3,0,0,1-.1-.6V41.4a1.3,1.3,0,0,1,.1-.6v-.3a.9.9,0,0,0,.1-.5h0l1.1-1.1c-.1,0-.1,0-.1.1s-.1.4-.1.7a2.8,2.8,0,0,0-.1.9c0,.1,0,.1-.1.2v3.1a.1.1,0,0,0,.1.1v.2l-.6.6a1.1,1.1,0,0,1-.1-.6C59.7,44.1,59.6,44,59.6,43.9Z"/>
          <path class="cls-2" d="M70.5,32.4H68.3l-.7.2-.7.2-.7.3H66l1.3-1.4.9-.2h.4c.1,0,.2-.1.4,0h1.4a2.2,2.2,0,0,1,.8,0h.5l.5.2-.7.7h-.1Z"/>
          <path class="cls-2" d="M61.6,42h0V40.7a2.4,2.4,0,0,0,.2-.8l.2-.5a1.4,1.4,0,0,1,.2-.6h0l.6-.9.5-.7.6-.6c.1-.2.3-.3.5-.5l.5-.4a1.8,1.8,0,0,1,.7-.5l.6-.4.6-.3.4-.2.7-.3H68l.7-.3h1c.1,0,.3-.1.4,0h.5l-.8.8H68.7l-.5.2-.5.2h-.3l-.7.3h-.1c-.1,0-.1,0-.1.1h-.2l-.5.3-.4.3h-.2c-.2.1-.3.3-.4.4s-.3.2-.4.4l-.3.3-.3.4h-.2l-.3.4-.4.9a.3.3,0,0,0-.1.2.6.6,0,0,1-.1.4,2,2,0,0,1-.1.7V41a.7.7,0,0,0-.1.5V42l-.9.9V42Z"/>
          <path class="cls-2" d="M78.5,23.1l-.8-.6h0l-.6-.2-.4-.2,1-1,.2.2.8.4h.4l.7.4h.1l.2.2.6.5-.8.8-1.3-.8Z"/>
          <path class="cls-2" d="M77.2,25.5l-.4-.2a.1.1,0,0,1-.1-.1l-.6-.3-.7-.3-.2-.2h-.5l.9-1h.8l.4.3.5.2h.2l.7.4.5.4h.1a.1.1,0,0,0,.1.1l-1,.9h-.1Z"/>
          <path class="cls-2" d="M56.6,47.2V47a2.4,2.4,0,0,1-.2-.8c-.1-.1-.1-.2-.1-.4h0a.8.8,0,0,1-.2-.5,1.4,1.4,0,0,1-.2-.6.9.9,0,0,0-.1-.5h0l.9-.9v.2h0c.1.1,0,.2.1.3v.3a61654275059670.7,61654275059670.7,0,0,1,.2.8,1.5,1.5,0,0,1,.1.7.7.7,0,0,1,.1.5c.1.2.1.4.2.6a.8.8,0,0,0,.2.4v.2l-.7.8c0-.1-.1-.2-.1-.3S56.7,47.3,56.6,47.2Z"/>
          <path class="cls-2" d="M75,27.1h-.2l-.7-.2-.4-.2-.5-.2-.4-.2.8-.8H74l.6.3.4.2.5.3.8.3.3.2H77l-.8.8-.9-.6Z"/>
          <path class="cls-2" d="M73.4,28.9h-.6l-.7-.3H70.9l.8-.8h.1l.7.2h.4l.5.2.3.2.5.2.3.2h.4l.3.2-.7.7-.8-.5Z"/>
          <path class="cls-2" d="M63.9,40c0-.1.1-.3.1-.4l.2-.4.5-.7h.1l.5-.6.3-.3.3-.2.5-.4.4-.2.3-.2.6-.3.6-.3h.1l-1.1,1.2c-.2,0-.3.2-.5.3h-.2l-.3.2-.4.2c0,.1-.1.1-.1.2l-.3.2h0c-.2.1-.2.2-.3.3l-.5.7c0,.1-.1.2-.1.3v.2l-.8.8c.1-.1.1-.1.1-.2A.7.7,0,0,1,63.9,40Z"/>
          <path class="cls-2" d="M50.1,50.8,54.8,45h0c0,.1,0,.1.1.2a1.3,1.3,0,0,0,.1.6,2.9,2.9,0,0,0,.2.9c.1.1.1.3.2.5l.3.7h0a.4.4,0,0,0,.1.3.3.3,0,0,0,.1.2c0,.1.1.1.1.2h0l-3.4,4.4Z"/>
        </g>
        <g>
          <path class="cls-3" d="M17,38.3l.3-.3h.1l.4-.5.5-.7.2-.2.4-.3-1.3-.6h-.1l-.3.3c-.1.1-.2.2-.2.3l-.3.4c-.1.1-.3.2-.4.4a.3.3,0,0,1-.1.2l-.5.7-.3.5h-.1l1.3.5a.1.1,0,0,1,.1-.1Z"/>
          <path class="cls-3" d="M40.7,47.8h-.1v-.3a.4.4,0,0,1-.1-.3l-.2-.5a.3.3,0,0,0-.1-.2c0-.1-.1-.2-.2-.3a.4.4,0,0,0-.1-.3c0-.1-.1-.2-.1-.3l-.3-.5c0-.1-.1-.2-.2-.3s-.1-.3-.2-.4H39l-1.4-.5h.1a1,1,0,0,1,.4.5,4.1,4.1,0,0,1,.5.9h.1a.9.9,0,0,1,.3.6c.2.2.2.4.3.6l.4.9.3.7v.2c.1,0,.1.1.1.2l.8.3c-.1-.2-.1-.4-.2-.6Z"/>
          <path class="cls-3" d="M38.1,46.9h0l-.2-.4c0-.1-.1-.2-.2-.3a.3.3,0,0,1-.1-.2c0-.1-.1-.2-.1-.3l-.5-.6c-.1-.1-.2-.3-.4-.4l-.4-.5h-.1l-.9-.6-.7-.4a2,2,0,0,0-.8-.4l-.6-.2-.7-.2H27.6l-.4.2c-.1,0-.2,0-.3.2s-.2,0-.2.1h-.3l1,.4h0l.4-.2h1.8c.1-.1.2,0,.3,0h2.5l.6.2.5.2.4.2h.7l.4.3.8.6c0,.1.1.1.1.2l.2.3.4.6.3.4.3.4c0,.1,0,.2.1.2a.4.4,0,0,0,.1.3l1.1.5c0-.1,0-.2-.1-.2S38.1,47.1,38.1,46.9Z"/>
          <path class="cls-3" d="M35.2,46l-.3-.2-.4-.4-.7-.4h-.2l-.6-.3H29.4l1.4.5h0l.6.2h1.1a.1.1,0,0,1,.1.1h.8l.7.4.3.3.2.2,1,.4c0-.1-.1-.2-.2-.3S35.3,46.1,35.2,46Z"/>
          <path class="cls-3" d="M26,41.9l.7-.4h1l.4-.2h2.3l-1.7-.7-.9.2H27l-.4.2h-.1l-.3.2-.5.3c-.2,0-.4.2-.6.3l-.5.3c-.2.1-.3.3-.4.4l.9.4h.2Z"/>
          <path class="cls-3" d="M44.7,49.6v-.2c0-.2-.1-.5-.1-.8s-.1-.2-.1-.4h0a1.1,1.1,0,0,0-.1-.5,1.3,1.3,0,0,0-.1-.6.9.9,0,0,1-.1-.5h-.1L43,45.8V46h0c0,.1.1.2.1.3a.4.4,0,0,1,.1.3c0,.1.1.3.1.4v.4a1.4,1.4,0,0,1,.2.6,1.3,1.3,0,0,1,.1.6,1.3,1.3,0,0,1,.1.6.6.6,0,0,1,.1.4v.2l1,.4v-.2A4.3,4.3,0,0,0,44.7,49.6Z"/>
          <path class="cls-3" d="M42.8,49c0-.3-.1-.5-.1-.8s-.1-.2-.1-.4-.1-.1-.1-.2a1.3,1.3,0,0,0-.1-.6c0-.2-.1-.3-.1-.5s-.1-.3-.2-.5a.6.6,0,0,0-.1-.4v-.2l-1.3-.5a.5.5,0,0,0,.2.4v.2l.3.5c0,.1.1.3.1.4s.1.4.2.5.1.4.2.6.1.5.1.7a.8.8,0,0,1,.1.4c0,.1.1.1.1.2s0,.3.1.4h0l.8.3a.9.9,0,0,1-.1-.5Z"/>
          <path class="cls-3" d="M23.4,41.2l.5-.4.4-.3.7-.3.3-.2.4-.2H26l.3-.2h.5l-1.2-.5h-.1l-.5.2-.5.2h-.2l-.6.3-.3.2c-.1.1-.2.1-.2.2l-.3.3-.4.4-.3.5.7.3.2-.2Z"/>
          <path class="cls-3" d="M19.7,38.9l.2-.2.5-.5.3-.4.4-.3.3-.3-1.1-.5L20,37a1,1,0,0,0-.4.5l-.3.3-.4.5-.6.7-.2.2a.2.2,0,0,1-.2.2h0l1,.5.6-.9Z"/>
          <path class="cls-3" d="M21.9,39.8a.2.2,0,0,0,.2-.2l.3-.2.5-.5.5-.4c.2,0,.3-.2.4-.2h.1l-1.1-.5h0l-.6.4a.8.8,0,0,0-.4.4l-.3.3-.2.3-.4.4-.2.3-.3.3-.2.3,1,.4a3.5,3.5,0,0,1,.5-.8C21.7,40,21.8,39.9,21.9,39.8Z"/>
          <path class="cls-3" d="M14.9,36.6l.5-.8h0c.1-.1.2-.3.4-.4l.3-.4-1.3-.5a.3.3,0,0,1-.1.2l-.6.8a.3.3,0,0,0-.1.2h-.2l-.4.7h-.1c0,.2,0,.3-.1.4l-.4.6L14,38a8.3,8.3,0,0,1,.8-1.2Z"/>
          <path class="cls-3" d="M42.8,49c0-.3-.1-.5-.1-.8s-.1-.2-.1-.4-.1-.1-.1-.2a1.3,1.3,0,0,0-.1-.6c0-.2-.1-.3-.1-.5s-.1-.3-.2-.5a.6.6,0,0,0-.1-.4v-.2l-1.3-.5a.5.5,0,0,0,.2.4v.2l.3.5c0,.1.1.3.1.4s.1.4.2.5.1.4.2.6.1.5.1.7a.8.8,0,0,1,.1.4c0,.1.1.1.1.2s0,.3.1.4l.8.4a.9.9,0,0,1-.1-.5Z"/>
          <path class="cls-3" d="M23.4,41.2l.5-.4.4-.3.7-.3.3-.2.4-.2H26l.3-.2h.5l-1.2-.4h-.1l-.5.2-.5.2h-.2l-.6.3-.3.2c-.1.1-.2.1-.2.2l-.3.3-.4.4-.3.5.7.3.2-.2Z"/>
          <path class="cls-3" d="M12.6,33.7h0L3.3,30.1,2,33.4l9,3.4.3-.5c.1-.1.1-.3.2-.4a.5.5,0,0,1,.3-.5h.1c.1-.1.2-.2.2-.3l.4-.7.4-.5Z"/>
          <path class="cls-3" d="M40.7,47.8h-.1v-.3a.4.4,0,0,1-.1-.3l-.2-.5a.3.3,0,0,0-.1-.2c0-.1-.1-.2-.2-.3a.4.4,0,0,0-.1-.3c0-.1-.1-.2-.1-.3l-.3-.5c0-.1-.1-.2-.2-.3s-.1-.3-.2-.4H39l-1.4-.6h.1a1,1,0,0,1,.4.5,4.1,4.1,0,0,1,.5.9h.1a.9.9,0,0,1,.3.6c.2.2.2.4.3.6l.4.9.3.7v.2h.1l.8.4c-.1-.2-.1-.4-.2-.6Z"/>
          <path class="cls-3" d="M26,41.9l.7-.4h1l.4-.2h2.3l-1.7-.7-.9.2H27l-.4.2h-.1l-.3.2-.5.3c-.2,0-.4.2-.6.3l-.5.3c-.2.1-.3.3-.4.4l1,.4c0-.1,0-.1.1-.1Z"/>
          <path class="cls-3" d="M38.1,46.9h0l-.2-.4c0-.1-.1-.2-.2-.3a.3.3,0,0,1-.1-.2c0-.1-.1-.2-.1-.3l-.5-.6c-.1-.1-.2-.3-.4-.4l-.4-.5h-.1l-.9-.6-.7-.4a2,2,0,0,0-.8-.4l-.6-.2-.7-.2H27.6l-.4.2c-.1,0-.2,0-.3.2s-.2,0-.2.1h-.3l1,.4.4-.2h1.8c.1-.1.2,0,.3,0h2.5l.6.2.5.2.4.2h.7l.4.3.8.6c0,.1.1.1.1.2l.2.3.4.6.3.4.3.4c0,.1,0,.2.1.2a.4.4,0,0,0,.1.3l1.1.5c0-.1,0-.2-.1-.2S38.1,47.1,38.1,46.9Z"/>
          <path class="cls-3" d="M14.9,36.6l.5-.8h0c.1-.1.2-.3.4-.4l.3-.4-1.3-.5a.3.3,0,0,1-.1.2l-.6.8a.3.3,0,0,0-.1.2h-.2l-.4.7h-.1c0,.2,0,.3-.1.4l-.3.6L14,38a8.3,8.3,0,0,1,.8-1.2Z"/>
          <path class="cls-3" d="M17,38.3l.3-.3h.1l.4-.5.5-.7.2-.2.4-.3-1.3-.6h-.1l-.3.3c-.1.1-.2.2-.2.3l-.3.4c-.1.1-.3.2-.4.4a.3.3,0,0,1-.1.2l-.5.7-.3.5h-.1l1.3.5a.1.1,0,0,1,.1-.1Z"/>
          <path class="cls-3" d="M44.7,49.6v-.2c0-.2-.1-.5-.1-.8s-.1-.2-.1-.4h0a1.1,1.1,0,0,0-.1-.5,1.3,1.3,0,0,0-.1-.6.9.9,0,0,1-.1-.5h-.1L43,45.8V46h0c0,.1.1.2.1.3a.4.4,0,0,1,.1.3c0,.1.1.3.1.4v.4a1.4,1.4,0,0,1,.2.6,1.3,1.3,0,0,1,.1.6,1.3,1.3,0,0,1,.1.6.6.6,0,0,1,.1.4v.2l1,.4v-.2A4.3,4.3,0,0,0,44.7,49.6Z"/>
          <path class="cls-3" d="M19.7,38.9l.2-.2.5-.5.3-.4.4-.3.3-.3-1.1-.5L20,37a1,1,0,0,0-.4.5l-.3.3-.4.5-.6.7-.2.2a.2.2,0,0,1-.2.2h0l1,.5.6-.9Z"/>
          <path class="cls-3" d="M21.9,39.8a.2.2,0,0,0,.2-.2l.3-.2.5-.5.5-.4c.2,0,.3-.2.4-.2h.1l-1.1-.5h0l-.6.4a.8.8,0,0,0-.4.4l-.3.3-.2.3-.4.4-.2.3-.3.3-.2.3,1,.4a3.5,3.5,0,0,1,.5-.8C21.7,40,21.8,39.9,21.9,39.8Z"/>
          <path class="cls-3" d="M35.2,46l-.3-.2-.4-.4-.7-.4h-.2l-.6-.3H29.4l1.5.5.5.2h1.1a.1.1,0,0,1,.1.1h.8l.7.4.3.3a.1.1,0,0,1,.1.1l1.1.4c-.1,0-.1-.1-.2-.2S35.3,46.1,35.2,46Z"/>
          <path class="cls-3" d="M52.2,50.2l-6.7-3.4h0v.3c.1.2.1.4.2.6s.1.6.1.9a4.3,4.3,0,0,1,.1.5V50c0,.1.1.2.1.3a.3.3,0,0,1-.1.2v.2h0l5,2.7Z"/>
        </g>
        <g>
          <path class="cls-3" d="M86.4,39.9l-.3-.4a.1.1,0,0,1-.1-.1l-.4-.5-.4-.6-.2-.2c-.1-.2-.3-.3-.4-.4l1.3-.5h0l.4.3.2.3.3.4.3.4c.1,0,.1.1.1.2l.5.7.3.5h.1l-1.3.5a.1.1,0,0,0-.1-.1Z"/>
          <path class="cls-3" d="M62.5,48.7h0a.4.4,0,0,0,.1-.3.4.4,0,0,1,.1-.3,1.7,1.7,0,0,1,.2-.5c0-.1.1-.1.1-.2l.2-.3a.4.4,0,0,1,.1-.3c0-.1.1-.2.1-.3l.3-.5.3-.3c0-.1.1-.2.2-.3h0l1.4-.5h0l-.5.5a5.6,5.6,0,0,1-.5.8c0,.1,0,.1-.1.2l-.3.5-.3.7-.4.8-.3.7c0,.1-.1.1-.1.2v.2l-.8.3a1.3,1.3,0,0,1,.1-.6C62.5,49,62.5,48.9,62.5,48.7Z"/>
          <path class="cls-3" d="M65.1,47.9h0l.2-.4c0-.1.1-.2.2-.3s.1-.1.1-.2a.4.4,0,0,0,.1-.3l.5-.6c.2-.1.3-.3.4-.4l.5-.4h0l1-.6.7-.4.8-.3.6-.2h.7l.8-.2h4l.4.3c.1,0,.2,0,.3.2s.2,0,.2.1h.3l-1,.4h0l-.4-.2-.7-.2H72.7c-.1,0-.2,0-.2.1s-.1-.1-.1,0H70.3l-.5.2-.4.2h-.7l-.4.2-.8.7h-.2c0,.1-.1.2-.2.3a2.1,2.1,0,0,1-.4.6l-.3.4-.3.4a.3.3,0,0,1-.1.2c0,.1-.1.2-.1.3l-1.2.5a.4.4,0,0,0,.1-.3Z"/>
          <path class="cls-3" d="M68.1,47.1q0-.1.3-.3l.3-.3.7-.4h.2l.6-.2.5-.2H71l.6-.2h1.6c.2-.1.4,0,.6,0h.1l-1.5.5H69.8l-.7.4-.3.3h-.2l-1,.4c0-.1.1-.1.2-.2S67.9,47.2,68.1,47.1Z"/>
          <path class="cls-3" d="M77.3,43.2l-.7-.4h-.5c-.1-.1-.2-.2-.4-.1h-.4l-.7-.2H72.9l1.8-.6h1.6l.5.2h.1l.3.2.4.3.7.4.4.3a.8.8,0,0,1,.4.4l-.9.3H78Z"/>
          <path class="cls-3" d="M58.4,50.4v-.2a2.2,2.2,0,0,0,.1-.8l.2-.4h0a1.1,1.1,0,0,1,.1-.5,1.3,1.3,0,0,1,.1-.6.9.9,0,0,0,.1-.5h0a.1.1,0,0,0,.1-.1l1.1-.4h0c0,.1-.1.2-.1.3s-.1.2-.1.4-.1.2-.1.4a.4.4,0,0,1-.1.3,1.4,1.4,0,0,1-.2.7,4.3,4.3,0,0,0-.1.5c0,.2-.1.4-.1.6s-.1.3-.1.5v.2l-1,.3v-.3A.6.6,0,0,0,58.4,50.4Z"/>
          <path class="cls-3" d="M60.4,49.8a1.7,1.7,0,0,1,.1-.7c0-.1.1-.3.1-.4v-.3a1.4,1.4,0,0,1,.2-.6c0-.1.1-.3.1-.4l.2-.5a.6.6,0,0,1,.1-.4v-.2l1.4-.5c-.1.2-.2.3-.2.4s-.1.1-.1.2l-.3.5c0,.1-.1.2-.1.4a.8.8,0,0,0-.2.5c-.1.2-.1.4-.2.6a1.9,1.9,0,0,1-.2.7c0,.1-.1.2-.1.4v.2a.6.6,0,0,0-.1.4h0l-.9.3a.6.6,0,0,0,.1-.4C60.3,49.9,60.4,49.9,60.4,49.8Z"/>
          <path class="cls-3" d="M79.9,42.6a1,1,0,0,0-.5-.4l-.3-.3-.7-.4-.3-.2-.4-.2h-.3l-.4-.2h-.4l1.2-.4h.1l.5.2.5.3h.2l.6.4.3.2c0,.1.1.1.2.2l.2.3.4.4.4.5-.8.3a.1.1,0,0,0-.1-.1Z"/>
          <path class="cls-3" d="M83.7,40.4c0-.1-.1-.1-.2-.2l-.4-.5-.4-.4-.3-.4-.3-.3,1.1-.4.3.3.4.5.2.3.4.5.6.7a.2.2,0,0,0,.2.2l.2.3h0l-1,.4-.6-.9Z"/>
          <path class="cls-3" d="M81.5,41.3l-.2-.2-.3-.3c-.2-.2-.3-.4-.5-.5l-.5-.4-.4-.3h-.1l1.1-.4h.1l.5.5.4.3.3.4.2.3.4.4c0,.1.1.2.2.3l.3.3c0,.1.1.2.1.3l-.9.3-.5-.7C81.6,41.4,81.6,41.3,81.5,41.3Z"/>
          <path class="cls-3" d="M88.6,38.3a2.2,2.2,0,0,0-.5-.8h0a1,1,0,0,0-.4-.5l-.3-.4,1.3-.4.2.2.5.7a.3.3,0,0,0,.1.2l.2.2a4.3,4.3,0,0,1,.4.7h0a.4.4,0,0,1,.1.3l.4.7-1.1.5-.8-1.3A.1.1,0,0,0,88.6,38.3Z"/>
          <path class="cls-3" d="M60.4,49.8a1.7,1.7,0,0,1,.1-.7c0-.1.1-.3.1-.4v-.3a1.4,1.4,0,0,1,.2-.6c0-.1.1-.3.1-.4l.2-.5a.6.6,0,0,1,.1-.4v-.2l1.4-.5c-.1.2-.2.3-.2.4s-.1.1-.1.2l-.3.5c0,.1-.1.2-.1.4a.8.8,0,0,0-.2.5c-.1.2-.1.4-.2.6a1.9,1.9,0,0,1-.2.7c0,.1-.1.2-.1.4v.2a.6.6,0,0,0-.1.4l-.9.3a.6.6,0,0,0,.1-.4C60.3,49.9,60.4,49.9,60.4,49.8Z"/>
          <path class="cls-3" d="M79.9,42.6a1,1,0,0,0-.5-.4l-.3-.3-.7-.4-.3-.2-.4-.2h-.3l-.4-.2h-.4l1.2-.4h.1l.5.2.5.3h.2l.6.4.3.2c0,.1.1.1.2.2l.2.3.4.4.4.5-.8.3a.1.1,0,0,0-.1-.1Z"/>
          <path class="cls-3" d="M90.9,35.4h0l9.4-4.2,1.3,3.2-9.1,4.1-.3-.4-.2-.5c0-.2-.1-.3-.3-.4a.3.3,0,0,0-.1-.2l-.2-.3A4.3,4.3,0,0,1,91,36l-.3-.6Z"/>
          <path class="cls-3" d="M62.5,48.7h0a.4.4,0,0,0,.1-.3.4.4,0,0,1,.1-.3,1.7,1.7,0,0,1,.2-.5c0-.1.1-.1.1-.2l.2-.3a.4.4,0,0,1,.1-.3c0-.1.1-.2.1-.3l.3-.5.3-.3c0-.1.1-.2.2-.3h0l1.4-.5h0l-.5.5a5.6,5.6,0,0,1-.5.8c0,.1,0,.1-.1.2l-.3.5-.3.7-.4.8-.3.7c0,.1-.1.1-.1.2v.2l-.8.3a1.3,1.3,0,0,1,.1-.6C62.5,49,62.5,48.9,62.5,48.7Z"/>
          <path class="cls-3" d="M77.3,43.2l-.7-.4h-.5c-.1-.1-.2-.2-.4-.1h-.4l-.7-.2H72.9l1.8-.6h1.6l.5.2h.1l.3.2.4.3.7.4.4.3a.8.8,0,0,1,.4.4l-.9.3H78Z"/>
          <path class="cls-3" d="M65.1,47.9h0l.2-.4c0-.1.1-.2.2-.3s.1-.1.1-.2a.4.4,0,0,0,.1-.3l.5-.6c.2-.1.3-.3.4-.4l.5-.4h0l1-.6.7-.4.8-.3.6-.2h.7l.8-.2h4l.4.3c.1,0,.2,0,.3.2s.2,0,.2.1h.3l-1,.4-.4-.2-.7-.2H72.7c-.1,0-.2,0-.2.1s-.1-.1-.1,0H70.3l-.5.2-.4.2h-.7l-.4.2-.8.7h-.2c0,.1-.1.2-.2.3a2.1,2.1,0,0,1-.4.6l-.3.4-.3.4a.3.3,0,0,1-.1.2.4.4,0,0,1-.1.3l-1.2.5a.4.4,0,0,0,.1-.3Z"/>
          <path class="cls-3" d="M88.6,38.3a2.2,2.2,0,0,0-.5-.8h0a1,1,0,0,0-.4-.5l-.3-.4,1.3-.4.2.2.5.7a.3.3,0,0,0,.1.2l.2.2a4.3,4.3,0,0,1,.4.7h0a.4.4,0,0,1,.1.3l.4.7-1.2.4a7.5,7.5,0,0,0-.7-1.2A.1.1,0,0,0,88.6,38.3Z"/>
          <path class="cls-3" d="M86.4,39.9l-.3-.4a.1.1,0,0,1-.1-.1l-.4-.5-.4-.6-.2-.2c-.1-.2-.3-.3-.4-.4l1.3-.5h0l.4.3.2.3.3.4.3.4c.1,0,.1.1.1.2l.5.7.3.5h.1l-1.3.5a.1.1,0,0,0-.1-.1Z"/>
          <path class="cls-3" d="M58.4,50.4v-.2a2.2,2.2,0,0,0,.1-.8l.2-.4h0a1.1,1.1,0,0,1,.1-.5,1.3,1.3,0,0,1,.1-.6.9.9,0,0,0,.1-.5h0a.1.1,0,0,0,.1-.1l1.1-.4h0c0,.1-.1.2-.1.3s-.1.2-.1.4-.1.2-.1.4a.4.4,0,0,1-.1.3,1.4,1.4,0,0,1-.2.7,4.3,4.3,0,0,0-.1.5c0,.2-.1.4-.1.6s-.1.3-.1.5v.2l-1,.3v-.3A.6.6,0,0,0,58.4,50.4Z"/>
          <path class="cls-3" d="M83.7,40.4c0-.1-.1-.1-.2-.2l-.4-.5-.4-.4-.3-.4-.3-.3,1.1-.4.3.3.4.5.2.3.4.5.6.7a.2.2,0,0,0,.2.2l.2.3h0l-1,.4-.6-.9Z"/>
          <path class="cls-3" d="M81.5,41.3l-.2-.2-.3-.3c-.2-.2-.3-.4-.5-.5l-.5-.4-.4-.3h-.1l1.1-.4h.1l.5.5.4.3.3.4.2.3.4.4c0,.1.1.2.2.3l.3.3c0,.1.1.2.1.3l-.9.3-.5-.7C81.6,41.4,81.6,41.3,81.5,41.3Z"/>
          <path class="cls-3" d="M68.1,47.1q0-.1.3-.3l.3-.3.7-.4h.2l.6-.2.5-.2H71l.6-.2h1.6c.2-.1.4,0,.6,0h.1l-1.5.5H69.8l-.7.4-.3.3h-.1l-1.1.4.2-.2C67.9,47.4,67.9,47.2,68.1,47.1Z"/>
          <path class="cls-3" d="M50.9,50.8l6.8-3.2h0a.4.4,0,0,1-.1.3c0,.2-.1.4-.1.6s-.1.5-.2.8v.5a2.5,2.5,0,0,0-.1.8v.2a.3.3,0,0,1-.1.2c0,.1.1.2.1.3v.2c-.1,0-.1,0-.1.1l-4.9,2.5Z"/>
        </g>
        <g>
          <path class="cls-4" d="M16,53.2a.8.8,0,0,1,.2-.4v-.2a1.3,1.3,0,0,0,.1-.6l.3-.7a.4.4,0,0,1,.1-.3,1.7,1.7,0,0,1,.2-.5H15.5l-.2.4c-.1.1-.1.2-.1.4s-.1.3-.2.4a4.3,4.3,0,0,1-.1.5.4.4,0,0,0-.1.3c-.1.2-.1.5-.2.8s-.1.4-.1.6h1.3c0-.1,0-.2.1-.2A1.7,1.7,0,0,1,16,53.2Z"/>
          <path class="cls-4" d="M41.5,53.3c-.1-.1-.1-.1-.1-.2s-.1-.1-.2-.2a.3.3,0,0,0-.1-.2l-.4-.5h-.2l-.3-.3-.2-.2c0-.1-.1-.1-.2-.2l-.5-.4-.3-.2-.3-.2a.1.1,0,0,0-.1-.1H37.2l.6.3.8.6a.1.1,0,0,0,.1.1l.5.4.6.6.6.6.5.6c.1,0,.1,0,.1.1s.1.1.2.2H42l-.3-.6C41.6,53.5,41.5,53.3,41.5,53.3Z"/>
          <path class="cls-4" d="M38.7,53.4h0c-.1-.1-.2-.1-.2-.2l-.3-.2-.3-.2a.2.2,0,0,0-.2-.2l-.6-.4-.5-.3-.6-.2h-.1l-1.1-.2h-3l-.8.2-.7.2-.7.2h-.4c-.2.1-.5.1-.7.3h-.1l-.7.3h0c-.1,0-.1,0-.1.1h-.3l-.3.4c0,.1-.2.1-.2.3h-.2c0,.1-.1.2-.2.3h1.1l.3-.2.6-.5.5-.2.5-.3h.3l.6-.3h4.5l1,.3c.1,0,.2,0,.2.1l.3.2.6.4.4.3.5.3h.1l.3.3h1.2c-.1-.1-.1-.2-.2-.2Z"/>
          <path class="cls-4" d="M35.7,53.6h-.4l-.4-.2h-4l-.6.3a1.1,1.1,0,0,0-.6.2H32l.4-.2h1.1c.1-.1.2,0,.3,0h.8a.5.5,0,0,1,.4.2c.1,0,.2,0,.2.1h1.1a.2.2,0,0,0-.2-.2Z"/>
          <path class="cls-4" d="M25.6,53.2l.6-.7h.1l.3-.2.3-.3h0l.3-.3.6-.3.7-.4.6-.3c.1,0,.2,0,.2-.1H27.5l-.8.5-.3.3-.3.2-.4.3h-.1c0,.1-.1.2-.2.3l-.3.4-.5.6-.3.5-.3.5h1.1c0-.1,0-.1.1-.2Z"/>
          <path class="cls-4" d="M45.9,53.4c0-.1-.1-.1-.1-.2a4.3,4.3,0,0,1-.4-.7l-.2-.3a.1.1,0,0,1-.1-.1l-.2-.5c-.2-.2-.2-.4-.4-.5l-.3-.4h0c-.1,0-.1,0-.1-.1H43c.1.1.2.2.2.3l.2.3c.1.1.2.2.2.3a.5.5,0,0,1,.2.4,1,1,0,0,1,.4.5l.3.4a2.1,2.1,0,0,1,.4.6c0,.1.1.2.2.4v.2h1.1c0-.1-.1-.2-.1-.3Z"/>
          <path class="cls-4" d="M43.8,53.5l-.3-.6-.3-.4a.3.3,0,0,1-.1-.2l-.3-.5-.3-.4-.3-.4-.3-.3c0-.1-.1-.1-.1-.2H40.4l.3.4h.2c.1.1.3.2.4.4l.2.3.4.4.4.5.4.6c.1.1.2.2.2.3l.2.2.2.3h.9l-.3-.5Z"/>
          <path class="cls-4" d="M23,53.5l.3-.5.3-.4.5-.6c0-.1.1-.2.2-.3s.2-.2.2-.3l.3-.3.3-.3h.2c0-.1.1-.1.1-.2H24.1c0,.1,0,.1-.1.1l-.3.3c-.1.2-.3.3-.4.4s-.1.1-.2.2l-.4.5-.2.3c0,.1-.1.2-.1.3l-.2.3c-.1.2-.1.4-.2.6s-.1.4-.1.6h.8c0-.1,0-.2.1-.2S22.9,53.6,23,53.5Z"/>
          <path class="cls-4" d="M18.7,52.8c0-.1.1-.2.1-.3a1.4,1.4,0,0,0,.2-.6c.1-.2.2-.3.2-.5s.2-.3.2-.5l.2-.4H18.4a.5.5,0,0,1-.2.4c-.1.2-.1.4-.2.6a.6.6,0,0,1-.1.4,1.4,1.4,0,0,1-.2.6l-.3.8a16483370939788.6,16483370939788.6,0,0,1-.2.6v.2h1.2a4.3,4.3,0,0,1,.2-1.1C18.6,52.9,18.6,52.9,18.7,52.8Z"/>
          <path class="cls-4" d="M21.1,52.8a24725056409676.9,24725056409676.9,0,0,1,.2-.6,1.6,1.6,0,0,0,.4-.7c.1-.2.1-.4.3-.5l.3-.4H21.1l-.4.6a.5.5,0,0,1-.2.4,4.3,4.3,0,0,1-.1.5c-.1.1-.1.2-.1.4s-.1.3-.2.5-.1.2-.1.3l-.2.5v.3h1a2.9,2.9,0,0,1,.2-.9C21,53,21,52.9,21.1,52.8Z"/>
          <path class="cls-4" d="M13.3,52.5a3.6,3.6,0,0,0,.2-1h0a1.4,1.4,0,0,0,.2-.6c.1-.1.1-.2.2-.4H12.5v.3l-.3.8v.3c-.1.1-.1.1-.1.2s-.1.5-.2.8h0v.4a2.5,2.5,0,0,1-.1.8H13l.3-1.5Z"/>
          <path class="cls-4" d="M43.8,53.5l-.3-.6-.3-.4a.3.3,0,0,1-.1-.2l-.3-.5-.3-.4-.3-.4-.3-.3c0-.1-.1-.1-.1-.2H40.4l.3.4h.2c.1.1.3.2.4.4l.2.3.4.4.4.5.4.6c.1.1.2.2.2.3l.2.2.2.3h.9l-.3-.4Z"/>
          <path class="cls-4" d="M23,53.5l.3-.5.3-.4.5-.6c0-.1.1-.2.2-.3s.2-.2.2-.3l.3-.3.3-.3h.2c0-.1.1-.1.1-.2H24.1c0,.1,0,.1-.1.1l-.3.3c-.1.2-.3.3-.4.4s-.1.1-.2.2l-.4.5-.2.3c0,.1-.1.2-.1.3l-.2.3c-.1.2-.1.4-.2.6a4.3,4.3,0,0,0-.1.5h.8a.1.1,0,0,1,.1-.1C22.9,53.8,22.9,53.6,23,53.5Z"/>
          <path class="cls-4" d="M10.2,50.5H0V54H9.8a4.3,4.3,0,0,0,.1-.5V53a.9.9,0,0,1,.1-.5c.1,0,.1-.1.1-.2s.1-.2.1-.4.1-.4.1-.7a1.5,1.5,0,0,0,.1-.7Z"/>
          <path class="cls-4" d="M41.5,53.3c-.1-.1-.1-.1-.1-.2s-.1-.1-.2-.2a.3.3,0,0,0-.1-.2l-.4-.5h-.2l-.3-.3-.2-.2c0-.1-.1-.1-.2-.2l-.5-.4-.3-.2-.3-.2H37.1a.1.1,0,0,1,.1.1l.6.3.8.6a.1.1,0,0,0,.1.1l.5.4.6.6.6.6.5.6c.1,0,.1,0,.1.1a.1.1,0,0,1,.1.1H42l-.3-.5C41.6,53.5,41.5,53.3,41.5,53.3Z"/>
          <path class="cls-4" d="M25.6,53.2l.6-.7h.1l.3-.2.3-.3h0l.3-.3.6-.3.7-.4.6-.3c.1,0,.2,0,.2-.1H27.5l-.8.5-.3.3-.3.2-.4.3h-.1c0,.1-.1.2-.2.3l-.3.4-.5.6-.3.5L24,54h1.2Z"/>
          <path class="cls-4" d="M38.7,53.4h0c-.1-.1-.2-.1-.2-.2l-.3-.2-.3-.2a.2.2,0,0,0-.2-.2l-.6-.4-.5-.3-.6-.2h-.1l-1.1-.2h-3l-.8.2-.7.2-.7.2h-.4c-.2.1-.5.1-.7.3h-.1l-.7.3h0c-.1,0-.1,0-.1.1h-.3l-.3.4c0,.1-.2.1-.2.3h-.2a.3.3,0,0,1-.1.2h1l.3-.2.6-.5.5-.2.5-.3h.3l.6-.3h4.5l1,.3c.1,0,.2,0,.2.1l.3.2.6.4.4.3.5.3h.1l.2.2h1.1Z"/>
          <path class="cls-4" d="M13.3,52.5a3.6,3.6,0,0,0,.2-1h0a1.4,1.4,0,0,0,.2-.6c.1-.1.1-.2.2-.4H12.5v.3l-.3.8v.3c-.1.1-.1.1-.1.2s-.1.5-.2.8h0v.4a1.7,1.7,0,0,1-.1.7H13l.3-1.4Z"/>
          <path class="cls-4" d="M16,53.2a.8.8,0,0,1,.2-.4v-.2a1.3,1.3,0,0,0,.1-.6l.3-.7a.4.4,0,0,1,.1-.3,1.7,1.7,0,0,1,.2-.5H15.5l-.2.4c-.1.1-.1.2-.1.4s-.1.3-.2.4a4.3,4.3,0,0,1-.1.5.4.4,0,0,0-.1.3c-.1.2-.1.5-.2.8s-.1.4-.1.6h1.3a.1.1,0,0,1,.1-.1A1.7,1.7,0,0,1,16,53.2Z"/>
          <path class="cls-4" d="M45.9,53.4c0-.1-.1-.1-.1-.2a4.3,4.3,0,0,1-.4-.7l-.2-.3a.1.1,0,0,1-.1-.1l-.2-.5c-.2-.2-.2-.4-.4-.5l-.3-.4h0c-.1,0-.1,0-.1-.1H43c.1.1.2.2.2.3l.2.3c.1.1.2.2.2.3a.5.5,0,0,1,.2.4,1,1,0,0,1,.4.5l.3.4a2.1,2.1,0,0,1,.4.6c0,.1.1.2.2.4h1.1a.3.3,0,0,1-.1-.2Z"/>
          <path class="cls-4" d="M18.7,52.8c0-.1.1-.2.1-.3a1.4,1.4,0,0,0,.2-.6c.1-.2.2-.3.2-.5s.2-.3.2-.5l.2-.4H18.4a.5.5,0,0,1-.2.4c-.1.2-.1.4-.2.6a.6.6,0,0,1-.1.4,1.4,1.4,0,0,1-.2.6l-.3.8a16483370939788.6,16483370939788.6,0,0,1-.2.6h1.2a4.4,4.4,0,0,1,.2-1C18.6,52.9,18.6,52.9,18.7,52.8Z"/>
          <path class="cls-4" d="M21.1,52.8a24725056409676.9,24725056409676.9,0,0,1,.2-.6,1.6,1.6,0,0,0,.4-.7c.1-.2.1-.4.3-.5l.3-.4H21.1l-.4.6a.5.5,0,0,1-.2.4,4.3,4.3,0,0,1-.1.5c-.1.1-.1.2-.1.4s-.1.3-.2.5-.1.2-.1.3l-.2.5V54h1a2.4,2.4,0,0,1,.2-.8C21,53,21,52.9,21.1,52.8Z"/>
          <path class="cls-4" d="M35.7,53.6h-.4l-.4-.2h-4l-.6.3a1.1,1.1,0,0,0-.6.2H32l.4-.2h1.1c.1-.1.2,0,.3,0h.8a.5.5,0,0,1,.4.2h1.1Z"/>
          <path class="cls-4" d="M102.3,50.5H45.6a.3.3,0,0,0,.1.2,2.1,2.1,0,0,0,.4.6,4.3,4.3,0,0,1,.4.7l.3.5.3.7h.1c0,.1.1.2.1.3a.3.3,0,0,0,.1.2V54c.1,0,.1,0,.1.1h54.8Z"/>
        </g>
      </g>
    </g>
  </g>
</svg>
