<svg xmlns="http://www.w3.org/2000/svg" width="95.2" height="47.9" viewBox="0 0 95.2 47.9">
  <defs>
    <style>
      .cls-1 {
        fill: #fff;
        opacity: 0.3;
      }

      .cls-2 {
        fill: #c1574c;
      }

      .cls-3 {
        fill: none;
        stroke: #c1574c;
        stroke-miterlimit: 10;
        opacity: 0.65;
      }
    </style>
  </defs>
  <title>sound</title>
  <g id="Layer_2" data-name="Layer 2">
    <g id="Layer_1-2" data-name="Layer 1">
      <g>
        <polyline class="cls-1" points="0 47.9 0 0 95.2 0 95.2 47.9"/>
        <g>
          <path class="cls-2" d="M14.4,46.9c.1-.1.1-.3.2-.5h0a6.4,6.4,0,0,1,.2-.7,2.9,2.9,0,0,0,.2-.9.4.4,0,0,0,.1-.3l.3-.5H13.8c-.1.1-.1.3-.2.4a.8.8,0,0,0-.1.4,1.7,1.7,0,0,0-.2.5c-.1.2-.1.4-.2.6v.3c-.1.3-.1.6-.2.9s-.1.4-.2.6v.2h1.5v-.2C14.3,47.4,14.3,47.2,14.4,46.9Z"/>
          <path class="cls-2" d="M43.3,47c0-.1-.1-.1-.1-.2l-.2-.2-.2-.3-.4-.5c-.1-.1-.2-.1-.2-.2l-.3-.2c-.1-.1-.2-.2-.2-.3l-.3-.2c-.2-.2-.3-.4-.5-.5l-.4-.2-.4-.3H38.5l.7.5.8.6h.2a1.2,1.2,0,0,1,.5.5,3.4,3.4,0,0,1,.6.6l.8.7.6.6c0,.1.1.1.1.2a.3.3,0,0,1,.1.2h1a2.1,2.1,0,0,0-.4-.6Z"/>
          <path class="cls-2" d="M40.2,47.1h0l-.3-.2-.4-.3-.2-.2-.2-.2-.8-.5-.6-.2-.6-.3H37l-1.2-.2-1-.2H31.4l-.8.3-.8.2h-.4l-.8.4a.1.1,0,0,0-.1.1l-.8.3c0,.1,0,.1-.1.1s0,.1-.1.1-.2.1-.2.2l-.4.4-.3.4h-.1c-.1.1-.2.2-.2.3h1.2l.3-.4.7-.4.5-.3.6-.3.3-.2.7-.2h.3a.1.1,0,0,0,.1-.1h.3l.6-.2h3.9l1.1.4h.2l.4.2.6.4a1,1,0,0,0,.5.4l.5.3c0,.1.1.1.2.2s.1.2.2.3h1.4a.2.2,0,0,0-.2-.2Z"/>
          <path class="cls-2" d="M36.7,47.4l-.4-.2h-.5l-.9-.2H32.3l-.5.2h-.5l-.7.3-.7.2h1.8l.6-.2h.2l.5-.2h.5c0-.1.1-.1.2-.1h.5a.3.3,0,0,1,.4,0h.9l.5.2h1.5l-.3-.2Z"/>
          <path class="cls-2" d="M25.3,46.9l.7-.8h.1l.3-.3a.5.5,0,0,1,.4-.2h0l.4-.3a1.5,1.5,0,0,1,.6-.4l.7-.4.8-.3H27.4l-.8.5-.4.3-.4.2a.8.8,0,0,1-.4.4h-.1l-.2.3-.4.4-.5.7-.4.5-.3.6h1.2c0-.1.1-.1.1-.2A3.5,3.5,0,0,0,25.3,46.9Z"/>
          <path class="cls-2" d="M48.3,47.1c0-.1-.1-.1-.1-.2a2,2,0,0,1-.4-.8l-.3-.3h-.1l-.3-.6-.4-.6-.3-.4c0-.1,0-.1-.1-.2H45l.3.3.2.3c.1.1.1.3.2.4l.3.4.4.6.4.5.3.6.3.5v.2h1.3l-.2-.3A.8.8,0,0,0,48.3,47.1Z"/>
          <path class="cls-2" d="M46,47.3l-.4-.8-.3-.3a.4.4,0,0,1-.1-.3l-.4-.6c-.1-.2-.3-.3-.4-.4l-.3-.4-.3-.5a.1.1,0,0,1-.1-.1H42.1l.3.4h.2l.5.4c.1.1.1.3.2.3l.5.6.4.5.5.7c.1.1.2.2.2.3s.1.2.2.2.2.3.2.5h1c0-.2-.1-.3-.2-.5A.1.1,0,0,1,46,47.3Z"/>
          <path class="cls-2" d="M22.3,47.2l.4-.6.3-.4.5-.7.3-.3.3-.4.3-.2.3-.4c.1,0,.1-.1.2-.2H23.5l-.4.3-.4.5c-.1.1-.2.1-.2.2s-.4.3-.5.6-.2.2-.2.3l-.2.3c0,.2-.1.3-.1.4l-.3.6c0,.2-.1.4-.1.7H22c0-.1,0-.2.1-.2Z"/>
          <path class="cls-2" d="M17.4,46.4l.2-.3.3-.7c0-.2.1-.3.2-.5s.1-.4.2-.6.1-.3.2-.4H17.2l-.2.4c-.2.2-.2.5-.3.7a.7.7,0,0,0-.1.5,1.4,1.4,0,0,0-.2.6,3,3,0,0,0-.4,1,.4.4,0,0,1-.1.3c0,.1-.1.2-.1.3v.2h1.3c.1-.4.1-.8.2-1.2A.4.4,0,0,0,17.4,46.4Z"/>
          <path class="cls-2" d="M20.2,46.4c.1,0,.1-.1.1-.2s.1-.3.2-.4l.3-.8a2.1,2.1,0,0,1,.4-.6l.3-.4H20.2c-.1.3-.3.5-.4.8a.8.8,0,0,0-.2.4,1.4,1.4,0,0,0-.2.6c-.1.1-.1.2-.2.4a1.4,1.4,0,0,1-.2.6.4.4,0,0,1-.1.3,4.3,4.3,0,0,1-.1.5.6.6,0,0,0-.1.4h1.1a4.4,4.4,0,0,0,.2-1Z"/>
          <path class="cls-2" d="M11.4,46.1c.1-.4.1-.7.2-1.1h0a1.4,1.4,0,0,0,.2-.7.8.8,0,0,0,.2-.4H10.5c0,.1-.1.2-.1.3l-.3.9v.3a.4.4,0,0,0-.1.3,2.9,2.9,0,0,0-.2.9h0V47a2.8,2.8,0,0,0-.1.9H11a10.5,10.5,0,0,1,.4-1.7Z"/>
          <path class="cls-2" d="M46,47.3l-.4-.8-.3-.3a.4.4,0,0,1-.1-.3l-.4-.6c-.1-.2-.3-.3-.4-.4l-.3-.4-.3-.5H42.1l.3.4h.2l.5.4c.1.1.1.3.2.3l.5.6.4.5.5.7c.1.1.2.2.2.3s.1.2.2.2.2.3.2.5h1l-.2-.5A.1.1,0,0,1,46,47.3Z"/>
          <path class="cls-2" d="M22.3,47.2l.4-.6.3-.4.5-.7.3-.3.3-.4.3-.2.3-.4c.1,0,.1-.1.2-.2H23.5l-.4.3-.4.5c-.1.1-.2.1-.2.2s-.4.3-.5.6-.2.2-.2.3l-.2.3c0,.2-.1.3-.1.4l-.3.6c0,.2-.1.4-.1.7H22c0-.1,0-.2.1-.2Z"/>
          <path class="cls-2" d="M7.8,43.9H0v4H7.4c0-.2.1-.4.1-.6v-.6a.7.7,0,0,1,.2-.6v-.2a.8.8,0,0,0,.1-.4c.1-.3.1-.6.2-.9s.1-.5.1-.7Z"/>
          <path class="cls-2" d="M43.3,47c0-.1-.1-.1-.1-.2l-.2-.2-.2-.3-.4-.5c-.1-.1-.2-.1-.2-.2l-.3-.2c-.1-.1-.2-.2-.2-.3l-.3-.2c-.2-.2-.3-.4-.5-.5l-.4-.2-.4-.3H38.5l.7.5.8.6h.2a1.2,1.2,0,0,1,.5.5,3.4,3.4,0,0,1,.6.6l.8.7.6.6c0,.1.1.1.1.2a.3.3,0,0,1,.1.2h1a2.1,2.1,0,0,0-.4-.6Z"/>
          <path class="cls-2" d="M25.3,46.9l.7-.8h.1l.3-.3a.5.5,0,0,1,.4-.2h0l.4-.3a1.5,1.5,0,0,1,.6-.4l.7-.4.8-.3H27.4l-.8.5-.4.3-.4.2a.8.8,0,0,1-.4.4h-.1l-.2.3-.4.4-.5.7-.4.5-.3.6h1.2c0-.1.1-.1.1-.2A3.5,3.5,0,0,0,25.3,46.9Z"/>
          <path class="cls-2" d="M40.2,47.1h0l-.3-.2-.4-.3-.2-.2-.2-.2-.8-.5-.6-.2-.6-.3H37l-1.2-.2-1-.2H31.4l-.8.3-.8.2h-.4l-.8.4a.1.1,0,0,0-.1.1l-.8.3c0,.1,0,.1-.1.1s0,.1-.1.1-.2.1-.2.2l-.4.4-.3.4h-.1c-.1.1-.2.2-.2.3h1.2l.3-.4.7-.4.5-.3.6-.3.3-.2.7-.2h.3a.1.1,0,0,0,.1-.1h.3l.6-.2h3.9l1.1.4h.2l.4.2.6.4a1,1,0,0,0,.5.4l.5.3c0,.1.1.1.2.2s.1.2.2.3h1.4a.2.2,0,0,0-.2-.2Z"/>
          <path class="cls-2" d="M11.4,46.1c.1-.4.1-.7.2-1.1h0a1.4,1.4,0,0,0,.2-.7.8.8,0,0,0,.2-.4H10.5c0,.1-.1.2-.1.3l-.3.9v.3a.4.4,0,0,0-.1.3,2.9,2.9,0,0,0-.2.9h0V47a2.8,2.8,0,0,0-.1.9H11a10.5,10.5,0,0,1,.4-1.7Z"/>
          <path class="cls-2" d="M14.4,46.9c.1-.1.1-.3.2-.5h0a6.4,6.4,0,0,1,.2-.7,2.9,2.9,0,0,0,.2-.9.4.4,0,0,0,.1-.3l.3-.5H13.8c-.1.1-.1.3-.2.4a.8.8,0,0,0-.1.4,1.7,1.7,0,0,0-.2.5c-.1.2-.1.4-.2.6v.3c-.1.3-.1.6-.2.9s-.1.4-.2.6v.2h1.5v-.2C14.3,47.4,14.3,47.2,14.4,46.9Z"/>
          <path class="cls-2" d="M48.3,47.1c0-.1-.1-.1-.1-.2a2,2,0,0,1-.4-.8l-.3-.3h-.1l-.3-.6-.4-.6-.3-.4c0-.1,0-.1-.1-.2H45l.3.3.2.3c.1.1.1.3.2.4l.3.4.4.6.4.5.3.6.3.5v.2h1.2a.4.4,0,0,0-.1-.3A.8.8,0,0,0,48.3,47.1Z"/>
          <path class="cls-2" d="M17.4,46.4l.2-.3.3-.7c0-.2.1-.3.2-.5s.1-.4.2-.6.1-.3.2-.4H17.1c0,.1-.1.3-.1.4s-.2.5-.3.7a.7.7,0,0,0-.1.5,1.4,1.4,0,0,0-.2.6,3,3,0,0,0-.4,1,.4.4,0,0,1-.1.3c0,.1-.1.2-.1.3v.2h1.3c.1-.4.1-.8.2-1.2A.4.4,0,0,0,17.4,46.4Z"/>
          <path class="cls-2" d="M20.2,46.4c.1,0,.1-.1.1-.2s.1-.3.2-.4l.3-.8a2.1,2.1,0,0,1,.4-.6l.3-.4H20.2c-.1.3-.3.5-.4.8a.8.8,0,0,0-.2.4,1.4,1.4,0,0,0-.2.6c-.1.1-.1.2-.2.4a1.4,1.4,0,0,1-.2.6.4.4,0,0,1-.1.3,4.3,4.3,0,0,1-.1.5c-.1.1-.1.2-.1.4h1.1a4.4,4.4,0,0,0,.2-1Z"/>
          <path class="cls-2" d="M36.7,47.4l-.4-.2h-.5l-.9-.2H32.3l-.5.2h-.5l-.7.3-.7.2h1.8l.6-.2h.2l.5-.2h.5c0-.1.1-.1.2-.1h.5a.3.3,0,0,1,.4,0h.9l.5.2h1.4a.2.2,0,0,0-.2-.2Z"/>
          <path class="cls-2" d="M95.2,43.9H47.9l.2.2.4.6a3.5,3.5,0,0,1,.5.8l.3.6.3.8a.1.1,0,0,1,.1.1l.2.3a.4.4,0,0,0,.1.3v.2c.1,0,.1,0,.1.1H95.2Z"/>
        </g>
        <path class="cls-3" d="M29.2,38.4a18.6,18.6,0,0,1,37.2-.5"/>
        <circle class="cls-3" cx="47.9" cy="38.1" r="2.1" transform="translate(-0.4 0.6) rotate(-0.7)"/>
        <path class="cls-3" d="M40.5,38.2a7.3,7.3,0,1,1,14.6-.1"/>
        <path class="cls-3" d="M35,38.3A12.8,12.8,0,1,1,60.6,38"/>
      </g>
    </g>
  </g>
</svg>
