<svg xmlns="http://www.w3.org/2000/svg" width="264.3" height="41.8" viewBox="0 0 264.3 41.8">
  <defs>
    <style>
      .cls-1 {
        fill: none;
      }

      .cls-2, .cls-3 {
        fill: #231f20;
      }

      .cls-3 {
        stroke: #231f20;
        stroke-miterlimit: 10;
        stroke-width: 0.5px;
      }
    </style>
  </defs>
  <title>sws_logo</title>
  <g id="wood">
    <g>
      <path class="cls-1" d="M216.6,435.5c.1-.4.3-.8.4-1.2a.9.9,0,0,0,.1-.5c.2-.6.3-1.2.5-1.7l.6-2.2c.1-.3.1-.5.2-.8a6.1,6.1,0,0,0,.7-1.4h-4l-.6,1.1a3,3,0,0,0-.4,1,6.5,6.5,0,0,1-.4,1.3c-.1.5-.3,1-.4,1.5s-.1.4-.2.6a8.6,8.6,0,0,1-.5,2.3,10.1,10.1,0,0,0-.3,1.7.4.4,0,0,1-.1.3.4.4,0,0,1-.1.3H216l.2-.5A10.6,10.6,0,0,1,216.6,435.5Z" transform="translate(-158.8 -396.1)"/>
      <path class="cls-1" d="M289.9,435.6l-.2-.3-.5-.7-.5-.7-1.2-1.3-.4-.5-.8-.6-.5-.6-.7-.6a5.3,5.3,0,0,0-1.4-1.2l-.9-.5-1-.8a.1.1,0,0,1-.1-.1h-4.3c0,.1.1.1.2.2l1.8,1,2.2,1.7c.1.1.2.3.4.3a5.3,5.3,0,0,1,1.4,1.1c.6.5,1,1.1,1.5,1.6l1.9,1.8,1.5,1.7.4.3.3.5h2.5a7.8,7.8,0,0,0-1-1.5A2.4,2.4,0,0,1,289.9,435.6Z" transform="translate(-158.8 -396.1)"/>
      <path class="cls-1" d="M282.1,435.9H282l-.8-.7-.8-.7a1.8,1.8,0,0,1-.7-.5c-.2-.2-.3-.4-.6-.5l-1.9-1.2-1.4-.7-1.7-.7-.3-.2-3-.6a19.7,19.7,0,0,0-2.4-.3h-4.3l-2,.2a8.5,8.5,0,0,0-2.3.4,16.6,16.6,0,0,1-2.1.6l-2,.6-1,.4a7,7,0,0,0-2,.8l-.4.2-2,1v.2l-.3.3-.7.4-.8,1c-.3.3-.7.5-.9.9s-.2.3-.3.4l-.6.7h3.1a3,3,0,0,1,.8-.8l1.8-1.3,1.3-.7,1.4-.7,1-.4,1.8-.7.5-.2h1.1l1.5-.5,1.3-.2h.7a5,5,0,0,1,1.7-.1,7.5,7.5,0,0,1,1.5,0h2.7a2.2,2.2,0,0,1,.8,0l1.2.2,2.9.9.5.2.9.6,1.6,1.1,1.2.9,1.3.9.4.3.7.8h3.6l-.5-.6C283,436.8,282.4,436.5,282.1,435.9Z" transform="translate(-158.8 -396.1)"/>
      <path class="cls-1" d="M273.2,436.6l-1-.4-1.4-.4-2.2-.4H268l-2-.2h-1.4l-.9.2-1.8.3a5.3,5.3,0,0,0-1.2.3l-1.2.3-1.9.7a4.6,4.6,0,0,0-1.6.7h4.4l1.6-.4h.5l1.2-.4,1.2-.2h1.9a4.1,4.1,0,0,1,1.1,0l2.3.4,1.1.4.7.3h3.1l-.7-.5A12.5,12.5,0,0,0,273.2,436.6Z" transform="translate(-158.8 -396.1)"/>
      <path class="cls-1" d="M244.3,435.4a7.4,7.4,0,0,1,1.6-1.9c.1-.1.2-.2.2-.3l.9-.8a4.3,4.3,0,0,1,1-.7h.1l.8-.8a5.4,5.4,0,0,1,1.6-1l2-1,1.9-.9.6-.3h-5.3a8.8,8.8,0,0,0-2.3,1.4l-1,.8a1.4,1.4,0,0,0-.8.5l-1,.9-.3.2-.7.9a4.8,4.8,0,0,1-.9,1.1,6.5,6.5,0,0,0-1.3,1.6l-1,1.4a6.1,6.1,0,0,0-.7,1.4h3c.1-.1.1-.3.2-.4S243.9,436.1,244.3,435.4Z" transform="translate(-158.8 -396.1)"/>
      <path class="cls-1" d="M302.6,435.9l-.3-.4a12.8,12.8,0,0,0-1.1-2l-.7-1v-.2l-.8-1.5a4.5,4.5,0,0,0-1-1.4,7.5,7.5,0,0,1-.7-1.2c-.1-.1-.1-.2-.3-.3l-.2-.2h-3.5l.3.3c0,.1.1.2.1.3s.4.5.6.8a2.2,2.2,0,0,1,.5.8,3.6,3.6,0,0,1,.7,1l.6.9,1.1,1.5.9,1.3c.3.5.7,1,1,1.6a4.3,4.3,0,0,1,.5,1.2.8.8,0,0,1,.2.5h3.1l-.3-.8Z" transform="translate(-158.8 -396.1)"/>
      <path class="cls-1" d="M296.7,436.3a17.4,17.4,0,0,0-1.1-1.8l-.7-.9-.3-.7a5.4,5.4,0,0,0-1-1.6,8.7,8.7,0,0,1-.8-1l-.9-1.1a4.1,4.1,0,0,1-.7-1.1l-.3-.4h-4.1a4.7,4.7,0,0,0,1,1l.3.3,1.3,1.2.6.8,1.2,1.3a11.3,11.3,0,0,0,1,1.3l1.2,1.8.7.9.3.5a4.1,4.1,0,0,1,.7,1.1h2.6l-.8-1.2Z" transform="translate(-158.8 -396.1)"/>
      <path class="cls-1" d="M236.7,436.3l.9-1.5.7-1.1,1.5-1.8.6-.8.8-.9.6-.7.9-.9c.2-.1.3-.3.5-.5a1,1,0,0,0,.5-.4H240l-.3.3-.9.9-1.2,1.2c-.1.1-.4.2-.5.4a18.3,18.3,0,0,0-1.3,1.6c-.1.3-.4.5-.5.7a3,3,0,0,0-.4,1,3.6,3.6,0,0,1-.4.9,9.4,9.4,0,0,0-.6,1.5,8.5,8.5,0,0,0-.4,1.7h2.3c.1-.2.1-.4.3-.5A3.9,3.9,0,0,1,236.7,436.3Z" transform="translate(-158.8 -396.1)"/>
      <path class="cls-1" d="M224.3,434.2l.3-.8a13.4,13.4,0,0,0,.7-1.8l.6-1.3c.2-.5.3-1,.5-1.4l.5-1.2h-3.4a2.2,2.2,0,0,1-.5,1.1c-.3.5-.2,1.2-.6,1.8a4.5,4.5,0,0,0-.3,1.1l-.6,1.8c-.3.7-.5,1.5-.8,2.3l-.3.8-.3.9v.4h3.3a13.6,13.6,0,0,1,.6-2.9Z" transform="translate(-158.8 -396.1)"/>
      <path class="cls-1" d="M231.3,434.3l.3-.8a3.6,3.6,0,0,1,.4-.9l.9-2c.3-.5.4-1.1.9-1.5s.5-.7.8-1.1l.2-.3h-3.4v.2l-1.1,1.9a4.5,4.5,0,0,0-.6,1.2c-.1.4-.3.8-.4,1.3l-.3,1a8.8,8.8,0,0,0-.5,1.5,3.8,3.8,0,0,0-.3,1,6.1,6.1,0,0,0-.5,1.2,2.9,2.9,0,0,1-.2.9h2.9a23.8,23.8,0,0,0,.5-2.6A3.1,3.1,0,0,1,231.3,434.3Z" transform="translate(-158.8 -396.1)"/>
      <path class="cls-1" d="M208.9,433.3c.2-.9.3-1.8.5-2.7h0c.2-.5.5-1.1.7-1.7s.3-.8.4-1.2h-3.9c-.1.3-.1.5-.2.8a21,21,0,0,0-.6,2.4l-.3.8-.3.6a17,17,0,0,1-.4,2.2v1.2l-.3,2.2H208c.3-1.4.5-2.8.8-4.2Z" transform="translate(-158.8 -396.1)"/>
      <path d="M296.7,436.3a17.4,17.4,0,0,0-1.1-1.8l-.7-.9-.3-.7a5.4,5.4,0,0,0-1-1.6,8.7,8.7,0,0,1-.8-1l-.9-1.1a4.1,4.1,0,0,1-.7-1.1l-.3-.3h-4.1l1,.9.3.3,1.3,1.2.6.8,1.2,1.3a11.3,11.3,0,0,0,1,1.3l1.2,1.8.7.9.3.5a6.1,6.1,0,0,1,.7,1h2.5l-.7-1.1Z" transform="translate(-158.8 -396.1)"/>
      <path d="M236.7,436.3l.9-1.5.7-1.1,1.5-1.8.6-.8.8-.9.6-.7.9-.9c.2-.1.3-.3.5-.5l.5-.3h-3.8l-.2.2-.9.9-1.2,1.2c-.1.1-.4.2-.5.4a18.3,18.3,0,0,0-1.3,1.6c-.1.3-.4.5-.5.7a3,3,0,0,0-.4,1,3.6,3.6,0,0,1-.4.9,12.1,12.1,0,0,0-1,3.1h2.3c.1-.1.1-.3.3-.4A3.9,3.9,0,0,1,236.7,436.3Z" transform="translate(-158.8 -396.1)"/>
      <path d="M199.8,427.8H159.3v10h39.4l.3-1.4a7.6,7.6,0,0,0,.1-1.5,2.1,2.1,0,0,1,.3-1.5c.2-.1.2-.4.2-.6a3.6,3.6,0,0,0,.2-1,15.5,15.5,0,0,0,.4-2.1,12.9,12.9,0,0,1,.4-1.9Z" transform="translate(-158.8 -396.1)"/>
      <path d="M289.9,435.6l-.2-.3-.5-.7-.5-.7-1.2-1.3-.4-.5-.8-.6-.5-.6-.7-.6a5.3,5.3,0,0,0-1.4-1.2l-.9-.5-1-.8h-4.2l1.8,1,2.2,1.7c.1.1.2.3.4.3a5.3,5.3,0,0,1,1.4,1.1c.6.5,1,1.1,1.5,1.6l1.9,1.8,1.5,1.7.4.3.3.4h2.5c-.4-.4-.6-1-1-1.4A2.4,2.4,0,0,1,289.9,435.6Z" transform="translate(-158.8 -396.1)"/>
      <path d="M244.3,435.4a7.4,7.4,0,0,1,1.6-1.9c.1-.1.2-.2.2-.3l.9-.8a4.3,4.3,0,0,1,1-.7h.1l.8-.8a5.4,5.4,0,0,1,1.6-1l2-1,1.9-.9.6-.2h-5.4a9.8,9.8,0,0,0-2.2,1.3l-1,.8a1.4,1.4,0,0,0-.8.5l-1,.9-.3.2-.7.9a4.8,4.8,0,0,1-.9,1.1,6.5,6.5,0,0,0-1.3,1.6l-1,1.4a8.3,8.3,0,0,0-.7,1.3h3l.2-.3C243.4,436.8,243.9,436.1,244.3,435.4Z" transform="translate(-158.8 -396.1)"/>
      <path d="M282.1,435.9H282l-.8-.7-.8-.7a1.8,1.8,0,0,1-.7-.5c-.2-.2-.3-.4-.6-.5l-1.9-1.2-1.4-.7-1.7-.7-.3-.2-3-.6a19.7,19.7,0,0,0-2.4-.3h-4.3l-2,.2a8.5,8.5,0,0,0-2.3.4,16.6,16.6,0,0,1-2.1.6l-2,.6-1,.4a7,7,0,0,0-2,.8l-.4.2-2,1v.2l-.3.3-.7.4-.8,1c-.3.3-.7.5-.9.9s-.2.3-.3.4l-.5.6h3l.8-.7,1.8-1.3,1.3-.7,1.4-.7,1-.4,1.8-.7.5-.2h1.1l1.5-.5,1.3-.2h.7a5,5,0,0,1,1.7-.1,7.5,7.5,0,0,1,1.5,0h2.7a2.2,2.2,0,0,1,.8,0l1.2.2,2.9.9.5.2.9.6,1.6,1.1,1.2.9,1.3.9.4.3a2.3,2.3,0,0,0,.7.7h3.6l-.5-.5C283,436.8,282.4,436.5,282.1,435.9Z" transform="translate(-158.8 -396.1)"/>
      <path d="M208.9,433.3c.2-.9.3-1.8.5-2.7h0c.2-.5.5-1.1.7-1.7s.3-.8.4-1.1h-3.9a6.4,6.4,0,0,0-.2.7,21,21,0,0,0-.6,2.4l-.3.8-.3.6a17,17,0,0,1-.4,2.2v1.2l-.3,2.1H208c.3-1.3.5-2.7.8-4.1Z" transform="translate(-158.8 -396.1)"/>
      <path d="M216.6,435.5c.1-.4.3-.8.4-1.2a.9.9,0,0,0,.1-.5c.2-.6.3-1.2.5-1.7l.6-2.2c.1-.3.1-.5.2-.8a8.3,8.3,0,0,0,.7-1.3h-4l-.6,1.1a3,3,0,0,0-.4,1,6.5,6.5,0,0,1-.4,1.3c-.1.5-.3,1-.4,1.5s-.1.4-.2.6a8.6,8.6,0,0,1-.5,2.3,10.1,10.1,0,0,0-.3,1.7.4.4,0,0,1-.1.3v.2H216c.1-.1.1-.3.2-.4A10.6,10.6,0,0,1,216.6,435.5Z" transform="translate(-158.8 -396.1)"/>
      <path d="M302.6,435.9l-.3-.4a12.8,12.8,0,0,0-1.1-2l-.7-1v-.2l-.8-1.5a4.5,4.5,0,0,0-1-1.4,7.5,7.5,0,0,1-.7-1.2c-.1-.1-.1-.2-.3-.3h-3.7l.3.2c0,.1.1.2.1.3s.4.5.6.8a2.2,2.2,0,0,1,.5.8,3.6,3.6,0,0,1,.7,1l.6.9,1.1,1.5.9,1.3c.3.5.7,1,1,1.6a4.3,4.3,0,0,1,.5,1.2.8.8,0,0,1,.2.4h3.1l-.3-.7Z" transform="translate(-158.8 -396.1)"/>
      <path d="M224.3,434.2l.3-.8a13.4,13.4,0,0,0,.7-1.8l.6-1.3c.2-.5.3-1,.5-1.4a11.7,11.7,0,0,1,.5-1.1h-3.4a2.4,2.4,0,0,1-.5,1c-.3.5-.2,1.2-.6,1.8a4.5,4.5,0,0,0-.3,1.1l-.6,1.8c-.3.7-.5,1.5-.8,2.3l-.3.8-.3.9v.3h3.3a28,28,0,0,1,.6-2.8Z" transform="translate(-158.8 -396.1)"/>
      <path d="M231.3,434.3l.3-.8a3.6,3.6,0,0,1,.4-.9l.9-2c.3-.5.4-1.1.9-1.5s.5-.7.8-1.1.1-.2.2-.2h-3.5l-1.1,1.9a4.5,4.5,0,0,0-.6,1.2c-.1.4-.3.8-.4,1.3l-.3,1a8.8,8.8,0,0,0-.5,1.5,3.8,3.8,0,0,0-.3,1,6.1,6.1,0,0,0-.5,1.2c0,.3-.1.6-.1.8h2.9c.1-.8.3-1.6.4-2.5A3.1,3.1,0,0,1,231.3,434.3Z" transform="translate(-158.8 -396.1)"/>
      <path d="M273.2,436.6l-1-.4-1.4-.4-2.2-.4H268l-2-.2h-1.4l-.9.2-1.8.3a5.3,5.3,0,0,0-1.2.3l-1.2.3-1.9.7a4.6,4.6,0,0,0-1.6.7h4.4l1.6-.3h.5l1.2-.4,1.2-.2h1.9a4.1,4.1,0,0,1,1.1,0l2.3.4,1.1.4.5.2h3.3l-.7-.4A12.5,12.5,0,0,0,273.2,436.6Z" transform="translate(-158.8 -396.1)"/>
      <path class="cls-2" d="M423,427.8H301.6l.5.6a7.1,7.1,0,0,1,1,1.4,9.8,9.8,0,0,1,1.3,2.2l.7,1.3c.4.7.6,1.4.9,2l.3.5.4.6c0,.3.1.5.1.8s.1.3.2.5.1.1.2.2H423Z" transform="translate(-158.8 -396.1)"/>
    </g>
  </g>
  <g id="text">
    <path class="cls-3" d="M159.6,416.2a7.6,7.6,0,0,0,3.3,1c2.3,0,3.4-1.3,3.4-2.8s-1-2.5-3.1-3.4-3.7-2.2-3.7-4,1.7-3.9,4.5-3.9a6.2,6.2,0,0,1,3.3.9l-.6,1.2a4.7,4.7,0,0,0-2.9-.9,2.6,2.6,0,0,0-2.9,2.5c0,1.6,1.1,2.2,3.1,3s3.8,2.2,3.8,4.4-2,4.2-5,4.2a7,7,0,0,1-3.7-1Z" transform="translate(-158.8 -396.1)"/>
    <path class="cls-3" d="M171.9,403.4l2.5,8.3,1.3,4.6h0c.4-1.3.9-2.9,1.5-4.6l2.9-8.3h1.4l2.8,8.3,1.5,4.6h0c.3-1.3.8-2.8,1.4-4.6l2.6-8.3h1.5l-4.9,14.7h-1.3l-2.8-8.2c-.6-1.8-1.1-3.4-1.5-5h-.1a47.4,47.4,0,0,1-1.5,5l-2.9,8.2H175l-4.6-14.7Z" transform="translate(-158.8 -396.1)"/>
    <path class="cls-3" d="M195.6,400.5a1.2,1.2,0,0,1-1.2-1.3,1.3,1.3,0,0,1,1.2-1.3,1.3,1.3,0,0,1,0,2.6Zm-.7,17.6V403.4h1.5v14.7Z" transform="translate(-158.8 -396.1)"/>
    <path class="cls-3" d="M201.3,416.2a7.6,7.6,0,0,0,3.3,1c2.3,0,3.4-1.3,3.4-2.8s-1-2.5-3.1-3.4-3.7-2.2-3.7-4,1.7-3.9,4.5-3.9a6.2,6.2,0,0,1,3.3.9l-.6,1.2a4.7,4.7,0,0,0-2.9-.9,2.6,2.6,0,0,0-2.9,2.5c0,1.6,1.1,2.2,3.1,3s3.8,2.2,3.8,4.4-2,4.2-5,4.2a7,7,0,0,1-3.7-1Z" transform="translate(-158.8 -396.1)"/>
    <path class="cls-3" d="M213.3,416.2a7.6,7.6,0,0,0,3.3,1c2.3,0,3.4-1.3,3.4-2.8s-.9-2.5-3.1-3.4-3.7-2.2-3.7-4,1.7-3.9,4.5-3.9a6.2,6.2,0,0,1,3.3.9l-.6,1.2a4.5,4.5,0,0,0-2.9-.9,2.6,2.6,0,0,0-2.9,2.5c0,1.6,1.1,2.2,3.1,3s3.8,2.2,3.8,4.4-2,4.2-5,4.2a7.3,7.3,0,0,1-3.7-1Z" transform="translate(-158.8 -396.1)"/>
    <path class="cls-2" d="M227.7,403.2l1.6,6.7c.3,1.6.7,3.3.9,4.9h.1c.3-1.6.8-3.3,1.2-4.8l1.9-6.8h3.1l1.9,6.6,1.2,5h0c.3-1.6.6-3.3,1-5l1.7-6.6H246l-4.7,14.9h-3.5L236,412a46.8,46.8,0,0,1-1.1-4.7h-.1a41.1,41.1,0,0,1-1.1,4.7l-1.9,6.1h-3.5l-4.4-14.9Z" transform="translate(-158.8 -396.1)"/>
    <path class="cls-2" d="M262.7,410.5c0,5.5-3.8,7.9-7.6,7.9s-7.5-2.9-7.5-7.7,3.2-7.8,7.7-7.8S262.7,406,262.7,410.5Zm-11.2.1c0,2.9,1.4,5.1,3.7,5.1s3.7-2.1,3.7-5.1-1.1-5-3.7-5S251.5,408.2,251.5,410.6Z" transform="translate(-158.8 -396.1)"/>
    <path class="cls-2" d="M280.6,410.5c0,5.5-3.9,7.9-7.7,7.9s-7.4-2.9-7.4-7.7,3.2-7.8,7.7-7.8S280.6,406,280.6,410.5Zm-11.2.1c0,2.9,1.4,5.1,3.7,5.1s3.6-2.1,3.6-5.1-1-5-3.6-5S269.4,408.2,269.4,410.6Z" transform="translate(-158.8 -396.1)"/>
    <path class="cls-2" d="M298,396.4v17.5c0,1.5.1,3.2.1,4.2h-3.3l-.2-2.4h0a5.3,5.3,0,0,1-4.9,2.7c-3.5,0-6.4-3-6.4-7.6s3.1-7.9,6.7-7.9a4.7,4.7,0,0,1,4.2,1.9h.1v-8.4Zm-3.7,13c0-.3-.1-.7-.1-1a3.3,3.3,0,0,0-3.3-2.6c-2.4,0-3.7,2.1-3.7,4.9s1.3,4.7,3.7,4.7a3.3,3.3,0,0,0,3.2-2.7,3.6,3.6,0,0,0,.2-1.1Z" transform="translate(-158.8 -396.1)"/>
    <path class="cls-3" d="M309.4,416.2a7.6,7.6,0,0,0,3.4,1c2.3,0,3.4-1.3,3.4-2.8s-1-2.5-3.1-3.4-3.7-2.2-3.7-4,1.6-3.9,4.5-3.9a5.8,5.8,0,0,1,3.2.9l-.5,1.2a4.8,4.8,0,0,0-3-.9,2.6,2.6,0,0,0-2.8,2.5c0,1.6,1,2.2,3,3s3.8,2.2,3.8,4.4-1.9,4.2-4.9,4.2a7.7,7.7,0,0,1-3.8-1Z" transform="translate(-158.8 -396.1)"/>
    <path class="cls-3" d="M327.6,418.4c-3.8,0-6.7-3-6.7-7.5s3.3-7.8,6.9-7.8,6.8,3,6.8,7.5-3.8,7.8-7,7.8Zm.1-1.2c3,0,5.4-2.8,5.4-6.5s-1.5-6.4-5.3-6.4-5.5,3.3-5.5,6.5,2.3,6.4,5.3,6.4Z" transform="translate(-158.8 -396.1)"/>
    <path class="cls-3" d="M338.9,396.3h1.5v21.8h-1.5Z" transform="translate(-158.8 -396.1)"/>
    <path class="cls-3" d="M357.4,414.5c0,1.3,0,2.4.1,3.6h-1.4v-2.7h-.1a5.6,5.6,0,0,1-5,3c-1.8,0-5-.9-5-6.5v-8.5h1.5v8.3c0,3.1,1,5.4,3.9,5.4a4.8,4.8,0,0,0,4.3-2.9,4.7,4.7,0,0,0,.3-1.7v-9.1h1.5Z" transform="translate(-158.8 -396.1)"/>
    <path class="cls-3" d="M364.9,400.2v3.2h4.2v1.2h-4.2v9.5c0,1.9.6,3.1,2.1,3.1a3.4,3.4,0,0,0,1.7-.3l.2,1.1a5.4,5.4,0,0,1-2,.4,3.2,3.2,0,0,1-2.5-1,5.2,5.2,0,0,1-1-3.5v-9.3H361v-1.2h2.4v-2.7Z" transform="translate(-158.8 -396.1)"/>
    <path class="cls-3" d="M373.6,400.5a1.2,1.2,0,0,1-1.1-1.3,1.2,1.2,0,0,1,1.2-1.3,1.2,1.2,0,0,1,1.1,1.3,1.2,1.2,0,0,1-1.2,1.3Zm-.7,17.6V403.4h1.5v14.7Z" transform="translate(-158.8 -396.1)"/>
    <path class="cls-3" d="M385.4,418.4c-3.7,0-6.7-3-6.7-7.5s3.3-7.8,7-7.8,6.8,3,6.8,7.5-3.8,7.8-7,7.8Zm.1-1.2c3.1,0,5.5-2.8,5.5-6.5s-1.5-6.4-5.4-6.4-5.4,3.3-5.4,6.5,2.3,6.4,5.3,6.4Z" transform="translate(-158.8 -396.1)"/>
    <path class="cls-3" d="M396.8,406.9c0-1.3,0-2.3-.1-3.5h1.4V406h0a5.6,5.6,0,0,1,5.1-2.9c1.4,0,5.1.7,5.1,6.2v8.8h-1.5v-8.7c0-2.7-1-5.1-4-5.1a4.7,4.7,0,0,0-4.4,3.4,4.4,4.4,0,0,0-.2,1.3v9.1h-1.5Z" transform="translate(-158.8 -396.1)"/>
    <path class="cls-3" d="M413.2,416.2a7.6,7.6,0,0,0,3.3,1c2.3,0,3.4-1.3,3.4-2.8s-.9-2.5-3.1-3.4-3.7-2.2-3.7-4,1.7-3.9,4.5-3.9a6.2,6.2,0,0,1,3.3.9l-.6,1.2a4.5,4.5,0,0,0-2.9-.9,2.5,2.5,0,0,0-2.8,2.5c0,1.6,1,2.2,3,3s3.8,2.2,3.8,4.4-2,4.2-5,4.2a7.3,7.3,0,0,1-3.7-1Z" transform="translate(-158.8 -396.1)"/>
  </g>
</svg>
