<svg xmlns="http://www.w3.org/2000/svg" width="30" height="24.3" viewBox="0 0 30 24.3">
  <defs>
    <style>
      .cls-1 {
        fill: #c1574c;
      }
    </style>
  </defs>
  <title>quotemarks-red</title>
  <g id="Layer_2" data-name="Layer 2">
    <g id="wood">
      <path class="cls-1" d="M1.8,22.5A5.7,5.7,0,0,1,0,18.2a9,9,0,0,1,.4-2.8A24.8,24.8,0,0,1,2,11.5L7.5,0h6.1L10.1,13.1a5.8,5.8,0,0,1,2.7,5.1A5.7,5.7,0,0,1,11,22.5a6.5,6.5,0,0,1-4.6,1.8A6.3,6.3,0,0,1,1.8,22.5Zm16.4,0a5.7,5.7,0,0,1-1.8-4.3,9,9,0,0,1,.4-2.8,36.3,36.3,0,0,1,1.5-3.9L23.9,0H30L26.5,13.1a5.8,5.8,0,0,1,2.7,5.1,5.4,5.4,0,0,1-1.9,4.3,6.1,6.1,0,0,1-4.5,1.8A6.2,6.2,0,0,1,18.2,22.5Z"/>
    </g>
  </g>
</svg>
